<?xml version="1.0" encoding="UTF-8"?>
<svg xmlns="http://www.w3.org/2000/svg" xmlns:xlink="http://www.w3.org/1999/xlink" viewBox="0 0 257.67 159.88">
  <defs>
    <style>
      .cls-1 {
        fill: url(#linear-gradient-2);
        mix-blend-mode: multiply;
        opacity: .15;
      }

      .cls-2 {
        isolation: isolate;
      }

      .cls-3 {
        fill: #fff;
        opacity: .5;
      }

      .cls-4 {
        fill: url(#linear-gradient-3);
      }

      .cls-5 {
        fill: url(#linear-gradient);
      }
    </style>
    <linearGradient id="linear-gradient" x1="128.39" y1="3.57" x2="128.39" y2="158.04" gradientUnits="userSpaceOnUse">
      <stop offset="0" stop-color="#f1f2f2"/>
      <stop offset=".26" stop-color="#e9eaea"/>
      <stop offset=".65" stop-color="#d4d6d7"/>
      <stop offset="1" stop-color="#bcbec0"/>
    </linearGradient>
    <linearGradient id="linear-gradient-2" x1="127.93" y1="55.94" x2="127.93" y2="155.72" gradientUnits="userSpaceOnUse">
      <stop offset="0" stop-color="#f1f2f2"/>
      <stop offset=".3" stop-color="#dbdcdd"/>
      <stop offset=".93" stop-color="#a3a5a7"/>
      <stop offset="1" stop-color="#9d9fa1"/>
    </linearGradient>
    <linearGradient id="linear-gradient-3" x1="128.83" y1="5.17" x2="128.83" y2="160.23" gradientUnits="userSpaceOnUse">
      <stop offset="0" stop-color="#e6e7e8"/>
      <stop offset=".19" stop-color="#dedfe0"/>
      <stop offset=".48" stop-color="#c8c9ca"/>
      <stop offset=".84" stop-color="#a4a5a7"/>
      <stop offset="1" stop-color="#939496"/>
    </linearGradient>
  </defs>
  <g class="cls-2">
    <g id="_레이어_2" data-name="레이어 2">
      <g id="Layer_1" data-name="Layer 1">
        <g>
          <g>
            <path class="cls-5" d="m28.32,53.65S26.59,14.85,71.43,3.64c44.84-11.21,70.27,18.97,70.27,18.97,0,0,9.48-12.07,24.57-6.04,15.09,6.04,14.62,18.67,14.62,18.67,0,0,16.43-7.89,33.67,5.47,17.25,13.36,16.81,26.3,16.81,26.3,0,0,28.45,11.64,24.57,39.23-3.89,27.59-34.39,22.53-38.28,13.05-.43,9.05-19.06,30.93-50.54,13.68-11.64,18.54-43.11,29.75-65.1,24.14-21.99-5.61-28.23-13.25-28.23-13.25,0,0-21.64,16.57-52.83-7.02-25.28-19.12-10.78-41.82-10.78-41.82,0,0-16.94-15.18-6.16-33.64,6.32-10.82,24.27-7.75,24.27-7.75Z"/>
            <path class="cls-1" d="m138.98,85.86c-51.4,9.5-90.31-13.23-113.71-33.65-5.2-.38-16.84-.24-21.68,8.04-10.78,18.45,6.16,33.63,6.16,33.63,0,0-14.51,22.7,10.78,41.82,31.18,23.59,52.89,7.66,52.89,7.66,0,0,6.17,6.99,28.16,12.6,21.99,5.61,53.46-5.6,65.1-24.14,31.47,17.25,50.11-4.63,50.54-13.68,3.88,9.49,34.39,14.55,38.27-13.05.41-2.9.44-5.61.21-8.16-28.16-15.83-65.93-20.47-116.73-11.08Z"/>
            <path class="cls-4" d="m232.84,66.05c-.3-3.61-2.49-14.87-17.32-26.36-6.53-5.06-13.66-7.62-21.23-7.62-3.51,0-6.53.56-8.87,1.21-.01,0-.02,0-.04,0-1.02.23-1.96.52-2.84.87-.7-4.59-3.61-13.97-15.42-18.69-2.99-1.19-6-1.8-8.93-1.8-8.07,0-13.69,4.47-16.12,6.86C137.31,15.62,119.95,0,91.72,0c-6.49,0-13.19.86-19.91,2.54C34.16,11.95,28.27,37.77,29.05,52.3h0c-7.24-1.15-20.95,1.04-25.27,8.43-9.69,16.6,1.92,30.82,5.49,34.59-2.62,5.13-10.9,25.45,11.8,42.62,11.18,8.46,22.39,12.74,33.32,12.74,10.09,0,17.03-3.67,19.76-5.44,2.69,2.55,10.59,8.67,28.08,13.12,3.88,1,8.14,1.5,12.62,1.5,20.73,0,43.16-10.61,53.06-24.89,7.58,3.93,14.91,5.92,21.82,5.92,15.5,0,27.44-11.26,28.2-19.4,1.71,5.03,9.69,6.42,15.91,6.42,10.17,0,21.16-5.2,23.45-21.51,3.57-25.36-19.3-37.87-24.45-40.35Zm21.06,39.87c-2.5,17.79-16.51,19.18-20.75,19.18-6.41,0-13.22-1-16.56-9.4.42,2.46-.55,5.72-1.83,8.36-3.23,6.12-12.56,13.41-25.04,13.41-6.48,0-13.43-1.96-20.67-5.78.84-2.67,1.62-6.69,1.9-12.77-1.9,6.13-3.29,9.85-5.21,13.08-8.89,13.94-30.71,24.44-50.91,24.44-4.21,0-8.17-.47-11.78-1.38-12.92-3.3-19.58-6.83-22.79-9.06,0,0,0,0,0,0-5.15-4.35-8.12-7.12-12.56-16.04,1.85,6.53,3.66,10.57,5.21,13.08-2.55,1.3-9.35,4.23-18.54,4.23-10.17,0-20.68-4.05-31.25-12.04-20.36-15.4-13.6-32.91-11.07-37.9,0,0,0,0,0,0,3.79-6.02,5.43-7.19,7.51-8.49-3.87,1.14-6.36,2.89-7.81,4.18-3.02-3.15-13.64-15.81-5.04-30.53,3.51-6,11.2-7.26,17.03-7.26,3.08,0,5.31.38,5.33.38l.75.13c1.12,4.33,3.16,9.69,3.05,9.36-.87-3.55-1.49-7.29-1.8-10.94v-.31c-.03-.38-1.17-37.29,41.54-47.97,6.45-1.61,12.87-2.43,19.08-2.43,28.08,0,46.52,17.92,50,21.6.17.19.36.38.53.57.04.05.06.07.07.08h0c2.83,3.15,5.47,6.94,8.08,12.59-1.94-7-4.41-11.71-6.48-14.75,1.57-1.68,6.68-6.44,14.26-6.44,2.5,0,5.08.52,7.66,1.56,10.86,4.34,13.85,13.07,14.62,16.46-2.11,1.12-3.99,2.61-6.07,4.45,3.55-2.01,6.33-3.05,6.33-3.05.06-.03,6.44-1.77,13.71-1.77,6.79,0,13.08,3.09,18.99,7.66,12.7,9.85,15.35,19.42,15.9,23.11-5.01-.94-13.99-1.89-23.11.82,6.53-1.51,17.66-.06,24.58,2.55,2.73,1.21,26.55,12.59,23.11,37.05Z"/>
          </g>
          <path class="cls-3" d="m227.85,69.75c-4.98-1.31-13.99-1.88-23.1.82,6.53-1.5,17.66-.06,24.59,2.55,2.47,1.1,22.18,10.51,23.39,30.38,1.18-22.37-20.78-32.87-23.39-34.03-.52-.2-1.07-.38-1.63-.57.06.31,0,0,.15.85Z"/>
          <path class="cls-3" d="m157.95,22.09c2.3,0,4.67.48,7.05,1.44,7.69,3.08,11.97,8,13.46,11.78.3-.18.59-.36.89-.52-.71-3.11-4.35-10.62-14.35-14.62-2.38-.96-4.75-1.44-7.05-1.44-6.98,0-11.2,3.89-12.53,5.31.42.62.84,1.46,1.28,2.24,2.18-1.91,5.71-4.18,11.25-4.18Z"/>
          <path class="cls-3" d="m32.61,53.42c.02.22.05.44.07.66.61-8.44,5.33-35.2,40.19-43.92,6.25-1.56,12.47-2.35,18.49-2.35,27.22,0,45.09,17.37,48.46,20.93.17.18.35.37.52.56.04.05.06.07.07.08h0c2.74,3.05,5.68,6.02,8.83,11.73-2.12-6.23-3.89-8.92-5.97-11.72-.94-1.3-1.89-2.47-2.86-3.56h0s-.03-.03-.07-.08c-.17-.19-.35-.37-.52-.56-3.37-3.56-21.25-20.93-48.46-20.93-6.02,0-12.24.8-18.49,2.36-41.39,10.35-40.29,46.13-40.27,46.49l.02.31Z"/>
          <path class="cls-3" d="m213.09,43.78c-5.65-4.37-11.25-6.86-18.14-7.32,0,0-11.93-.95-20.1,5.33,3.39-1.92,9.14-2.12,9.14-2.12.06-.02,4.32-1.12,11.21-.34,6.09.69,12.24,3.57,17.89,7.94,7.51,5.82,11.33,11.54,13.28,15.89.48.03.93.1,1.36.2-1.24-4.41-4.74-11.91-14.64-19.59Z"/>
        </g>
      </g>
    </g>
  </g>
</svg>