<?xml version="1.0" encoding="UTF-8"?>
<svg xmlns="http://www.w3.org/2000/svg" xmlns:xlink="http://www.w3.org/1999/xlink" viewBox="0 0 255.58 205.34">
  <defs>
    <style>
      .cls-1 {
        fill: url(#linear-gradient-6);
      }

      .cls-2 {
        fill: url(#linear-gradient-2);
      }

      .cls-2, .cls-3, .cls-4, .cls-5, .cls-6 {
        mix-blend-mode: multiply;
      }

      .cls-2, .cls-5 {
        opacity: .15;
      }

      .cls-7 {
        isolation: isolate;
      }

      .cls-8 {
        fill: #fff;
        opacity: .5;
      }

      .cls-9 {
        fill: url(#radial-gradient);
      }

      .cls-3 {
        fill: url(#linear-gradient-5);
      }

      .cls-4 {
        opacity: .45;
      }

      .cls-5 {
        fill: url(#linear-gradient-7);
      }

      .cls-10 {
        opacity: .67;
      }

      .cls-11 {
        fill: url(#linear-gradient-3);
      }

      .cls-12 {
        fill: url(#linear-gradient);
      }

      .cls-13 {
        fill: url(#linear-gradient-4);
      }

      .cls-14 {
        fill: url(#linear-gradient-8);
      }

      .cls-6 {
        fill: url(#radial-gradient-2);
        opacity: .42;
      }
    </style>
    <linearGradient id="linear-gradient" x1="156.46" y1="51.93" x2="156.46" y2="168.92" gradientUnits="userSpaceOnUse">
      <stop offset="0" stop-color="#f1f2f2"/>
      <stop offset=".26" stop-color="#e9eaea"/>
      <stop offset=".65" stop-color="#d4d6d7"/>
      <stop offset="1" stop-color="#bcbec0"/>
    </linearGradient>
    <linearGradient id="linear-gradient-2" x1="156.12" y1="91.59" x2="156.12" y2="167.17" gradientUnits="userSpaceOnUse">
      <stop offset="0" stop-color="#f1f2f2"/>
      <stop offset=".3" stop-color="#dbdcdd"/>
      <stop offset=".93" stop-color="#a3a5a7"/>
      <stop offset="1" stop-color="#9d9fa1"/>
    </linearGradient>
    <linearGradient id="linear-gradient-3" x1="156.8" y1="53.14" x2="156.8" y2="170.58" gradientUnits="userSpaceOnUse">
      <stop offset="0" stop-color="#e6e7e8"/>
      <stop offset=".19" stop-color="#dedfe0"/>
      <stop offset=".48" stop-color="#c8c9ca"/>
      <stop offset=".84" stop-color="#a4a5a7"/>
      <stop offset="1" stop-color="#939496"/>
    </linearGradient>
    <radialGradient id="radial-gradient" cx="158.27" cy="103.6" fx="158.27" fy="103.6" r="106.9" gradientUnits="userSpaceOnUse">
      <stop offset="0" stop-color="#e06c00"/>
      <stop offset=".18" stop-color="#e06e00"/>
      <stop offset=".28" stop-color="#e37600"/>
      <stop offset=".37" stop-color="#e78500"/>
      <stop offset=".45" stop-color="#ed9901"/>
      <stop offset=".52" stop-color="#f5b302"/>
      <stop offset=".59" stop-color="#fed302"/>
      <stop offset=".59" stop-color="#ffd503"/>
      <stop offset=".64" stop-color="#fed507"/>
      <stop offset=".7" stop-color="#fed814"/>
      <stop offset=".77" stop-color="#fddc2a"/>
      <stop offset=".83" stop-color="#fde248"/>
      <stop offset=".89" stop-color="#fcea70"/>
      <stop offset=".96" stop-color="#faf49f"/>
      <stop offset="1" stop-color="#fafbc1"/>
    </radialGradient>
    <radialGradient id="radial-gradient-2" cx="158.27" cy="103.6" fx="158.27" fy="103.6" r="103.87" gradientUnits="userSpaceOnUse">
      <stop offset="0" stop-color="#e06c00"/>
      <stop offset=".17" stop-color="#e06e00"/>
      <stop offset=".27" stop-color="#e37600"/>
      <stop offset=".35" stop-color="#e78500"/>
      <stop offset=".42" stop-color="#ed9901"/>
      <stop offset=".49" stop-color="#f5b302"/>
      <stop offset=".55" stop-color="#fed302"/>
      <stop offset=".55" stop-color="#ffd503"/>
      <stop offset=".61" stop-color="#fed507"/>
      <stop offset=".68" stop-color="#fed814"/>
      <stop offset=".74" stop-color="#fddc2a"/>
      <stop offset=".81" stop-color="#fde248"/>
      <stop offset=".89" stop-color="#fcea70"/>
      <stop offset=".96" stop-color="#faf49f"/>
      <stop offset="1" stop-color="#fafbc1"/>
    </radialGradient>
    <linearGradient id="linear-gradient-4" x1="156.79" y1="41.37" x2="156.79" y2="156.64" gradientUnits="userSpaceOnUse">
      <stop offset="0" stop-color="#fafbc1"/>
      <stop offset=".03" stop-color="#faf49f"/>
      <stop offset=".09" stop-color="#fcea70"/>
      <stop offset=".14" stop-color="#fde248"/>
      <stop offset=".19" stop-color="#fddc2a"/>
      <stop offset=".24" stop-color="#fed814"/>
      <stop offset=".29" stop-color="#fed507"/>
      <stop offset=".34" stop-color="#ffd503"/>
      <stop offset=".46" stop-color="#fdd002"/>
      <stop offset=".59" stop-color="#f9c202"/>
      <stop offset=".73" stop-color="#f2ac01"/>
      <stop offset=".88" stop-color="#e98c00"/>
      <stop offset="1" stop-color="#e06c00"/>
    </linearGradient>
    <linearGradient id="linear-gradient-5" x1="156.81" y1="38.81" x2="156.81" y2="163.98" xlink:href="#linear-gradient-4"/>
    <linearGradient id="linear-gradient-6" x1="105.42" y1="76.61" x2="105.42" y2="203.45" xlink:href="#linear-gradient"/>
    <linearGradient id="linear-gradient-7" x1="105.05" y1="119.61" x2="105.05" y2="201.55" xlink:href="#linear-gradient-2"/>
    <linearGradient id="linear-gradient-8" x1="105.79" y1="77.92" x2="105.79" y2="205.25" xlink:href="#linear-gradient-3"/>
  </defs>
  <g class="cls-7">
    <g id="_레이어_2" data-name="레이어 2">
      <g id="Layer_1" data-name="Layer 1">
        <g>
          <g>
            <g>
              <g>
                <path class="cls-12" d="m80.67,89.85s-1.31-29.39,32.65-37.88c33.96-8.49,53.22,14.37,53.22,14.37,0,0,7.19-9.14,18.62-4.57,11.43,4.57,11.07,14.14,11.07,14.14,0,0,12.44-5.98,25.5,4.14,13.06,10.12,12.73,19.92,12.73,19.92,0,0,21.55,8.82,18.61,29.71-2.93,20.9-26.05,17.07-28.99,9.89-.33,6.85-14.44,23.42-38.28,10.36-8.81,14.04-32.65,22.53-49.31,18.29-16.65-4.24-21.37-10.03-21.37-10.03,0,0-16.39,12.55-40.02-5.32-19.14-14.48-8.16-31.67-8.16-31.67,0,0-12.83-11.5-4.67-25.47,4.79-8.2,18.39-5.87,18.39-5.87Z"/>
                <path class="cls-2" d="m164.49,114.25c-38.93,7.2-68.41-10.02-86.13-25.48-3.94-.29-12.76-.18-16.42,6.09-8.17,13.98,4.66,25.47,4.66,25.47,0,0-10.99,17.2,8.17,31.68,23.61,17.86,40.06,5.81,40.06,5.81,0,0,4.67,5.3,21.32,9.54,16.65,4.25,40.49-4.24,49.31-18.28,23.84,13.06,37.95-3.51,38.28-10.36,2.93,7.19,26.05,11.02,28.98-9.88.31-2.19.33-4.25.16-6.18-21.33-11.99-49.94-15.5-88.41-8.39Z"/>
                <path class="cls-11" d="m235.58,99.25c-.23-2.73-1.89-11.26-13.12-19.96-4.94-3.84-10.35-5.78-16.08-5.78-2.65,0-4.94.43-6.72.92-.01,0-.01,0-.03,0-.78.18-1.49.4-2.16.66-.53-3.47-2.73-10.58-11.67-14.16-2.26-.9-4.55-1.36-6.76-1.36-6.12,0-10.38,3.38-12.22,5.2-3.6-3.71-16.74-15.54-38.13-15.54-4.91,0-9.99.65-15.07,1.92-28.52,7.13-32.98,26.69-32.39,37.69h0c-5.49-.87-15.87.78-19.14,6.39-7.34,12.58,1.45,23.35,4.16,26.2-1.99,3.89-8.26,19.28,8.93,32.28,8.47,6.4,16.96,9.65,25.24,9.65,7.64,0,12.89-2.78,14.97-4.12,2.03,1.93,8.02,6.57,21.27,9.94,2.94.75,6.16,1.13,9.56,1.13,15.7,0,32.69-8.04,40.19-18.86,5.74,2.98,11.29,4.48,16.53,4.48,11.74,0,20.79-8.53,21.35-14.69,1.3,3.81,7.34,4.86,12.05,4.86,7.7,0,16.03-3.94,17.76-16.29,2.71-19.21-14.61-28.68-18.52-30.56Zm15.95,30.2c-1.9,13.48-12.5,14.53-15.71,14.53-4.86,0-10.01-.76-12.53-7.12.32,1.87-.41,4.34-1.39,6.33-2.45,4.64-9.51,10.15-18.97,10.15-4.91,0-10.18-1.48-15.66-4.38.64-2.02,1.23-5.06,1.44-9.67-1.44,4.64-2.5,7.46-3.95,9.91-6.73,10.56-23.26,18.51-38.56,18.51-3.19,0-6.19-.36-8.92-1.05-9.78-2.49-14.83-5.17-17.26-6.87,0,0,0,0,0,0-3.9-3.3-6.14-5.39-9.5-12.14,1.39,4.95,2.77,8.01,3.94,9.91-1.93.98-7.08,3.2-14.04,3.2-7.7,0-15.67-3.06-23.67-9.12-15.42-11.66-10.3-24.93-8.38-28.71h0c2.87-4.56,4.11-5.45,5.69-6.44-2.93.87-4.82,2.19-5.92,3.16-2.28-2.38-10.33-11.97-3.81-23.13,2.66-4.54,8.48-5.5,12.9-5.5,2.32,0,4.01.28,4.03.28l.57.1c.85,3.28,2.39,7.34,2.31,7.09-.67-2.69-1.13-5.52-1.37-8.28v-.24c-.02-.28-.88-28.24,31.46-36.33,4.88-1.22,9.74-1.84,14.45-1.84,21.27,0,35.24,13.57,37.88,16.36.13.14.26.29.4.43.04.04.05.06.06.06h0c2.15,2.38,4.13,5.26,6.12,9.53-1.47-5.3-3.35-8.87-4.91-11.17,1.19-1.27,5.06-4.87,10.81-4.87,1.88,0,3.84.4,5.79,1.18,8.24,3.29,10.49,9.9,11.08,12.46-1.6.85-3.03,1.97-4.6,3.37,2.69-1.52,4.79-2.31,4.79-2.31.04-.02,4.88-1.34,10.38-1.34,5.14,0,9.91,2.34,14.39,5.8,9.62,7.46,11.62,14.71,12.04,17.5-3.8-.71-10.6-1.43-17.5.63,4.95-1.14,13.38-.05,18.62,1.93,2.06.92,20.11,9.54,17.5,28.06Z"/>
              </g>
              <path class="cls-8" d="m231.8,102.05c-3.77-.99-10.59-1.43-17.5.62,4.95-1.14,13.38-.05,18.62,1.93,1.87.83,16.8,7.96,17.71,23.01.89-16.95-15.74-24.9-17.71-25.78-.4-.15-.81-.29-1.24-.43.05.23,0,0,.12.64Z"/>
              <path class="cls-8" d="m178.86,65.95c1.74,0,3.54.36,5.34,1.09,5.82,2.33,9.07,6.07,10.2,8.92.22-.13.45-.27.68-.39-.54-2.36-3.29-8.05-10.87-11.08-1.8-.73-3.6-1.09-5.34-1.09-5.28,0-8.48,2.95-9.49,4.02.33.47.63,1.11.97,1.69,1.65-1.45,4.32-3.16,8.52-3.16Z"/>
              <path class="cls-8" d="m83.92,89.68c.01.17.04.34.05.51.46-6.39,4.04-26.66,30.44-33.26,4.73-1.18,9.45-1.79,14-1.79,20.61,0,34.15,13.16,36.71,15.85.13.14.26.28.39.42.04.04.05.06.05.06h0c2.08,2.31,4.31,4.56,6.69,8.89-1.6-4.72-2.94-6.75-4.51-8.88-.71-.99-1.43-1.87-2.17-2.7h0s-.02-.02-.05-.06c-.13-.14-.26-.28-.39-.42-2.56-2.69-16.1-15.85-36.71-15.85-4.55,0-9.27.61-14,1.79-31.35,7.84-30.52,34.94-30.5,35.21v.23Z"/>
              <path class="cls-8" d="m220.62,82.38c-4.27-3.31-8.52-5.2-13.74-5.55,0,0-9.04-.72-15.23,4.04,2.57-1.45,6.93-1.6,6.93-1.6.04-.02,3.26-.85,8.49-.26,4.61.52,9.27,2.7,13.55,6.01,5.69,4.41,8.59,8.74,10.06,12.04.36.03.7.08,1.03.16-.94-3.34-3.59-9.03-11.09-14.84Z"/>
            </g>
            <g class="cls-4">
              <g>
                <path class="cls-12" d="m80.67,89.85s-1.31-29.39,32.65-37.88c33.96-8.49,53.22,14.37,53.22,14.37,0,0,7.19-9.14,18.62-4.57,11.43,4.57,11.07,14.14,11.07,14.14,0,0,12.44-5.98,25.5,4.14,13.06,10.12,12.73,19.92,12.73,19.92,0,0,21.55,8.82,18.61,29.71-2.93,20.9-26.05,17.07-28.99,9.89-.33,6.85-14.44,23.42-38.28,10.36-8.81,14.04-32.65,22.53-49.31,18.29-16.65-4.24-21.37-10.03-21.37-10.03,0,0-16.39,12.55-40.02-5.32-19.14-14.48-8.16-31.67-8.16-31.67,0,0-12.83-11.5-4.67-25.47,4.79-8.2,18.39-5.87,18.39-5.87Z"/>
                <path class="cls-2" d="m164.49,114.25c-38.93,7.2-68.41-10.02-86.13-25.48-3.94-.29-12.76-.18-16.42,6.09-8.17,13.98,4.66,25.47,4.66,25.47,0,0-10.99,17.2,8.17,31.68,23.61,17.86,40.06,5.81,40.06,5.81,0,0,4.67,5.3,21.32,9.54,16.65,4.25,40.49-4.24,49.31-18.28,23.84,13.06,37.95-3.51,38.28-10.36,2.93,7.19,26.05,11.02,28.98-9.88.31-2.19.33-4.25.16-6.18-21.33-11.99-49.94-15.5-88.41-8.39Z"/>
                <path class="cls-11" d="m235.58,99.25c-.23-2.73-1.89-11.26-13.12-19.96-4.94-3.84-10.35-5.78-16.08-5.78-2.65,0-4.94.43-6.72.92-.01,0-.01,0-.03,0-.78.18-1.49.4-2.16.66-.53-3.47-2.73-10.58-11.67-14.16-2.26-.9-4.55-1.36-6.76-1.36-6.12,0-10.38,3.38-12.22,5.2-3.6-3.71-16.74-15.54-38.13-15.54-4.91,0-9.99.65-15.07,1.92-28.52,7.13-32.98,26.69-32.39,37.69h0c-5.49-.87-15.87.78-19.14,6.39-7.34,12.58,1.45,23.35,4.16,26.2-1.99,3.89-8.26,19.28,8.93,32.28,8.47,6.4,16.96,9.65,25.24,9.65,7.64,0,12.89-2.78,14.97-4.12,2.03,1.93,8.02,6.57,21.27,9.94,2.94.75,6.16,1.13,9.56,1.13,15.7,0,32.69-8.04,40.19-18.86,5.74,2.98,11.29,4.48,16.53,4.48,11.74,0,20.79-8.53,21.35-14.69,1.3,3.81,7.34,4.86,12.05,4.86,7.7,0,16.03-3.94,17.76-16.29,2.71-19.21-14.61-28.68-18.52-30.56Zm15.95,30.2c-1.9,13.48-12.5,14.53-15.71,14.53-4.86,0-10.01-.76-12.53-7.12.32,1.87-.41,4.34-1.39,6.33-2.45,4.64-9.51,10.15-18.97,10.15-4.91,0-10.18-1.48-15.66-4.38.64-2.02,1.23-5.06,1.44-9.67-1.44,4.64-2.5,7.46-3.95,9.91-6.73,10.56-23.26,18.51-38.56,18.51-3.19,0-6.19-.36-8.92-1.05-9.78-2.49-14.83-5.17-17.26-6.87,0,0,0,0,0,0-3.9-3.3-6.14-5.39-9.5-12.14,1.39,4.95,2.77,8.01,3.94,9.91-1.93.98-7.08,3.2-14.04,3.2-7.7,0-15.67-3.06-23.67-9.12-15.42-11.66-10.3-24.93-8.38-28.71h0c2.87-4.56,4.11-5.45,5.69-6.44-2.93.87-4.82,2.19-5.92,3.16-2.28-2.38-10.33-11.97-3.81-23.13,2.66-4.54,8.48-5.5,12.9-5.5,2.32,0,4.01.28,4.03.28l.57.1c.85,3.28,2.39,7.34,2.31,7.09-.67-2.69-1.13-5.52-1.37-8.28v-.24c-.02-.28-.88-28.24,31.46-36.33,4.88-1.22,9.74-1.84,14.45-1.84,21.27,0,35.24,13.57,37.88,16.36.13.14.26.29.4.43.04.04.05.06.06.06h0c2.15,2.38,4.13,5.26,6.12,9.53-1.47-5.3-3.35-8.87-4.91-11.17,1.19-1.27,5.06-4.87,10.81-4.87,1.88,0,3.84.4,5.79,1.18,8.24,3.29,10.49,9.9,11.08,12.46-1.6.85-3.03,1.97-4.6,3.37,2.69-1.52,4.79-2.31,4.79-2.31.04-.02,4.88-1.34,10.38-1.34,5.14,0,9.91,2.34,14.39,5.8,9.62,7.46,11.62,14.71,12.04,17.5-3.8-.71-10.6-1.43-17.5.63,4.95-1.14,13.38-.05,18.62,1.93,2.06.92,20.11,9.54,17.5,28.06Z"/>
              </g>
              <path class="cls-8" d="m231.8,102.05c-3.77-.99-10.59-1.43-17.5.62,4.95-1.14,13.38-.05,18.62,1.93,1.87.83,16.8,7.96,17.71,23.01.89-16.95-15.74-24.9-17.71-25.78-.4-.15-.81-.29-1.24-.43.05.23,0,0,.12.64Z"/>
              <path class="cls-8" d="m178.86,65.95c1.74,0,3.54.36,5.34,1.09,5.82,2.33,9.07,6.07,10.2,8.92.22-.13.45-.27.68-.39-.54-2.36-3.29-8.05-10.87-11.08-1.8-.73-3.6-1.09-5.34-1.09-5.28,0-8.48,2.95-9.49,4.02.33.47.63,1.11.97,1.69,1.65-1.45,4.32-3.16,8.52-3.16Z"/>
              <path class="cls-8" d="m83.92,89.68c.01.17.04.34.05.51.46-6.39,4.04-26.66,30.44-33.26,4.73-1.18,9.45-1.79,14-1.79,20.61,0,34.15,13.16,36.71,15.85.13.14.26.28.39.42.04.04.05.06.05.06h0c2.08,2.31,4.31,4.56,6.69,8.89-1.6-4.72-2.94-6.75-4.51-8.88-.71-.99-1.43-1.87-2.17-2.7h0s-.02-.02-.05-.06c-.13-.14-.26-.28-.39-.42-2.56-2.69-16.1-15.85-36.71-15.85-4.55,0-9.27.61-14,1.79-31.35,7.84-30.52,34.94-30.5,35.21v.23Z"/>
              <path class="cls-8" d="m220.62,82.38c-4.27-3.31-8.52-5.2-13.74-5.55,0,0-9.04-.72-15.23,4.04,2.57-1.45,6.93-1.6,6.93-1.6.04-.02,3.26-.85,8.49-.26,4.61.52,9.27,2.7,13.55,6.01,5.69,4.41,8.59,8.74,10.06,12.04.36.03.7.08,1.03.16-.94-3.34-3.59-9.03-11.09-14.84Z"/>
            </g>
          </g>
          <g>
            <path class="cls-9" d="m223.26,121.17s-38.62-23.99,32.32-41.72c-70.29,16.55-46.34-25.58-46.34-25.58,0,0-41.05,24.3-14.89-53.87l-7.29,17.01c-25.12,53.49-45.7,15.86-45.7,15.86,0,0-1.93,43.46-54.16.22,50.95,44.96-1.72,51.38-1.72,51.38,0,0,48.39,24.41-25.33,52.41l-8.49,3.25c83.49-27.84,56.67,14.8,56.67,14.8,0,0,41.31-30.34,24.1,50.42,16.24-72.41,43.22-34.83,43.22-34.83,0,0,.22-50.84,58.42,4.73-55.67-56.09-10.81-54.06-10.81-54.06Z"/>
            <path class="cls-6" d="m223.26,121.17s-38.62-23.99,32.32-41.72c-70.29,16.55-46.34-25.58-46.34-25.58,0,0-41.05,24.3-14.89-53.87l-7.29,17.01c-25.12,53.49-45.7,15.86-45.7,15.86,0,0-1.93,43.46-54.16.22,50.95,44.96-1.72,51.38-1.72,51.38,0,0,48.39,24.41-25.33,52.41l-8.49,3.25c83.49-27.84,56.67,14.8,56.67,14.8,0,0,41.31-30.34,24.1,50.42,16.24-72.41,43.22-34.83,43.22-34.83,0,0,.22-50.84,58.42,4.73-55.67-56.09-10.81-54.06-10.81-54.06Z"/>
            <path class="cls-13" d="m193.65,66.54c19.87,20.34,19.46,52.95-.89,72.81-20.36,19.86-52.96,19.46-72.82-.89-19.87-20.36-19.47-52.96.88-72.83,20.36-19.86,52.96-19.46,72.83.91Z"/>
            <g class="cls-10">
              <path class="cls-3" d="m156.79,152.4c-13.57,0-26.25-5.34-35.72-15.05-19.21-19.7-18.83-51.36.86-70.58,9.38-9.15,21.76-14.19,34.85-14.19s26.26,5.35,35.74,15.05c9.31,9.54,14.34,22.13,14.17,35.47-.17,13.34-5.51,25.8-15.05,35.11-9.38,9.15-21.75,14.18-34.85,14.18Zm0-97.25c-12.42,0-24.17,4.78-33.05,13.46-18.69,18.23-19.05,48.27-.83,66.95,8.99,9.21,21.03,14.28,33.89,14.28s24.17-4.78,33.06-13.46c9.05-8.83,14.12-20.65,14.27-33.3.16-12.65-4.62-24.59-13.45-33.64-8.99-9.21-21.03-14.28-33.9-14.28Z"/>
            </g>
          </g>
          <g>
            <g>
              <path class="cls-1" d="m23.25,117.73s-1.42-31.86,35.4-41.07c36.82-9.2,57.7,15.58,57.7,15.58,0,0,7.79-9.91,20.18-4.96,12.39,4.96,11.99,15.33,11.99,15.33,0,0,13.49-6.48,27.66,4.49,14.16,10.97,13.8,21.6,13.8,21.6,0,0,23.37,9.56,20.18,32.21-3.18,22.66-28.24,18.5-31.43,10.71-.35,7.43-15.65,25.4-41.5,11.23-9.56,15.22-35.4,24.43-53.45,19.82-18.06-4.6-23.18-10.88-23.18-10.88,0,0-17.77,13.61-43.38-5.76-20.76-15.7-8.85-34.34-8.85-34.34,0,0-13.92-12.47-5.07-27.62,5.19-8.89,19.93-6.36,19.93-6.36Z"/>
              <path class="cls-5" d="m114.12,144.18c-42.21,7.8-74.16-10.86-93.37-27.63-4.27-.31-13.83-.2-17.8,6.6-8.85,15.15,5.06,27.62,5.06,27.62,0,0-11.91,18.64,8.85,34.34,25.61,19.37,43.43,6.29,43.43,6.29,0,0,5.07,5.74,23.12,10.34,18.06,4.61,43.9-4.6,53.46-19.82,25.84,14.16,41.14-3.8,41.5-11.23,3.18,7.79,28.24,11.94,31.43-10.72.34-2.38.36-4.61.17-6.7-23.12-13-54.15-16.81-95.85-9.1Z"/>
              <path class="cls-14" d="m191.2,127.92c-.25-2.96-2.04-12.21-14.23-21.65-5.36-4.16-11.22-6.26-17.44-6.26-2.87,0-5.35.46-7.28,1-.01,0-.02,0-.03,0-.84.19-1.61.43-2.34.71-.57-3.77-2.96-11.47-12.65-15.35-2.45-.98-4.92-1.48-7.33-1.48-6.63,0-11.25,3.67-13.24,5.63-3.9-4.02-18.16-16.85-41.34-16.85-5.33,0-10.84.7-16.35,2.08-30.92,7.73-35.76,28.93-35.12,40.87h0c-5.95-.95-17.2.85-20.75,6.92-7.96,13.63,1.58,25.31,4.51,28.41-2.15,4.22-8.95,20.9,9.68,35,9.18,6.94,18.39,10.46,27.37,10.46,8.28,0,13.98-3.02,16.23-4.46,2.21,2.1,8.69,7.12,23.06,10.78,3.19.81,6.68,1.22,10.37,1.22,17.02,0,35.45-8.71,43.57-20.44,6.22,3.23,12.25,4.86,17.92,4.86,12.73,0,22.53-9.24,23.15-15.93,1.41,4.13,7.95,5.27,13.07,5.27,8.34,0,17.38-4.27,19.26-17.66,2.93-20.83-15.85-31.1-20.08-33.14Zm17.29,32.74c-2.06,14.61-13.55,15.75-17.03,15.75-5.27,0-10.86-.83-13.6-7.72.36,2.02-.45,4.7-1.49,6.86-2.66,5.03-10.31,11.01-20.56,11.01-5.33,0-11.03-1.61-16.97-4.75.69-2.19,1.33-5.49,1.56-10.49-1.56,5.03-2.7,8.09-4.27,10.75-7.3,11.45-25.23,20.07-41.81,20.07-3.45,0-6.71-.39-9.68-1.14-10.61-2.71-16.08-5.61-18.72-7.44,0,0,0,0,0,0-4.23-3.57-6.67-5.84-10.31-13.17,1.52,5.36,3.01,8.69,4.28,10.74-2.1,1.06-7.68,3.47-15.22,3.47-8.35,0-16.98-3.32-25.66-9.89-16.72-12.64-11.17-27.03-9.08-31.13h0c3.11-4.95,4.46-5.91,6.17-6.97-3.17.94-5.23,2.37-6.41,3.43-2.48-2.58-11.2-12.98-4.15-25.07,2.88-4.93,9.2-5.96,13.99-5.96,2.52,0,4.35.31,4.37.31l.62.1c.92,3.56,2.59,7.96,2.5,7.69-.72-2.92-1.22-5.99-1.47-8.98v-.26c-.03-.31-.96-30.62,34.1-39.39,5.3-1.32,10.57-1.99,15.67-1.99,23.06,0,38.2,14.72,41.05,17.73.15.15.29.31.44.47.03.04.05.06.06.07h0c2.32,2.58,4.48,5.69,6.63,10.34-1.6-5.75-3.62-9.62-5.32-12.11,1.3-1.38,5.49-5.28,11.71-5.28,2.05,0,4.17.43,6.29,1.28,8.92,3.57,11.37,10.74,12,13.51-1.73.92-3.28,2.14-4.98,3.66,2.91-1.65,5.19-2.51,5.19-2.51.04-.02,5.28-1.45,11.25-1.45,5.58,0,10.74,2.53,15.59,6.29,10.43,8.09,12.6,15.95,13.05,18.98-4.11-.77-11.48-1.55-18.97.68,5.36-1.24,14.5-.06,20.18,2.1,2.24.99,21.81,10.34,18.98,30.42Z"/>
            </g>
            <path class="cls-8" d="m187.1,130.95c-4.09-1.08-11.48-1.55-18.97.68,5.36-1.24,14.5-.06,20.18,2.1,2.03.9,18.21,8.63,19.21,24.94.96-18.37-17.06-26.99-19.21-27.95-.43-.16-.87-.32-1.34-.46.05.25,0,0,.12.7Z"/>
            <path class="cls-8" d="m129.7,91.82c1.9,0,3.84.4,5.79,1.18,6.32,2.53,9.83,6.57,11.05,9.67.24-.15.48-.3.73-.43-.59-2.56-3.57-8.72-11.78-12.01-1.95-.78-3.9-1.18-5.79-1.18-5.73,0-9.19,3.2-10.28,4.36.34.51.68,1.2,1.05,1.84,1.79-1.57,4.69-3.43,9.23-3.43Z"/>
            <path class="cls-8" d="m26.77,117.54c.02.18.04.36.06.55.5-6.93,4.37-28.9,33-36.06,5.13-1.28,10.24-1.93,15.18-1.93,22.35,0,37.03,14.27,39.8,17.19.14.15.28.3.42.46.03.04.05.06.06.06h0c2.26,2.5,4.67,4.94,7.25,9.64-1.74-5.12-3.19-7.33-4.9-9.63-.77-1.07-1.55-2.03-2.36-2.92h0s-.03-.03-.06-.06c-.14-.16-.28-.31-.42-.46-2.77-2.92-17.45-17.19-39.8-17.19-4.95,0-10.05.66-15.18,1.93-33.99,8.5-33.08,37.88-33.07,38.18v.25Z"/>
            <path class="cls-8" d="m174.98,109.63c-4.64-3.59-9.24-5.64-14.89-6.01,0,0-9.8-.78-16.51,4.38,2.78-1.58,7.52-1.74,7.52-1.74.04-.02,3.54-.92,9.2-.28,5,.56,10.05,2.93,14.68,6.52,6.17,4.78,9.31,9.48,10.91,13.05.39.03.76.09,1.11.17-1.02-3.62-3.89-9.78-12.02-16.09Z"/>
          </g>
        </g>
      </g>
    </g>
  </g>
</svg>