<?xml version="1.0" encoding="UTF-8"?>
<svg xmlns="http://www.w3.org/2000/svg" xmlns:xlink="http://www.w3.org/1999/xlink" viewBox="0 0 243.85 172.05">
  <defs>
    <style>
      .cls-1 {
        fill: url(#linear-gradient-17);
      }

      .cls-2 {
        fill: url(#linear-gradient-15);
      }

      .cls-3 {
        fill: url(#linear-gradient-14);
      }

      .cls-4 {
        fill: url(#linear-gradient-6);
      }

      .cls-5 {
        fill: url(#linear-gradient-2);
        opacity: .15;
      }

      .cls-5, .cls-6 {
        mix-blend-mode: multiply;
      }

      .cls-7 {
        isolation: isolate;
      }

      .cls-8 {
        fill: #fff;
        opacity: .5;
      }

      .cls-9 {
        fill: url(#linear-gradient-11);
      }

      .cls-6 {
        opacity: .57;
      }

      .cls-10 {
        fill: url(#linear-gradient-10);
      }

      .cls-11 {
        fill: url(#linear-gradient-16);
      }

      .cls-12 {
        fill: url(#linear-gradient-5);
      }

      .cls-13 {
        fill: url(#linear-gradient-7);
      }

      .cls-14 {
        fill: url(#linear-gradient-9);
      }

      .cls-15 {
        fill: url(#linear-gradient-3);
      }

      .cls-16 {
        fill: url(#linear-gradient);
      }

      .cls-17 {
        fill: url(#linear-gradient-4);
      }

      .cls-18 {
        fill: url(#linear-gradient-8);
      }

      .cls-19 {
        fill: url(#linear-gradient-12);
      }

      .cls-20 {
        fill: url(#linear-gradient-13);
      }
    </style>
    <linearGradient id="linear-gradient" x1="121.5" y1="3.37" x2="121.5" y2="149.56" gradientUnits="userSpaceOnUse">
      <stop offset="0" stop-color="#f1f2f2"/>
      <stop offset=".26" stop-color="#e9eaea"/>
      <stop offset=".65" stop-color="#d4d6d7"/>
      <stop offset="1" stop-color="#bcbec0"/>
    </linearGradient>
    <linearGradient id="linear-gradient-2" x1="121.07" y1="52.94" x2="121.07" y2="147.37" gradientUnits="userSpaceOnUse">
      <stop offset="0" stop-color="#f1f2f2"/>
      <stop offset=".3" stop-color="#dbdcdd"/>
      <stop offset=".93" stop-color="#a3a5a7"/>
      <stop offset="1" stop-color="#9d9fa1"/>
    </linearGradient>
    <linearGradient id="linear-gradient-3" x1="121.92" y1="4.89" x2="121.92" y2="151.63" gradientUnits="userSpaceOnUse">
      <stop offset="0" stop-color="#e6e7e8"/>
      <stop offset=".19" stop-color="#dedfe0"/>
      <stop offset=".48" stop-color="#c8c9ca"/>
      <stop offset=".84" stop-color="#a4a5a7"/>
      <stop offset="1" stop-color="#939496"/>
    </linearGradient>
    <linearGradient id="linear-gradient-4" x1="163.91" y1="157" x2="180.49" y2="173.58" gradientUnits="userSpaceOnUse">
      <stop offset="0" stop-color="#8be0ef"/>
      <stop offset=".1" stop-color="#84dced"/>
      <stop offset=".24" stop-color="#71d0e8"/>
      <stop offset=".41" stop-color="#52bee1"/>
      <stop offset=".6" stop-color="#27a5d6"/>
      <stop offset=".75" stop-color="#008fcd"/>
      <stop offset=".87" stop-color="#107eb6"/>
      <stop offset="1" stop-color="#276898"/>
    </linearGradient>
    <linearGradient id="linear-gradient-5" x1="169.89" y1="122.09" x2="182.59" y2="134.79" xlink:href="#linear-gradient-4"/>
    <linearGradient id="linear-gradient-6" x1="121.39" y1="140.83" x2="136.6" y2="156.04" xlink:href="#linear-gradient-4"/>
    <linearGradient id="linear-gradient-7" x1="139.22" y1="109.4" x2="152.47" y2="122.65" xlink:href="#linear-gradient-4"/>
    <linearGradient id="linear-gradient-8" x1="159.44" y1="83.56" x2="169.74" y2="93.87" xlink:href="#linear-gradient-4"/>
    <linearGradient id="linear-gradient-9" x1="98" y1="99.72" x2="110.04" y2="111.76" xlink:href="#linear-gradient-4"/>
    <linearGradient id="linear-gradient-10" x1="80.73" y1="126.42" x2="93.85" y2="139.55" xlink:href="#linear-gradient-4"/>
    <linearGradient id="linear-gradient-11" x1="115.13" y1="121.97" x2="266.9" y2="235.66" xlink:href="#linear-gradient-4"/>
    <linearGradient id="linear-gradient-12" x1="134.2" y1="96.51" x2="285.99" y2="210.21" xlink:href="#linear-gradient-4"/>
    <linearGradient id="linear-gradient-13" x1="107.66" y1="131.93" x2="259.46" y2="245.64" xlink:href="#linear-gradient-4"/>
    <linearGradient id="linear-gradient-14" x1="129.24" y1="103.13" x2="281.04" y2="216.84" xlink:href="#linear-gradient-4"/>
    <linearGradient id="linear-gradient-15" x1="149.03" y1="76.7" x2="300.85" y2="190.42" xlink:href="#linear-gradient-4"/>
    <linearGradient id="linear-gradient-16" x1="119.12" y1="116.64" x2="270.9" y2="230.33" xlink:href="#linear-gradient-4"/>
    <linearGradient id="linear-gradient-17" x1="100.05" y1="142.1" x2="251.85" y2="255.8" xlink:href="#linear-gradient-4"/>
  </defs>
  <g class="cls-7">
    <g id="_레이어_2" data-name="레이어 2">
      <g id="Layer_1" data-name="Layer 1">
        <g>
          <g>
            <g>
              <path class="cls-16" d="m26.8,50.77S25.17,14.05,67.6,3.44c42.43-10.61,66.5,17.95,66.5,17.95,0,0,8.98-11.43,23.26-5.71,14.28,5.71,13.83,17.67,13.83,17.67,0,0,15.55-7.47,31.87,5.18,16.32,12.64,15.91,24.89,15.91,24.89,0,0,26.93,11.01,23.25,37.13-3.67,26.11-32.55,21.32-36.22,12.35-.41,8.57-18.04,29.27-47.83,12.95-11.01,17.55-40.8,28.15-61.61,22.85-20.81-5.3-26.71-12.54-26.71-12.54,0,0-20.48,15.68-49.99-6.64-23.93-18.09-10.2-39.58-10.2-39.58,0,0-16.03-14.37-5.83-31.83,5.98-10.23,22.97-7.33,22.97-7.33Z"/>
              <path class="cls-5" d="m131.53,81.25c-48.64,9-85.47-12.51-107.61-31.84-4.92-.36-15.94-.23-20.52,7.61-10.2,17.46,5.84,31.83,5.84,31.83,0,0-13.73,21.49,10.2,39.58,29.5,22.32,50.06,7.25,50.06,7.25,0,0,5.83,6.62,26.64,11.92,20.81,5.3,50.59-5.3,61.61-22.85,29.78,16.32,47.42-4.38,47.83-12.95,3.67,8.97,32.54,13.76,36.22-12.35.38-2.74.41-5.31.19-7.73-26.65-14.98-62.4-19.37-110.46-10.49Z"/>
              <path class="cls-15" d="m220.36,62.51c-.29-3.41-2.36-14.07-16.4-24.95-6.18-4.78-12.93-7.21-20.1-7.21-3.31,0-6.18.53-8.39,1.15,0,0-.02,0-.04,0-.96.21-1.85.5-2.69.82-.66-4.34-3.41-13.22-14.58-17.69-2.83-1.13-5.68-1.7-8.45-1.7-7.64,0-12.95,4.22-15.25,6.49C129.95,14.78,113.52,0,86.8,0c-6.14,0-12.49.81-18.84,2.4C32.33,11.3,26.75,35.74,27.49,49.5h0c-6.86-1.09-19.82.98-23.91,7.98-9.17,15.71,1.82,29.17,5.19,32.73-2.48,4.86-10.31,24.09,11.16,40.34,10.58,8,21.19,12.06,31.54,12.06,9.55,0,16.11-3.48,18.7-5.15,2.55,2.42,10.02,8.21,26.57,12.43,3.68.94,7.7,1.41,11.95,1.41,19.61,0,40.85-10.03,50.22-23.56,7.16,3.72,14.11,5.6,20.65,5.6,14.67,0,25.98-10.66,26.69-18.36,1.62,4.77,9.16,6.07,15.06,6.07,9.62,0,20.03-4.92,22.19-20.35,3.38-24.01-18.26-35.84-23.13-38.19Zm19.93,37.73c-2.37,16.84-15.62,18.16-19.64,18.16-6.07,0-12.51-.95-15.67-8.9.4,2.33-.52,5.41-1.73,7.91-3.05,5.79-11.88,12.69-23.7,12.69-6.14,0-12.71-1.85-19.56-5.47.8-2.52,1.54-6.33,1.8-12.09-1.8,5.8-3.12,9.32-4.93,12.39-8.41,13.19-29.07,23.13-48.18,23.13-3.98,0-7.73-.45-11.15-1.32-12.23-3.11-18.52-6.46-21.57-8.58t0,0c-4.87-4.11-7.68-6.73-11.88-15.17,1.75,6.18,3.46,10,4.93,12.38-2.41,1.23-8.85,4-17.54,4-9.62,0-19.57-3.83-29.57-11.39-19.26-14.57-12.87-31.15-10.47-35.87h0c3.59-5.7,5.14-6.82,7.11-8.04-3.66,1.09-6.02,2.74-7.39,3.95-2.86-2.97-12.92-14.96-4.77-28.89,3.32-5.68,10.6-6.87,16.12-6.87,2.91,0,5.02.36,5.04.36l.72.12c1.06,4.1,2.99,9.17,2.89,8.86-.83-3.36-1.41-6.9-1.7-10.35v-.3c-.03-.36-1.11-35.29,39.31-45.39,6.1-1.52,12.18-2.31,18.05-2.31,26.58,0,44.03,16.97,47.32,20.44.17.18.34.36.5.55.04.04.07.07.07.08h0c2.67,2.97,5.17,6.56,7.64,11.91-1.84-6.62-4.17-11.09-6.12-13.96,1.49-1.59,6.33-6.09,13.49-6.09,2.36,0,4.8.5,7.25,1.48,10.28,4.11,13.11,12.37,13.83,15.58-2,1.06-3.78,2.47-5.74,4.21,3.35-1.9,5.98-2.89,5.98-2.89.06-.03,6.1-1.67,12.98-1.67,6.42,0,12.38,2.93,17.97,7.25,12.03,9.32,14.52,18.38,15.05,21.88-4.74-.89-13.24-1.79-21.87.77,6.18-1.42,16.71-.06,23.27,2.42,2.58,1.15,25.13,11.92,21.87,35.05Z"/>
            </g>
            <path class="cls-8" d="m215.63,66.01c-4.7-1.24-13.24-1.78-21.86.78,6.18-1.43,16.71-.07,23.26,2.42,2.33,1.04,20.99,9.94,22.13,28.74,1.12-21.18-19.66-31.11-22.13-32.21-.49-.19-1.01-.37-1.54-.54.06.3,0,0,.14.81Z"/>
            <path class="cls-8" d="m149.48,20.9c2.17,0,4.43.46,6.67,1.36,7.28,2.91,11.34,7.58,12.74,11.15.28-.16.56-.34.85-.49-.67-2.94-4.12-10.05-13.58-13.84-2.25-.9-4.5-1.36-6.67-1.36-6.6,0-10.6,3.68-11.85,5.02.4.59.79,1.39,1.21,2.12,2.06-1.81,5.4-3.96,10.64-3.96Z"/>
            <path class="cls-8" d="m30.86,50.55c.02.21.04.42.07.63.58-7.98,5.04-33.31,38.04-41.56,5.91-1.47,11.8-2.23,17.5-2.23,25.76,0,42.67,16.44,45.87,19.81.16.18.32.35.49.53.04.04.06.07.06.08h0c2.6,2.88,5.38,5.69,8.36,11.1-2-5.9-3.68-8.44-5.64-11.09-.89-1.23-1.79-2.34-2.72-3.37h0s-.03-.04-.06-.07c-.16-.18-.33-.36-.49-.53-3.19-3.37-20.11-19.81-45.87-19.81-5.7,0-11.59.75-17.5,2.23C29.79,16.06,30.83,49.92,30.84,50.26v.29Z"/>
            <path class="cls-8" d="m201.66,41.44c-5.34-4.14-10.65-6.5-17.16-6.93,0,0-11.3-.9-19.03,5.05,3.21-1.82,8.66-2.01,8.66-2.01.05-.02,4.08-1.05,10.6-.32,5.76.65,11.59,3.38,16.93,7.51,7.12,5.51,10.73,10.92,12.57,15.04.45.04.88.11,1.28.19-1.17-4.18-4.48-11.27-13.86-18.54Z"/>
          </g>
          <g>
            <path class="cls-17" d="m178.96,163.02c0,4.99-4.04,9.03-9.03,9.03s-9.03-4.04-9.03-9.03,4.04-9.04,9.03-9.04,9.03,4.04,9.03,9.04Z"/>
            <path class="cls-12" d="m181.41,126.69c0,3.83-3.1,6.92-6.92,6.92s-6.92-3.1-6.92-6.92,3.1-6.92,6.92-6.92,6.92,3.1,6.92,6.92Z"/>
            <path class="cls-4" d="m135.2,146.35c0,4.57-3.71,8.29-8.28,8.29s-8.3-3.71-8.3-8.29,3.71-8.29,8.3-8.29,8.28,3.72,8.28,8.29Z"/>
            <path class="cls-13" d="m151.25,114.21c0,3.99-3.23,7.22-7.22,7.22s-7.23-3.24-7.23-7.22,3.23-7.22,7.23-7.22,7.22,3.23,7.22,7.22Z"/>
            <path class="cls-18" d="m168.79,87.3c0,3.1-2.51,5.62-5.62,5.62s-5.61-2.52-5.61-5.62,2.51-5.62,5.61-5.62,5.62,2.52,5.62,5.62Z"/>
            <path class="cls-14" d="m108.93,104.09c0,3.62-2.94,6.56-6.56,6.56s-6.56-2.94-6.56-6.56,2.94-6.57,6.56-6.57,6.56,2.94,6.56,6.57Z"/>
            <path class="cls-10" d="m92.64,131.19c0,3.95-3.21,7.15-7.15,7.15s-7.16-3.2-7.16-7.15,3.21-7.16,7.16-7.16,7.15,3.21,7.15,7.16Z"/>
          </g>
          <g class="cls-6">
            <path class="cls-9" d="m178.96,163.02c0,4.99-4.04,9.03-9.03,9.03s-9.03-4.04-9.03-9.03,4.04-9.04,9.03-9.04,9.03,4.04,9.03,9.04Z"/>
            <path class="cls-19" d="m181.41,126.69c0,3.83-3.1,6.92-6.92,6.92s-6.92-3.1-6.92-6.92,3.1-6.92,6.92-6.92,6.92,3.1,6.92,6.92Z"/>
            <path class="cls-20" d="m135.2,146.35c0,4.57-3.71,8.29-8.28,8.29s-8.3-3.71-8.3-8.29,3.71-8.29,8.3-8.29,8.28,3.72,8.28,8.29Z"/>
            <path class="cls-3" d="m151.25,114.21c0,3.99-3.23,7.22-7.22,7.22s-7.23-3.24-7.23-7.22,3.23-7.22,7.23-7.22,7.22,3.23,7.22,7.22Z"/>
            <path class="cls-2" d="m168.79,87.3c0,3.1-2.51,5.62-5.62,5.62s-5.61-2.52-5.61-5.62,2.51-5.62,5.61-5.62,5.62,2.52,5.62,5.62Z"/>
            <path class="cls-11" d="m108.93,104.09c0,3.62-2.94,6.56-6.56,6.56s-6.56-2.94-6.56-6.56,2.94-6.57,6.56-6.57,6.56,2.94,6.56,6.57Z"/>
            <path class="cls-1" d="m92.64,131.19c0,3.95-3.21,7.15-7.15,7.15s-7.16-3.2-7.16-7.15,3.21-7.16,7.16-7.16,7.15,3.21,7.15,7.16Z"/>
          </g>
        </g>
      </g>
    </g>
  </g>
</svg>