<?xml version="1.0" encoding="UTF-8"?>
<svg xmlns="http://www.w3.org/2000/svg" xmlns:xlink="http://www.w3.org/1999/xlink" viewBox="0 0 250.94 203.02">
  <defs>
    <style>
      .cls-1 {
        fill: url(#linear-gradient-9);
      }

      .cls-1, .cls-2, .cls-3, .cls-4, .cls-5, .cls-6, .cls-7, .cls-8, .cls-9, .cls-10 {
        mix-blend-mode: multiply;
      }

      .cls-1, .cls-2, .cls-3, .cls-4, .cls-6, .cls-7, .cls-8, .cls-9 {
        opacity: .2;
      }

      .cls-11, .cls-12 {
        fill: #fff;
      }

      .cls-2 {
        fill: url(#linear-gradient-13);
      }

      .cls-3 {
        fill: url(#linear-gradient-15);
      }

      .cls-13 {
        fill: url(#linear-gradient-18);
      }

      .cls-4 {
        fill: url(#linear-gradient-11);
      }

      .cls-14 {
        fill: url(#linear-gradient-14);
      }

      .cls-15 {
        fill: url(#linear-gradient-6);
      }

      .cls-5 {
        fill: url(#linear-gradient-2);
        opacity: .15;
      }

      .cls-16 {
        isolation: isolate;
      }

      .cls-17, .cls-7 {
        fill: #aad6e2;
      }

      .cls-6 {
        fill: url(#linear-gradient-5);
      }

      .cls-12, .cls-18, .cls-19 {
        opacity: .5;
      }

      .cls-20 {
        fill: url(#linear-gradient-10);
      }

      .cls-21 {
        fill: url(#linear-gradient-16);
      }

      .cls-8, .cls-22 {
        fill: #29e2b1;
      }

      .cls-18 {
        mix-blend-mode: lighten;
      }

      .cls-19 {
        mix-blend-mode: color-burn;
      }

      .cls-9 {
        fill: url(#linear-gradient-7);
      }

      .cls-23 {
        fill: url(#linear-gradient-3);
      }

      .cls-24 {
        fill: url(#linear-gradient);
      }

      .cls-25 {
        fill: url(#linear-gradient-4);
      }

      .cls-10 {
        fill: url(#linear-gradient-17);
        opacity: .52;
      }

      .cls-26 {
        fill: url(#linear-gradient-8);
      }

      .cls-27 {
        fill: url(#linear-gradient-12);
      }
    </style>
    <linearGradient id="linear-gradient" x1="125.04" y1="3.48" x2="125.04" y2="153.92" gradientUnits="userSpaceOnUse">
      <stop offset="0" stop-color="#f1f2f2"/>
      <stop offset=".26" stop-color="#e9eaea"/>
      <stop offset=".65" stop-color="#d4d6d7"/>
      <stop offset="1" stop-color="#bcbec0"/>
    </linearGradient>
    <linearGradient id="linear-gradient-2" x1="124.59" y1="54.48" x2="124.59" y2="151.66" gradientUnits="userSpaceOnUse">
      <stop offset="0" stop-color="#f1f2f2"/>
      <stop offset=".3" stop-color="#dbdcdd"/>
      <stop offset=".93" stop-color="#a3a5a7"/>
      <stop offset="1" stop-color="#9d9fa1"/>
    </linearGradient>
    <linearGradient id="linear-gradient-3" x1="125.47" y1="5.04" x2="125.47" y2="156.04" gradientUnits="userSpaceOnUse">
      <stop offset="0" stop-color="#e6e7e8"/>
      <stop offset=".19" stop-color="#dedfe0"/>
      <stop offset=".48" stop-color="#c8c9ca"/>
      <stop offset=".84" stop-color="#a4a5a7"/>
      <stop offset="1" stop-color="#939496"/>
    </linearGradient>
    <linearGradient id="linear-gradient-4" x1="191.68" y1="-116.43" x2="206.09" y2="-81.2" gradientTransform="translate(-59.24 210.26) rotate(-.79)" gradientUnits="userSpaceOnUse">
      <stop offset="0" stop-color="#8be0ef"/>
      <stop offset=".1" stop-color="#84dced"/>
      <stop offset=".24" stop-color="#71d0e8"/>
      <stop offset=".41" stop-color="#52bee1"/>
      <stop offset=".6" stop-color="#27a5d6"/>
      <stop offset=".75" stop-color="#008fcd"/>
      <stop offset=".87" stop-color="#107eb6"/>
      <stop offset="1" stop-color="#276898"/>
    </linearGradient>
    <linearGradient id="linear-gradient-5" x1="191.18" y1="-116.2" x2="205.59" y2="-80.95" xlink:href="#linear-gradient-4"/>
    <linearGradient id="linear-gradient-6" x1="201.99" y1="-56.77" x2="214.81" y2="-25.43" gradientTransform="translate(-37.94 177.44) rotate(-2.55)" xlink:href="#linear-gradient-4"/>
    <linearGradient id="linear-gradient-7" x1="201.54" y1="-56.57" x2="214.36" y2="-25.2" gradientTransform="translate(-37.94 177.44) rotate(-2.55)" xlink:href="#linear-gradient-4"/>
    <linearGradient id="linear-gradient-8" x1="212.78" y1="-18.99" x2="223.55" y2="7.35" gradientTransform="translate(-56.06 96.01) rotate(-1.17)" xlink:href="#linear-gradient-4"/>
    <linearGradient id="linear-gradient-9" x1="212.4" y1="-18.81" x2="223.18" y2="7.54" gradientTransform="translate(-56.06 96.01) rotate(-1.17)" xlink:href="#linear-gradient-4"/>
    <linearGradient id="linear-gradient-10" x1="249.57" y1="-381.18" x2="261.72" y2="-351.46" gradientTransform="translate(-221.33 409.7) rotate(10.59)" xlink:href="#linear-gradient-4"/>
    <linearGradient id="linear-gradient-11" x1="249.14" y1="-380.98" x2="261.3" y2="-351.25" gradientTransform="translate(-221.33 409.7) rotate(10.59)" xlink:href="#linear-gradient-4"/>
    <linearGradient id="linear-gradient-12" x1="133.67" y1="-20.78" x2="148.94" y2="16.58" gradientTransform="translate(-23.37 152.27) rotate(-3.87)" xlink:href="#linear-gradient-4"/>
    <linearGradient id="linear-gradient-13" x1="133.14" y1="-20.52" x2="148.42" y2="16.85" gradientTransform="translate(-23.37 152.27) rotate(-3.87)" xlink:href="#linear-gradient-4"/>
    <linearGradient id="linear-gradient-14" x1="109.13" y1="97.93" x2="126.13" y2="139.52" gradientTransform="translate(23.93 60.94) rotate(-8.65)" xlink:href="#linear-gradient-4"/>
    <linearGradient id="linear-gradient-15" x1="108.54" y1="98.22" x2="125.54" y2="139.81" gradientTransform="translate(23.93 60.94) rotate(-8.65)" xlink:href="#linear-gradient-4"/>
    <linearGradient id="linear-gradient-16" x1="84.01" y1="82.15" x2="109.11" y2="198.62" gradientUnits="userSpaceOnUse">
      <stop offset="0" stop-color="#fafbc1"/>
      <stop offset=".03" stop-color="#faf4a0"/>
      <stop offset=".1" stop-color="#fce969"/>
      <stop offset=".15" stop-color="#fde03c"/>
      <stop offset=".2" stop-color="#feda1d"/>
      <stop offset=".25" stop-color="#fed609"/>
      <stop offset=".28" stop-color="#ffd503"/>
      <stop offset=".41" stop-color="#fdd002"/>
      <stop offset=".55" stop-color="#f9c202"/>
      <stop offset=".71" stop-color="#f2ac01"/>
      <stop offset=".87" stop-color="#e98c00"/>
      <stop offset="1" stop-color="#e06c00"/>
    </linearGradient>
    <linearGradient id="linear-gradient-17" x1="85.13" y1="82.4" x2="110.27" y2="199.08" xlink:href="#linear-gradient-16"/>
    <linearGradient id="linear-gradient-18" x1="199.6" y1="108.69" x2="199.6" y2="163.91" gradientUnits="userSpaceOnUse">
      <stop offset="0" stop-color="#f6462f"/>
      <stop offset=".27" stop-color="#ef432d"/>
      <stop offset=".67" stop-color="#dc3e2a"/>
      <stop offset="1" stop-color="#c73827"/>
    </linearGradient>
  </defs>
  <g class="cls-16">
    <g id="_레이어_2" data-name="레이어 2">
      <g id="Layer_1" data-name="Layer 1">
        <g>
          <g>
            <path class="cls-12" d="m31.76,52.03c.02.21.05.43.07.64.59-8.22,5.18-34.28,39.14-42.77,6.08-1.52,12.14-2.29,18.01-2.29,26.5,0,43.91,16.92,47.2,20.38.17.18.34.36.5.54.04.05.06.08.07.08h0c2.67,2.97,5.54,5.86,8.6,11.43-2.06-6.07-3.79-8.69-5.81-11.41-.91-1.27-1.84-2.41-2.79-3.47h0s-.03-.03-.07-.08c-.17-.18-.34-.36-.5-.55-3.28-3.46-20.69-20.38-47.2-20.38-5.87,0-11.93.77-18.01,2.29C30.66,16.52,31.73,51.37,31.74,51.72v.3Z"/>
            <g>
              <g>
                <path class="cls-24" d="m27.58,52.25S25.9,14.46,69.57,3.54c43.66-10.92,68.44,18.47,68.44,18.47,0,0,9.24-11.76,23.93-5.88,14.7,5.88,14.23,18.18,14.23,18.18,0,0,16-7.69,32.79,5.33,16.79,13.01,16.38,25.61,16.38,25.61,0,0,27.71,11.34,23.93,38.21-3.78,26.87-33.5,21.94-37.28,12.7-.42,8.82-18.56,30.13-49.21,13.33-11.34,18.06-41.99,28.97-63.4,23.52-21.42-5.46-27.49-12.9-27.49-12.9,0,0-21.08,16.13-51.44-6.84-24.62-18.61-10.5-40.73-10.5-40.73,0,0-16.5-14.79-6-32.75,6.16-10.53,23.64-7.55,23.64-7.55Z"/>
                <path class="cls-5" d="m135.35,83.62c-50.05,9.26-87.95-12.88-110.74-32.76-5.07-.38-16.4-.23-21.12,7.83-10.49,17.97,6,32.76,6,32.76,0,0-14.13,22.11,10.5,40.73,30.37,22.96,51.52,7.46,51.52,7.46,0,0,6,6.81,27.42,12.27,21.41,5.45,52.07-5.46,63.4-23.51,30.65,16.79,48.8-4.51,49.22-13.33,3.77,9.24,33.5,14.16,37.27-12.71.4-2.82.43-5.46.2-7.95-27.42-15.42-64.22-19.93-113.68-10.79Z"/>
                <path class="cls-23" d="m226.76,64.33c-.3-3.51-2.42-14.48-16.87-25.68-6.36-4.93-13.32-7.42-20.68-7.42-3.41,0-6.35.55-8.64,1.18-.01,0-.02,0-.03,0-1,.23-1.91.51-2.78.85-.68-4.47-3.51-13.61-15.01-18.21-2.91-1.16-5.84-1.76-8.7-1.76-7.86,0-13.33,4.35-15.7,6.68C133.73,15.21,116.82,0,89.33,0c-6.32,0-12.85.84-19.39,2.47C33.27,11.63,27.53,36.79,28.29,50.94h0c-7.06-1.12-20.41,1.01-24.61,8.21-9.44,16.17,1.87,30.02,5.35,33.69-2.56,5-10.62,24.79,11.49,41.51,10.89,8.23,21.81,12.41,32.45,12.41,9.82,0,16.58-3.58,19.25-5.3,2.62,2.49,10.31,8.44,27.35,12.79,3.78.96,7.92,1.45,12.29,1.45,20.19,0,42.04-10.33,51.68-24.24,7.38,3.83,14.52,5.76,21.25,5.76,15.1,0,26.73-10.96,27.46-18.89,1.67,4.9,9.43,6.25,15.5,6.25,9.89,0,20.61-5.06,22.84-20.94,3.48-24.7-18.79-36.89-23.81-39.3Zm20.51,38.83c-2.44,17.33-16.08,18.68-20.2,18.68-6.25,0-12.88-.98-16.12-9.15.41,2.4-.53,5.58-1.78,8.13-3.14,5.96-12.23,13.06-24.39,13.06-6.32,0-13.09-1.9-20.12-5.63.81-2.6,1.57-6.51,1.85-12.44-1.85,5.97-3.21,9.58-5.07,12.74-8.67,13.58-29.92,23.81-49.58,23.81-4.09,0-7.95-.46-11.48-1.35-12.58-3.2-19.06-6.65-22.2-8.83t0,0c-5.01-4.24-7.9-6.93-12.22-15.62,1.79,6.36,3.56,10.3,5.07,12.74-2.49,1.26-9.11,4.11-18.06,4.11-9.91,0-20.15-3.95-30.44-11.73-19.82-15-13.24-32.05-10.77-36.91,0,0,0,0,0,0,3.7-5.86,5.29-7.01,7.32-8.27-3.76,1.12-6.2,2.82-7.61,4.07-2.94-3.06-13.29-15.39-4.91-29.73,3.41-5.84,10.9-7.07,16.59-7.07,2.99,0,5.16.37,5.18.37l.73.12c1.09,4.22,3.08,9.44,2.97,9.12-.85-3.45-1.45-7.1-1.75-10.65v-.31c-.03-.36-1.13-36.32,40.45-46.71,6.28-1.57,12.53-2.36,18.58-2.36,27.35,0,45.31,17.45,48.7,21.03.17.19.34.37.51.56.04.04.07.07.07.07h0c2.76,3.06,5.32,6.76,7.86,12.26-1.88-6.81-4.29-11.41-6.3-14.36,1.53-1.64,6.51-6.27,13.89-6.27,2.43,0,4.94.51,7.46,1.52,10.58,4.23,13.48,12.73,14.24,16.03-2.06,1.09-3.89,2.54-5.91,4.33,3.46-1.96,6.16-2.98,6.16-2.98.05-.03,6.27-1.71,13.34-1.71,6.61,0,12.74,3,18.5,7.46,12.37,9.59,14.94,18.91,15.48,22.51-4.88-.92-13.62-1.83-22.5.8,6.36-1.47,17.2-.07,23.94,2.48,2.66,1.18,25.86,12.27,22.51,36.08Z"/>
              </g>
              <path class="cls-12" d="m221.91,67.93c-4.85-1.28-13.62-1.84-22.5.8,6.37-1.47,17.2-.07,23.95,2.48,2.4,1.07,21.6,10.23,22.78,29.58,1.15-21.79-20.23-32.01-22.78-33.14-.5-.19-1.04-.38-1.59-.56.06.3,0,0,.15.83Z"/>
              <path class="cls-12" d="m153.83,21.51c2.24,0,4.55.47,6.87,1.4,7.49,2.99,11.66,7.8,13.1,11.48.29-.18.57-.36.87-.51-.69-3.03-4.24-10.34-13.97-14.24-2.32-.93-4.63-1.4-6.87-1.4-6.8,0-10.9,3.79-12.2,5.17.41.6.81,1.42,1.25,2.18,2.13-1.86,5.56-4.08,10.95-4.08Z"/>
              <path class="cls-12" d="m207.53,42.64c-5.49-4.26-10.96-6.69-17.66-7.13,0,0-11.62-.93-19.58,5.2,3.3-1.87,8.91-2.06,8.91-2.06.05-.02,4.2-1.09,10.91-.33,5.92.67,11.93,3.47,17.42,7.73,7.32,5.67,11.04,11.24,12.94,15.48.46.04.9.11,1.32.2-1.21-4.3-4.61-11.61-14.26-19.08Z"/>
            </g>
            <g>
              <g>
                <path class="cls-25" d="m149.08,107.58s0,0-.05-.04c-.22-.23-.65-.64-1.19-1.07-.11-.08-.18-.18-.29-.26,0,0-.02.02,0,0-.02-.01-.04-.05-.06-.05-.04-.03-.1-.05-.14-.08-2.09-1.58-5.17-3.71-5.57-3.99-4.88-4.16-10.12-9.16-11.42-12.78-7.38,30.35,5.29,35.19,5.29,35.19,0,0,.02-.01.02-.02,1.67.99,3.61,1.58,5.7,1.56,6.05-.09,10.87-5.06,10.79-11.1-.04-2.89-1.24-5.45-3.08-7.37Z"/>
                <path class="cls-6" d="m141.55,122.73c-2.32.04-4.47-.63-6.35-1.73h-.02s-3.84-1.51-6.36-7.74c1.85,9.24,6.95,11.24,6.95,11.24,0,0,.01-.02,0-.03,1.69,1,3.62,1.58,5.72,1.55,5.64-.08,10.14-4.4,10.7-9.88-2.01,3.84-5.97,6.52-10.64,6.58Z"/>
              </g>
              <g>
                <path class="cls-15" d="m178.01,125.8s0,0-.04-.04c-.2-.2-.6-.55-1.09-.91-.1-.07-.16-.16-.27-.23,0,0-.02.02,0,0-.01,0-.03-.04-.05-.04-.04-.02-.09-.04-.13-.07-1.9-1.35-4.7-3.15-5.06-3.39-4.46-3.56-9.25-7.86-10.51-11.05-5.74,27.18,5.67,31.16,5.67,31.16,0,0,.01-.01.01-.02,1.51.84,3.25,1.32,5.12,1.24,5.37-.25,9.53-4.8,9.29-10.17-.12-2.57-1.24-4.82-2.94-6.47Z"/>
                <path class="cls-9" d="m171.72,139.49c-2.06.1-4-.44-5.7-1.37h-.01s-3.45-1.23-5.87-6.7c1.89,8.17,6.48,9.8,6.48,9.8,0,0,.01-.01,0-.02,1.53.84,3.26,1.31,5.12,1.23,5.02-.22,8.9-4.19,9.25-9.08-1.69,3.48-5.14,5.96-9.28,6.14Z"/>
              </g>
              <g>
                <path class="cls-26" d="m170.03,84.84s0,0-.04-.03c-.16-.17-.49-.48-.89-.79-.09-.06-.14-.14-.23-.19,0,0-.02.01,0,0-.02,0-.04-.04-.04-.04-.04-.03-.09-.04-.12-.06-1.57-1.17-3.88-2.75-4.19-2.95-3.67-3.09-7.61-6.8-8.59-9.5-5.37,22.73,4.12,26.29,4.12,26.29,0,0,0-.01.01-.02,1.25.73,2.71,1.17,4.27,1.14,4.53-.1,8.11-3.83,8.01-8.35-.05-2.16-.95-4.07-2.33-5.49Z"/>
                <path class="cls-1" d="m164.47,96.22c-1.74.04-3.35-.45-4.75-1.27h-.02s-2.88-1.1-4.8-5.75c1.42,6.9,5.25,8.36,5.25,8.36,0,0,.01,0,0-.02,1.27.74,2.71,1.16,4.28,1.14,4.22-.09,7.56-3.34,7.95-7.44-1.49,2.88-4.44,4.9-7.92,4.97Z"/>
              </g>
              <g>
                <path class="cls-20" d="m106.4,97.43s0,0-.03-.04c-.15-.23-.43-.64-.81-1.08-.07-.09-.12-.18-.2-.27,0,0-.02.01,0,0-.02,0-.03-.04-.04-.05-.02-.03-.07-.06-.1-.09-1.46-1.65-3.66-3.92-3.95-4.22-3.34-4.25-6.84-9.26-7.31-12.47-11.15,23.86-1.48,29.98-1.48,29.98,0,0,.01,0,.02-.02,1.22,1.1,2.73,1.92,4.46,2.25,5.02.93,9.83-2.38,10.77-7.38.45-2.4-.11-4.72-1.32-6.61Z"/>
                <path class="cls-4" d="m97.65,108.71c-1.93-.35-3.6-1.26-4.96-2.49h-.02s-2.92-1.88-3.97-7.45c0,7.95,3.88,10.44,3.88,10.44,0,0,.01,0,.01-.02,1.23,1.11,2.73,1.91,4.47,2.24,4.68.87,9.12-1.95,10.48-6.39-2.3,2.84-6.02,4.39-9.88,3.67Z"/>
              </g>
              <g>
                <path class="cls-27" d="m128.87,138.83s0,0-.06-.05c-.24-.22-.71-.64-1.31-1.06-.12-.08-.2-.19-.32-.25.01-.01-.03,0,0,0-.02-.01-.04-.05-.07-.06-.05-.03-.11-.04-.15-.08-2.3-1.55-5.7-3.62-6.14-3.91-5.4-4.12-11.23-9.11-12.83-12.88-6.09,32.56,7.61,36.97,7.61,36.97,0,0,.02-.02.02-.02,1.83.95,3.91,1.47,6.13,1.32,6.39-.43,11.23-5.97,10.8-12.37-.21-3.05-1.6-5.69-3.69-7.62Z"/>
                <path class="cls-2" d="m121.77,155.32c-2.45.17-4.8-.42-6.85-1.48,0,0-.02.03-.02.03,0,0-4.14-1.39-7.17-7.84,2.47,9.68,8.01,11.5,8.01,11.5,0,0,.02-.02,0-.03,1.84.95,3.92,1.47,6.13,1.32,5.96-.4,10.5-5.24,10.77-11.07-1.92,4.19-5.97,7.23-10.88,7.58Z"/>
              </g>
              <g>
                <path class="cls-14" d="m170.55,157.56s0,0-.07-.05c-.29-.23-.86-.65-1.57-1.06-.14-.08-.25-.18-.37-.26,0-.02-.03.02,0,0-.03-.01-.06-.05-.08-.06-.06-.02-.13-.03-.19-.06-2.69-1.51-6.64-3.5-7.15-3.76-6.37-4.07-13.29-9.06-15.42-13.1-3.74,36.67,11.87,40.3,11.87,40.3l.02-.03c2.11.89,4.47,1.27,6.91.9,7.07-1.08,11.91-7.66,10.83-14.72-.52-3.36-2.32-6.17-4.78-8.11Z"/>
                <path class="cls-3" d="m164.2,176.5c-2.71.42-5.35-.01-7.73-1.01v.04s-4.75-1.16-8.7-8.04c3.64,10.5,9.95,12.02,9.95,12.02,0,0,0-.03,0-.03,2.14.89,4.5,1.26,6.94.89,6.57-1,11.15-6.79,10.9-13.27-1.73,4.82-5.93,8.58-11.36,9.41Z"/>
              </g>
              <g class="cls-19">
                <path class="cls-22" d="m149.08,107.58s0,0-.05-.04c-.22-.23-.65-.64-1.19-1.07-.11-.08-.18-.18-.29-.26,0,0-.02.02,0,0-.02-.01-.04-.05-.06-.05-.04-.03-.1-.05-.14-.08-2.09-1.58-5.17-3.71-5.57-3.99-4.88-4.16-10.12-9.16-11.42-12.78-7.38,30.35,5.29,35.19,5.29,35.19,0,0,.02-.01.02-.02,1.67.99,3.61,1.58,5.7,1.56,6.05-.09,10.87-5.06,10.79-11.1-.04-2.89-1.24-5.45-3.08-7.37Z"/>
                <path class="cls-8" d="m141.55,122.73c-2.32.04-4.47-.63-6.35-1.73h-.02s-3.84-1.51-6.36-7.74c1.85,9.24,6.95,11.24,6.95,11.24,0,0,.01-.02,0-.03,1.69,1,3.62,1.58,5.72,1.55,5.64-.08,10.14-4.4,10.7-9.88-2.01,3.84-5.97,6.52-10.64,6.58Z"/>
              </g>
              <g class="cls-19">
                <path class="cls-22" d="m178.01,125.8s0,0-.04-.04c-.2-.2-.6-.55-1.09-.91-.1-.07-.16-.16-.27-.23,0,0-.02.02,0,0-.01,0-.03-.04-.05-.04-.04-.02-.09-.04-.13-.07-1.9-1.35-4.7-3.15-5.06-3.39-4.46-3.56-9.25-7.86-10.51-11.05-5.74,27.18,5.67,31.16,5.67,31.16,0,0,.01-.01.01-.02,1.51.84,3.25,1.32,5.12,1.24,5.37-.25,9.53-4.8,9.29-10.17-.12-2.57-1.24-4.82-2.94-6.47Z"/>
                <path class="cls-8" d="m171.72,139.49c-2.06.1-4-.44-5.7-1.37h-.01s-3.45-1.23-5.87-6.7c1.89,8.17,6.48,9.8,6.48,9.8,0,0,.01-.01,0-.02,1.53.84,3.26,1.31,5.12,1.23,5.02-.22,8.9-4.19,9.25-9.08-1.69,3.48-5.14,5.96-9.28,6.14Z"/>
              </g>
              <g class="cls-19">
                <path class="cls-22" d="m170.03,84.84s0,0-.04-.03c-.16-.17-.49-.48-.89-.79-.09-.06-.14-.14-.23-.19,0,0-.02.01,0,0-.02,0-.04-.04-.04-.04-.04-.03-.09-.04-.12-.06-1.57-1.17-3.88-2.75-4.19-2.95-3.67-3.09-7.61-6.8-8.59-9.5-5.37,22.73,4.12,26.29,4.12,26.29,0,0,0-.01.01-.02,1.25.73,2.71,1.17,4.27,1.14,4.53-.1,8.11-3.83,8.01-8.35-.05-2.16-.95-4.07-2.33-5.49Z"/>
                <path class="cls-8" d="m164.47,96.22c-1.74.04-3.35-.45-4.75-1.27h-.02s-2.88-1.1-4.8-5.75c1.42,6.9,5.25,8.36,5.25,8.36,0,0,.01,0,0-.02,1.27.74,2.71,1.16,4.28,1.14,4.22-.09,7.56-3.34,7.95-7.44-1.49,2.88-4.44,4.9-7.92,4.97Z"/>
              </g>
              <g class="cls-19">
                <path class="cls-22" d="m106.4,97.43s0,0-.03-.04c-.15-.23-.43-.64-.81-1.08-.07-.09-.12-.18-.2-.27,0,0-.02.01,0,0-.02,0-.03-.04-.04-.05-.02-.03-.07-.06-.1-.09-1.46-1.65-3.66-3.92-3.95-4.22-3.34-4.25-6.84-9.26-7.31-12.47-11.15,23.86-1.48,29.98-1.48,29.98,0,0,.01,0,.02-.02,1.22,1.1,2.73,1.92,4.46,2.25,5.02.93,9.83-2.38,10.77-7.38.45-2.4-.11-4.72-1.32-6.61Z"/>
                <path class="cls-8" d="m97.65,108.71c-1.93-.35-3.6-1.26-4.96-2.49h-.02s-2.92-1.88-3.97-7.45c0,7.95,3.88,10.44,3.88,10.44,0,0,.01,0,.01-.02,1.23,1.11,2.73,1.91,4.47,2.24,4.68.87,9.12-1.95,10.48-6.39-2.3,2.84-6.02,4.39-9.88,3.67Z"/>
              </g>
              <g class="cls-19">
                <path class="cls-22" d="m128.87,138.83s0,0-.06-.05c-.24-.22-.71-.64-1.31-1.06-.12-.08-.2-.19-.32-.25.01-.01-.03,0,0,0-.02-.01-.04-.05-.07-.06-.05-.03-.11-.04-.15-.08-2.3-1.55-5.7-3.62-6.14-3.91-5.4-4.12-11.23-9.11-12.83-12.88-6.09,32.56,7.61,36.97,7.61,36.97,0,0,.02-.02.02-.02,1.83.95,3.91,1.47,6.13,1.32,6.39-.43,11.23-5.97,10.8-12.37-.21-3.05-1.6-5.69-3.69-7.62Z"/>
                <path class="cls-8" d="m121.77,155.32c-2.45.17-4.8-.42-6.85-1.48,0,0-.02.03-.02.03,0,0-4.14-1.39-7.17-7.84,2.47,9.68,8.01,11.5,8.01,11.5,0,0,.02-.02,0-.03,1.84.95,3.92,1.47,6.13,1.32,5.96-.4,10.5-5.24,10.77-11.07-1.92,4.19-5.97,7.23-10.88,7.58Z"/>
              </g>
              <g class="cls-19">
                <path class="cls-22" d="m170.55,157.56s0,0-.07-.05c-.29-.23-.86-.65-1.57-1.06-.14-.08-.25-.18-.37-.26,0-.02-.03.02,0,0-.03-.01-.06-.05-.08-.06-.06-.02-.13-.03-.19-.06-2.69-1.51-6.64-3.5-7.15-3.76-6.37-4.07-13.29-9.06-15.42-13.1-3.74,36.67,11.87,40.3,11.87,40.3l.02-.03c2.11.89,4.47,1.27,6.91.9,7.07-1.08,11.91-7.66,10.83-14.72-.52-3.36-2.32-6.17-4.78-8.11Z"/>
                <path class="cls-8" d="m164.2,176.5c-2.71.42-5.35-.01-7.73-1.01v.04s-4.75-1.16-8.7-8.04c3.64,10.5,9.95,12.02,9.95,12.02,0,0,0-.03,0-.03,2.14.89,4.5,1.26,6.94.89,6.57-1,11.15-6.79,10.9-13.27-1.73,4.82-5.93,8.58-11.36,9.41Z"/>
              </g>
              <g class="cls-18">
                <path class="cls-17" d="m149.08,107.58s0,0-.05-.04c-.22-.23-.65-.64-1.19-1.07-.11-.08-.18-.18-.29-.26,0,0-.02.02,0,0-.02-.01-.04-.05-.06-.05-.04-.03-.1-.05-.14-.08-2.09-1.58-5.17-3.71-5.57-3.99-4.88-4.16-10.12-9.16-11.42-12.78-7.38,30.35,5.29,35.19,5.29,35.19,0,0,.02-.01.02-.02,1.67.99,3.61,1.58,5.7,1.56,6.05-.09,10.87-5.06,10.79-11.1-.04-2.89-1.24-5.45-3.08-7.37Z"/>
                <path class="cls-7" d="m141.55,122.73c-2.32.04-4.47-.63-6.35-1.73h-.02s-3.84-1.51-6.36-7.74c1.85,9.24,6.95,11.24,6.95,11.24,0,0,.01-.02,0-.03,1.69,1,3.62,1.58,5.72,1.55,5.64-.08,10.14-4.4,10.7-9.88-2.01,3.84-5.97,6.52-10.64,6.58Z"/>
              </g>
              <g class="cls-18">
                <path class="cls-17" d="m178.01,125.8s0,0-.04-.04c-.2-.2-.6-.55-1.09-.91-.1-.07-.16-.16-.27-.23,0,0-.02.02,0,0-.01,0-.03-.04-.05-.04-.04-.02-.09-.04-.13-.07-1.9-1.35-4.7-3.15-5.06-3.39-4.46-3.56-9.25-7.86-10.51-11.05-5.74,27.18,5.67,31.16,5.67,31.16,0,0,.01-.01.01-.02,1.51.84,3.25,1.32,5.12,1.24,5.37-.25,9.53-4.8,9.29-10.17-.12-2.57-1.24-4.82-2.94-6.47Z"/>
                <path class="cls-7" d="m171.72,139.49c-2.06.1-4-.44-5.7-1.37h-.01s-3.45-1.23-5.87-6.7c1.89,8.17,6.48,9.8,6.48,9.8,0,0,.01-.01,0-.02,1.53.84,3.26,1.31,5.12,1.23,5.02-.22,8.9-4.19,9.25-9.08-1.69,3.48-5.14,5.96-9.28,6.14Z"/>
              </g>
              <g class="cls-18">
                <path class="cls-17" d="m170.03,84.84s0,0-.04-.03c-.16-.17-.49-.48-.89-.79-.09-.06-.14-.14-.23-.19,0,0-.02.01,0,0-.02,0-.04-.04-.04-.04-.04-.03-.09-.04-.12-.06-1.57-1.17-3.88-2.75-4.19-2.95-3.67-3.09-7.61-6.8-8.59-9.5-5.37,22.73,4.12,26.29,4.12,26.29,0,0,0-.01.01-.02,1.25.73,2.71,1.17,4.27,1.14,4.53-.1,8.11-3.83,8.01-8.35-.05-2.16-.95-4.07-2.33-5.49Z"/>
                <path class="cls-7" d="m164.47,96.22c-1.74.04-3.35-.45-4.75-1.27h-.02s-2.88-1.1-4.8-5.75c1.42,6.9,5.25,8.36,5.25,8.36,0,0,.01,0,0-.02,1.27.74,2.71,1.16,4.28,1.14,4.22-.09,7.56-3.34,7.95-7.44-1.49,2.88-4.44,4.9-7.92,4.97Z"/>
              </g>
              <g class="cls-18">
                <path class="cls-17" d="m106.4,97.43s0,0-.03-.04c-.15-.23-.43-.64-.81-1.08-.07-.09-.12-.18-.2-.27,0,0-.02.01,0,0-.02,0-.03-.04-.04-.05-.02-.03-.07-.06-.1-.09-1.46-1.65-3.66-3.92-3.95-4.22-3.34-4.25-6.84-9.26-7.31-12.47-11.15,23.86-1.48,29.98-1.48,29.98,0,0,.01,0,.02-.02,1.22,1.1,2.73,1.92,4.46,2.25,5.02.93,9.83-2.38,10.77-7.38.45-2.4-.11-4.72-1.32-6.61Z"/>
                <path class="cls-7" d="m97.65,108.71c-1.93-.35-3.6-1.26-4.96-2.49h-.02s-2.92-1.88-3.97-7.45c0,7.95,3.88,10.44,3.88,10.44,0,0,.01,0,.01-.02,1.23,1.11,2.73,1.91,4.47,2.24,4.68.87,9.12-1.95,10.48-6.39-2.3,2.84-6.02,4.39-9.88,3.67Z"/>
              </g>
              <g class="cls-18">
                <path class="cls-17" d="m128.87,138.83s0,0-.06-.05c-.24-.22-.71-.64-1.31-1.06-.12-.08-.2-.19-.32-.25.01-.01-.03,0,0,0-.02-.01-.04-.05-.07-.06-.05-.03-.11-.04-.15-.08-2.3-1.55-5.7-3.62-6.14-3.91-5.4-4.12-11.23-9.11-12.83-12.88-6.09,32.56,7.61,36.97,7.61,36.97,0,0,.02-.02.02-.02,1.83.95,3.91,1.47,6.13,1.32,6.39-.43,11.23-5.97,10.8-12.37-.21-3.05-1.6-5.69-3.69-7.62Z"/>
                <path class="cls-7" d="m121.77,155.32c-2.45.17-4.8-.42-6.85-1.48,0,0-.02.03-.02.03,0,0-4.14-1.39-7.17-7.84,2.47,9.68,8.01,11.5,8.01,11.5,0,0,.02-.02,0-.03,1.84.95,3.92,1.47,6.13,1.32,5.96-.4,10.5-5.24,10.77-11.07-1.92,4.19-5.97,7.23-10.88,7.58Z"/>
              </g>
              <g class="cls-18">
                <path class="cls-17" d="m170.55,157.56s0,0-.07-.05c-.29-.23-.86-.65-1.57-1.06-.14-.08-.25-.18-.37-.26,0-.02-.03.02,0,0-.03-.01-.06-.05-.08-.06-.06-.02-.13-.03-.19-.06-2.69-1.51-6.64-3.5-7.15-3.76-6.37-4.07-13.29-9.06-15.42-13.1-3.74,36.67,11.87,40.3,11.87,40.3l.02-.03c2.11.89,4.47,1.27,6.91.9,7.07-1.08,11.91-7.66,10.83-14.72-.52-3.36-2.32-6.17-4.78-8.11Z"/>
                <path class="cls-7" d="m164.2,176.5c-2.71.42-5.35-.01-7.73-1.01v.04s-4.75-1.16-8.7-8.04c3.64,10.5,9.95,12.02,9.95,12.02,0,0,0-.03,0-.03,2.14.89,4.5,1.26,6.94.89,6.57-1,11.15-6.79,10.9-13.27-1.73,4.82-5.93,8.58-11.36,9.41Z"/>
              </g>
            </g>
            <g>
              <path class="cls-21" d="m70.83,131.5l15.97,5.14-7,34.96,8.66,2.83-3.77,27.86,18.09-40.52-11.2-.68,21.35-39.88-19.34-1.4,17.23-30.14c-13.07,4.39-21.16,5.85-32.87,5.85l-7.14,35.97Z"/>
              <path class="cls-10" d="m73.2,131.5l15.97,5.14-6.99,34.96,6.28,2.83-3.86,28.59,19.21-41.32-12.21-.61,23.73-39.88-19.34-1.4,17.23-30.14c-13.08,4.39-21.16,5.85-32.87,5.85l-7.15,35.97Z"/>
            </g>
          </g>
          <g>
            <path class="cls-13" d="m199.76,106.41c-.05,0-.11,0-.16,0-.06,0-.1,0-.16,0-16.45,0-37.22,24.5-37.22,40.94s20.94,19.18,37.38,19.18h.33c16.45,0,37.06-2.73,37.06-19.18s-20.78-40.94-37.22-40.94Z"/>
            <path class="cls-11" d="m196.36,141.51l-1-14.95c-.19-2.91-.28-5.01-.28-6.27,0-1.73.45-3.08,1.36-4.04.91-.97,2.1-1.45,3.57-1.45,1.79,0,2.99.62,3.59,1.86.6,1.24.9,3.02.9,5.35,0,1.37-.07,2.77-.22,4.18l-1.33,15.39c-.14,1.83-.46,3.23-.94,4.21-.47.98-1.27,1.47-2.38,1.47s-1.9-.47-2.34-1.42c-.43-.95-.75-2.38-.94-4.32Zm3.46,20.54c-1.26,0-2.37-.4-3.32-1.23-.95-.82-1.42-1.97-1.42-3.45,0-1.29.45-2.38,1.36-3.29.91-.91,2.01-1.36,3.32-1.36s2.42.45,3.35,1.36c.93.9,1.39,2,1.39,3.29,0,1.46-.47,2.6-1.4,3.44-.94.83-2.03,1.25-3.28,1.25Z"/>
          </g>
        </g>
      </g>
    </g>
  </g>
</svg>