<?xml version="1.0" encoding="UTF-8"?>
<svg xmlns="http://www.w3.org/2000/svg" xmlns:xlink="http://www.w3.org/1999/xlink" viewBox="0 0 258.5 163.43">
  <defs>
    <style>
      .cls-1 {
        fill: url(#linear-gradient-6);
      }

      .cls-2 {
        fill: url(#linear-gradient-2);
        opacity: .15;
      }

      .cls-2, .cls-3 {
        mix-blend-mode: multiply;
      }

      .cls-4 {
        isolation: isolate;
      }

      .cls-5 {
        fill: #fff;
        opacity: .5;
      }

      .cls-3 {
        opacity: .45;
      }

      .cls-6 {
        fill: url(#linear-gradient-5);
      }

      .cls-7 {
        fill: url(#linear-gradient-7);
      }

      .cls-8 {
        fill: url(#linear-gradient-9);
      }

      .cls-9 {
        fill: url(#linear-gradient-3);
      }

      .cls-10 {
        fill: url(#linear-gradient);
      }

      .cls-11 {
        fill: url(#linear-gradient-4);
      }

      .cls-12 {
        fill: url(#linear-gradient-8);
      }
    </style>
    <linearGradient id="linear-gradient" x1="125.16" y1="3.48" x2="125.16" y2="154.06" gradientUnits="userSpaceOnUse">
      <stop offset="0" stop-color="#f1f2f2"/>
      <stop offset=".26" stop-color="#e9eaea"/>
      <stop offset=".65" stop-color="#d4d6d7"/>
      <stop offset="1" stop-color="#bcbec0"/>
    </linearGradient>
    <linearGradient id="linear-gradient-2" x1="124.71" y1="54.53" x2="124.71" y2="151.81" gradientUnits="userSpaceOnUse">
      <stop offset="0" stop-color="#f1f2f2"/>
      <stop offset=".3" stop-color="#dbdcdd"/>
      <stop offset=".93" stop-color="#a3a5a7"/>
      <stop offset="1" stop-color="#9d9fa1"/>
    </linearGradient>
    <linearGradient id="linear-gradient-3" x1="125.59" y1="5.04" x2="125.59" y2="156.19" gradientUnits="userSpaceOnUse">
      <stop offset="0" stop-color="#e6e7e8"/>
      <stop offset=".19" stop-color="#dedfe0"/>
      <stop offset=".48" stop-color="#c8c9ca"/>
      <stop offset=".84" stop-color="#a4a5a7"/>
      <stop offset="1" stop-color="#939496"/>
    </linearGradient>
    <linearGradient id="linear-gradient-4" x1="69.05" y1="102.53" x2="227.85" y2="187.49" gradientUnits="userSpaceOnUse">
      <stop offset="0" stop-color="#e6e7e8"/>
      <stop offset=".17" stop-color="#dedfe0"/>
      <stop offset=".43" stop-color="#c8c9ca"/>
      <stop offset=".75" stop-color="#a4a5a7"/>
      <stop offset="1" stop-color="#848587"/>
    </linearGradient>
    <linearGradient id="linear-gradient-5" x1="76.22" y1="89.13" x2="235.02" y2="174.1" xlink:href="#linear-gradient-4"/>
    <linearGradient id="linear-gradient-6" x1="91.15" y1="61.23" x2="249.94" y2="146.2" xlink:href="#linear-gradient-4"/>
    <linearGradient id="linear-gradient-7" x1="227.99" y1="194.15" x2="49.04" y2="86.54" xlink:href="#linear-gradient-4"/>
    <linearGradient id="linear-gradient-8" x1="235.11" y1="182.3" x2="56.17" y2="74.69" xlink:href="#linear-gradient-4"/>
    <linearGradient id="linear-gradient-9" x1="252.27" y1="153.76" x2="73.33" y2="46.16" xlink:href="#linear-gradient-4"/>
  </defs>
  <g class="cls-4">
    <g id="_레이어_2" data-name="레이어 2">
      <g id="Layer_1" data-name="Layer 1">
        <g>
          <g>
            <g>
              <path class="cls-10" d="m27.61,52.3S25.92,14.47,69.63,3.55c43.71-10.93,68.5,18.49,68.5,18.49,0,0,9.25-11.77,23.96-5.88,14.71,5.88,14.24,18.2,14.24,18.2,0,0,16.01-7.7,32.83,5.33,16.81,13.03,16.39,25.64,16.39,25.64,0,0,27.74,11.35,23.96,38.24-3.78,26.9-33.53,21.97-37.31,12.72-.42,8.83-18.58,30.15-49.26,13.34-11.35,18.07-42.02,29-63.46,23.53-21.43-5.46-27.52-12.91-27.52-12.91,0,0-21.1,16.15-51.49-6.84-24.65-18.63-10.51-40.77-10.51-40.77,0,0-16.52-14.8-6-32.79,6.16-10.55,23.66-7.56,23.66-7.56Z"/>
              <path class="cls-2" d="m135.49,83.7c-50.11,9.26-88.05-12.89-110.85-32.8-5.07-.38-16.41-.23-21.13,7.84-10.5,17.99,6.01,32.79,6.01,32.79,0,0-14.13,22.13,10.51,40.77,30.4,22.99,51.57,7.47,51.57,7.47,0,0,6.01,6.82,27.44,12.28,21.43,5.47,52.11-5.46,63.46-23.54,30.68,16.81,48.85-4.51,49.27-13.34,3.78,9.25,33.53,14.18,37.31-12.72.4-2.83.42-5.47.2-7.96-27.45-15.43-64.27-19.95-113.79-10.8Z"/>
              <path class="cls-9" d="m226.98,64.39c-.3-3.52-2.43-14.49-16.89-25.7-6.36-4.93-13.32-7.43-20.7-7.43-3.42,0-6.36.55-8.65,1.18-.01,0-.02,0-.03,0-1,.22-1.91.51-2.77.85-.68-4.47-3.51-13.62-15.03-18.22-2.91-1.16-5.84-1.75-8.7-1.75-7.87,0-13.35,4.35-15.71,6.69C133.86,15.23,116.94,0,89.42,0c-6.33,0-12.87.84-19.41,2.47C33.3,11.65,27.56,36.82,28.32,50.99h0c-7.07-1.12-20.42,1.01-24.64,8.22-9.45,16.19,1.87,30.05,5.35,33.72-2.56,5-10.62,24.81,11.5,41.55,10.9,8.24,21.83,12.42,32.49,12.42,9.83,0,16.59-3.58,19.26-5.3,2.62,2.49,10.32,8.45,27.37,12.8,3.79.97,7.93,1.46,12.3,1.46,20.21,0,42.08-10.34,51.73-24.27,7.38,3.83,14.54,5.77,21.28,5.77,15.11,0,26.76-10.97,27.49-18.91,1.67,4.91,9.44,6.26,15.51,6.26,9.91,0,20.63-5.07,22.86-20.97,3.49-24.73-18.8-36.92-23.83-39.34Zm20.53,38.87c-2.44,17.35-16.1,18.7-20.23,18.7-6.26,0-12.89-.98-16.14-9.16.42,2.4-.53,5.58-1.77,8.14-3.16,5.97-12.24,13.07-24.41,13.07-6.32,0-13.1-1.91-20.16-5.64.82-2.6,1.58-6.52,1.86-12.45-1.85,5.97-3.21,9.6-5.08,12.76-8.67,13.59-29.94,23.83-49.63,23.83-4.09,0-7.96-.46-11.49-1.35-12.59-3.21-19.08-6.66-22.22-8.83h0c-5.03-4.25-7.92-6.95-12.24-15.64,1.79,6.36,3.56,10.3,5.07,12.75-2.49,1.26-9.12,4.12-18.07,4.12-9.92,0-20.17-3.94-30.47-11.74-19.85-15.01-13.25-32.09-10.79-36.95,0,0,0,0,0,0,3.7-5.86,5.29-7.01,7.32-8.27-3.77,1.12-6.21,2.82-7.62,4.07-2.94-3.06-13.29-15.41-4.92-29.76,3.42-5.85,10.92-7.07,16.61-7.07,2.99,0,5.17.36,5.19.36l.73.13c1.1,4.22,3.08,9.44,2.98,9.13-.85-3.46-1.46-7.11-1.75-10.66v-.31c-.03-.37-1.14-36.35,40.49-46.76,6.28-1.57,12.54-2.37,18.6-2.37,27.37,0,45.35,17.47,48.74,21.05.17.18.35.37.51.56.04.05.06.07.07.08h0c2.76,3.07,5.33,6.77,7.88,12.27-1.9-6.82-4.31-11.42-6.31-14.38,1.53-1.64,6.51-6.27,13.9-6.27,2.43,0,4.95.51,7.47,1.52,10.59,4.24,13.5,12.74,14.25,16.04-2.06,1.1-3.9,2.54-5.92,4.34,3.46-1.96,6.16-2.98,6.16-2.98.05-.02,6.28-1.72,13.36-1.72,6.61,0,12.75,3.01,18.51,7.47,12.38,9.6,14.96,18.93,15.5,22.53-4.89-.91-13.63-1.84-22.52.8,6.37-1.47,17.22-.06,23.97,2.49,2.66,1.18,25.89,12.28,22.53,36.11Z"/>
            </g>
            <path class="cls-5" d="m222.12,68c-4.85-1.28-13.64-1.83-22.52.8,6.36-1.47,17.21-.06,23.97,2.49,2.41,1.07,21.62,10.24,22.8,29.61,1.15-21.81-20.25-32.05-22.8-33.18-.51-.2-1.04-.38-1.59-.55.06.3,0,0,.15.83Z"/>
            <path class="cls-5" d="m153.97,21.54c2.24,0,4.55.47,6.88,1.4,7.5,3,11.67,7.8,13.12,11.48.29-.17.58-.35.87-.51-.7-3.04-4.24-10.36-13.99-14.26-2.32-.93-4.63-1.4-6.88-1.4-6.8,0-10.91,3.8-12.2,5.18.41.6.8,1.42,1.25,2.18,2.13-1.86,5.56-4.08,10.96-4.08Z"/>
            <path class="cls-5" d="m31.78,52.07c.02.22.05.44.08.65.59-8.23,5.19-34.31,39.18-42.81,6.09-1.52,12.16-2.29,18.03-2.29,26.53,0,43.96,16.93,47.25,20.4.17.18.33.36.5.54.04.04.07.07.07.08h0c2.67,2.97,5.54,5.87,8.6,11.44-2.06-6.07-3.79-8.69-5.8-11.43-.92-1.27-1.85-2.41-2.8-3.47h0s-.03-.03-.07-.07c-.17-.18-.33-.36-.5-.54-3.29-3.47-20.71-20.41-47.25-20.41-5.87,0-11.94.78-18.03,2.3C30.69,16.54,31.76,51.42,31.77,51.77v.3Z"/>
            <path class="cls-5" d="m207.74,42.68c-5.51-4.26-10.97-6.69-17.69-7.13,0,0-11.64-.93-19.59,5.2,3.31-1.87,8.92-2.06,8.92-2.06.05-.02,4.21-1.09,10.92-.34,5.93.67,11.93,3.48,17.44,7.74,7.32,5.68,11.05,11.25,12.95,15.49.46.04.91.1,1.33.2-1.21-4.3-4.62-11.61-14.27-19.1Z"/>
          </g>
          <g>
            <path class="cls-11" d="m96.64,108.06s24.53-5,32.71,9.99c8.18,15-9.54,10.91-9.08,31.82.45,20.9,23.28,15.04,27.26,0,4.08-15.46.91-26.81-7.27-35.9-8.18-9.09-22.73-16.81-43.63-5.9Z"/>
            <path class="cls-6" d="m83.92,116.23s12.72-24.08,41.81-18.17c29.07,5.91,29.07,38.17,26.81,44.99-2.27,6.82,1.36,13.18,5.45,10,4.1-3.18,0-11.36,0-11.36,0,0,15.45,24.54,47.7,19.08,5.92-1.81,4.09-7.72,0-7.26-4.08.45-36.59,5.65-46.34-20.36-9.66-25.76-11.27-33.76-35.58-37.65-23.63-3.79-38.48,17.12-39.84,20.75Z"/>
            <path class="cls-1" d="m82.41,113.8s1.83-31.19,35.15-37.86c33.32-6.66,49.38.31,49.08,6.37-.31,6.05-5.24,9.39-17.31,3.02-12.07-6.36-40.04-5.54-51.55,5.67-11.52,11.2-11.42,16.14-11.42,16.14,0,0,15.65-22.71,40.89-21.51,25.24,1.21,35.14,9.1,42.71,15.15,3.64-5.15,11.81-19.08,26.97-13.94,7.26-6.96,17.24-15.23,33-8.57,9.09,4.24,8.51,10.39,8.51,10.39,0,0,20.19,3.85,20.08,19.9-.09,14.16-3.19,38.25-50.98,39.47-47.78,1.21-49.37-26.96-53.92-34.84-4.54-7.88-13.33-22.57-44.46-18.18-6.82,1.44-16.21,3.63-26.73,18.77Z"/>
          </g>
          <g class="cls-3">
            <path class="cls-7" d="m96.64,108.06s24.53-5,32.71,9.99c8.18,15-9.54,10.91-9.08,31.82.45,20.9,23.28,15.04,27.26,0,4.08-15.46.91-26.81-7.27-35.9-8.18-9.09-22.73-16.81-43.63-5.9Z"/>
            <path class="cls-12" d="m83.92,116.23s12.72-24.08,41.81-18.17c29.07,5.91,29.07,38.17,26.81,44.99-2.27,6.82,1.36,13.18,5.45,10,4.1-3.18,0-11.36,0-11.36,0,0,15.45,24.54,47.7,19.08,5.92-1.81,4.09-7.72,0-7.26-4.08.45-36.59,5.65-46.34-20.36-9.66-25.76-11.27-33.76-35.58-37.65-23.63-3.79-38.48,17.12-39.84,20.75Z"/>
            <path class="cls-8" d="m82.41,113.8s1.83-31.19,35.15-37.86c33.32-6.66,49.38.31,49.08,6.37-.31,6.05-5.24,9.39-17.31,3.02-12.07-6.36-40.04-5.54-51.55,5.67-11.52,11.2-11.42,16.14-11.42,16.14,0,0,15.65-22.71,40.89-21.51,25.24,1.21,35.14,9.1,42.71,15.15,3.64-5.15,11.81-19.08,26.97-13.94,7.26-6.96,17.24-15.23,33-8.57,9.09,4.24,8.51,10.39,8.51,10.39,0,0,20.19,3.85,20.08,19.9-.09,14.16-3.19,38.25-50.98,39.47-47.78,1.21-49.37-26.96-53.92-34.84-4.54-7.88-13.33-22.57-44.46-18.18-6.82,1.44-16.21,3.63-26.73,18.77Z"/>
          </g>
        </g>
      </g>
    </g>
  </g>
</svg>