<?xml version="1.0" encoding="UTF-8"?>
<svg xmlns="http://www.w3.org/2000/svg" xmlns:xlink="http://www.w3.org/1999/xlink" viewBox="0 0 236.84 221.23">
  <defs>
    <style>
      .cls-1 {
        fill: url(#linear-gradient-6);
      }

      .cls-2 {
        isolation: isolate;
      }

      .cls-3 {
        fill: #fff;
        opacity: .5;
      }

      .cls-4 {
        fill: url(#linear-gradient-2);
        opacity: .58;
      }

      .cls-4, .cls-5 {
        mix-blend-mode: multiply;
      }

      .cls-6 {
        fill: url(#linear-gradient-11);
      }

      .cls-7 {
        fill: url(#linear-gradient-10);
      }

      .cls-8 {
        fill: url(#radial-gradient);
      }

      .cls-9 {
        fill: url(#linear-gradient-5);
      }

      .cls-10 {
        fill: url(#linear-gradient-7);
      }

      .cls-11 {
        fill: url(#linear-gradient-9);
      }

      .cls-12 {
        fill: url(#linear-gradient-3);
      }

      .cls-13 {
        fill: url(#linear-gradient);
      }

      .cls-14 {
        fill: url(#linear-gradient-8);
      }

      .cls-15 {
        fill: url(#linear-gradient-12);
      }

      .cls-5 {
        fill: url(#linear-gradient-4);
        opacity: .15;
      }
    </style>
    <radialGradient id="radial-gradient" cx="149.31" cy="93.39" fx="149.31" fy="93.39" r="123.28" gradientUnits="userSpaceOnUse">
      <stop offset="0" stop-color="#e06c00"/>
      <stop offset=".2" stop-color="#e06e00"/>
      <stop offset=".31" stop-color="#e37600"/>
      <stop offset=".4" stop-color="#e78300"/>
      <stop offset=".47" stop-color="#ec9701"/>
      <stop offset=".54" stop-color="#f4b001"/>
      <stop offset=".6" stop-color="#fcce02"/>
      <stop offset=".61" stop-color="#ffd503"/>
      <stop offset=".66" stop-color="#fed507"/>
      <stop offset=".72" stop-color="#fed814"/>
      <stop offset=".78" stop-color="#fddc2a"/>
      <stop offset=".84" stop-color="#fde248"/>
      <stop offset=".9" stop-color="#fcea70"/>
      <stop offset=".96" stop-color="#faf49f"/>
      <stop offset="1" stop-color="#fafbc1"/>
    </radialGradient>
    <linearGradient id="linear-gradient" x1="149.71" y1="3" x2="149.71" y2="169.36" gradientUnits="userSpaceOnUse">
      <stop offset="0" stop-color="#fafbc1"/>
      <stop offset=".03" stop-color="#faf49f"/>
      <stop offset=".09" stop-color="#fcea70"/>
      <stop offset=".14" stop-color="#fde248"/>
      <stop offset=".19" stop-color="#fddc2a"/>
      <stop offset=".24" stop-color="#fed814"/>
      <stop offset=".29" stop-color="#fed507"/>
      <stop offset=".34" stop-color="#ffd503"/>
      <stop offset=".46" stop-color="#fdd002"/>
      <stop offset=".59" stop-color="#f9c202"/>
      <stop offset=".73" stop-color="#f2ac01"/>
      <stop offset=".88" stop-color="#e98c00"/>
      <stop offset="1" stop-color="#e06c00"/>
    </linearGradient>
    <linearGradient id="linear-gradient-2" x1="149.73" y1="18.27" x2="149.73" y2="174.65" xlink:href="#linear-gradient"/>
    <linearGradient id="linear-gradient-3" x1="113.45" y1="53.83" x2="113.45" y2="190.33" gradientUnits="userSpaceOnUse">
      <stop offset="0" stop-color="#f1f2f2"/>
      <stop offset=".26" stop-color="#e9eaea"/>
      <stop offset=".65" stop-color="#d4d6d7"/>
      <stop offset="1" stop-color="#bcbec0"/>
    </linearGradient>
    <linearGradient id="linear-gradient-4" x1="113.05" y1="100.11" x2="113.05" y2="188.28" gradientUnits="userSpaceOnUse">
      <stop offset="0" stop-color="#f1f2f2"/>
      <stop offset=".3" stop-color="#dbdcdd"/>
      <stop offset=".93" stop-color="#a3a5a7"/>
      <stop offset="1" stop-color="#9d9fa1"/>
    </linearGradient>
    <linearGradient id="linear-gradient-5" x1="113.85" y1="55.24" x2="113.85" y2="192.26" gradientUnits="userSpaceOnUse">
      <stop offset="0" stop-color="#e6e7e8"/>
      <stop offset=".19" stop-color="#dedfe0"/>
      <stop offset=".48" stop-color="#c8c9ca"/>
      <stop offset=".84" stop-color="#a4a5a7"/>
      <stop offset="1" stop-color="#939496"/>
    </linearGradient>
    <linearGradient id="linear-gradient-6" x1="-1228.68" y1="303.63" x2="-1228.68" y2="447.17" gradientTransform="translate(-1127.45 332.19) rotate(153.63) scale(1 -1)" gradientUnits="userSpaceOnUse">
      <stop offset="0" stop-color="#8be0ef"/>
      <stop offset=".1" stop-color="#84dced"/>
      <stop offset=".24" stop-color="#71d0e8"/>
      <stop offset=".41" stop-color="#52bee1"/>
      <stop offset=".6" stop-color="#27a5d6"/>
      <stop offset=".75" stop-color="#008fcd"/>
      <stop offset=".87" stop-color="#107eb6"/>
      <stop offset="1" stop-color="#276898"/>
    </linearGradient>
    <linearGradient id="linear-gradient-7" x1="-1203.2" y1="303.64" x2="-1203.2" y2="447.17" xlink:href="#linear-gradient-6"/>
    <linearGradient id="linear-gradient-8" x1="-1177.72" y1="303.64" x2="-1177.72" y2="447.17" xlink:href="#linear-gradient-6"/>
    <linearGradient id="linear-gradient-9" x1="-1152.24" y1="303.64" x2="-1152.24" y2="447.16" xlink:href="#linear-gradient-6"/>
    <linearGradient id="linear-gradient-10" x1="-1212.94" y1="303.63" x2="-1212.94" y2="447.17" xlink:href="#linear-gradient-6"/>
    <linearGradient id="linear-gradient-11" x1="-1187.46" y1="303.65" x2="-1187.46" y2="447.16" xlink:href="#linear-gradient-6"/>
    <linearGradient id="linear-gradient-12" x1="-1161.98" y1="303.62" x2="-1161.98" y2="447.17" xlink:href="#linear-gradient-6"/>
  </defs>
  <g class="cls-2">
    <g id="_레이어_2" data-name="레이어 2">
      <g id="Layer_1" data-name="Layer 1">
        <g>
          <g>
            <path class="cls-8" d="m236.84,108.39c-14.99-8.83-22.87-21.86-10.48-41.62-19.38-6.33-17.67-25.15-7.19-38.62-27.14,10.15-38.08-4.85-40.02-14.78-29.43,19.43-49.32-13.37-49.32-13.37,0,21.64-18.52,39.09-44.35,28.02,3.84,9.7,12.14,33.06-12,40.53,13.66,20.23,3.28,36.05-11.71,44.88,23.72-.55,35.87,17.27,33.76,31.78,17.61-.04,34.43,13.17,33.83,32.33,7.78-17.07,39.52-23.63,53.65-16.01.31-14.72,21.15-22.01,33.01-16.32-4.33-12.28-4.21-32.29,20.82-36.82Z"/>
            <path class="cls-13" d="m197.17,43.35c25.58,26.19,25.06,68.17-1.15,93.75-26.22,25.57-68.18,25.05-93.75-1.14-25.58-26.22-25.07-68.2,1.14-93.77,26.22-25.58,68.18-25.06,93.76,1.16Z"/>
            <path class="cls-4" d="m149.72,153.91c-17.47,0-33.8-6.88-46-19.38-24.73-25.36-24.24-66.13,1.11-90.88,12.08-11.78,28.01-18.27,44.87-18.27s33.82,6.88,46.02,19.38c11.98,12.28,18.46,28.49,18.25,45.66-.21,17.17-7.09,33.22-19.37,45.21-12.08,11.77-28.01,18.27-44.88,18.27Zm-.01-125.21c-15.99,0-31.11,6.16-42.56,17.32-24.05,23.48-24.52,62.15-1.06,86.2,11.57,11.85,27.07,18.38,43.64,18.38s31.11-6.16,42.56-17.33c11.66-11.37,18.18-26.59,18.38-42.88.21-16.29-5.94-31.67-17.3-43.31-11.58-11.86-27.08-18.39-43.65-18.39Z"/>
          </g>
          <g>
            <g>
              <g>
                <path class="cls-12" d="m25.02,98.08s-1.52-34.29,38.1-44.19c39.62-9.91,62.1,16.76,62.1,16.76,0,0,8.38-10.67,21.71-5.33,13.34,5.33,12.91,16.5,12.91,16.5,0,0,14.52-6.98,29.76,4.83,15.24,11.81,14.86,23.24,14.86,23.24,0,0,25.15,10.28,21.72,34.67-3.43,24.38-30.4,19.91-33.82,11.53-.38,8-16.85,27.33-44.66,12.09-10.28,16.38-38.09,26.29-57.52,21.33-19.43-4.95-24.94-11.7-24.94-11.7,0,0-19.12,14.64-46.68-6.2-22.34-16.89-9.52-36.96-9.52-36.96,0,0-14.97-13.42-5.45-29.72,5.58-9.56,21.45-6.85,21.45-6.85Z"/>
                <path class="cls-5" d="m122.81,126.55c-45.42,8.4-79.8-11.69-100.47-29.73-4.6-.34-14.88-.21-19.16,7.1-9.53,16.3,5.45,29.72,5.45,29.72,0,0-12.82,20.06,9.52,36.95,27.55,20.84,46.74,6.78,46.74,6.78,0,0,5.45,6.18,24.88,11.13,19.43,4.95,47.24-4.96,57.52-21.33,27.81,15.24,44.27-4.09,44.66-12.09,3.42,8.38,30.39,12.85,33.82-11.53.36-2.56.39-4.96.18-7.21-24.88-13.98-58.27-18.09-103.14-9.79Z"/>
                <path class="cls-9" d="m205.76,109.04c-.27-3.18-2.21-13.13-15.31-23.29-5.77-4.47-12.08-6.74-18.76-6.74-3.09,0-5.76.5-7.84,1.07-.01,0-.02,0-.03,0-.9.2-1.73.46-2.52.76-.62-4.05-3.19-12.34-13.62-16.52-2.64-1.05-5.3-1.59-7.89-1.59-7.14,0-12.1,3.95-14.25,6.06-4.2-4.33-19.54-18.13-44.49-18.13-5.73,0-11.66.76-17.59,2.24-33.27,8.32-38.48,31.13-37.79,43.98h0c-6.41-1.02-18.51.91-22.33,7.45-8.57,14.67,1.7,27.24,4.85,30.57-2.32,4.54-9.63,22.49,10.42,37.67,9.88,7.47,19.79,11.26,29.45,11.26,8.91,0,15.05-3.25,17.46-4.8,2.37,2.25,9.35,7.66,24.81,11.6,3.43.88,7.19,1.32,11.16,1.32,18.31,0,38.14-9.37,46.88-22,6.7,3.47,13.18,5.23,19.29,5.23,13.7,0,24.26-9.95,24.92-17.14,1.52,4.45,8.56,5.67,14.06,5.67,8.98,0,18.7-4.59,20.72-19.01,3.16-22.41-17.05-33.46-21.6-35.66Zm18.61,35.23c-2.21,15.73-14.58,16.95-18.33,16.95-5.67,0-11.68-.88-14.63-8.3.38,2.18-.48,5.06-1.61,7.38-2.86,5.41-11.1,11.85-22.13,11.85-5.73,0-11.87-1.73-18.26-5.11.74-2.35,1.43-5.9,1.68-11.28-1.67,5.42-2.91,8.7-4.61,11.56-7.86,12.32-27.14,21.6-44.98,21.6-3.72,0-7.21-.41-10.41-1.23-11.42-2.91-17.3-6.03-20.14-8.01,0,0,0,0,0,0-4.55-3.84-7.17-6.29-11.09-14.17,1.62,5.77,3.23,9.34,4.6,11.56-2.26,1.14-8.26,3.73-16.38,3.73-8.99,0-18.28-3.58-27.61-10.64-17.99-13.61-12.02-29.09-9.77-33.49h0c3.35-5.32,4.8-6.37,6.64-7.51-3.42,1.02-5.63,2.56-6.9,3.69-2.67-2.77-12.06-13.97-4.46-26.98,3.1-5.3,9.9-6.41,15.06-6.41,2.72,0,4.68.33,4.7.33l.67.11c.99,3.83,2.8,8.56,2.7,8.28-.77-3.14-1.32-6.45-1.59-9.67v-.28c-.02-.33-1.03-32.95,36.71-42.39,5.7-1.42,11.37-2.14,16.86-2.14,24.81,0,41.11,15.84,44.19,19.08.15.17.31.34.47.51.04.04.06.07.06.07h0c2.5,2.78,4.83,6.14,7.14,11.13-1.71-6.19-3.9-10.35-5.72-13.03,1.39-1.49,5.9-5.69,12.6-5.69,2.2,0,4.48.46,6.77,1.38,9.6,3.84,12.24,11.55,12.92,14.54-1.87,1-3.53,2.31-5.36,3.93,3.13-1.77,5.59-2.7,5.59-2.7.05-.02,5.69-1.56,12.11-1.56,5.99,0,11.56,2.73,16.78,6.77,11.23,8.7,13.56,17.16,14.05,20.42-4.43-.83-12.35-1.66-20.42.73,5.77-1.33,15.61-.06,21.72,2.26,2.41,1.07,23.47,11.12,20.42,32.73Z"/>
              </g>
              <path class="cls-3" d="m201.34,112.31c-4.4-1.16-12.36-1.66-20.42.73,5.77-1.33,15.61-.06,21.73,2.25,2.18.97,19.6,9.29,20.67,26.85,1.04-19.77-18.36-29.05-20.67-30.08-.46-.18-.94-.34-1.44-.5.05.27,0,0,.13.75Z"/>
              <path class="cls-3" d="m139.57,70.19c2.04,0,4.13.43,6.23,1.27,6.8,2.72,10.59,7.07,11.9,10.41.26-.15.52-.32.79-.46-.63-2.75-3.85-9.39-12.69-12.92-2.1-.85-4.19-1.27-6.23-1.27-6.16,0-9.89,3.44-11.06,4.69.37.55.73,1.29,1.13,1.98,1.93-1.69,5.04-3.69,9.93-3.69Z"/>
              <path class="cls-3" d="m28.81,97.87c.01.2.04.39.06.59.54-7.45,4.71-31.1,35.52-38.81,5.52-1.38,11.02-2.08,16.34-2.08,24.05,0,39.85,15.35,42.82,18.5.16.16.31.33.46.49.04.04.06.06.06.07h0c2.42,2.69,5.02,5.31,7.8,10.37-1.87-5.51-3.43-7.88-5.27-10.36-.82-1.15-1.67-2.18-2.53-3.14h0s-.03-.03-.06-.06c-.15-.17-.3-.33-.46-.5-2.98-3.15-18.77-18.5-42.82-18.5-5.32,0-10.82.71-16.34,2.08-36.58,9.15-35.6,40.76-35.59,41.08v.27Z"/>
              <path class="cls-3" d="m188.3,89.36c-4.99-3.86-9.95-6.07-16.03-6.47,0,0-10.55-.84-17.76,4.71,2.99-1.7,8.08-1.87,8.08-1.87.05-.02,3.81-.99,9.9-.3,5.38.6,10.82,3.15,15.81,7.01,6.64,5.15,10.02,10.2,11.74,14.05.42.03.82.09,1.2.18-1.09-3.9-4.19-10.53-12.94-17.31Z"/>
            </g>
            <g>
              <g>
                <path class="cls-1" d="m160.39,176.97c2.08,4.2,6.18,6.43,9.12,4.98,2.93-1.46,3.63-6.08,1.55-10.27l-9.88-20.09c-2.08-4.2-6.18-6.43-9.12-4.98-2.93,1.46-3.63,6.08-1.56,10.27l9.89,20.09Z"/>
                <path class="cls-10" d="m133.22,179.54c2.08,4.2,6.18,6.44,9.12,4.98,2.93-1.46,3.64-6.08,1.56-10.27l-9.89-20.09c-2.08-4.19-6.18-6.43-9.12-4.98-2.94,1.45-3.63,6.07-1.56,10.27l9.88,20.08Z"/>
                <path class="cls-14" d="m106.06,182.12c2.08,4.2,6.18,6.44,9.12,4.98,2.94-1.46,3.63-6.08,1.55-10.27l-9.89-20.08c-2.08-4.19-6.18-6.44-9.11-4.98-2.94,1.46-3.64,6.07-1.56,10.27l9.89,20.09Z"/>
                <path class="cls-11" d="m78.89,184.69c2.08,4.19,6.18,6.43,9.12,4.98,2.94-1.46,3.64-6.08,1.56-10.27l-9.89-20.08c-2.08-4.19-6.18-6.44-9.12-4.98-2.93,1.46-3.64,6.07-1.56,10.27l9.89,20.09Z"/>
              </g>
              <g>
                <path class="cls-7" d="m159.09,210.66c2.08,4.2,6.18,6.43,9.12,4.98,2.94-1.46,3.64-6.08,1.56-10.27l-6.48-14.98c-2.08-4.2-6.18-6.43-9.12-4.98-2.93,1.46-3.63,6.08-1.55,10.27l6.48,14.98Z"/>
                <path class="cls-6" d="m131.92,213.24c2.09,4.19,6.18,6.43,9.12,4.98,2.94-1.45,3.64-6.07,1.56-10.27l-6.48-14.98c-2.08-4.19-6.18-6.43-9.12-4.98-2.94,1.46-3.64,6.08-1.56,10.27l6.48,14.98Z"/>
                <path class="cls-15" d="m104.76,215.81c2.08,4.2,6.18,6.44,9.12,4.98,2.93-1.46,3.63-6.08,1.55-10.27l-6.48-14.98c-2.08-4.2-6.18-6.43-9.12-4.98-2.93,1.46-3.64,6.08-1.55,10.27l6.48,14.98Z"/>
              </g>
            </g>
          </g>
        </g>
      </g>
    </g>
  </g>
</svg>