<?xml version="1.0" encoding="UTF-8"?>
<svg xmlns="http://www.w3.org/2000/svg" xmlns:xlink="http://www.w3.org/1999/xlink" viewBox="0 0 250.94 203.02">
  <defs>
    <style>
      .cls-1 {
        fill: url(#linear-gradient-9);
      }

      .cls-1, .cls-2, .cls-3, .cls-4, .cls-5, .cls-6, .cls-7, .cls-8, .cls-9, .cls-10 {
        mix-blend-mode: multiply;
      }

      .cls-1, .cls-2, .cls-3, .cls-4, .cls-6, .cls-7, .cls-8, .cls-9 {
        opacity: .2;
      }

      .cls-2 {
        fill: url(#linear-gradient-13);
      }

      .cls-3 {
        fill: url(#linear-gradient-15);
      }

      .cls-4 {
        fill: url(#linear-gradient-11);
      }

      .cls-11 {
        fill: url(#linear-gradient-14);
      }

      .cls-12 {
        fill: url(#linear-gradient-6);
      }

      .cls-5 {
        fill: url(#linear-gradient-2);
        opacity: .15;
      }

      .cls-13 {
        isolation: isolate;
      }

      .cls-14, .cls-7 {
        fill: #aad6e2;
      }

      .cls-6 {
        fill: url(#linear-gradient-5);
      }

      .cls-15 {
        fill: #fff;
      }

      .cls-15, .cls-16, .cls-17 {
        opacity: .5;
      }

      .cls-18 {
        fill: url(#linear-gradient-10);
      }

      .cls-19 {
        fill: url(#linear-gradient-16);
      }

      .cls-8, .cls-20 {
        fill: #29e2b1;
      }

      .cls-16 {
        mix-blend-mode: lighten;
      }

      .cls-17 {
        mix-blend-mode: color-burn;
      }

      .cls-9 {
        fill: url(#linear-gradient-7);
      }

      .cls-21 {
        fill: url(#linear-gradient-3);
      }

      .cls-22 {
        fill: url(#linear-gradient);
      }

      .cls-23 {
        fill: url(#linear-gradient-4);
      }

      .cls-10 {
        fill: url(#linear-gradient-17);
        opacity: .52;
      }

      .cls-24 {
        fill: url(#linear-gradient-8);
      }

      .cls-25 {
        fill: url(#linear-gradient-12);
      }
    </style>
    <linearGradient id="linear-gradient" x1="125.04" y1="3.48" x2="125.04" y2="153.92" gradientUnits="userSpaceOnUse">
      <stop offset="0" stop-color="#f1f2f2"/>
      <stop offset=".26" stop-color="#e9eaea"/>
      <stop offset=".65" stop-color="#d4d6d7"/>
      <stop offset="1" stop-color="#bcbec0"/>
    </linearGradient>
    <linearGradient id="linear-gradient-2" x1="124.59" y1="54.48" x2="124.59" y2="151.66" gradientUnits="userSpaceOnUse">
      <stop offset="0" stop-color="#f1f2f2"/>
      <stop offset=".3" stop-color="#dbdcdd"/>
      <stop offset=".93" stop-color="#a3a5a7"/>
      <stop offset="1" stop-color="#9d9fa1"/>
    </linearGradient>
    <linearGradient id="linear-gradient-3" x1="125.47" y1="5.04" x2="125.47" y2="156.04" gradientUnits="userSpaceOnUse">
      <stop offset="0" stop-color="#e6e7e8"/>
      <stop offset=".19" stop-color="#dedfe0"/>
      <stop offset=".48" stop-color="#c8c9ca"/>
      <stop offset=".84" stop-color="#a4a5a7"/>
      <stop offset="1" stop-color="#939496"/>
    </linearGradient>
    <linearGradient id="linear-gradient-4" x1="191.71" y1="-120.48" x2="206.11" y2="-85.25" gradientTransform="translate(-59.21 214.3) rotate(-.79)" gradientUnits="userSpaceOnUse">
      <stop offset="0" stop-color="#8be0ef"/>
      <stop offset=".1" stop-color="#84dced"/>
      <stop offset=".24" stop-color="#71d0e8"/>
      <stop offset=".41" stop-color="#52bee1"/>
      <stop offset=".6" stop-color="#27a5d6"/>
      <stop offset=".75" stop-color="#008fcd"/>
      <stop offset=".87" stop-color="#107eb6"/>
      <stop offset="1" stop-color="#276898"/>
    </linearGradient>
    <linearGradient id="linear-gradient-5" x1="191.2" y1="-120.24" x2="205.61" y2="-85" xlink:href="#linear-gradient-4"/>
    <linearGradient id="linear-gradient-6" x1="202.28" y1="-69.83" x2="215.09" y2="-38.48" gradientTransform="translate(-37.65 190.49) rotate(-2.55)" xlink:href="#linear-gradient-4"/>
    <linearGradient id="linear-gradient-7" x1="201.82" y1="-69.62" x2="214.65" y2="-38.26" gradientTransform="translate(-37.65 190.49) rotate(-2.55)" xlink:href="#linear-gradient-4"/>
    <linearGradient id="linear-gradient-8" x1="212.84" y1="-24.97" x2="223.61" y2="1.37" gradientTransform="translate(-56 101.99) rotate(-1.17)" xlink:href="#linear-gradient-4"/>
    <linearGradient id="linear-gradient-9" x1="212.46" y1="-24.79" x2="223.24" y2="1.56" gradientTransform="translate(-56 101.99) rotate(-1.17)" xlink:href="#linear-gradient-4"/>
    <linearGradient id="linear-gradient-10" x1="254.56" y1="-327.3" x2="266.71" y2="-297.59" gradientTransform="translate(-216.35 355.82) rotate(10.59)" xlink:href="#linear-gradient-4"/>
    <linearGradient id="linear-gradient-11" x1="254.14" y1="-327.1" x2="266.29" y2="-297.38" gradientTransform="translate(-216.35 355.82) rotate(10.59)" xlink:href="#linear-gradient-4"/>
    <linearGradient id="linear-gradient-12" x1="134.33" y1="-40.58" x2="149.6" y2="-3.22" gradientTransform="translate(-22.69 172.07) rotate(-3.87)" xlink:href="#linear-gradient-4"/>
    <linearGradient id="linear-gradient-13" x1="133.8" y1="-40.32" x2="149.08" y2="-2.95" gradientTransform="translate(-22.69 172.07) rotate(-3.87)" xlink:href="#linear-gradient-4"/>
    <linearGradient id="linear-gradient-14" x1="112.46" y1="53.82" x2="129.46" y2="95.4" gradientTransform="translate(27.27 105.05) rotate(-8.65)" xlink:href="#linear-gradient-4"/>
    <linearGradient id="linear-gradient-15" x1="111.87" y1="54.11" x2="128.87" y2="95.7" gradientTransform="translate(27.27 105.05) rotate(-8.65)" xlink:href="#linear-gradient-4"/>
    <linearGradient id="linear-gradient-16" x1="84.01" y1="82.15" x2="109.11" y2="198.62" gradientUnits="userSpaceOnUse">
      <stop offset="0" stop-color="#fafbc1"/>
      <stop offset=".03" stop-color="#faf4a0"/>
      <stop offset=".1" stop-color="#fce969"/>
      <stop offset=".15" stop-color="#fde03c"/>
      <stop offset=".2" stop-color="#feda1d"/>
      <stop offset=".25" stop-color="#fed609"/>
      <stop offset=".28" stop-color="#ffd503"/>
      <stop offset=".41" stop-color="#fdd002"/>
      <stop offset=".55" stop-color="#f9c202"/>
      <stop offset=".71" stop-color="#f2ac01"/>
      <stop offset=".87" stop-color="#e98c00"/>
      <stop offset="1" stop-color="#e06c00"/>
    </linearGradient>
    <linearGradient id="linear-gradient-17" x1="85.13" y1="82.4" x2="110.27" y2="199.08" xlink:href="#linear-gradient-16"/>
  </defs>
  <g class="cls-13">
    <g id="_레이어_2" data-name="레이어 2">
      <g id="Layer_1" data-name="Layer 1">
        <g>
          <path class="cls-15" d="m31.75,52.03c.02.21.05.43.07.64.6-8.22,5.19-34.28,39.14-42.77,6.08-1.52,12.15-2.29,18.01-2.29,26.51,0,43.92,16.92,47.2,20.38.17.18.33.36.5.54.04.05.06.08.06.08h0c2.68,2.97,5.54,5.86,8.6,11.43-2.06-6.07-3.79-8.69-5.8-11.41-.91-1.27-1.84-2.41-2.8-3.47h0s-.03-.03-.06-.08c-.17-.18-.34-.36-.5-.55-3.28-3.46-20.69-20.38-47.2-20.38-5.86,0-11.93.77-18.01,2.29C30.65,16.52,31.73,51.37,31.74,51.72v.3Z"/>
          <g>
            <g>
              <path class="cls-22" d="m27.58,52.25S25.9,14.46,69.57,3.54c43.66-10.92,68.44,18.47,68.44,18.47,0,0,9.24-11.76,23.93-5.88,14.69,5.88,14.23,18.18,14.23,18.18,0,0,16-7.69,32.79,5.33,16.79,13.01,16.38,25.61,16.38,25.61,0,0,27.71,11.34,23.94,38.21-3.79,26.87-33.5,21.94-37.28,12.7-.42,8.82-18.57,30.13-49.22,13.33-11.34,18.06-41.99,28.97-63.4,23.52-21.41-5.46-27.49-12.9-27.49-12.9,0,0-21.07,16.13-51.44-6.84-24.62-18.61-10.5-40.73-10.5-40.73,0,0-16.5-14.79-6-32.75,6.15-10.53,23.63-7.55,23.63-7.55Z"/>
              <path class="cls-5" d="m135.35,83.62c-50.06,9.26-87.95-12.88-110.74-32.76-5.07-.38-16.4-.23-21.12,7.83-10.5,17.97,6.01,32.76,6.01,32.76,0,0-14.12,22.11,10.5,40.73,30.37,22.96,51.52,7.46,51.52,7.46,0,0,6,6.81,27.42,12.27,21.41,5.45,52.07-5.46,63.4-23.51,30.65,16.79,48.79-4.51,49.22-13.33,3.77,9.24,33.49,14.16,37.28-12.71.39-2.82.43-5.46.2-7.95-27.43-15.42-64.22-19.93-113.68-10.79Z"/>
              <path class="cls-21" d="m226.76,64.33c-.3-3.51-2.42-14.48-16.87-25.68-6.36-4.93-13.32-7.42-20.68-7.42-3.41,0-6.36.55-8.64,1.18-.01,0-.02,0-.04,0-1,.23-1.91.51-2.77.85-.68-4.47-3.51-13.61-15.01-18.21-2.91-1.16-5.84-1.76-8.7-1.76-7.86,0-13.33,4.35-15.7,6.68C133.73,15.21,116.82,0,89.32,0c-6.32,0-12.85.84-19.39,2.47C33.27,11.63,27.53,36.79,28.29,50.94h0c-7.06-1.12-20.41,1.01-24.61,8.21-9.45,16.17,1.87,30.02,5.34,33.69-2.56,5-10.61,24.79,11.49,41.51,10.89,8.23,21.81,12.41,32.45,12.41,9.82,0,16.58-3.58,19.25-5.3,2.62,2.49,10.31,8.44,27.35,12.79,3.78.96,7.92,1.45,12.29,1.45,20.18,0,42.04-10.33,51.67-24.24,7.38,3.83,14.53,5.76,21.25,5.76,15.1,0,26.73-10.96,27.46-18.89,1.67,4.9,9.44,6.25,15.5,6.25,9.9,0,20.61-5.06,22.84-20.94,3.48-24.7-18.79-36.89-23.81-39.3Zm20.52,38.83c-2.44,17.33-16.08,18.68-20.21,18.68-6.25,0-12.88-.98-16.13-9.15.41,2.4-.53,5.58-1.78,8.13-3.15,5.96-12.23,13.06-24.39,13.06-6.31,0-13.08-1.9-20.13-5.63.82-2.6,1.58-6.51,1.85-12.44-1.85,5.97-3.21,9.58-5.08,12.74-8.66,13.58-29.91,23.81-49.57,23.81-4.09,0-7.95-.46-11.48-1.35-12.58-3.2-19.06-6.65-22.19-8.83t0,0c-5.02-4.24-7.9-6.93-12.23-15.62,1.79,6.36,3.56,10.3,5.07,12.74-2.49,1.26-9.11,4.11-18.05,4.11-9.91,0-20.14-3.95-30.43-11.73-19.83-15-13.24-32.05-10.77-36.91h0c3.69-5.87,5.29-7.01,7.32-8.28-3.77,1.12-6.2,2.82-7.61,4.07-2.94-3.06-13.29-15.39-4.91-29.73,3.42-5.84,10.91-7.07,16.59-7.07,2.99,0,5.16.37,5.18.37l.74.12c1.09,4.22,3.08,9.44,2.97,9.12-.85-3.45-1.46-7.1-1.75-10.65v-.31c-.03-.36-1.14-36.32,40.45-46.71,6.28-1.57,12.53-2.36,18.58-2.36,27.35,0,45.31,17.45,48.69,21.03.17.19.35.37.52.56.04.04.06.07.07.07h0c2.76,3.06,5.32,6.76,7.87,12.26-1.89-6.81-4.29-11.41-6.3-14.36,1.53-1.64,6.5-6.27,13.89-6.27,2.43,0,4.94.51,7.46,1.52,10.58,4.23,13.49,12.73,14.24,16.03-2.06,1.09-3.89,2.54-5.91,4.33,3.46-1.96,6.16-2.98,6.16-2.98.05-.03,6.27-1.71,13.34-1.71,6.62,0,12.74,3,18.5,7.46,12.37,9.59,14.95,18.91,15.48,22.51-4.88-.92-13.62-1.83-22.5.8,6.36-1.47,17.2-.07,23.94,2.48,2.65,1.18,25.86,12.27,22.51,36.08Z"/>
            </g>
            <path class="cls-15" d="m221.9,67.93c-4.84-1.28-13.62-1.84-22.5.8,6.36-1.47,17.2-.07,23.94,2.48,2.4,1.07,21.6,10.23,22.78,29.58,1.14-21.79-20.23-32.01-22.78-33.14-.5-.19-1.04-.38-1.59-.56.06.3,0,0,.15.83Z"/>
            <path class="cls-15" d="m153.82,21.51c2.24,0,4.55.47,6.87,1.4,7.49,2.99,11.66,7.8,13.11,11.48.29-.18.57-.36.87-.51-.69-3.03-4.24-10.34-13.98-14.24-2.32-.93-4.63-1.4-6.87-1.4-6.79,0-10.9,3.79-12.2,5.17.41.6.81,1.42,1.25,2.18,2.12-1.86,5.56-4.08,10.95-4.08Z"/>
            <path class="cls-15" d="m207.53,42.64c-5.49-4.26-10.96-6.69-17.66-7.13,0,0-11.62-.93-19.58,5.2,3.3-1.87,8.91-2.06,8.91-2.06.05-.02,4.2-1.09,10.92-.33,5.93.67,11.92,3.47,17.42,7.73,7.32,5.67,11.04,11.24,12.94,15.48.46.04.91.11,1.32.2-1.21-4.3-4.61-11.61-14.26-19.08Z"/>
          </g>
          <g>
            <g>
              <path class="cls-23" d="m149.08,107.58s0,0-.05-.04c-.21-.23-.64-.64-1.18-1.07-.12-.08-.19-.18-.3-.26,0,0-.03.02,0,0-.02-.01-.04-.05-.06-.05-.03-.03-.1-.05-.13-.08-2.09-1.58-5.17-3.71-5.57-3.99-4.88-4.16-10.12-9.16-11.42-12.78-7.38,30.35,5.29,35.19,5.29,35.19,0,0,.02-.01.02-.02,1.67.99,3.61,1.58,5.7,1.56,6.04-.09,10.87-5.06,10.79-11.1-.04-2.89-1.23-5.45-3.08-7.37Z"/>
              <path class="cls-6" d="m141.55,122.73c-2.32.04-4.48-.63-6.35-1.73h-.03s-3.84-1.51-6.36-7.74c1.84,9.24,6.95,11.24,6.95,11.24,0,0,.01-.02.01-.03,1.69,1,3.62,1.58,5.72,1.55,5.64-.08,10.14-4.4,10.69-9.88-2.01,3.84-5.97,6.52-10.63,6.58Z"/>
            </g>
            <g>
              <path class="cls-12" d="m178.01,125.8s0,0-.05-.04c-.2-.2-.6-.55-1.09-.91-.1-.07-.16-.16-.27-.23,0,0-.02.02,0,0-.02,0-.04-.04-.04-.04-.06-.02-.11-.04-.15-.07-1.9-1.35-4.69-3.15-5.06-3.39-4.46-3.56-9.25-7.86-10.5-11.05-5.74,27.18,5.66,31.16,5.66,31.16,0,0,.01-.01.01-.02,1.52.84,3.25,1.32,5.12,1.24,5.37-.25,9.53-4.8,9.29-10.17-.12-2.57-1.24-4.82-2.93-6.47Z"/>
              <path class="cls-9" d="m171.72,139.49c-2.06.1-4-.44-5.7-1.37h-.02s-3.46-1.23-5.87-6.7c1.89,8.17,6.49,9.8,6.49,9.8,0,0,0-.01,0-.02,1.53.84,3.26,1.31,5.13,1.23,5.02-.22,8.9-4.19,9.24-9.08-1.68,3.48-5.13,5.96-9.27,6.14Z"/>
            </g>
            <g>
              <path class="cls-24" d="m170.02,84.84s0,0-.03-.03c-.16-.17-.49-.48-.9-.79-.09-.06-.14-.14-.22-.19,0,0-.02.01,0,0-.01,0-.03-.04-.05-.04-.03-.03-.07-.04-.1-.06-1.57-1.17-3.88-2.75-4.18-2.95-3.67-3.09-7.61-6.8-8.6-9.5-5.37,22.73,4.12,26.29,4.12,26.29,0,0,0-.01.01-.02,1.26.73,2.71,1.17,4.27,1.14,4.53-.1,8.11-3.83,8.01-8.35-.05-2.16-.95-4.07-2.34-5.49Z"/>
              <path class="cls-1" d="m164.47,96.22c-1.74.04-3.36-.45-4.76-1.27h-.02s-2.88-1.1-4.79-5.75c1.42,6.9,5.25,8.36,5.25,8.36,0,0,0,0,0-.02,1.27.74,2.71,1.16,4.29,1.14,4.22-.09,7.56-3.34,7.95-7.44-1.49,2.88-4.44,4.9-7.92,4.97Z"/>
            </g>
            <g>
              <path class="cls-18" d="m106.39,97.43s0,0-.03-.04c-.15-.23-.43-.64-.81-1.08-.08-.09-.12-.18-.2-.27,0,0-.02.01,0,0-.02,0-.03-.04-.04-.05-.02-.03-.07-.06-.1-.09-1.46-1.65-3.66-3.92-3.95-4.22-3.34-4.25-6.84-9.26-7.31-12.47-11.16,23.86-1.48,29.98-1.48,29.98,0,0,.01,0,.01-.02,1.22,1.1,2.72,1.92,4.46,2.25,5.02.93,9.83-2.38,10.77-7.38.45-2.4-.11-4.72-1.32-6.61Z"/>
              <path class="cls-4" d="m97.65,108.71c-1.93-.35-3.6-1.26-4.97-2.49h-.02s-2.92-1.88-3.98-7.45c-.01,7.95,3.88,10.44,3.88,10.44,0,0,.01,0,.01-.02,1.23,1.11,2.73,1.91,4.47,2.24,4.68.87,9.12-1.95,10.49-6.39-2.31,2.84-6.02,4.39-9.88,3.67Z"/>
            </g>
            <g>
              <path class="cls-25" d="m128.87,138.83s0,0-.07-.05c-.23-.22-.71-.64-1.3-1.06-.13-.08-.21-.19-.33-.25.01-.01-.04,0,0,0-.02-.01-.04-.05-.08-.06-.05-.03-.1-.04-.15-.08-2.3-1.55-5.69-3.62-6.13-3.91-5.4-4.12-11.23-9.11-12.83-12.88-6.09,32.56,7.61,36.97,7.61,36.97,0,0,.02-.02.02-.02,1.83.95,3.91,1.47,6.13,1.32,6.39-.43,11.23-5.97,10.81-12.37-.21-3.05-1.6-5.69-3.68-7.62Z"/>
              <path class="cls-2" d="m121.76,155.32c-2.45.17-4.79-.42-6.84-1.48,0,0-.02.03-.02.03,0,0-4.15-1.39-7.17-7.84,2.47,9.68,8.01,11.5,8.01,11.5,0,0,.01-.02,0-.03,1.84.95,3.92,1.47,6.14,1.32,5.96-.4,10.5-5.24,10.76-11.07-1.91,4.19-5.96,7.23-10.88,7.58Z"/>
            </g>
            <g>
              <path class="cls-11" d="m170.55,157.56s0,0-.06-.05c-.29-.23-.87-.65-1.57-1.06-.14-.08-.25-.18-.38-.26,0-.02-.03.02,0,0-.03-.01-.06-.05-.08-.06-.06-.02-.13-.03-.19-.06-2.69-1.51-6.63-3.5-7.15-3.76-6.37-4.07-13.29-9.06-15.41-13.1-3.74,36.67,11.87,40.3,11.87,40.3l.02-.03c2.11.89,4.47,1.27,6.91.9,7.07-1.08,11.91-7.66,10.83-14.72-.52-3.36-2.32-6.17-4.79-8.11Z"/>
              <path class="cls-3" d="m164.2,176.5c-2.72.42-5.35-.01-7.73-1.01v.04s-4.75-1.16-8.7-8.04c3.64,10.5,9.95,12.02,9.95,12.02,0,0,0-.03,0-.03,2.14.89,4.5,1.26,6.93.89,6.57-1,11.16-6.79,10.91-13.27-1.73,4.82-5.94,8.58-11.36,9.41Z"/>
            </g>
            <g class="cls-17">
              <path class="cls-20" d="m149.08,107.58s0,0-.05-.04c-.21-.23-.64-.64-1.18-1.07-.12-.08-.19-.18-.3-.26,0,0-.03.02,0,0-.02-.01-.04-.05-.06-.05-.03-.03-.1-.05-.13-.08-2.09-1.58-5.17-3.71-5.57-3.99-4.88-4.16-10.12-9.16-11.42-12.78-7.38,30.35,5.29,35.19,5.29,35.19,0,0,.02-.01.02-.02,1.67.99,3.61,1.58,5.7,1.56,6.04-.09,10.87-5.06,10.79-11.1-.04-2.89-1.23-5.45-3.08-7.37Z"/>
              <path class="cls-8" d="m141.55,122.73c-2.32.04-4.48-.63-6.35-1.73h-.03s-3.84-1.51-6.36-7.74c1.84,9.24,6.95,11.24,6.95,11.24,0,0,.01-.02.01-.03,1.69,1,3.62,1.58,5.72,1.55,5.64-.08,10.14-4.4,10.69-9.88-2.01,3.84-5.97,6.52-10.63,6.58Z"/>
            </g>
            <g class="cls-17">
              <path class="cls-20" d="m178.01,125.8s0,0-.05-.04c-.2-.2-.6-.55-1.09-.91-.1-.07-.16-.16-.27-.23,0,0-.02.02,0,0-.02,0-.04-.04-.04-.04-.06-.02-.11-.04-.15-.07-1.9-1.35-4.69-3.15-5.06-3.39-4.46-3.56-9.25-7.86-10.5-11.05-5.74,27.18,5.66,31.16,5.66,31.16,0,0,.01-.01.01-.02,1.52.84,3.25,1.32,5.12,1.24,5.37-.25,9.53-4.8,9.29-10.17-.12-2.57-1.24-4.82-2.93-6.47Z"/>
              <path class="cls-8" d="m171.72,139.49c-2.06.1-4-.44-5.7-1.37h-.02s-3.46-1.23-5.87-6.7c1.89,8.17,6.49,9.8,6.49,9.8,0,0,0-.01,0-.02,1.53.84,3.26,1.31,5.13,1.23,5.02-.22,8.9-4.19,9.24-9.08-1.68,3.48-5.13,5.96-9.27,6.14Z"/>
            </g>
            <g class="cls-17">
              <path class="cls-20" d="m170.02,84.84s0,0-.03-.03c-.16-.17-.49-.48-.9-.79-.09-.06-.14-.14-.22-.19,0,0-.02.01,0,0-.01,0-.03-.04-.05-.04-.03-.03-.07-.04-.1-.06-1.57-1.17-3.88-2.75-4.18-2.95-3.67-3.09-7.61-6.8-8.6-9.5-5.37,22.73,4.12,26.29,4.12,26.29,0,0,0-.01.01-.02,1.26.73,2.71,1.17,4.27,1.14,4.53-.1,8.11-3.83,8.01-8.35-.05-2.16-.95-4.07-2.34-5.49Z"/>
              <path class="cls-8" d="m164.47,96.22c-1.74.04-3.36-.45-4.76-1.27h-.02s-2.88-1.1-4.79-5.75c1.42,6.9,5.25,8.36,5.25,8.36,0,0,0,0,0-.02,1.27.74,2.71,1.16,4.29,1.14,4.22-.09,7.56-3.34,7.95-7.44-1.49,2.88-4.44,4.9-7.92,4.97Z"/>
            </g>
            <g class="cls-17">
              <path class="cls-20" d="m106.39,97.43s0,0-.03-.04c-.15-.23-.43-.64-.81-1.08-.08-.09-.12-.18-.2-.27,0,0-.02.01,0,0-.02,0-.03-.04-.04-.05-.02-.03-.07-.06-.1-.09-1.46-1.65-3.66-3.92-3.95-4.22-3.34-4.25-6.84-9.26-7.31-12.47-11.16,23.86-1.48,29.98-1.48,29.98,0,0,.01,0,.01-.02,1.22,1.1,2.72,1.92,4.46,2.25,5.02.93,9.83-2.38,10.77-7.38.45-2.4-.11-4.72-1.32-6.61Z"/>
              <path class="cls-8" d="m97.65,108.71c-1.93-.35-3.6-1.26-4.97-2.49h-.02s-2.92-1.88-3.98-7.45c-.01,7.95,3.88,10.44,3.88,10.44,0,0,.01,0,.01-.02,1.23,1.11,2.73,1.91,4.47,2.24,4.68.87,9.12-1.95,10.49-6.39-2.31,2.84-6.02,4.39-9.88,3.67Z"/>
            </g>
            <g class="cls-17">
              <path class="cls-20" d="m128.87,138.83s0,0-.07-.05c-.23-.22-.71-.64-1.3-1.06-.13-.08-.21-.19-.33-.25.01-.01-.04,0,0,0-.02-.01-.04-.05-.08-.06-.05-.03-.1-.04-.15-.08-2.3-1.55-5.69-3.62-6.13-3.91-5.4-4.12-11.23-9.11-12.83-12.88-6.09,32.56,7.61,36.97,7.61,36.97,0,0,.02-.02.02-.02,1.83.95,3.91,1.47,6.13,1.32,6.39-.43,11.23-5.97,10.81-12.37-.21-3.05-1.6-5.69-3.68-7.62Z"/>
              <path class="cls-8" d="m121.76,155.32c-2.45.17-4.79-.42-6.84-1.48,0,0-.02.03-.02.03,0,0-4.15-1.39-7.17-7.84,2.47,9.68,8.01,11.5,8.01,11.5,0,0,.01-.02,0-.03,1.84.95,3.92,1.47,6.14,1.32,5.96-.4,10.5-5.24,10.76-11.07-1.91,4.19-5.96,7.23-10.88,7.58Z"/>
            </g>
            <g class="cls-17">
              <path class="cls-20" d="m170.55,157.56s0,0-.06-.05c-.29-.23-.87-.65-1.57-1.06-.14-.08-.25-.18-.38-.26,0-.02-.03.02,0,0-.03-.01-.06-.05-.08-.06-.06-.02-.13-.03-.19-.06-2.69-1.51-6.63-3.5-7.15-3.76-6.37-4.07-13.29-9.06-15.41-13.1-3.74,36.67,11.87,40.3,11.87,40.3l.02-.03c2.11.89,4.47,1.27,6.91.9,7.07-1.08,11.91-7.66,10.83-14.72-.52-3.36-2.32-6.17-4.79-8.11Z"/>
              <path class="cls-8" d="m164.2,176.5c-2.72.42-5.35-.01-7.73-1.01v.04s-4.75-1.16-8.7-8.04c3.64,10.5,9.95,12.02,9.95,12.02,0,0,0-.03,0-.03,2.14.89,4.5,1.26,6.93.89,6.57-1,11.16-6.79,10.91-13.27-1.73,4.82-5.94,8.58-11.36,9.41Z"/>
            </g>
            <g class="cls-16">
              <path class="cls-14" d="m149.08,107.58s0,0-.05-.04c-.21-.23-.64-.64-1.18-1.07-.12-.08-.19-.18-.3-.26,0,0-.03.02,0,0-.02-.01-.04-.05-.06-.05-.03-.03-.1-.05-.13-.08-2.09-1.58-5.17-3.71-5.57-3.99-4.88-4.16-10.12-9.16-11.42-12.78-7.38,30.35,5.29,35.19,5.29,35.19,0,0,.02-.01.02-.02,1.67.99,3.61,1.58,5.7,1.56,6.04-.09,10.87-5.06,10.79-11.1-.04-2.89-1.23-5.45-3.08-7.37Z"/>
              <path class="cls-7" d="m141.55,122.73c-2.32.04-4.48-.63-6.35-1.73h-.03s-3.84-1.51-6.36-7.74c1.84,9.24,6.95,11.24,6.95,11.24,0,0,.01-.02.01-.03,1.69,1,3.62,1.58,5.72,1.55,5.64-.08,10.14-4.4,10.69-9.88-2.01,3.84-5.97,6.52-10.63,6.58Z"/>
            </g>
            <g class="cls-16">
              <path class="cls-14" d="m178.01,125.8s0,0-.05-.04c-.2-.2-.6-.55-1.09-.91-.1-.07-.16-.16-.27-.23,0,0-.02.02,0,0-.02,0-.04-.04-.04-.04-.06-.02-.11-.04-.15-.07-1.9-1.35-4.69-3.15-5.06-3.39-4.46-3.56-9.25-7.86-10.5-11.05-5.74,27.18,5.66,31.16,5.66,31.16,0,0,.01-.01.01-.02,1.52.84,3.25,1.32,5.12,1.24,5.37-.25,9.53-4.8,9.29-10.17-.12-2.57-1.24-4.82-2.93-6.47Z"/>
              <path class="cls-7" d="m171.72,139.49c-2.06.1-4-.44-5.7-1.37h-.02s-3.46-1.23-5.87-6.7c1.89,8.17,6.49,9.8,6.49,9.8,0,0,0-.01,0-.02,1.53.84,3.26,1.31,5.13,1.23,5.02-.22,8.9-4.19,9.24-9.08-1.68,3.48-5.13,5.96-9.27,6.14Z"/>
            </g>
            <g class="cls-16">
              <path class="cls-14" d="m170.02,84.84s0,0-.03-.03c-.16-.17-.49-.48-.9-.79-.09-.06-.14-.14-.22-.19,0,0-.02.01,0,0-.01,0-.03-.04-.05-.04-.03-.03-.07-.04-.1-.06-1.57-1.17-3.88-2.75-4.18-2.95-3.67-3.09-7.61-6.8-8.6-9.5-5.37,22.73,4.12,26.29,4.12,26.29,0,0,0-.01.01-.02,1.26.73,2.71,1.17,4.27,1.14,4.53-.1,8.11-3.83,8.01-8.35-.05-2.16-.95-4.07-2.34-5.49Z"/>
              <path class="cls-7" d="m164.47,96.22c-1.74.04-3.36-.45-4.76-1.27h-.02s-2.88-1.1-4.79-5.75c1.42,6.9,5.25,8.36,5.25,8.36,0,0,0,0,0-.02,1.27.74,2.71,1.16,4.29,1.14,4.22-.09,7.56-3.34,7.95-7.44-1.49,2.88-4.44,4.9-7.92,4.97Z"/>
            </g>
            <g class="cls-16">
              <path class="cls-14" d="m106.39,97.43s0,0-.03-.04c-.15-.23-.43-.64-.81-1.08-.08-.09-.12-.18-.2-.27,0,0-.02.01,0,0-.02,0-.03-.04-.04-.05-.02-.03-.07-.06-.1-.09-1.46-1.65-3.66-3.92-3.95-4.22-3.34-4.25-6.84-9.26-7.31-12.47-11.16,23.86-1.48,29.98-1.48,29.98,0,0,.01,0,.01-.02,1.22,1.1,2.72,1.92,4.46,2.25,5.02.93,9.83-2.38,10.77-7.38.45-2.4-.11-4.72-1.32-6.61Z"/>
              <path class="cls-7" d="m97.65,108.71c-1.93-.35-3.6-1.26-4.97-2.49h-.02s-2.92-1.88-3.98-7.45c-.01,7.95,3.88,10.44,3.88,10.44,0,0,.01,0,.01-.02,1.23,1.11,2.73,1.91,4.47,2.24,4.68.87,9.12-1.95,10.49-6.39-2.31,2.84-6.02,4.39-9.88,3.67Z"/>
            </g>
            <g class="cls-16">
              <path class="cls-14" d="m128.87,138.83s0,0-.07-.05c-.23-.22-.71-.64-1.3-1.06-.13-.08-.21-.19-.33-.25.01-.01-.04,0,0,0-.02-.01-.04-.05-.08-.06-.05-.03-.1-.04-.15-.08-2.3-1.55-5.69-3.62-6.13-3.91-5.4-4.12-11.23-9.11-12.83-12.88-6.09,32.56,7.61,36.97,7.61,36.97,0,0,.02-.02.02-.02,1.83.95,3.91,1.47,6.13,1.32,6.39-.43,11.23-5.97,10.81-12.37-.21-3.05-1.6-5.69-3.68-7.62Z"/>
              <path class="cls-7" d="m121.76,155.32c-2.45.17-4.79-.42-6.84-1.48,0,0-.02.03-.02.03,0,0-4.15-1.39-7.17-7.84,2.47,9.68,8.01,11.5,8.01,11.5,0,0,.01-.02,0-.03,1.84.95,3.92,1.47,6.14,1.32,5.96-.4,10.5-5.24,10.76-11.07-1.91,4.19-5.96,7.23-10.88,7.58Z"/>
            </g>
            <g class="cls-16">
              <path class="cls-14" d="m170.55,157.56s0,0-.06-.05c-.29-.23-.87-.65-1.57-1.06-.14-.08-.25-.18-.38-.26,0-.02-.03.02,0,0-.03-.01-.06-.05-.08-.06-.06-.02-.13-.03-.19-.06-2.69-1.51-6.63-3.5-7.15-3.76-6.37-4.07-13.29-9.06-15.41-13.1-3.74,36.67,11.87,40.3,11.87,40.3l.02-.03c2.11.89,4.47,1.27,6.91.9,7.07-1.08,11.91-7.66,10.83-14.72-.52-3.36-2.32-6.17-4.79-8.11Z"/>
              <path class="cls-7" d="m164.2,176.5c-2.72.42-5.35-.01-7.73-1.01v.04s-4.75-1.16-8.7-8.04c3.64,10.5,9.95,12.02,9.95,12.02,0,0,0-.03,0-.03,2.14.89,4.5,1.26,6.93.89,6.57-1,11.16-6.79,10.91-13.27-1.73,4.82-5.94,8.58-11.36,9.41Z"/>
            </g>
          </g>
          <g>
            <path class="cls-19" d="m70.82,131.5l15.97,5.14-6.99,34.96,8.66,2.83-3.76,27.86,18.1-40.52-11.2-.68,21.35-39.88-19.34-1.4,17.23-30.14c-13.07,4.39-21.16,5.85-32.87,5.85l-7.14,35.97Z"/>
            <path class="cls-10" d="m73.2,131.5l15.97,5.14-6.99,34.96,6.28,2.83-3.86,28.59,19.2-41.32-12.21-.61,23.73-39.88-19.34-1.4,17.23-30.14c-13.07,4.39-21.16,5.85-32.87,5.85l-7.15,35.97Z"/>
          </g>
        </g>
      </g>
    </g>
  </g>
</svg>