<?xml version="1.0" encoding="UTF-8"?>
<svg xmlns="http://www.w3.org/2000/svg" xmlns:xlink="http://www.w3.org/1999/xlink" viewBox="0 0 243.58 219.95">
  <defs>
    <style>
      .cls-1 {
        fill: url(#linear-gradient-75);
      }

      .cls-2 {
        fill: url(#linear-gradient-119);
      }

      .cls-3 {
        fill: url(#linear-gradient-51);
      }

      .cls-4 {
        fill: url(#linear-gradient-87);
      }

      .cls-5 {
        fill: url(#linear-gradient-93);
      }

      .cls-6 {
        fill: url(#linear-gradient-92);
      }

      .cls-7 {
        fill: url(#linear-gradient-80);
      }

      .cls-8 {
        fill: url(#linear-gradient-109);
      }

      .cls-9 {
        fill: url(#linear-gradient-43);
      }

      .cls-10, .cls-11 {
        opacity: .66;
      }

      .cls-10, .cls-12 {
        fill: url(#linear-gradient-4);
      }

      .cls-13 {
        opacity: .34;
      }

      .cls-13, .cls-14, .cls-15, .cls-16, .cls-17, .cls-18, .cls-19, .cls-20, .cls-21, .cls-22, .cls-23, .cls-12 {
        mix-blend-mode: multiply;
      }

      .cls-24 {
        fill: url(#linear-gradient-58);
      }

      .cls-25 {
        fill: url(#linear-gradient-69);
      }

      .cls-26 {
        fill: url(#linear-gradient-81);
      }

      .cls-27 {
        fill: url(#linear-gradient-18);
      }

      .cls-28 {
        fill: url(#linear-gradient-56);
      }

      .cls-29 {
        fill: url(#linear-gradient-40);
      }

      .cls-30 {
        fill: url(#linear-gradient-52);
      }

      .cls-31 {
        fill: url(#linear-gradient-28);
      }

      .cls-32 {
        fill: url(#linear-gradient-36);
      }

      .cls-33 {
        fill: url(#linear-gradient-78);
      }

      .cls-34 {
        fill: url(#linear-gradient-20);
      }

      .cls-35 {
        fill: url(#linear-gradient-6);
      }

      .cls-36 {
        fill: url(#linear-gradient-53);
      }

      .cls-14 {
        fill: url(#linear-gradient-2);
      }

      .cls-14, .cls-17, .cls-18 {
        opacity: .15;
      }

      .cls-37 {
        isolation: isolate;
      }

      .cls-38 {
        fill: url(#linear-gradient-91);
      }

      .cls-39 {
        fill: url(#linear-gradient-60);
      }

      .cls-11 {
        fill: url(#linear-gradient-5);
      }

      .cls-40 {
        fill: url(#linear-gradient-108);
      }

      .cls-41 {
        fill: url(#linear-gradient-84);
      }

      .cls-42 {
        fill: #fff;
        opacity: .5;
      }

      .cls-43 {
        fill: url(#linear-gradient-104);
      }

      .cls-44 {
        fill: url(#linear-gradient-35);
      }

      .cls-45 {
        fill: url(#linear-gradient-48);
      }

      .cls-46 {
        fill: url(#linear-gradient-32);
      }

      .cls-47 {
        fill: url(#linear-gradient-120);
      }

      .cls-15 {
        fill: url(#linear-gradient-13);
      }

      .cls-15, .cls-19, .cls-21, .cls-22, .cls-12 {
        opacity: .56;
      }

      .cls-48 {
        fill: url(#linear-gradient-97);
      }

      .cls-16 {
        fill: url(#linear-gradient-15);
        opacity: .19;
      }

      .cls-49 {
        fill: url(#linear-gradient-50);
      }

      .cls-50 {
        fill: url(#linear-gradient-106);
      }

      .cls-51 {
        fill: url(#linear-gradient-111);
      }

      .cls-52 {
        fill: url(#linear-gradient-63);
      }

      .cls-53 {
        fill: url(#linear-gradient-67);
      }

      .cls-54 {
        fill: url(#linear-gradient-95);
      }

      .cls-55 {
        fill: url(#linear-gradient-86);
      }

      .cls-56 {
        fill: url(#linear-gradient-39);
      }

      .cls-57 {
        fill: url(#linear-gradient-110);
      }

      .cls-58 {
        fill: url(#linear-gradient-10);
      }

      .cls-18 {
        fill: url(#linear-gradient-17);
      }

      .cls-59 {
        fill: url(#linear-gradient-59);
      }

      .cls-60 {
        fill: url(#linear-gradient-117);
      }

      .cls-19 {
        fill: url(#linear-gradient-12);
      }

      .cls-61 {
        fill: url(#linear-gradient-49);
      }

      .cls-62 {
        fill: url(#linear-gradient-37);
      }

      .cls-63 {
        fill: url(#linear-gradient-82);
      }

      .cls-64 {
        fill: url(#linear-gradient-16);
      }

      .cls-65 {
        fill: url(#linear-gradient-31);
      }

      .cls-66 {
        fill: url(#linear-gradient-85);
      }

      .cls-67 {
        fill: url(#linear-gradient-112);
      }

      .cls-68 {
        fill: url(#linear-gradient-61);
      }

      .cls-69 {
        fill: url(#linear-gradient-114);
      }

      .cls-70 {
        fill: url(#linear-gradient-68);
      }

      .cls-71 {
        fill: url(#linear-gradient-103);
      }

      .cls-72 {
        fill: url(#linear-gradient-62);
      }

      .cls-73 {
        fill: url(#linear-gradient-107);
      }

      .cls-74 {
        fill: url(#linear-gradient-41);
      }

      .cls-20 {
        opacity: .45;
      }

      .cls-75 {
        fill: url(#linear-gradient-76);
      }

      .cls-76 {
        fill: url(#linear-gradient-98);
      }

      .cls-77 {
        fill: url(#linear-gradient-21);
      }

      .cls-78 {
        fill: url(#linear-gradient-72);
      }

      .cls-79 {
        fill: url(#linear-gradient-25);
      }

      .cls-80 {
        fill: url(#linear-gradient-121);
      }

      .cls-81 {
        fill: url(#linear-gradient-89);
      }

      .cls-82 {
        fill: url(#linear-gradient-64);
      }

      .cls-83 {
        fill: url(#linear-gradient-102);
      }

      .cls-84 {
        fill: url(#linear-gradient-83);
      }

      .cls-85 {
        fill: url(#linear-gradient-54);
      }

      .cls-86 {
        fill: url(#linear-gradient-45);
      }

      .cls-87 {
        fill: url(#linear-gradient-113);
      }

      .cls-88 {
        fill: url(#linear-gradient-55);
      }

      .cls-89 {
        fill: url(#linear-gradient-34);
      }

      .cls-90 {
        fill: url(#linear-gradient-118);
      }

      .cls-91 {
        fill: url(#linear-gradient-65);
      }

      .cls-92 {
        fill: url(#linear-gradient-70);
      }

      .cls-21 {
        fill: url(#linear-gradient-14);
      }

      .cls-93 {
        fill: url(#linear-gradient-79);
      }

      .cls-94 {
        fill: url(#linear-gradient-88);
      }

      .cls-95 {
        fill: url(#linear-gradient-66);
      }

      .cls-96 {
        fill: url(#linear-gradient-96);
      }

      .cls-97 {
        fill: url(#linear-gradient-24);
      }

      .cls-98 {
        fill: url(#linear-gradient-73);
      }

      .cls-99 {
        fill: url(#linear-gradient-100);
      }

      .cls-100 {
        fill: url(#linear-gradient-105);
      }

      .cls-101 {
        fill: url(#linear-gradient-9);
      }

      .cls-102 {
        fill: url(#linear-gradient-22);
      }

      .cls-22 {
        fill: url(#linear-gradient-11);
      }

      .cls-103 {
        fill: url(#linear-gradient-74);
      }

      .cls-104 {
        fill: url(#linear-gradient-42);
      }

      .cls-105 {
        fill: url(#linear-gradient-99);
      }

      .cls-106 {
        fill: url(#linear-gradient-3);
      }

      .cls-23 {
        fill: url(#linear-gradient-7);
      }

      .cls-107 {
        fill: url(#linear-gradient);
      }

      .cls-108 {
        fill: url(#linear-gradient-27);
      }

      .cls-109 {
        fill: url(#linear-gradient-116);
      }

      .cls-110 {
        fill: url(#linear-gradient-33);
      }

      .cls-111 {
        fill: url(#linear-gradient-38);
      }

      .cls-112 {
        fill: url(#linear-gradient-94);
      }

      .cls-113 {
        fill: url(#linear-gradient-29);
      }

      .cls-114 {
        fill: url(#linear-gradient-30);
      }

      .cls-115 {
        fill: url(#linear-gradient-23);
      }

      .cls-116 {
        fill: url(#linear-gradient-19);
      }

      .cls-117 {
        fill: url(#linear-gradient-71);
      }

      .cls-118 {
        fill: url(#linear-gradient-77);
      }

      .cls-119 {
        fill: url(#linear-gradient-115);
      }

      .cls-120 {
        fill: url(#linear-gradient-8);
      }

      .cls-121 {
        fill: url(#linear-gradient-90);
      }

      .cls-122 {
        fill: url(#linear-gradient-44);
      }

      .cls-123 {
        fill: url(#linear-gradient-57);
      }

      .cls-124 {
        fill: url(#linear-gradient-47);
      }

      .cls-125 {
        fill: url(#linear-gradient-46);
      }

      .cls-126 {
        fill: url(#linear-gradient-26);
      }

      .cls-127 {
        fill: url(#linear-gradient-101);
      }
    </style>
    <linearGradient id="linear-gradient" x1="148.48" y1="42.5" x2="148.48" y2="156.13" gradientUnits="userSpaceOnUse">
      <stop offset="0" stop-color="#f1f2f2"/>
      <stop offset=".26" stop-color="#e9eaea"/>
      <stop offset=".65" stop-color="#d4d6d7"/>
      <stop offset="1" stop-color="#bcbec0"/>
    </linearGradient>
    <linearGradient id="linear-gradient-2" x1="148.14" y1="81.03" x2="148.14" y2="154.43" gradientUnits="userSpaceOnUse">
      <stop offset="0" stop-color="#f1f2f2"/>
      <stop offset=".3" stop-color="#dbdcdd"/>
      <stop offset=".93" stop-color="#a3a5a7"/>
      <stop offset="1" stop-color="#9d9fa1"/>
    </linearGradient>
    <linearGradient id="linear-gradient-3" x1="148.81" y1="43.68" x2="148.81" y2="157.74" gradientUnits="userSpaceOnUse">
      <stop offset="0" stop-color="#e6e7e8"/>
      <stop offset=".19" stop-color="#dedfe0"/>
      <stop offset=".48" stop-color="#c8c9ca"/>
      <stop offset=".84" stop-color="#a4a5a7"/>
      <stop offset="1" stop-color="#939496"/>
    </linearGradient>
    <linearGradient id="linear-gradient-4" x1="162.14" y1="47.76" x2="198.11" y2="29.17" gradientUnits="userSpaceOnUse">
      <stop offset="0" stop-color="#fafbc1"/>
      <stop offset=".03" stop-color="#faf49f"/>
      <stop offset=".09" stop-color="#fcea70"/>
      <stop offset=".14" stop-color="#fde248"/>
      <stop offset=".19" stop-color="#fddc2a"/>
      <stop offset=".24" stop-color="#fed814"/>
      <stop offset=".29" stop-color="#fed507"/>
      <stop offset=".34" stop-color="#ffd503"/>
      <stop offset=".46" stop-color="#fdd002"/>
      <stop offset=".59" stop-color="#f9c202"/>
      <stop offset=".73" stop-color="#f2ac01"/>
      <stop offset=".88" stop-color="#e98c00"/>
      <stop offset="1" stop-color="#e06c00"/>
    </linearGradient>
    <linearGradient id="linear-gradient-5" x1="184.45" y1="75.59" x2="205.26" y2="54.78" xlink:href="#linear-gradient-4"/>
    <linearGradient id="linear-gradient-6" x1="161.01" y1="-12.04" x2="161.01" y2="150.92" xlink:href="#linear-gradient-4"/>
    <linearGradient id="linear-gradient-7" x1="160.83" y1="-14.48" x2="160.83" y2="159.24" xlink:href="#linear-gradient-4"/>
    <linearGradient id="linear-gradient-8" x1="175.79" y1="57.97" x2="193.47" y2="62.85" xlink:href="#linear-gradient-4"/>
    <linearGradient id="linear-gradient-9" x1="172.08" y1="54.21" x2="172.08" y2="119.58" xlink:href="#linear-gradient-4"/>
    <linearGradient id="linear-gradient-10" x1="184.22" y1="21.58" x2="189.3" y2="38.83" xlink:href="#linear-gradient-4"/>
    <linearGradient id="linear-gradient-11" x1="184.45" y1="75.59" x2="205.26" y2="54.78" xlink:href="#linear-gradient-4"/>
    <linearGradient id="linear-gradient-12" x1="175.79" y1="57.97" x2="193.47" y2="62.85" xlink:href="#linear-gradient-4"/>
    <linearGradient id="linear-gradient-13" x1="172.08" y1="54.21" x2="172.08" y2="119.58" xlink:href="#linear-gradient-4"/>
    <linearGradient id="linear-gradient-14" x1="184.22" y1="21.58" x2="189.3" y2="38.83" xlink:href="#linear-gradient-4"/>
    <linearGradient id="linear-gradient-15" x1="161.91" y1="11.37" x2="161.91" y2="135.86" xlink:href="#linear-gradient-4"/>
    <linearGradient id="linear-gradient-16" x1="102.39" y1="66.47" x2="102.39" y2="189.67" xlink:href="#linear-gradient"/>
    <linearGradient id="linear-gradient-17" x1="102.03" y1="108.24" x2="102.03" y2="187.82" xlink:href="#linear-gradient-2"/>
    <linearGradient id="linear-gradient-18" x1="102.75" y1="67.75" x2="102.75" y2="191.41" xlink:href="#linear-gradient-3"/>
    <linearGradient id="linear-gradient-19" x1="180.84" y1="171.36" x2="221.64" y2="262.94" gradientUnits="userSpaceOnUse">
      <stop offset="0" stop-color="#efefef"/>
      <stop offset=".56" stop-color="#8be0ef"/>
      <stop offset=".62" stop-color="#84dced"/>
      <stop offset=".71" stop-color="#71d0e8"/>
      <stop offset=".8" stop-color="#52bee1"/>
      <stop offset=".91" stop-color="#27a5d6"/>
      <stop offset="1" stop-color="#008fcd"/>
    </linearGradient>
    <linearGradient id="linear-gradient-20" x1="179" y1="172.19" x2="219.82" y2="263.82" xlink:href="#linear-gradient-19"/>
    <linearGradient id="linear-gradient-21" x1="178.08" y1="172.59" x2="218.88" y2="264.16" xlink:href="#linear-gradient-19"/>
    <linearGradient id="linear-gradient-22" x1="175.93" y1="173.54" x2="216.76" y2="265.18" xlink:href="#linear-gradient-19"/>
    <linearGradient id="linear-gradient-23" x1="178.7" y1="172.32" x2="219.49" y2="263.88" xlink:href="#linear-gradient-19"/>
    <linearGradient id="linear-gradient-24" x1="183.62" y1="170.15" x2="224.38" y2="261.64" xlink:href="#linear-gradient-19"/>
    <linearGradient id="linear-gradient-25" x1="185.76" y1="169.16" x2="226.58" y2="260.81" xlink:href="#linear-gradient-19"/>
    <linearGradient id="linear-gradient-26" x1="182.99" y1="170.42" x2="223.76" y2="261.92" xlink:href="#linear-gradient-19"/>
    <linearGradient id="linear-gradient-27" x1="161.92" y1="179.8" x2="202.66" y2="271.25" xlink:href="#linear-gradient-19"/>
    <linearGradient id="linear-gradient-28" x1="163.76" y1="178.97" x2="204.56" y2="270.55" xlink:href="#linear-gradient-19"/>
    <linearGradient id="linear-gradient-29" x1="182.68" y1="170.51" x2="223.51" y2="262.16" xlink:href="#linear-gradient-19"/>
    <linearGradient id="linear-gradient-30" x1="199.77" y1="162.94" x2="240.56" y2="254.5" xlink:href="#linear-gradient-19"/>
    <linearGradient id="linear-gradient-31" x1="197.93" y1="163.75" x2="238.76" y2="255.39" xlink:href="#linear-gradient-19"/>
    <linearGradient id="linear-gradient-32" x1="193.34" y1="83.49" x2="236.83" y2="181.11" gradientTransform="translate(-46.14 82.94) rotate(8.11)" xlink:href="#linear-gradient-19"/>
    <linearGradient id="linear-gradient-33" x1="197.35" y1="81.7" x2="240.82" y2="179.28" gradientTransform="translate(-46.14 82.94) rotate(8.11)" xlink:href="#linear-gradient-19"/>
    <linearGradient id="linear-gradient-34" x1="192.33" y1="83.94" x2="235.82" y2="181.57" gradientTransform="translate(-46.14 82.94) rotate(8.11)" xlink:href="#linear-gradient-19"/>
    <linearGradient id="linear-gradient-35" x1="189.56" y1="85.16" x2="233.11" y2="182.9" gradientTransform="translate(-46.14 82.94) rotate(8.11)" xlink:href="#linear-gradient-19"/>
    <linearGradient id="linear-gradient-36" x1="190.58" y1="84.71" x2="234.1" y2="182.39" gradientTransform="translate(-46.14 82.94) rotate(8.11)" xlink:href="#linear-gradient-19"/>
    <linearGradient id="linear-gradient-37" x1="194.35" y1="83.01" x2="237.92" y2="180.8" gradientTransform="translate(-46.14 82.94) rotate(8.11)" xlink:href="#linear-gradient-19"/>
    <linearGradient id="linear-gradient-38" x1="197.12" y1="81.8" x2="240.61" y2="179.42" gradientTransform="translate(-46.14 82.94) rotate(8.11)" xlink:href="#linear-gradient-19"/>
    <linearGradient id="linear-gradient-39" x1="196.1" y1="82.26" x2="239.59" y2="179.88" gradientTransform="translate(-46.14 82.94) rotate(8.11)" xlink:href="#linear-gradient-19"/>
    <linearGradient id="linear-gradient-40" x1="181.44" y1="88.79" x2="224.89" y2="186.32" gradientTransform="translate(-46.14 82.94) rotate(8.11)" xlink:href="#linear-gradient-19"/>
    <linearGradient id="linear-gradient-41" x1="177.44" y1="90.59" x2="220.88" y2="188.11" gradientTransform="translate(-46.14 82.94) rotate(8.11)" xlink:href="#linear-gradient-19"/>
    <linearGradient id="linear-gradient-42" x1="189.31" y1="85.23" x2="232.88" y2="183.03" gradientTransform="translate(-46.14 82.94) rotate(8.11)" xlink:href="#linear-gradient-19"/>
    <linearGradient id="linear-gradient-43" x1="205.24" y1="78.16" x2="248.77" y2="175.89" gradientTransform="translate(-46.14 82.94) rotate(8.11)" xlink:href="#linear-gradient-19"/>
    <linearGradient id="linear-gradient-44" x1="209.26" y1="76.4" x2="252.69" y2="173.89" gradientTransform="translate(-46.14 82.94) rotate(8.11)" xlink:href="#linear-gradient-19"/>
    <linearGradient id="linear-gradient-45" x1="179" y1="172.19" x2="219.82" y2="263.82" xlink:href="#linear-gradient-19"/>
    <linearGradient id="linear-gradient-46" x1="178.08" y1="172.59" x2="218.88" y2="264.16" xlink:href="#linear-gradient-19"/>
    <linearGradient id="linear-gradient-47" x1="175.93" y1="173.54" x2="216.76" y2="265.18" xlink:href="#linear-gradient-19"/>
    <linearGradient id="linear-gradient-48" x1="178.7" y1="172.32" x2="219.49" y2="263.88" xlink:href="#linear-gradient-19"/>
    <linearGradient id="linear-gradient-49" x1="183.62" y1="170.15" x2="224.38" y2="261.64" xlink:href="#linear-gradient-19"/>
    <linearGradient id="linear-gradient-50" x1="185.76" y1="169.16" x2="226.58" y2="260.81" xlink:href="#linear-gradient-19"/>
    <linearGradient id="linear-gradient-51" x1="182.99" y1="170.42" x2="223.76" y2="261.92" xlink:href="#linear-gradient-19"/>
    <linearGradient id="linear-gradient-52" x1="161.92" y1="179.8" x2="202.66" y2="271.25" xlink:href="#linear-gradient-19"/>
    <linearGradient id="linear-gradient-53" x1="163.76" y1="178.97" x2="204.56" y2="270.55" xlink:href="#linear-gradient-19"/>
    <linearGradient id="linear-gradient-54" x1="182.68" y1="170.51" x2="223.51" y2="262.16" xlink:href="#linear-gradient-19"/>
    <linearGradient id="linear-gradient-55" x1="199.77" y1="162.94" x2="240.56" y2="254.5" xlink:href="#linear-gradient-19"/>
    <linearGradient id="linear-gradient-56" x1="197.93" y1="163.75" x2="238.76" y2="255.39" xlink:href="#linear-gradient-19"/>
    <linearGradient id="linear-gradient-57" x1="193.34" y1="83.49" x2="236.83" y2="181.11" gradientTransform="translate(-46.14 82.94) rotate(8.11)" xlink:href="#linear-gradient-19"/>
    <linearGradient id="linear-gradient-58" x1="197.35" y1="81.7" x2="240.82" y2="179.28" gradientTransform="translate(-46.14 82.94) rotate(8.11)" xlink:href="#linear-gradient-19"/>
    <linearGradient id="linear-gradient-59" x1="192.33" y1="83.94" x2="235.82" y2="181.57" gradientTransform="translate(-46.14 82.94) rotate(8.11)" xlink:href="#linear-gradient-19"/>
    <linearGradient id="linear-gradient-60" x1="189.56" y1="85.16" x2="233.11" y2="182.9" gradientTransform="translate(-46.14 82.94) rotate(8.11)" xlink:href="#linear-gradient-19"/>
    <linearGradient id="linear-gradient-61" x1="190.58" y1="84.71" x2="234.1" y2="182.39" gradientTransform="translate(-46.14 82.94) rotate(8.11)" xlink:href="#linear-gradient-19"/>
    <linearGradient id="linear-gradient-62" x1="194.35" y1="83.01" x2="237.92" y2="180.8" gradientTransform="translate(-46.14 82.94) rotate(8.11)" xlink:href="#linear-gradient-19"/>
    <linearGradient id="linear-gradient-63" x1="197.12" y1="81.8" x2="240.61" y2="179.42" gradientTransform="translate(-46.14 82.94) rotate(8.11)" xlink:href="#linear-gradient-19"/>
    <linearGradient id="linear-gradient-64" x1="196.1" y1="82.26" x2="239.59" y2="179.88" gradientTransform="translate(-46.14 82.94) rotate(8.11)" xlink:href="#linear-gradient-19"/>
    <linearGradient id="linear-gradient-65" x1="181.44" y1="88.79" x2="224.89" y2="186.32" gradientTransform="translate(-46.14 82.94) rotate(8.11)" xlink:href="#linear-gradient-19"/>
    <linearGradient id="linear-gradient-66" x1="177.44" y1="90.59" x2="220.88" y2="188.11" gradientTransform="translate(-46.14 82.94) rotate(8.11)" xlink:href="#linear-gradient-19"/>
    <linearGradient id="linear-gradient-67" x1="189.31" y1="85.23" x2="232.88" y2="183.03" gradientTransform="translate(-46.14 82.94) rotate(8.11)" xlink:href="#linear-gradient-19"/>
    <linearGradient id="linear-gradient-68" x1="205.24" y1="78.16" x2="248.77" y2="175.89" gradientTransform="translate(-46.14 82.94) rotate(8.11)" xlink:href="#linear-gradient-19"/>
    <linearGradient id="linear-gradient-69" x1="209.26" y1="76.4" x2="252.69" y2="173.89" gradientTransform="translate(-46.14 82.94) rotate(8.11)" xlink:href="#linear-gradient-19"/>
    <linearGradient id="linear-gradient-70" x1="137.36" y1="150.35" x2="217.76" y2="273.18" xlink:href="#linear-gradient-19"/>
    <linearGradient id="linear-gradient-71" x1="141.5" y1="147.64" x2="221.92" y2="270.49" xlink:href="#linear-gradient-19"/>
    <linearGradient id="linear-gradient-72" x1="136.68" y1="150.8" x2="217.08" y2="273.61" xlink:href="#linear-gradient-19"/>
    <linearGradient id="linear-gradient-73" x1="134.21" y1="152.39" x2="214.71" y2="275.36" xlink:href="#linear-gradient-19"/>
    <linearGradient id="linear-gradient-74" x1="134.92" y1="151.99" x2="215.21" y2="274.64" xlink:href="#linear-gradient-19"/>
    <linearGradient id="linear-gradient-75" x1="138.04" y1="149.91" x2="218.44" y2="272.72" xlink:href="#linear-gradient-19"/>
    <linearGradient id="linear-gradient-76" x1="140.47" y1="148.26" x2="221.06" y2="271.36" xlink:href="#linear-gradient-19"/>
    <linearGradient id="linear-gradient-77" x1="139.81" y1="148.74" x2="220.25" y2="271.61" xlink:href="#linear-gradient-19"/>
    <linearGradient id="linear-gradient-78" x1="127.85" y1="156.57" x2="208.32" y2="279.51" xlink:href="#linear-gradient-19"/>
    <linearGradient id="linear-gradient-79" x1="123.7" y1="159.27" x2="204.16" y2="282.19" xlink:href="#linear-gradient-19"/>
    <linearGradient id="linear-gradient-80" x1="133.23" y1="153.08" x2="213.58" y2="275.83" xlink:href="#linear-gradient-19"/>
    <linearGradient id="linear-gradient-81" x1="146.88" y1="144.14" x2="227.23" y2="266.89" xlink:href="#linear-gradient-19"/>
    <linearGradient id="linear-gradient-82" x1="151.02" y1="141.43" x2="231.33" y2="264.1" xlink:href="#linear-gradient-19"/>
    <linearGradient id="linear-gradient-83" x1="165.28" y1="128.59" x2="234.73" y2="245.34" xlink:href="#linear-gradient-19"/>
    <linearGradient id="linear-gradient-84" x1="166.84" y1="127.66" x2="236.39" y2="244.59" xlink:href="#linear-gradient-19"/>
    <linearGradient id="linear-gradient-85" x1="164.16" y1="129.25" x2="233.62" y2="246.02" xlink:href="#linear-gradient-19"/>
    <linearGradient id="linear-gradient-86" x1="162.33" y1="130.34" x2="231.8" y2="247.14" xlink:href="#linear-gradient-19"/>
    <linearGradient id="linear-gradient-87" x1="163.45" y1="129.69" x2="232.85" y2="246.36" xlink:href="#linear-gradient-19"/>
    <linearGradient id="linear-gradient-88" x1="166.4" y1="127.9" x2="235.91" y2="244.78" xlink:href="#linear-gradient-19"/>
    <linearGradient id="linear-gradient-89" x1="168.24" y1="126.81" x2="237.73" y2="243.64" xlink:href="#linear-gradient-19"/>
    <linearGradient id="linear-gradient-90" x1="167.11" y1="127.47" x2="236.66" y2="244.4" xlink:href="#linear-gradient-19"/>
    <linearGradient id="linear-gradient-91" x1="155.19" y1="134.59" x2="224.66" y2="251.39" xlink:href="#linear-gradient-19"/>
    <linearGradient id="linear-gradient-92" x1="153.61" y1="135.49" x2="223.16" y2="252.41" xlink:href="#linear-gradient-19"/>
    <linearGradient id="linear-gradient-93" x1="163.77" y1="129.59" x2="233.03" y2="246.02" xlink:href="#linear-gradient-19"/>
    <linearGradient id="linear-gradient-94" x1="175.38" y1="122.58" x2="244.81" y2="239.31" xlink:href="#linear-gradient-19"/>
    <linearGradient id="linear-gradient-95" x1="176.95" y1="121.67" x2="246.3" y2="238.26" xlink:href="#linear-gradient-19"/>
    <linearGradient id="linear-gradient-96" x1="124.05" y1="124.87" x2="225.17" y2="288.89" xlink:href="#linear-gradient-19"/>
    <linearGradient id="linear-gradient-97" x1="125.64" y1="123.9" x2="226.62" y2="287.7" xlink:href="#linear-gradient-19"/>
    <linearGradient id="linear-gradient-98" x1="123.08" y1="125.46" x2="224.33" y2="289.69" xlink:href="#linear-gradient-19"/>
    <linearGradient id="linear-gradient-99" x1="121.4" y1="126.51" x2="222.51" y2="290.52" xlink:href="#linear-gradient-19"/>
    <linearGradient id="linear-gradient-100" x1="122.37" y1="125.91" x2="223.5" y2="289.96" xlink:href="#linear-gradient-19"/>
    <linearGradient id="linear-gradient-101" x1="125.04" y1="124.29" x2="226.02" y2="288.1" xlink:href="#linear-gradient-19"/>
    <linearGradient id="linear-gradient-102" x1="126.72" y1="123.24" x2="227.77" y2="287.15" xlink:href="#linear-gradient-19"/>
    <linearGradient id="linear-gradient-103" x1="125.76" y1="123.85" x2="226.67" y2="287.55" xlink:href="#linear-gradient-19"/>
    <linearGradient id="linear-gradient-104" x1="115.08" y1="130.41" x2="216.07" y2="294.23" xlink:href="#linear-gradient-19"/>
    <linearGradient id="linear-gradient-105" x1="113.48" y1="131.36" x2="214.77" y2="295.67" xlink:href="#linear-gradient-19"/>
    <linearGradient id="linear-gradient-106" x1="122.49" y1="125.87" x2="223.5" y2="289.71" xlink:href="#linear-gradient-19"/>
    <linearGradient id="linear-gradient-107" x1="133.05" y1="119.35" x2="234.07" y2="283.21" xlink:href="#linear-gradient-19"/>
    <linearGradient id="linear-gradient-108" x1="134.62" y1="118.35" x2="235.91" y2="282.66" xlink:href="#linear-gradient-19"/>
    <linearGradient id="linear-gradient-109" x1="95.53" y1="165.5" x2="168.02" y2="287.38" xlink:href="#linear-gradient-19"/>
    <linearGradient id="linear-gradient-110" x1="97.34" y1="164.42" x2="169.9" y2="286.41" xlink:href="#linear-gradient-19"/>
    <linearGradient id="linear-gradient-111" x1="94.23" y1="166.27" x2="166.72" y2="288.14" xlink:href="#linear-gradient-19"/>
    <linearGradient id="linear-gradient-112" x1="92.09" y1="167.52" x2="164.7" y2="289.6" xlink:href="#linear-gradient-19"/>
    <linearGradient id="linear-gradient-113" x1="93.41" y1="166.79" x2="165.81" y2="288.51" xlink:href="#linear-gradient-19"/>
    <linearGradient id="linear-gradient-114" x1="96.83" y1="164.72" x2="169.35" y2="286.64" xlink:href="#linear-gradient-19"/>
    <linearGradient id="linear-gradient-115" x1="98.96" y1="163.44" x2="171.55" y2="285.48" xlink:href="#linear-gradient-19"/>
    <linearGradient id="linear-gradient-116" x1="97.66" y1="164.22" x2="170.22" y2="286.21" xlink:href="#linear-gradient-19"/>
    <linearGradient id="linear-gradient-117" x1="83.8" y1="172.47" x2="156.38" y2="294.5" xlink:href="#linear-gradient-19"/>
    <linearGradient id="linear-gradient-118" x1="81.99" y1="173.55" x2="154.52" y2="295.49" xlink:href="#linear-gradient-19"/>
    <linearGradient id="linear-gradient-119" x1="93.74" y1="166.59" x2="166.18" y2="288.4" xlink:href="#linear-gradient-19"/>
    <linearGradient id="linear-gradient-120" x1="107.25" y1="158.51" x2="179.81" y2="280.5" xlink:href="#linear-gradient-19"/>
    <linearGradient id="linear-gradient-121" x1="109.07" y1="157.44" x2="181.61" y2="279.39" xlink:href="#linear-gradient-19"/>
  </defs>
  <g class="cls-37">
    <g id="_레이어_2" data-name="레이어 2">
      <g id="Layer_1" data-name="Layer 1">
        <g>
          <g>
            <g>
              <g>
                <g>
                  <path class="cls-107" d="m74.87,79.34s-1.28-28.54,31.71-36.79c32.98-8.24,51.69,13.95,51.69,13.95,0,0,6.98-8.88,18.08-4.44,11.1,4.44,10.75,13.74,10.75,13.74,0,0,12.08-5.81,24.77,4.02,12.68,9.83,12.37,19.35,12.37,19.35,0,0,20.93,8.56,18.08,28.86-2.85,20.29-25.3,16.57-28.15,9.59-.31,6.66-14.02,22.75-37.18,10.07-8.57,13.64-31.71,21.88-47.89,17.76-16.17-4.12-20.76-9.75-20.76-9.75,0,0-15.92,12.19-38.85-5.16-18.6-14.06-7.93-30.77-7.93-30.77,0,0-12.47-11.17-4.53-24.74,4.64-7.96,17.85-5.7,17.85-5.7Z"/>
                  <path class="cls-14" d="m156.27,103.04c-37.81,6.99-66.44-9.73-83.65-24.75-3.82-.29-12.39-.18-15.94,5.91-7.93,13.57,4.54,24.74,4.54,24.74,0,0-10.67,16.7,7.93,30.76,22.93,17.35,38.91,5.64,38.91,5.64,0,0,4.54,5.14,20.71,9.26,16.17,4.12,39.33-4.12,47.88-17.76,23.15,12.69,36.86-3.4,37.18-10.07,2.85,6.98,25.3,10.7,28.15-9.59.29-2.13.32-4.13.15-6-20.72-11.65-48.5-15.06-85.86-8.15Z"/>
                  <path class="cls-106" d="m225.32,88.47c-.23-2.65-1.83-10.94-12.74-19.39-4.8-3.72-10.06-5.61-15.62-5.61-2.58,0-4.8.41-6.53.89,0,0-.01,0-.02,0-.76.17-1.44.39-2.1.64-.51-3.37-2.65-10.27-11.34-13.75-2.2-.87-4.41-1.32-6.57-1.32-5.94,0-10.07,3.28-11.86,5.04-3.5-3.6-16.27-15.09-37.04-15.09-4.78,0-9.71.63-14.65,1.87-27.7,6.92-32.03,25.92-31.45,36.61h0c-5.33-.85-15.41.76-18.59,6.2-7.14,12.21,1.41,22.67,4.04,25.45-1.93,3.78-8.02,18.72,8.67,31.35,8.22,6.22,16.47,9.37,24.52,9.37,7.42,0,12.52-2.7,14.54-4,1.97,1.88,7.79,6.38,20.66,9.66,2.85.73,5.98,1.1,9.28,1.1,15.25,0,31.76-7.81,39.03-18.31,5.57,2.89,10.97,4.35,16.05,4.35,11.41,0,20.2-8.28,20.74-14.27,1.26,3.7,7.12,4.73,11.71,4.73,7.48,0,15.57-3.83,17.25-15.83,2.63-18.66-14.2-27.86-17.99-29.69Zm15.5,29.33c-1.85,13.09-12.15,14.11-15.26,14.11-4.73,0-9.73-.74-12.18-6.91.31,1.81-.4,4.21-1.34,6.15-2.38,4.5-9.23,9.86-18.43,9.86-4.76,0-9.88-1.44-15.2-4.25.62-1.96,1.19-4.91,1.4-9.39-1.4,4.51-2.42,7.24-3.83,9.63-6.54,10.26-22.6,17.98-37.45,17.98-3.09,0-6.01-.34-8.66-1.02-9.5-2.42-14.4-5.03-16.77-6.67,0,0,0,0,0,0-3.79-3.2-5.97-5.23-9.24-11.79,1.36,4.8,2.69,7.78,3.83,9.62-1.87.95-6.88,3.1-13.63,3.1-7.48,0-15.22-2.98-22.99-8.86-14.97-11.33-10-24.21-8.14-27.88h0c2.79-4.43,4-5.3,5.53-6.25-2.85.84-4.68,2.13-5.75,3.07-2.22-2.31-10.03-11.63-3.71-22.46,2.58-4.41,8.25-5.34,12.54-5.34,2.26,0,3.9.28,3.9.28l.58.1c.82,3.19,2.33,7.12,2.24,6.89-.65-2.61-1.09-5.37-1.32-8.05v-.23c-.02-.28-.86-27.43,30.55-35.29,4.74-1.18,9.47-1.78,14.04-1.78,20.66,0,34.22,13.18,36.78,15.88.13.14.26.28.39.42.03.04.04.06.05.06h0c2.08,2.31,4.02,5.1,5.95,9.26-1.43-5.15-3.25-8.62-4.76-10.85,1.15-1.24,4.91-4.73,10.49-4.73,1.84,0,3.74.38,5.63,1.15,7.99,3.2,10.19,9.61,10.76,12.1-1.55.83-2.94,1.92-4.47,3.28,2.61-1.48,4.66-2.25,4.66-2.25.04-.02,4.74-1.3,10.08-1.3,4.99,0,9.62,2.27,13.97,5.64,9.35,7.25,11.29,14.28,11.69,17-3.68-.69-10.29-1.39-17,.6,4.81-1.11,12.99-.05,18.09,1.88,2,.89,19.53,9.26,17,27.25Z"/>
                </g>
                <path class="cls-42" d="m221.65,91.19c-3.66-.96-10.29-1.39-16.99.6,4.8-1.11,12.99-.05,18.08,1.88,1.81.81,16.31,7.73,17.2,22.35.87-16.46-15.28-24.19-17.2-25.03-.38-.15-.79-.29-1.2-.42.04.23,0,0,.11.63Z"/>
                <path class="cls-42" d="m170.23,56.13c1.69,0,3.44.35,5.19,1.06,5.65,2.26,8.81,5.89,9.89,8.66.22-.13.44-.27.66-.38-.52-2.29-3.2-7.82-10.55-10.76-1.75-.7-3.49-1.06-5.19-1.06-5.14,0-8.24,2.86-9.21,3.91.31.45.61,1.08.94,1.65,1.61-1.41,4.2-3.08,8.28-3.08Z"/>
                <path class="cls-42" d="m78.02,79.17c.01.16.04.33.05.48.45-6.2,3.92-25.89,29.57-32.3,4.6-1.15,9.18-1.73,13.6-1.73,20.03,0,33.17,12.78,35.65,15.4.12.14.25.27.38.41.03.04.05.05.05.06h0c2.02,2.24,4.18,4.43,6.5,8.63-1.56-4.58-2.86-6.56-4.39-8.62-.69-.95-1.39-1.82-2.11-2.62h0s-.02-.02-.05-.06c-.13-.14-.25-.27-.38-.41-2.48-2.62-15.62-15.4-35.65-15.4-4.43,0-9,.59-13.6,1.73-30.45,7.61-29.63,33.93-29.62,34.2v.22Z"/>
                <path class="cls-42" d="m210.78,72.08c-4.15-3.22-8.28-5.05-13.34-5.38,0,0-8.78-.7-14.79,3.92,2.5-1.42,6.74-1.56,6.74-1.56.04-.02,3.17-.82,8.24-.25,4.48.5,9.01,2.62,13.16,5.84,5.53,4.28,8.34,8.49,9.78,11.69.34.03.68.08,1,.15-.91-3.25-3.49-8.76-10.78-14.41Z"/>
              </g>
              <g class="cls-20">
                <g>
                  <path class="cls-107" d="m74.87,79.34s-1.28-28.54,31.71-36.79c32.98-8.24,51.69,13.95,51.69,13.95,0,0,6.98-8.88,18.08-4.44,11.1,4.44,10.75,13.74,10.75,13.74,0,0,12.08-5.81,24.77,4.02,12.68,9.83,12.37,19.35,12.37,19.35,0,0,20.93,8.56,18.08,28.86-2.85,20.29-25.3,16.57-28.15,9.59-.31,6.66-14.02,22.75-37.18,10.07-8.57,13.64-31.71,21.88-47.89,17.76-16.17-4.12-20.76-9.75-20.76-9.75,0,0-15.92,12.19-38.85-5.16-18.6-14.06-7.93-30.77-7.93-30.77,0,0-12.47-11.17-4.53-24.74,4.64-7.96,17.85-5.7,17.85-5.7Z"/>
                  <path class="cls-14" d="m156.27,103.04c-37.81,6.99-66.44-9.73-83.65-24.75-3.82-.29-12.39-.18-15.94,5.91-7.93,13.57,4.54,24.74,4.54,24.74,0,0-10.67,16.7,7.93,30.76,22.93,17.35,38.91,5.64,38.91,5.64,0,0,4.54,5.14,20.71,9.26,16.17,4.12,39.33-4.12,47.88-17.76,23.15,12.69,36.86-3.4,37.18-10.07,2.85,6.98,25.3,10.7,28.15-9.59.29-2.13.32-4.13.15-6-20.72-11.65-48.5-15.06-85.86-8.15Z"/>
                  <path class="cls-106" d="m225.32,88.47c-.23-2.65-1.83-10.94-12.74-19.39-4.8-3.72-10.06-5.61-15.62-5.61-2.58,0-4.8.41-6.53.89,0,0-.01,0-.02,0-.76.17-1.44.39-2.1.64-.51-3.37-2.65-10.27-11.34-13.75-2.2-.87-4.41-1.32-6.57-1.32-5.94,0-10.07,3.28-11.86,5.04-3.5-3.6-16.27-15.09-37.04-15.09-4.78,0-9.71.63-14.65,1.87-27.7,6.92-32.03,25.92-31.45,36.61h0c-5.33-.85-15.41.76-18.59,6.2-7.14,12.21,1.41,22.67,4.04,25.45-1.93,3.78-8.02,18.72,8.67,31.35,8.22,6.22,16.47,9.37,24.52,9.37,7.42,0,12.52-2.7,14.54-4,1.97,1.88,7.79,6.38,20.66,9.66,2.85.73,5.98,1.1,9.28,1.1,15.25,0,31.76-7.81,39.03-18.31,5.57,2.89,10.97,4.35,16.05,4.35,11.41,0,20.2-8.28,20.74-14.27,1.26,3.7,7.12,4.73,11.71,4.73,7.48,0,15.57-3.83,17.25-15.83,2.63-18.66-14.2-27.86-17.99-29.69Zm15.5,29.33c-1.85,13.09-12.15,14.11-15.26,14.11-4.73,0-9.73-.74-12.18-6.91.31,1.81-.4,4.21-1.34,6.15-2.38,4.5-9.23,9.86-18.43,9.86-4.76,0-9.88-1.44-15.2-4.25.62-1.96,1.19-4.91,1.4-9.39-1.4,4.51-2.42,7.24-3.83,9.63-6.54,10.26-22.6,17.98-37.45,17.98-3.09,0-6.01-.34-8.66-1.02-9.5-2.42-14.4-5.03-16.77-6.67,0,0,0,0,0,0-3.79-3.2-5.97-5.23-9.24-11.79,1.36,4.8,2.69,7.78,3.83,9.62-1.87.95-6.88,3.1-13.63,3.1-7.48,0-15.22-2.98-22.99-8.86-14.97-11.33-10-24.21-8.14-27.88h0c2.79-4.43,4-5.3,5.53-6.25-2.85.84-4.68,2.13-5.75,3.07-2.22-2.31-10.03-11.63-3.71-22.46,2.58-4.41,8.25-5.34,12.54-5.34,2.26,0,3.9.28,3.9.28l.58.1c.82,3.19,2.33,7.12,2.24,6.89-.65-2.61-1.09-5.37-1.32-8.05v-.23c-.02-.28-.86-27.43,30.55-35.29,4.74-1.18,9.47-1.78,14.04-1.78,20.66,0,34.22,13.18,36.78,15.88.13.14.26.28.39.42.03.04.04.06.05.06h0c2.08,2.31,4.02,5.1,5.95,9.26-1.43-5.15-3.25-8.62-4.76-10.85,1.15-1.24,4.91-4.73,10.49-4.73,1.84,0,3.74.38,5.63,1.15,7.99,3.2,10.19,9.61,10.76,12.1-1.55.83-2.94,1.92-4.47,3.28,2.61-1.48,4.66-2.25,4.66-2.25.04-.02,4.74-1.3,10.08-1.3,4.99,0,9.62,2.27,13.97,5.64,9.35,7.25,11.29,14.28,11.69,17-3.68-.69-10.29-1.39-17,.6,4.81-1.11,12.99-.05,18.09,1.88,2,.89,19.53,9.26,17,27.25Z"/>
                </g>
                <path class="cls-42" d="m221.65,91.19c-3.66-.96-10.29-1.39-16.99.6,4.8-1.11,12.99-.05,18.08,1.88,1.81.81,16.31,7.73,17.2,22.35.87-16.46-15.28-24.19-17.2-25.03-.38-.15-.79-.29-1.2-.42.04.23,0,0,.11.63Z"/>
                <path class="cls-42" d="m170.23,56.13c1.69,0,3.44.35,5.19,1.06,5.65,2.26,8.81,5.89,9.89,8.66.22-.13.44-.27.66-.38-.52-2.29-3.2-7.82-10.55-10.76-1.75-.7-3.49-1.06-5.19-1.06-5.14,0-8.24,2.86-9.21,3.91.31.45.61,1.08.94,1.65,1.61-1.41,4.2-3.08,8.28-3.08Z"/>
                <path class="cls-42" d="m78.02,79.17c.01.16.04.33.05.48.45-6.2,3.92-25.89,29.57-32.3,4.6-1.15,9.18-1.73,13.6-1.73,20.03,0,33.17,12.78,35.65,15.4.12.14.25.27.38.41.03.04.05.05.05.06h0c2.02,2.24,4.18,4.43,6.5,8.63-1.56-4.58-2.86-6.56-4.39-8.62-.69-.95-1.39-1.82-2.11-2.62h0s-.02-.02-.05-.06c-.13-.14-.25-.27-.38-.41-2.48-2.62-15.62-15.4-35.65-15.4-4.43,0-9,.59-13.6,1.73-30.45,7.61-29.63,33.93-29.62,34.2v.22Z"/>
                <path class="cls-42" d="m210.78,72.08c-4.15-3.22-8.28-5.05-13.34-5.38,0,0-8.78-.7-14.79,3.92,2.5-1.42,6.74-1.56,6.74-1.56.04-.02,3.17-.82,8.24-.25,4.48.5,9.01,2.62,13.16,5.84,5.53,4.28,8.34,8.49,9.78,11.69.34.03.68.08,1,.15-.91-3.25-3.49-8.76-10.78-14.41Z"/>
              </g>
            </g>
            <g>
              <polygon class="cls-10" points="174.97 47.33 165.52 53.18 168.3 42.49 159.68 34.87 170.84 34.65 174.97 24.36 179.08 34.65 189.96 35.16 181.62 42.49 184.12 53.18 174.97 47.33"/>
              <polygon class="cls-11" points="191.77 64.51 186.9 59.15 194.09 59.66 197.94 53.22 199.41 60.34 206.5 61.76 200.39 65.63 201.37 72.66 195.68 68.2 189.13 71.07 191.77 64.51"/>
              <path class="cls-35" d="m201.98,101.85c-28.12,0-50.92-22.8-50.92-50.93,0-22.08,14.08-40.83,33.73-47.89-22.38-7.03-47.79-1.86-65.76,15.68-26.02,25.4-26.54,67.1-1.13,93.14,25.4,26.01,67.08,26.53,93.11,1.13,4.84-4.72,8.78-10,11.85-15.64-6.38,2.87-13.43,4.51-20.88,4.51Z"/>
              <g class="cls-17">
                <path class="cls-23" d="m214.92,100.16c-.26.07-.88.22-1.13.28-1.97,2.71-4.12,5.7-6.57,8.09-11.2,10.93-25.99,16.95-41.64,16.95s-31.36-6.39-42.68-17.98c-22.96-23.53-22.5-61.36,1.03-84.33,11.2-10.92,25.99-16.94,41.64-16.94,4,0,6.65.16,10.47.91,1.36-.86,2.73-1.66,4.18-2.29-5.14-1.33-9.18-1.86-14.65-1.86-16.49,0-32.08,6.35-43.89,17.87-24.81,24.21-25.29,64.09-1.09,88.91,11.94,12.22,27.91,18.95,45,18.95s32.09-6.34,43.9-17.87c3.67-3.58,6.78-7.56,9.43-11.8-1.41.65-2.5.7-3.99,1.12Z"/>
              </g>
              <path class="cls-120" d="m180.26,58.8c0,.8-.65,1.44-1.43,1.44s-1.44-.64-1.44-1.44.65-1.44,1.44-1.44,1.43.65,1.43,1.44Z"/>
              <path class="cls-101" d="m173.51,72.66c0,.79-.64,1.44-1.44,1.44s-1.44-.65-1.44-1.44.64-1.44,1.44-1.44,1.44.65,1.44,1.44Z"/>
              <path class="cls-58" d="m186.9,25.8c0,.79-.64,1.43-1.43,1.43s-1.44-.64-1.44-1.43.64-1.44,1.44-1.44,1.43.64,1.43,1.44Z"/>
              <g>
                <polygon class="cls-12" points="174.97 47.33 165.52 53.18 168.3 42.49 159.68 34.87 170.84 34.65 174.97 24.36 179.08 34.65 189.96 35.16 181.62 42.49 184.12 53.18 174.97 47.33"/>
                <polygon class="cls-22" points="191.77 64.51 186.9 59.15 194.09 59.66 197.94 53.22 199.41 60.34 206.5 61.76 200.39 65.63 201.37 72.66 195.68 68.2 189.13 71.07 191.77 64.51"/>
                <path class="cls-19" d="m180.26,58.8c0,.8-.65,1.44-1.43,1.44s-1.44-.64-1.44-1.44.65-1.44,1.44-1.44,1.43.65,1.43,1.44Z"/>
                <path class="cls-15" d="m173.51,72.66c0,.79-.64,1.44-1.44,1.44s-1.44-.65-1.44-1.44.64-1.44,1.44-1.44,1.44.65,1.44,1.44Z"/>
                <path class="cls-21" d="m186.9,25.8c0,.79-.64,1.43-1.43,1.43s-1.44-.64-1.44-1.43.64-1.44,1.44-1.44,1.43.64,1.43,1.44Z"/>
              </g>
              <path class="cls-16" d="m100.96,81.12c2.67,11.22,8.3,21.87,16.93,30.72,25.4,26.01,67.08,26.53,93.11,1.13,4.84-4.72,8.78-10,11.85-15.64-6.38,2.87-13.43,4.51-20.88,4.51-9.73,0-18.81-2.73-26.53-7.46-2.84.4-5.72.86-8.68,1.41-27.76,5.13-50.05-3.85-65.81-14.68Z"/>
            </g>
            <g>
              <g>
                <path class="cls-64" d="m22.59,106.41s-1.37-30.94,34.38-39.88c35.76-8.94,56.04,15.13,56.04,15.13,0,0,7.56-9.62,19.6-4.82,12.03,4.82,11.66,14.89,11.66,14.89,0,0,13.1-6.29,26.85,4.36,13.75,10.66,13.41,20.97,13.41,20.97,0,0,22.69,9.29,19.6,31.29-3.09,22.01-27.43,17.97-30.53,10.41-.34,7.22-15.2,24.66-40.3,10.91-9.28,14.79-34.38,23.72-51.92,19.25-17.53-4.47-22.51-10.56-22.51-10.56,0,0-17.26,13.21-42.13-5.6-20.16-15.25-8.6-33.35-8.6-33.35,0,0-13.51-12.11-4.91-26.83,5.03-8.63,19.35-6.18,19.35-6.18Z"/>
                <path class="cls-18" d="m110.83,132.1c-40.99,7.58-72.02-10.55-90.68-26.83-4.15-.31-13.43-.19-17.29,6.41-8.6,14.72,4.92,26.83,4.92,26.83,0,0-11.57,18.1,8.59,33.35,24.87,18.82,42.19,6.11,42.19,6.11,0,0,4.92,5.58,22.45,10.05,17.53,4.47,42.64-4.47,51.92-19.26,25.1,13.76,39.96-3.69,40.31-10.91,3.09,7.56,27.43,11.6,30.52-10.4.33-2.31.35-4.48.16-6.51-22.46-12.62-52.59-16.32-93.09-8.83Z"/>
                <path class="cls-27" d="m185.69,116.3c-.24-2.87-1.99-11.85-13.81-21.02-5.21-4.04-10.91-6.08-16.94-6.08-2.79,0-5.2.45-7.07.97-.01,0-.02,0-.03,0-.81.19-1.56.42-2.27.69-.56-3.66-2.87-11.14-12.29-14.91-2.38-.95-4.78-1.44-7.12-1.44-6.44,0-10.92,3.56-12.86,5.47-3.79-3.91-17.63-16.37-40.15-16.37-5.17,0-10.52.68-15.87,2.02-30.03,7.51-34.73,28.1-34.1,39.69h0c-5.79-.92-16.71.83-20.15,6.73-7.73,13.24,1.53,24.57,4.38,27.59-2.1,4.09-8.69,20.3,9.4,33.99,8.92,6.74,17.86,10.16,26.58,10.16,8.04,0,13.57-2.93,15.75-4.34,2.14,2.03,8.45,6.92,22.4,10.47,3.09.79,6.48,1.19,10.07,1.19,16.53,0,34.43-8.46,42.32-19.85,6.04,3.13,11.89,4.72,17.4,4.72,12.36,0,21.9-8.98,22.49-15.47,1.37,4.02,7.72,5.12,12.69,5.12,8.11,0,16.87-4.15,18.7-17.16,2.85-20.23-15.39-30.2-19.5-32.18Zm16.8,31.8c-2,14.19-13.17,15.29-16.55,15.29-5.12,0-10.55-.8-13.21-7.49.34,1.96-.43,4.56-1.45,6.66-2.57,4.88-10.01,10.69-19.97,10.69-5.17,0-10.71-1.56-16.48-4.61.67-2.12,1.29-5.33,1.51-10.18-1.51,4.89-2.62,7.86-4.15,10.44-7.09,11.12-24.5,19.49-40.6,19.49-3.35,0-6.52-.37-9.4-1.1-10.3-2.63-15.61-5.45-18.17-7.23t0,0c-4.11-3.47-6.47-5.67-10.01-12.79,1.47,5.21,2.92,8.43,4.15,10.43-2.04,1.03-7.46,3.37-14.78,3.37-8.11,0-16.5-3.23-24.92-9.6-16.24-12.28-10.85-26.25-8.82-30.23h0c3.02-4.8,4.33-5.74,5.99-6.78-3.08.92-5.08,2.31-6.23,3.33-2.41-2.51-10.88-12.61-4.02-24.35,2.79-4.78,8.92-5.78,13.58-5.78,2.45,0,4.23.3,4.25.3l.6.1c.89,3.45,2.52,7.73,2.43,7.47-.7-2.83-1.19-5.81-1.43-8.72v-.25c-.03-.3-.93-29.74,33.12-38.25,5.15-1.28,10.26-1.94,15.22-1.94,22.4,0,37.1,14.29,39.88,17.22.14.15.28.31.42.46.03.04.05.06.06.06h0c2.25,2.51,4.36,5.54,6.44,10.04-1.55-5.58-3.52-9.34-5.17-11.76,1.26-1.35,5.33-5.14,11.38-5.14,1.99,0,4.04.42,6.1,1.25,8.67,3.46,11.05,10.43,11.66,13.13-1.69.89-3.19,2.08-4.85,3.55,2.84-1.6,5.05-2.43,5.05-2.43.05-.02,5.14-1.41,10.93-1.41,5.41,0,10.43,2.46,15.14,6.11,10.13,7.85,12.24,15.49,12.68,18.43-3.99-.75-11.15-1.51-18.43.66,5.21-1.2,14.09-.05,19.61,2.04,2.18.97,21.18,10.04,18.44,29.54Z"/>
              </g>
              <path class="cls-42" d="m181.71,119.25c-3.97-1.04-11.15-1.5-18.42.66,5.21-1.2,14.08-.05,19.6,2.04,1.97.87,17.69,8.38,18.65,24.23.94-17.85-16.57-26.21-18.65-27.15-.41-.15-.85-.3-1.3-.45.05.24,0,0,.12.68Z"/>
              <path class="cls-42" d="m125.97,81.24c1.83,0,3.72.38,5.62,1.15,6.14,2.45,9.55,6.38,10.74,9.39.24-.14.47-.29.71-.42-.56-2.48-3.46-8.47-11.44-11.66-1.9-.76-3.79-1.14-5.62-1.14-5.57,0-8.94,3.1-9.99,4.23.33.49.66,1.17,1.02,1.79,1.74-1.53,4.55-3.34,8.97-3.34Z"/>
              <path class="cls-42" d="m26,106.23c.02.18.04.36.06.53.49-6.73,4.25-28.07,32.05-35.02,4.98-1.24,9.95-1.88,14.75-1.88,21.71,0,35.96,13.86,38.65,16.69.14.15.27.29.41.45.04.03.05.06.06.06h0c2.2,2.43,4.53,4.8,7.05,9.36-1.69-4.97-3.1-7.11-4.76-9.35-.75-1.04-1.51-1.97-2.29-2.84h0s-.02-.02-.06-.06c-.14-.15-.27-.29-.41-.45-2.69-2.84-16.94-16.69-38.65-16.69-4.8,0-9.76.64-14.75,1.88-33.01,8.26-32.13,36.79-32.12,37.08v.24Z"/>
              <path class="cls-42" d="m169.94,98.55c-4.5-3.49-8.97-5.48-14.47-5.84,0,0-9.52-.76-16.03,4.25,2.7-1.53,7.3-1.68,7.3-1.68.04-.02,3.44-.9,8.93-.28,4.86.55,9.77,2.85,14.27,6.33,5.99,4.65,9.04,9.21,10.6,12.68.38.03.74.08,1.08.16-.99-3.52-3.78-9.5-11.68-15.62Z"/>
            </g>
          </g>
          <g>
            <g>
              <path class="cls-116" d="m208.76,188.05l-5.2-.09,1.18-1.14c.34-.31.36-.86.02-1.2l-.16-.16c-.33-.33-.87-.34-1.2-.02l-2.56,2.48-3.79-.06,3.16-3.06c.34-.33.35-.86,0-1.2l-.15-.16c-.32-.34-.86-.34-1.2-.02l-4.53,4.4-4.08-.07,2.05-3.42s.06,0,.08,0l6.35-1.59c.46-.12.73-.58.62-1.03l-.06-.22c-.12-.46-.58-.74-1.03-.62l-4.58,1.15,1.96-3.27s.06,0,.07,0l3.69-.92c.45-.11.74-.57.62-1.03l-.06-.22c-.11-.46-.56-.73-1.02-.62l-1.9.48,2.78-4.65c.24-.41.11-.93-.29-1.16l-.2-.11c-.4-.24-.92-.1-1.16.29l-2.66,4.46-.4-1.59c-.11-.45-.58-.73-1.02-.61l-.23.05c-.45.11-.72.58-.61,1.03l.86,3.46-1.94,3.24-1.08-4.25c-.12-.46-.57-.74-1.03-.62l-.22.06c-.46.11-.74.57-.62,1.03l1.54,6.13-2.08,3.49-1.94-3.49s.03-.04.04-.06l1.79-6.3c.13-.45-.13-.93-.57-1.06l-.22-.06c-.45-.12-.93.14-1.06.59l-1.29,4.54-1.85-3.33s.02-.05.03-.07l1.04-3.65c.13-.45-.13-.93-.58-1.05l-.22-.06c-.46-.12-.93.13-1.06.58l-.53,1.88-2.64-4.73c-.23-.41-.74-.56-1.15-.34l-.21.12c-.4.23-.55.75-.33,1.16l2.53,4.54-1.58-.45c-.44-.13-.92.13-1.05.59l-.06.21c-.13.46.14.93.58,1.05l3.43.97,1.85,3.31-4.24-1.2c-.44-.13-.91.13-1.04.58l-.07.22c-.13.45.14.92.58,1.05l6.09,1.74,1.97,3.54-3.98-.06s-.03-.05-.05-.07l-4.57-4.7c-.33-.35-.86-.35-1.19-.03l-.17.16c-.34.33-.34.87-.01,1.21l3.28,3.39-3.81-.06s-.03-.05-.04-.06l-2.64-2.73c-.33-.33-.86-.34-1.19-.02l-.17.16c-.33.32-.33.86-.02,1.2l1.36,1.4-5.41-.08c-.47-.01-.87.37-.87.84v.22c-.01.47.38.86.83.87l5.19.08-1.18,1.14c-.33.33-.34.87-.02,1.2l.17.17c.33.33.86.34,1.19.02l2.57-2.48,3.78.06-3.16,3.06c-.33.32-.34.86-.03,1.2l.17.16c.32.34.86.35,1.21.02l4.53-4.4,4.07.06-2.05,3.43s-.05,0-.08,0l-6.36,1.6c-.45.12-.73.58-.62,1.03l.06.22c.12.46.59.73,1.04.61l4.58-1.15-1.96,3.28s-.06,0-.08,0l-3.69.92c-.45.11-.72.57-.61,1.02l.05.22c.12.45.59.73,1.05.61l1.9-.47-2.79,4.66c-.24.4-.12.92.29,1.17l.2.11c.4.24.92.11,1.16-.3l2.67-4.46.4,1.6c.12.45.58.73,1.04.61l.21-.05c.46-.12.73-.58.63-1.04l-.87-3.46,1.94-3.24,1.07,4.27c.12.46.57.74,1.03.61l.22-.05c.45-.11.73-.58.62-1.03l-1.54-6.14,2.08-3.49,1.94,3.49s-.03.05-.04.07l-1.79,6.3c-.13.46.13.92.59,1.05l.22.07c.45.13.93-.13,1.06-.59l1.28-4.54,1.85,3.33s-.03.04-.03.07l-1.04,3.65c-.12.45.14.92.58,1.05l.22.06c.46.13.92-.13,1.04-.58l.54-1.88,2.64,4.74c.23.41.74.56,1.16.33l.19-.12c.41-.22.56-.75.34-1.16l-2.52-4.54,1.57.45c.45.13.91-.13,1.04-.58l.07-.22c.13-.45-.14-.93-.58-1.06l-3.43-.98-1.84-3.31,4.22,1.21c.45.13.93-.13,1.05-.58l.06-.22c.14-.45-.12-.93-.58-1.05l-6.07-1.74-1.98-3.56,3.99.07s.02.04.04.07l4.56,4.71c.31.33.86.34,1.19.02l.16-.16c.34-.33.34-.87.02-1.21l-3.29-3.38,3.81.06s.03.05.05.07l2.64,2.73c.32.34.86.34,1.2.02l.16-.15c.34-.33.34-.86.01-1.21l-1.36-1.41,5.41.09c.49,0,.87-.36.87-.83v-.23c.01-.47-.36-.85-.82-.86Z"/>
              <path class="cls-34" d="m177.97,169.6c.54-.31.74-1,.43-1.56-.3-.55-1-.75-1.54-.45-.54.31-.75,1.01-.45,1.56.31.54,1,.75,1.56.45Z"/>
              <path class="cls-77" d="m183.35,186.71c.52.33,1.22.15,1.57-.39.33-.54.14-1.24-.4-1.56-.54-.32-1.24-.15-1.57.39-.31.54-.14,1.24.4,1.57Z"/>
              <path class="cls-102" d="m184.32,192.12c.55-.31.75-1.01.44-1.55-.31-.55-1-.75-1.55-.44-.56.31-.74,1-.44,1.55.31.55,1.01.74,1.55.45Z"/>
              <path class="cls-115" d="m189.49,193.97c0-.63-.49-1.15-1.13-1.15-.62,0-1.14.5-1.16,1.12,0,.62.51,1.15,1.13,1.16.64,0,1.15-.49,1.16-1.13Z"/>
              <path class="cls-97" d="m193.68,190.43c-.54-.32-1.24-.14-1.57.39-.33.54-.15,1.24.39,1.57.54.32,1.24.15,1.57-.4.32-.53.14-1.24-.39-1.56Z"/>
              <path class="cls-79" d="m192.71,185.03c-.55.31-.74.99-.44,1.55.3.55,1,.74,1.55.44.54-.3.75-1,.45-1.55-.31-.55-1.01-.75-1.56-.43Z"/>
              <path class="cls-126" d="m187.55,183.17c-.03.62.48,1.14,1.11,1.16.62,0,1.16-.49,1.16-1.12.01-.63-.49-1.14-1.12-1.16-.63,0-1.14.5-1.15,1.13Z"/>
              <path class="cls-108" d="m165.68,187.07c-.64-.01-1.14.49-1.15,1.12,0,.63.5,1.15,1.12,1.16.62.01,1.15-.49,1.15-1.12.02-.63-.48-1.15-1.12-1.16Z"/>
              <path class="cls-31" d="m177.36,207.2c-.54-.32-1.24-.15-1.57.4-.32.54-.15,1.23.4,1.56.53.32,1.24.15,1.57-.4.31-.53.13-1.23-.4-1.56Z"/>
              <path class="cls-113" d="m199.06,207.55c-.54.31-.74,1-.43,1.56.29.54,1,.75,1.55.44.55-.31.75-1,.45-1.55-.31-.55-.99-.75-1.56-.44Z"/>
              <path class="cls-114" d="m211.38,187.8c-.62,0-1.14.5-1.17,1.12,0,.64.5,1.15,1.13,1.16.63,0,1.15-.49,1.17-1.12,0-.63-.51-1.15-1.13-1.16Z"/>
              <path class="cls-65" d="m199.67,169.95c.53.32,1.23.15,1.56-.39.33-.54.15-1.24-.4-1.57-.53-.32-1.24-.15-1.56.4-.33.54-.15,1.24.39,1.56Z"/>
            </g>
            <g>
              <path class="cls-46" d="m150.27,207.9l-3.64-1.94,1.24-.38c.35-.1.56-.47.45-.83l-.05-.18c-.11-.35-.49-.56-.84-.45l-2.71.82-2.64-1.42,3.33-1.01c.36-.11.57-.49.44-.84l-.05-.17c-.09-.36-.48-.56-.83-.45l-4.8,1.46-2.85-1.52,2.69-1.67s.03.02.06.02l5.06,1.18c.36.08.73-.14.81-.5l.04-.18c.08-.36-.14-.73-.5-.81l-3.65-.85,2.57-1.6s.04.02.05.02l2.93.68c.36.09.73-.14.81-.5l.04-.17c.08-.37-.14-.73-.5-.81l-1.51-.36,3.65-2.27c.31-.2.41-.61.2-.93l-.09-.15c-.2-.31-.62-.41-.93-.22l-3.49,2.18.29-1.27c.09-.36-.14-.73-.5-.8l-.18-.05c-.36-.08-.71.15-.8.5l-.64,2.76-2.54,1.58.78-3.39c.09-.37-.13-.73-.5-.81l-.18-.04c-.36-.09-.73.14-.81.5l-1.14,4.88-2.74,1.71-.1-3.16s.04-.02.05-.04l3.56-3.8c.25-.27.24-.7-.03-.95l-.13-.12c-.27-.25-.7-.24-.96.04l-2.56,2.73-.09-3.02s.03-.03.04-.03l2.06-2.2c.26-.27.24-.7-.03-.95l-.13-.12c-.28-.26-.7-.25-.95.03l-1.06,1.13-.15-4.3c-.01-.37-.32-.66-.69-.65h-.19c-.36.02-.66.33-.65.71l.13,4.12-.95-.89c-.27-.25-.7-.24-.96.04l-.12.12c-.26.28-.24.71.03.96l2.07,1.92.1,3.01-2.56-2.38c-.26-.26-.69-.24-.94.04l-.13.13c-.26.27-.24.69.03.95l3.67,3.43.1,3.22-2.78-1.49s0-.04,0-.06l-1.52-4.97c-.11-.37-.48-.56-.84-.45l-.18.05c-.36.11-.55.49-.44.85l1.09,3.58-2.67-1.42s0-.04,0-.06l-.87-2.88c-.12-.36-.49-.55-.84-.45l-.18.05c-.36.1-.55.48-.45.84l.45,1.49-3.78-2.02c-.33-.18-.75-.05-.92.27l-.09.16c-.17.33-.04.74.28.91l3.63,1.94-1.25.38c-.35.11-.56.5-.44.84l.05.17c.11.36.48.55.84.44l2.71-.82,2.65,1.42-3.34,1.01c-.35.1-.55.48-.45.83l.06.18c.1.36.49.56.85.45l4.79-1.46,2.85,1.52-2.69,1.67s-.04-.02-.06-.03l-5.07-1.18c-.36-.08-.72.14-.81.5l-.04.18c-.09.36.15.72.5.81l3.65.85-2.57,1.6s-.04-.03-.06-.03l-2.94-.68c-.36-.09-.72.14-.8.5l-.05.18c-.07.36.16.73.52.81l1.51.36-3.66,2.27c-.31.2-.41.61-.21.93l.1.15c.2.32.61.42.93.22l3.5-2.18-.3,1.27c-.08.36.15.73.52.81l.16.05c.37.08.73-.15.82-.51l.64-2.76,2.54-1.58-.8,3.4c-.08.37.14.73.51.81l.17.04c.36.09.73-.14.81-.5l1.14-4.89,2.73-1.7.11,3.16s-.03.03-.05.04l-3.55,3.79c-.26.28-.24.7.03.95l.13.13c.27.25.7.24.96-.03l2.55-2.73.1,3.02s-.04.02-.05.04l-2.05,2.2c-.25.27-.24.7.03.95l.13.12c.27.26.7.24.95-.03l1.06-1.14.15,4.3c.01.37.33.66.7.65h.17c.38-.02.67-.33.66-.71l-.14-4.12.96.89c.27.26.69.24.94-.03l.13-.13c.25-.27.23-.7-.03-.96l-2.07-1.93-.09-3,2.54,2.38c.27.25.7.24.95-.03l.12-.13c.26-.27.25-.69-.03-.95l-3.65-3.42-.11-3.23,2.79,1.5s0,.04,0,.06l1.51,4.97c.1.35.48.55.84.45l.17-.05c.36-.11.56-.49.45-.84l-1.09-3.58,2.66,1.42s0,.05,0,.07l.88,2.88c.1.36.48.55.84.45l.17-.05c.36-.11.56-.48.45-.84l-.45-1.49,3.78,2.02c.34.18.75.06.92-.27l.08-.16c.17-.33.05-.73-.27-.91Z"/>
              <path class="cls-110" d="m135.23,183.73c.5-.02.89-.44.87-.94-.01-.5-.43-.89-.93-.87-.49.02-.89.44-.87.94.02.5.43.89.94.88Z"/>
              <path class="cls-89" d="m132.83,197.75c.25.42.81.55,1.24.29.43-.26.56-.82.29-1.24-.26-.43-.82-.56-1.25-.29-.42.27-.55.82-.29,1.25Z"/>
              <path class="cls-44" d="m131.55,201.91c.5-.02.9-.44.88-.94-.01-.5-.44-.89-.94-.87-.5.01-.89.44-.87.93.02.5.44.89.93.87Z"/>
              <path class="cls-32" d="m134.53,205.1c.23-.45.06-.99-.38-1.23-.43-.23-.99-.06-1.22.38-.23.44-.06.99.37,1.23.45.23.99.06,1.23-.37Z"/>
              <path class="cls-62" d="m138.77,204.12c-.27-.42-.83-.55-1.25-.29-.43.26-.55.82-.29,1.25.26.42.82.56,1.25.29.42-.27.55-.83.29-1.25Z"/>
              <path class="cls-111" d="m140.04,199.95c-.5.02-.89.43-.87.93.01.49.43.88.94.87.49-.01.89-.43.88-.93-.03-.5-.45-.89-.95-.87Z"/>
              <path class="cls-56" d="m137.07,196.77c-.24.43-.08.98.37,1.22.44.23.99.08,1.23-.38.24-.44.07-.98-.37-1.23-.44-.23-.99-.06-1.22.38Z"/>
              <path class="cls-29" d="m120.23,191.6c-.44-.25-.98-.07-1.22.37-.23.44-.06,1,.37,1.23.44.23.99.06,1.22-.37.24-.44.08-.99-.38-1.22Z"/>
              <path class="cls-74" d="m121.18,210.03c-.27-.43-.83-.55-1.25-.29-.43.26-.55.82-.28,1.24.25.42.82.56,1.25.29.41-.26.54-.82.29-1.25Z"/>
              <path class="cls-104" d="m136.36,218.14c-.5.02-.88.44-.87.94.01.49.44.89.93.87.5-.02.9-.43.88-.93-.02-.5-.43-.89-.94-.88Z"/>
              <path class="cls-9" d="m152.2,208.67c-.44-.23-.98-.06-1.22.37-.24.45-.07.99.37,1.23.44.23.99.07,1.23-.37.24-.45.06-1-.38-1.23Z"/>
              <path class="cls-122" d="m150.42,191.84c.26.42.82.55,1.25.29.43-.26.55-.82.29-1.25-.26-.42-.82-.55-1.25-.29-.42.27-.56.82-.29,1.25Z"/>
            </g>
            <g class="cls-13">
              <path class="cls-116" d="m208.76,188.05l-5.2-.09,1.18-1.14c.34-.31.36-.86.02-1.2l-.16-.16c-.33-.33-.87-.34-1.2-.02l-2.56,2.48-3.79-.06,3.16-3.06c.34-.33.35-.86,0-1.2l-.15-.16c-.32-.34-.86-.34-1.2-.02l-4.53,4.4-4.08-.07,2.05-3.42s.06,0,.08,0l6.35-1.59c.46-.12.73-.58.62-1.03l-.06-.22c-.12-.46-.58-.74-1.03-.62l-4.58,1.15,1.96-3.27s.06,0,.07,0l3.69-.92c.45-.11.74-.57.62-1.03l-.06-.22c-.11-.46-.56-.73-1.02-.62l-1.9.48,2.78-4.65c.24-.41.11-.93-.29-1.16l-.2-.11c-.4-.24-.92-.1-1.16.29l-2.66,4.46-.4-1.59c-.11-.45-.58-.73-1.02-.61l-.23.05c-.45.11-.72.58-.61,1.03l.86,3.46-1.94,3.24-1.08-4.25c-.12-.46-.57-.74-1.03-.62l-.22.06c-.46.11-.74.57-.62,1.03l1.54,6.13-2.08,3.49-1.94-3.49s.03-.04.04-.06l1.79-6.3c.13-.45-.13-.93-.57-1.06l-.22-.06c-.45-.12-.93.14-1.06.59l-1.29,4.54-1.85-3.33s.02-.05.03-.07l1.04-3.65c.13-.45-.13-.93-.58-1.05l-.22-.06c-.46-.12-.93.13-1.06.58l-.53,1.88-2.64-4.73c-.23-.41-.74-.56-1.15-.34l-.21.12c-.4.23-.55.75-.33,1.16l2.53,4.54-1.58-.45c-.44-.13-.92.13-1.05.59l-.06.21c-.13.46.14.93.58,1.05l3.43.97,1.85,3.31-4.24-1.2c-.44-.13-.91.13-1.04.58l-.07.22c-.13.45.14.92.58,1.05l6.09,1.74,1.97,3.54-3.98-.06s-.03-.05-.05-.07l-4.57-4.7c-.33-.35-.86-.35-1.19-.03l-.17.16c-.34.33-.34.87-.01,1.21l3.28,3.39-3.81-.06s-.03-.05-.04-.06l-2.64-2.73c-.33-.33-.86-.34-1.19-.02l-.17.16c-.33.32-.33.86-.02,1.2l1.36,1.4-5.41-.08c-.47-.01-.87.37-.87.84v.22c-.01.47.38.86.83.87l5.19.08-1.18,1.14c-.33.33-.34.87-.02,1.2l.17.17c.33.33.86.34,1.19.02l2.57-2.48,3.78.06-3.16,3.06c-.33.32-.34.86-.03,1.2l.17.16c.32.34.86.35,1.21.02l4.53-4.4,4.07.06-2.05,3.43s-.05,0-.08,0l-6.36,1.6c-.45.12-.73.58-.62,1.03l.06.22c.12.46.59.73,1.04.61l4.58-1.15-1.96,3.28s-.06,0-.08,0l-3.69.92c-.45.11-.72.57-.61,1.02l.05.22c.12.45.59.73,1.05.61l1.9-.47-2.79,4.66c-.24.4-.12.92.29,1.17l.2.11c.4.24.92.11,1.16-.3l2.67-4.46.4,1.6c.12.45.58.73,1.04.61l.21-.05c.46-.12.73-.58.63-1.04l-.87-3.46,1.94-3.24,1.07,4.27c.12.46.57.74,1.03.61l.22-.05c.45-.11.73-.58.62-1.03l-1.54-6.14,2.08-3.49,1.94,3.49s-.03.05-.04.07l-1.79,6.3c-.13.46.13.92.59,1.05l.22.07c.45.13.93-.13,1.06-.59l1.28-4.54,1.85,3.33s-.03.04-.03.07l-1.04,3.65c-.12.45.14.92.58,1.05l.22.06c.46.13.92-.13,1.04-.58l.54-1.88,2.64,4.74c.23.41.74.56,1.16.33l.19-.12c.41-.22.56-.75.34-1.16l-2.52-4.54,1.57.45c.45.13.91-.13,1.04-.58l.07-.22c.13-.45-.14-.93-.58-1.06l-3.43-.98-1.84-3.31,4.22,1.21c.45.13.93-.13,1.05-.58l.06-.22c.14-.45-.12-.93-.58-1.05l-6.07-1.74-1.98-3.56,3.99.07s.02.04.04.07l4.56,4.71c.31.33.86.34,1.19.02l.16-.16c.34-.33.34-.87.02-1.21l-3.29-3.38,3.81.06s.03.05.05.07l2.64,2.73c.32.34.86.34,1.2.02l.16-.15c.34-.33.34-.86.01-1.21l-1.36-1.41,5.41.09c.49,0,.87-.36.87-.83v-.23c.01-.47-.36-.85-.82-.86Z"/>
              <path class="cls-86" d="m177.97,169.6c.54-.31.74-1,.43-1.56-.3-.55-1-.75-1.54-.45-.54.31-.75,1.01-.45,1.56.31.54,1,.75,1.56.45Z"/>
              <path class="cls-125" d="m183.35,186.71c.52.33,1.22.15,1.57-.39.33-.54.14-1.24-.4-1.56-.54-.32-1.24-.15-1.57.39-.31.54-.14,1.24.4,1.57Z"/>
              <path class="cls-124" d="m184.32,192.12c.55-.31.75-1.01.44-1.55-.31-.55-1-.75-1.55-.44-.56.31-.74,1-.44,1.55.31.55,1.01.74,1.55.45Z"/>
              <path class="cls-45" d="m189.49,193.97c0-.63-.49-1.15-1.13-1.15-.62,0-1.14.5-1.16,1.12,0,.62.51,1.15,1.13,1.16.64,0,1.15-.49,1.16-1.13Z"/>
              <path class="cls-61" d="m193.68,190.43c-.54-.32-1.24-.14-1.57.39-.33.54-.15,1.24.39,1.57.54.32,1.24.15,1.57-.4.32-.53.14-1.24-.39-1.56Z"/>
              <path class="cls-49" d="m192.71,185.03c-.55.31-.74.99-.44,1.55.3.55,1,.74,1.55.44.54-.3.75-1,.45-1.55-.31-.55-1.01-.75-1.56-.43Z"/>
              <path class="cls-3" d="m187.55,183.17c-.03.62.48,1.14,1.11,1.16.62,0,1.16-.49,1.16-1.12.01-.63-.49-1.14-1.12-1.16-.63,0-1.14.5-1.15,1.13Z"/>
              <path class="cls-30" d="m165.68,187.07c-.64-.01-1.14.49-1.15,1.12,0,.63.5,1.15,1.12,1.16.62.01,1.15-.49,1.15-1.12.02-.63-.48-1.15-1.12-1.16Z"/>
              <path class="cls-36" d="m177.36,207.2c-.54-.32-1.24-.15-1.57.4-.32.54-.15,1.23.4,1.56.53.32,1.24.15,1.57-.4.31-.53.13-1.23-.4-1.56Z"/>
              <path class="cls-85" d="m199.06,207.55c-.54.31-.74,1-.43,1.56.29.54,1,.75,1.55.44.55-.31.75-1,.45-1.55-.31-.55-.99-.75-1.56-.44Z"/>
              <path class="cls-88" d="m211.38,187.8c-.62,0-1.14.5-1.17,1.12,0,.64.5,1.15,1.13,1.16.63,0,1.15-.49,1.17-1.12,0-.63-.51-1.15-1.13-1.16Z"/>
              <path class="cls-28" d="m199.67,169.95c.53.32,1.23.15,1.56-.39.33-.54.15-1.24-.4-1.57-.53-.32-1.24-.15-1.56.4-.33.54-.15,1.24.39,1.56Z"/>
            </g>
            <g class="cls-13">
              <path class="cls-123" d="m150.27,207.9l-3.64-1.94,1.24-.38c.35-.1.56-.47.45-.83l-.05-.18c-.11-.35-.49-.56-.84-.45l-2.71.82-2.64-1.42,3.33-1.01c.36-.11.57-.49.44-.84l-.05-.17c-.09-.36-.48-.56-.83-.45l-4.8,1.46-2.85-1.52,2.69-1.67s.03.02.06.02l5.06,1.18c.36.08.73-.14.81-.5l.04-.18c.08-.36-.14-.73-.5-.81l-3.65-.85,2.57-1.6s.04.02.05.02l2.93.68c.36.09.73-.14.81-.5l.04-.17c.08-.37-.14-.73-.5-.81l-1.51-.36,3.65-2.27c.31-.2.41-.61.2-.93l-.09-.15c-.2-.31-.62-.41-.93-.22l-3.49,2.18.29-1.27c.09-.36-.14-.73-.5-.8l-.18-.05c-.36-.08-.71.15-.8.5l-.64,2.76-2.54,1.58.78-3.39c.09-.37-.13-.73-.5-.81l-.18-.04c-.36-.09-.73.14-.81.5l-1.14,4.88-2.74,1.71-.1-3.16s.04-.02.05-.04l3.56-3.8c.25-.27.24-.7-.03-.95l-.13-.12c-.27-.25-.7-.24-.96.04l-2.56,2.73-.09-3.02s.03-.03.04-.03l2.06-2.2c.26-.27.24-.7-.03-.95l-.13-.12c-.28-.26-.7-.25-.95.03l-1.06,1.13-.15-4.3c-.01-.37-.32-.66-.69-.65h-.19c-.36.02-.66.33-.65.71l.13,4.12-.95-.89c-.27-.25-.7-.24-.96.04l-.12.12c-.26.28-.24.71.03.96l2.07,1.92.1,3.01-2.56-2.38c-.26-.26-.69-.24-.94.04l-.13.13c-.26.27-.24.69.03.95l3.67,3.43.1,3.22-2.78-1.49s0-.04,0-.06l-1.52-4.97c-.11-.37-.48-.56-.84-.45l-.18.05c-.36.11-.55.49-.44.85l1.09,3.58-2.67-1.42s0-.04,0-.06l-.87-2.88c-.12-.36-.49-.55-.84-.45l-.18.05c-.36.1-.55.48-.45.84l.45,1.49-3.78-2.02c-.33-.18-.75-.05-.92.27l-.09.16c-.17.33-.04.74.28.91l3.63,1.94-1.25.38c-.35.11-.56.5-.44.84l.05.17c.11.36.48.55.84.44l2.71-.82,2.65,1.42-3.34,1.01c-.35.1-.55.48-.45.83l.06.18c.1.36.49.56.85.45l4.79-1.46,2.85,1.52-2.69,1.67s-.04-.02-.06-.03l-5.07-1.18c-.36-.08-.72.14-.81.5l-.04.18c-.09.36.15.72.5.81l3.65.85-2.57,1.6s-.04-.03-.06-.03l-2.94-.68c-.36-.09-.72.14-.8.5l-.05.18c-.07.36.16.73.52.81l1.51.36-3.66,2.27c-.31.2-.41.61-.21.93l.1.15c.2.32.61.42.93.22l3.5-2.18-.3,1.27c-.08.36.15.73.52.81l.16.05c.37.08.73-.15.82-.51l.64-2.76,2.54-1.58-.8,3.4c-.08.37.14.73.51.81l.17.04c.36.09.73-.14.81-.5l1.14-4.89,2.73-1.7.11,3.16s-.03.03-.05.04l-3.55,3.79c-.26.28-.24.7.03.95l.13.13c.27.25.7.24.96-.03l2.55-2.73.1,3.02s-.04.02-.05.04l-2.05,2.2c-.25.27-.24.7.03.95l.13.12c.27.26.7.24.95-.03l1.06-1.14.15,4.3c.01.37.33.66.7.65h.17c.38-.02.67-.33.66-.71l-.14-4.12.96.89c.27.26.69.24.94-.03l.13-.13c.25-.27.23-.7-.03-.96l-2.07-1.93-.09-3,2.54,2.38c.27.25.7.24.95-.03l.12-.13c.26-.27.25-.69-.03-.95l-3.65-3.42-.11-3.23,2.79,1.5s0,.04,0,.06l1.51,4.97c.1.35.48.55.84.45l.17-.05c.36-.11.56-.49.45-.84l-1.09-3.58,2.66,1.42s0,.05,0,.07l.88,2.88c.1.36.48.55.84.45l.17-.05c.36-.11.56-.48.45-.84l-.45-1.49,3.78,2.02c.34.18.75.06.92-.27l.08-.16c.17-.33.05-.73-.27-.91Z"/>
              <path class="cls-24" d="m135.23,183.73c.5-.02.89-.44.87-.94-.01-.5-.43-.89-.93-.87-.49.02-.89.44-.87.94.02.5.43.89.94.88Z"/>
              <path class="cls-59" d="m132.83,197.75c.25.42.81.55,1.24.29.43-.26.56-.82.29-1.24-.26-.43-.82-.56-1.25-.29-.42.27-.55.82-.29,1.25Z"/>
              <path class="cls-39" d="m131.55,201.91c.5-.02.9-.44.88-.94-.01-.5-.44-.89-.94-.87-.5.01-.89.44-.87.93.02.5.44.89.93.87Z"/>
              <path class="cls-68" d="m134.53,205.1c.23-.45.06-.99-.38-1.23-.43-.23-.99-.06-1.22.38-.23.44-.06.99.37,1.23.45.23.99.06,1.23-.37Z"/>
              <path class="cls-72" d="m138.77,204.12c-.27-.42-.83-.55-1.25-.29-.43.26-.55.82-.29,1.25.26.42.82.56,1.25.29.42-.27.55-.83.29-1.25Z"/>
              <path class="cls-52" d="m140.04,199.95c-.5.02-.89.43-.87.93.01.49.43.88.94.87.49-.01.89-.43.88-.93-.03-.5-.45-.89-.95-.87Z"/>
              <path class="cls-82" d="m137.07,196.77c-.24.43-.08.98.37,1.22.44.23.99.08,1.23-.38.24-.44.07-.98-.37-1.23-.44-.23-.99-.06-1.22.38Z"/>
              <path class="cls-91" d="m120.23,191.6c-.44-.25-.98-.07-1.22.37-.23.44-.06,1,.37,1.23.44.23.99.06,1.22-.37.24-.44.08-.99-.38-1.22Z"/>
              <path class="cls-95" d="m121.18,210.03c-.27-.43-.83-.55-1.25-.29-.43.26-.55.82-.28,1.24.25.42.82.56,1.25.29.41-.26.54-.82.29-1.25Z"/>
              <path class="cls-53" d="m136.36,218.14c-.5.02-.88.44-.87.94.01.49.44.89.93.87.5-.02.9-.43.88-.93-.02-.5-.43-.89-.94-.88Z"/>
              <path class="cls-70" d="m152.2,208.67c-.44-.23-.98-.06-1.22.37-.24.45-.07.99.37,1.23.44.23.99.07,1.23-.37.24-.45.06-1-.38-1.23Z"/>
              <path class="cls-25" d="m150.42,191.84c.26.42.82.55,1.25.29.43-.26.55-.82.29-1.25-.26-.42-.82-.55-1.25-.29-.42.27-.56.82-.29,1.25Z"/>
            </g>
            <g>
              <path class="cls-92" d="m162.9,170.14l-3.69-.92,1.03-.62c.29-.17.39-.55.21-.85l-.09-.15c-.17-.29-.56-.38-.86-.21l-2.24,1.34-2.69-.67,2.76-1.66c.3-.17.39-.56.21-.85l-.08-.14c-.17-.3-.55-.39-.85-.22l-3.96,2.39-2.9-.72,2.03-2.1s.03.01.06,0l4.8-.08c.35-.01.62-.3.61-.64v-.17c0-.34-.29-.62-.63-.61l-3.46.06,1.95-2.01s.04.01.05.01l2.78-.05c.34,0,.62-.29.61-.63v-.16c0-.35-.29-.62-.63-.61l-1.44.02,2.75-2.86c.24-.25.24-.64-.02-.87l-.12-.12c-.25-.24-.64-.23-.88.01l-2.63,2.74-.02-1.2c0-.34-.29-.62-.63-.61h-.17c-.34,0-.61.29-.61.63l.04,2.61-1.92,1.99-.07-3.21c0-.35-.28-.62-.63-.62h-.17c-.34.01-.62.29-.61.64l.08,4.63-2.07,2.15-.81-2.81s.04-.02.04-.04l2.33-4.2c.16-.3.05-.68-.24-.85l-.15-.08c-.3-.16-.68-.06-.85.24l-1.67,3.03-.76-2.68s.02-.03.03-.04l1.35-2.43c.17-.31.06-.68-.24-.85l-.14-.08c-.3-.16-.68-.06-.85.24l-.69,1.25-1.1-3.81c-.1-.33-.44-.52-.77-.43l-.16.05c-.32.1-.52.44-.43.78l1.05,3.65-1.05-.58c-.3-.17-.68-.06-.85.24l-.08.14c-.17.31-.05.69.24.84l2.28,1.26.77,2.67-2.82-1.56c-.29-.17-.68-.06-.84.25l-.08.14c-.17.3-.05.68.24.84l4.05,2.25.82,2.86-2.82-.7s-.01-.04-.02-.06l-2.48-4.11c-.18-.3-.55-.39-.85-.22l-.15.08c-.29.18-.38.56-.21.86l1.78,2.96-2.71-.68s-.01-.04-.02-.05l-1.43-2.38c-.18-.3-.56-.39-.85-.22l-.15.09c-.3.17-.39.56-.22.85l.74,1.23-3.85-.95c-.33-.09-.67.12-.76.45l-.05.16c-.08.34.13.67.46.76l3.69.92-1.03.62c-.29.18-.38.56-.2.86l.08.15c.18.29.56.38.85.21l2.24-1.35,2.69.67-2.76,1.66c-.29.17-.38.56-.22.85l.09.15c.17.3.56.39.86.21l3.97-2.39,2.89.72-2.04,2.1s-.04-.01-.06-.01l-4.79.08c-.35,0-.61.29-.61.63v.17c0,.35.3.62.64.61l3.46-.06-1.94,2.01s-.04-.01-.06,0l-2.79.05c-.34,0-.61.29-.61.63v.17c.01.34.3.61.64.61l1.43-.02-2.76,2.86c-.24.24-.24.64.01.88l.12.11c.25.24.64.24.88-.01l2.64-2.74v1.21c.02.34.31.61.66.6h.16c.34,0,.61-.29.61-.63l-.04-2.61,1.92-1.99.05,3.22c0,.35.29.62.64.61h.16c.35,0,.62-.29.62-.64l-.08-4.63,2.06-2.14.81,2.8s-.02.03-.03.04l-2.33,4.2c-.17.31-.06.68.25.85l.14.08c.3.17.69.06.85-.24l1.67-3.03.77,2.68s-.03.03-.03.05l-1.35,2.43c-.16.3-.06.68.24.84l.15.08c.31.17.68.06.84-.24l.7-1.25,1.1,3.82c.1.33.43.52.77.43l.16-.05c.33-.09.52-.44.43-.77l-1.05-3.66,1.05.59c.3.16.67.06.84-.24l.08-.15c.16-.3.06-.68-.24-.85l-2.29-1.26-.76-2.67,2.82,1.57c.29.16.68.06.84-.24l.07-.15c.18-.3.07-.68-.24-.85l-4.04-2.24-.82-2.86,2.84.71s0,.03.01.05l2.48,4.11c.17.29.56.38.85.21l.15-.08c.3-.18.39-.57.21-.86l-1.78-2.96,2.71.67s.01.04.02.06l1.43,2.38c.17.29.55.38.85.21l.14-.09c.3-.17.39-.56.21-.86l-.73-1.23,3.85.96c.34.08.68-.12.76-.45l.05-.16c.08-.34-.12-.67-.45-.76Z"/>
              <path class="cls-117" d="m143.99,151.89c.43-.13.69-.59.56-1.04-.12-.45-.58-.7-1.02-.58-.44.13-.7.59-.57,1.03.13.45.59.71,1.04.58Z"/>
              <path class="cls-78" d="m144.99,164.98c.32.32.85.31,1.18-.02.33-.33.31-.86-.02-1.18-.33-.32-.87-.32-1.19.02-.31.33-.3.86.03,1.18Z"/>
              <path class="cls-98" d="m144.78,169c.44-.13.7-.59.57-1.04-.13-.44-.59-.69-1.03-.57-.44.12-.7.59-.57,1.03.13.44.59.7,1.03.58Z"/>
              <path class="cls-103" d="m148.17,171.18c.1-.45-.17-.9-.62-1.01-.44-.11-.9.17-1.01.61-.11.44.16.9.61,1.01.45.1.9-.16,1.02-.61Z"/>
              <path class="cls-1" d="m151.75,169.35c-.34-.31-.86-.31-1.19.02-.33.33-.31.86.02,1.18.33.32.86.31,1.19-.02.31-.33.31-.86-.02-1.18Z"/>
              <path class="cls-75" d="m151.94,165.33c-.45.13-.7.59-.57,1.03.12.44.59.69,1.04.57.44-.12.7-.59.58-1.03-.14-.44-.6-.7-1.05-.57Z"/>
              <path class="cls-118" d="m148.57,163.15c-.12.44.16.9.61,1.01.45.1.91-.15,1.01-.61.12-.45-.16-.9-.61-1.02-.45-.11-.9.17-1.01.61Z"/>
              <path class="cls-33" d="m132.33,162.31c-.45-.11-.9.16-1.01.61-.11.45.17.91.61,1.02.44.11.9-.16,1.01-.61.12-.45-.16-.91-.61-1.02Z"/>
              <path class="cls-93" d="m137.33,178.61c-.33-.32-.86-.31-1.19.02-.32.33-.31.86.03,1.18.33.32.86.31,1.19-.02.31-.33.3-.86-.03-1.18Z"/>
              <path class="cls-7" d="m152.74,182.45c-.44.13-.69.59-.57,1.03.12.44.59.7,1.03.57.44-.13.7-.59.58-1.03-.13-.45-.59-.7-1.04-.57Z"/>
              <path class="cls-26" d="m164.81,170.4c-.45-.1-.9.17-1.02.61-.11.45.16.9.61,1.01.45.11.91-.16,1.02-.61.11-.46-.17-.91-.61-1.02Z"/>
              <path class="cls-63" d="m159.41,155.73c.33.32.85.31,1.18-.02.33-.33.31-.86-.02-1.18-.32-.32-.86-.31-1.18.02-.31.33-.31.86.02,1.18Z"/>
            </g>
            <g>
              <path class="cls-84" d="m187.04,144.16l-3.33-.37.82-.66c.23-.18.28-.53.09-.77l-.1-.12c-.19-.23-.54-.27-.77-.08l-1.79,1.44-2.42-.27,2.21-1.77c.24-.19.28-.54.08-.77l-.09-.12c-.18-.24-.52-.27-.76-.08l-3.18,2.55-2.61-.29,1.53-2.07s.03,0,.05,0l4.18-.63c.3-.05.5-.33.45-.62l-.02-.15c-.05-.3-.33-.51-.63-.46l-3.01.46,1.46-1.98s.03,0,.04,0l2.42-.37c.3-.04.51-.32.46-.62l-.02-.14c-.04-.3-.32-.5-.61-.46l-1.25.19,2.07-2.82c.18-.25.13-.59-.12-.76l-.12-.09c-.24-.18-.59-.12-.77.12l-1.98,2.7-.16-1.04c-.05-.3-.33-.51-.62-.46l-.15.02c-.29.04-.49.33-.45.62l.35,2.28-1.44,1.96-.43-2.8c-.04-.3-.32-.51-.62-.46l-.15.02c-.3.04-.51.33-.46.63l.62,4.02-1.55,2.11-1.04-2.36s.02-.02.03-.04l1.53-3.94c.1-.28-.03-.6-.31-.71l-.14-.05c-.28-.11-.6.04-.72.31l-1.11,2.83-.98-2.25s.02-.03.02-.04l.89-2.28c.1-.28-.03-.6-.31-.7l-.14-.06c-.28-.1-.59.03-.71.31l-.45,1.18-1.41-3.19c-.12-.28-.44-.4-.71-.29l-.14.06c-.27.12-.4.45-.28.73l1.34,3.07-.98-.39c-.28-.11-.6.03-.71.31l-.05.13c-.11.29.04.6.31.71l2.13.83.98,2.24-2.64-1.02c-.28-.11-.6.03-.7.31l-.06.14c-.11.28.03.6.31.71l3.8,1.48,1.05,2.39-2.55-.28s-.01-.03-.03-.04l-2.64-3.3c-.19-.24-.53-.28-.76-.09l-.12.09c-.24.19-.28.54-.08.77l1.9,2.38-2.44-.27s-.01-.03-.02-.04l-1.53-1.91c-.2-.24-.54-.27-.77-.08l-.12.09c-.24.19-.27.53-.09.77l.79.98-3.46-.38c-.31-.03-.57.18-.61.48l-.02.14c-.03.3.19.57.49.61l3.33.37-.83.66c-.23.19-.27.54-.08.77l.09.12c.19.23.53.27.76.08l1.8-1.43,2.42.27-2.21,1.78c-.23.18-.27.53-.09.76l.1.11c.19.24.54.28.77.08l3.17-2.55,2.61.29-1.53,2.08s-.03,0-.05,0l-4.18.64c-.29.05-.5.33-.46.62l.02.15c.05.3.33.5.63.45l3.01-.46-1.46,1.98s-.04,0-.06,0l-2.42.37c-.29.04-.5.32-.45.62v.15c.06.3.35.5.65.45l1.25-.19-2.08,2.82c-.18.24-.13.59.12.77l.12.08c.24.18.58.13.76-.12l1.99-2.71.15,1.05c.05.3.33.5.63.45l.14-.02c.31-.05.51-.33.47-.63l-.35-2.27,1.44-1.96.43,2.8c.05.3.33.51.62.46l.15-.02c.3-.05.5-.33.45-.62l-.61-4.03,1.55-2.11,1.03,2.35s-.02.03-.02.04l-1.53,3.94c-.11.28.03.6.31.71l.13.06c.28.11.6-.03.72-.31l1.09-2.83.99,2.25s-.02.02-.03.05l-.89,2.27c-.1.28.03.6.31.71l.14.05c.29.11.6-.03.7-.31l.46-1.18,1.41,3.2c.13.28.45.4.73.28l.13-.06c.28-.12.41-.44.29-.72l-1.34-3.07.98.39c.29.11.59-.03.71-.31l.06-.14c.1-.28-.03-.61-.31-.71l-2.14-.83-.98-2.24,2.64,1.03c.28.11.6-.03.71-.31l.05-.13c.12-.28-.02-.6-.31-.71l-3.78-1.48-1.05-2.4,2.56.29s.01.03.02.04l2.64,3.3c.18.23.53.27.77.08l.11-.09c.24-.19.27-.54.09-.77l-1.9-2.38,2.44.27s.02.03.02.05l1.53,1.91c.19.24.53.27.77.08l.11-.09c.24-.19.27-.53.08-.77l-.78-.99,3.46.39c.31.03.58-.18.61-.49v-.14c.05-.3-.17-.57-.47-.61Z"/>
              <path class="cls-41" d="m168.41,130.46c.37-.17.53-.6.37-.97-.17-.38-.59-.55-.97-.39-.37.17-.54.6-.38.97.17.37.6.55.98.38Z"/>
              <path class="cls-66" d="m170.82,141.76c.32.24.78.17,1.03-.15.25-.33.17-.79-.16-1.02-.33-.24-.79-.18-1.03.15-.24.33-.17.79.16,1.03Z"/>
              <path class="cls-55" d="m171.11,145.3c.37-.17.54-.6.38-.98-.16-.37-.6-.54-.97-.38-.38.16-.54.6-.38.97.16.38.6.54.97.38Z"/>
              <path class="cls-4" d="m174.32,146.8c.04-.4-.25-.77-.66-.81-.39-.04-.76.25-.81.65-.04.4.25.77.66.81.41.04.77-.25.81-.65Z"/>
              <path class="cls-94" d="m177.22,144.78c-.33-.24-.79-.16-1.03.16-.24.33-.17.79.16,1.03.33.24.79.17,1.03-.16.23-.33.16-.79-.16-1.03Z"/>
              <path class="cls-81" d="m176.92,141.25c-.37.16-.54.59-.37.97.16.37.59.54.97.37.36-.16.54-.59.38-.97-.17-.37-.61-.54-.98-.37Z"/>
              <path class="cls-121" d="m173.73,139.75c-.05.4.24.76.65.81.4.05.77-.24.8-.65.05-.41-.24-.77-.65-.82-.4-.04-.76.26-.8.66Z"/>
              <path class="cls-38" d="m159.47,140.92c-.41-.04-.76.25-.81.65-.04.4.25.77.65.81.4.05.77-.24.81-.65.05-.4-.24-.77-.65-.82Z"/>
              <path class="cls-6" d="m165.73,154.54c-.33-.24-.79-.17-1.03.16-.24.33-.16.79.17,1.02.32.24.78.17,1.03-.16.23-.33.16-.78-.17-1.02Z"/>
              <path class="cls-5" d="m179.63,156.09c-.37.16-.53.59-.37.97.16.37.6.54.97.38.37-.17.54-.6.38-.97-.17-.37-.59-.54-.97-.37Z"/>
              <path class="cls-112" d="m188.73,144.16c-.4-.04-.76.25-.81.65-.04.41.25.77.65.82.4.04.77-.25.82-.65.04-.41-.26-.77-.66-.82Z"/>
              <path class="cls-54" d="m182.31,132c.32.24.78.17,1.02-.16.24-.33.17-.78-.16-1.03-.31-.24-.78-.17-1.02.16-.24.33-.17.79.16,1.02Z"/>
            </g>
            <g>
              <path class="cls-96" d="m142.48,136.36l-3.03-.33.75-.6c.22-.17.25-.48.08-.69l-.08-.11c-.17-.21-.49-.25-.7-.08l-1.64,1.3-2.2-.24,2.01-1.61c.22-.17.26-.48.07-.7l-.08-.11c-.17-.22-.48-.25-.69-.08l-2.89,2.31-2.38-.26,1.39-1.88s.03,0,.04,0l3.8-.58c.28-.04.46-.29.42-.56v-.13c-.06-.27-.32-.46-.59-.41l-2.74.41,1.32-1.8s.04,0,.05,0l2.2-.34c.27-.04.46-.29.42-.56l-.03-.13c-.04-.28-.29-.46-.56-.42l-1.14.17,1.88-2.56c.16-.23.12-.54-.12-.7l-.1-.08c-.22-.16-.53-.11-.7.1l-1.79,2.45-.15-.95c-.04-.27-.3-.46-.57-.42l-.14.02c-.27.04-.45.29-.41.56l.31,2.07-1.31,1.78-.39-2.54c-.04-.28-.29-.47-.57-.42l-.13.02c-.27.04-.46.3-.42.57l.56,3.66-1.41,1.92-.94-2.14s.02-.02.03-.04l1.39-3.58c.1-.26-.03-.54-.28-.65l-.13-.04c-.26-.1-.55.03-.65.28l-1,2.57-.9-2.04s.02-.03.02-.04l.81-2.07c.09-.26-.03-.55-.29-.64l-.12-.05c-.26-.1-.54.03-.65.29l-.41,1.06-1.27-2.9c-.12-.25-.4-.37-.66-.26l-.13.05c-.24.12-.36.41-.25.66l1.22,2.79-.9-.35c-.25-.1-.54.03-.65.29l-.05.11c-.1.26.03.55.29.65l1.94.76.9,2.03-2.4-.93c-.25-.1-.54.02-.64.28l-.05.12c-.1.26.03.54.28.65l3.46,1.35.95,2.18-2.32-.26s-.01-.02-.02-.04l-2.4-2.99c-.17-.22-.48-.25-.7-.08l-.1.08c-.22.18-.25.49-.08.7l1.73,2.15-2.22-.24s-.02-.03-.02-.04l-1.39-1.74c-.17-.21-.48-.24-.7-.08l-.11.08c-.21.17-.24.48-.08.7l.72.89-3.15-.34c-.28-.03-.52.17-.55.44v.13c-.04.27.16.52.42.55l3.03.33-.75.6c-.21.17-.24.49-.07.7l.08.11c.17.21.49.25.69.08l1.64-1.3,2.2.24-2.02,1.61c-.21.17-.25.48-.08.7l.08.1c.18.21.49.25.71.08l2.88-2.32,2.37.26-1.39,1.89s-.03,0-.05,0l-3.8.58c-.27.04-.45.29-.42.57l.02.13c.04.27.3.46.57.42l2.74-.42-1.33,1.8s-.03,0-.05,0l-2.21.33c-.27.04-.45.29-.4.56v.13c.06.27.32.46.59.41l1.14-.17-1.88,2.56c-.17.22-.12.54.1.69l.11.08c.22.17.53.12.69-.1l1.81-2.46.14.96c.05.27.3.45.58.41h.13c.27-.05.46-.31.42-.59l-.31-2.07,1.31-1.78.39,2.54c.04.28.3.47.57.42l.13-.02c.28-.04.46-.3.42-.57l-.56-3.67,1.41-1.91.93,2.14s-.01.03-.02.04l-1.4,3.58c-.1.26.03.55.29.64l.12.05c.25.1.55-.02.65-.28l1-2.58.89,2.05s-.02.03-.02.04l-.81,2.07c-.1.26.03.55.28.65l.12.05c.26.1.55-.03.64-.28l.42-1.07,1.28,2.91c.11.25.4.36.66.26l.12-.06c.25-.11.37-.4.26-.66l-1.22-2.79.9.36c.26.1.54-.03.64-.28l.05-.12c.1-.25-.03-.55-.28-.65l-1.95-.76-.88-2.03,2.4.94c.25.1.54-.02.64-.29l.04-.12c.11-.26-.02-.54-.28-.65l-3.45-1.35-.96-2.18,2.33.26s0,.02.02.04l2.4,3c.16.21.49.25.69.07l.11-.08c.21-.17.25-.49.08-.7l-1.73-2.15,2.22.24s.01.03.02.04l1.39,1.73c.17.22.48.25.7.08l.1-.08c.22-.17.25-.48.07-.7l-.71-.89,3.15.35c.28.02.52-.16.55-.44l.02-.13c.03-.27-.16-.52-.44-.55Z"/>
              <path class="cls-48" d="m125.54,123.91c.33-.15.48-.55.34-.88-.15-.34-.54-.5-.88-.35-.33.15-.49.55-.35.89.16.33.54.49.89.34Z"/>
              <path class="cls-76" d="m127.73,134.18c.29.22.71.16.93-.14.22-.3.15-.72-.14-.93-.3-.22-.72-.16-.94.14-.21.3-.15.72.15.93Z"/>
              <path class="cls-105" d="m128,137.39c.34-.15.5-.54.35-.89-.15-.34-.54-.49-.88-.34-.34.15-.49.54-.34.88.15.34.54.49.87.35Z"/>
              <path class="cls-99" d="m130.91,138.76c.04-.37-.23-.69-.6-.74-.35-.04-.69.23-.73.59-.04.36.23.7.59.74.37.04.7-.22.74-.59Z"/>
              <path class="cls-127" d="m133.56,136.92c-.3-.22-.72-.15-.94.15-.22.3-.16.71.14.94.3.22.72.15.94-.15.21-.29.15-.71-.14-.93Z"/>
              <path class="cls-83" d="m133.28,133.72c-.34.15-.49.54-.34.88.14.33.54.48.88.34.33-.14.49-.54.35-.88-.15-.34-.55-.49-.89-.34Z"/>
              <path class="cls-71" d="m130.38,132.35c-.05.36.22.7.59.74.36.04.7-.22.73-.59.05-.37-.22-.69-.58-.74-.37-.04-.7.23-.74.59Z"/>
              <path class="cls-43" d="m117.41,133.41c-.37-.04-.69.22-.73.59-.04.37.23.7.59.74.36.04.7-.22.74-.59.04-.36-.22-.7-.59-.74Z"/>
              <path class="cls-100" d="m123.11,145.8c-.3-.22-.72-.15-.94.14-.22.3-.15.72.15.93.29.22.71.16.94-.14.21-.3.15-.72-.15-.94Z"/>
              <path class="cls-50" d="m135.74,147.2c-.33.15-.48.54-.33.88.14.34.54.49.88.34.33-.15.49-.54.34-.88-.15-.34-.54-.49-.89-.34Z"/>
              <path class="cls-73" d="m144.02,136.36c-.37-.03-.69.23-.74.6-.04.37.23.69.6.74.37.04.7-.22.74-.59.04-.37-.23-.7-.59-.74Z"/>
              <path class="cls-40" d="m138.18,125.3c.29.22.71.16.93-.14.22-.3.15-.71-.15-.94-.29-.22-.71-.15-.93.14-.21.3-.15.72.15.93Z"/>
            </g>
            <g>
              <path class="cls-8" d="m118.1,179.04l-3.87-.43.96-.77c.27-.21.33-.61.1-.89l-.11-.14c-.22-.27-.63-.31-.9-.09l-2.08,1.67-2.81-.31,2.56-2.06c.28-.22.32-.62.09-.89l-.1-.13c-.21-.28-.61-.32-.89-.1l-3.69,2.96-3.03-.33,1.77-2.41s.03.01.06,0l4.85-.74c.35-.05.59-.38.53-.72l-.02-.17c-.06-.35-.39-.59-.73-.53l-3.5.53,1.69-2.3s.04,0,.06,0l2.81-.43c.35-.05.59-.37.54-.72l-.03-.16c-.05-.35-.36-.59-.71-.54l-1.45.22,2.4-3.27c.2-.29.15-.68-.14-.89l-.14-.1c-.28-.21-.68-.14-.89.14l-2.29,3.13-.19-1.21c-.05-.35-.38-.59-.72-.53l-.17.03c-.34.05-.57.38-.53.72l.41,2.64-1.68,2.28-.5-3.25c-.05-.35-.37-.59-.72-.54l-.17.03c-.35.06-.59.38-.53.72l.72,4.68-1.81,2.46-1.2-2.74s.03-.02.03-.05l1.78-4.57c.13-.33-.03-.7-.35-.83l-.16-.06c-.32-.12-.7.04-.83.37l-1.28,3.29-1.14-2.61s.02-.03.03-.05l1.03-2.65c.12-.33-.04-.7-.36-.82l-.16-.06c-.33-.12-.69.03-.83.36l-.52,1.36-1.64-3.72c-.14-.32-.51-.47-.83-.33l-.16.08c-.31.14-.46.51-.33.84l1.56,3.56-1.14-.45c-.32-.13-.7.03-.83.37l-.06.15c-.13.33.04.7.36.83l2.49.97,1.14,2.6-3.07-1.19c-.32-.13-.69.03-.82.36l-.06.16c-.13.32.03.7.36.82l4.42,1.73,1.22,2.78-2.97-.33s-.02-.04-.03-.05l-3.07-3.82c-.22-.28-.61-.32-.89-.11l-.14.11c-.27.22-.32.63-.09.89l2.21,2.76-2.84-.31s-.01-.03-.02-.05l-1.78-2.22c-.22-.27-.62-.31-.89-.1l-.13.11c-.28.22-.32.61-.1.89l.92,1.14-4.03-.44c-.35-.04-.66.21-.7.56l-.02.17c-.03.35.22.66.56.7l3.87.43-.97.77c-.27.22-.31.63-.09.89l.1.14c.23.27.62.31.89.09l2.09-1.67,2.81.31-2.57,2.06c-.27.22-.31.61-.1.89l.11.13c.22.28.62.32.9.1l3.69-2.96,3.03.33-1.77,2.41s-.04,0-.06,0l-4.86.74c-.34.06-.58.38-.53.73l.03.17c.05.35.38.58.72.53l3.5-.53-1.7,2.3s-.04,0-.06,0l-2.82.43c-.34.05-.58.37-.52.72l.02.17c.06.35.39.58.74.53l1.45-.22-2.41,3.28c-.21.28-.15.68.13.89l.13.09c.29.21.68.15.89-.13l2.31-3.14.17,1.22c.06.34.38.59.73.52h.17c.35-.07.59-.4.54-.75l-.4-2.64,1.68-2.28.49,3.25c.06.35.38.59.73.54l.16-.02c.35-.06.59-.38.54-.73l-.71-4.68,1.8-2.45,1.2,2.73s-.02.03-.03.05l-1.78,4.57c-.13.33.03.7.37.82l.15.07c.33.12.7-.03.82-.36l1.28-3.3,1.15,2.61s-.03.03-.04.05l-1.03,2.64c-.12.33.03.7.36.83l.16.06c.33.13.7-.04.82-.36l.54-1.37,1.64,3.72c.14.33.51.47.84.33l.15-.07c.32-.14.47-.51.34-.84l-1.56-3.56,1.14.45c.33.12.69-.03.82-.36l.06-.16c.13-.32-.03-.7-.35-.83l-2.49-.97-1.13-2.6,3.06,1.2c.32.13.7-.03.82-.36l.06-.15c.14-.33-.02-.7-.36-.82l-4.4-1.73-1.22-2.79,2.97.33s0,.04.02.05l3.07,3.83c.21.27.62.32.89.1l.13-.1c.28-.22.31-.63.1-.9l-2.21-2.75,2.83.31s.02.04.04.06l1.77,2.22c.22.27.62.31.89.1l.13-.1c.28-.22.31-.62.1-.9l-.91-1.15,4.03.45c.35.04.68-.21.71-.56l.02-.17c.04-.35-.21-.66-.56-.7Z"/>
              <path class="cls-57" d="m96.45,163.12c.42-.19.62-.7.42-1.13-.18-.43-.69-.63-1.12-.44-.42.19-.63.7-.44,1.13.19.43.7.63,1.13.44Z"/>
              <path class="cls-51" d="m99.25,176.25c.38.28.91.2,1.2-.18.29-.38.2-.91-.18-1.19-.38-.29-.92-.21-1.19.18-.27.38-.19.91.18,1.19Z"/>
              <path class="cls-67" d="m99.59,180.35c.43-.19.63-.69.44-1.13-.19-.43-.7-.63-1.13-.44-.43.19-.63.7-.43,1.13.18.43.69.62,1.12.44Z"/>
              <path class="cls-87" d="m103.32,182.09c.04-.47-.29-.89-.77-.94-.45-.05-.88.3-.94.76-.05.46.29.89.76.94.47.04.89-.29.95-.76Z"/>
              <path class="cls-69" d="m106.69,179.75c-.38-.28-.92-.2-1.2.18-.29.38-.2.91.18,1.19.38.28.91.2,1.2-.18.27-.38.19-.92-.19-1.19Z"/>
              <path class="cls-119" d="m106.34,175.65c-.43.2-.62.69-.43,1.12.19.43.69.62,1.13.44.42-.19.62-.69.44-1.12-.2-.43-.7-.63-1.14-.44Z"/>
              <path class="cls-109" d="m102.63,173.9c-.06.46.28.89.75.94.46.05.89-.28.94-.76.05-.47-.29-.88-.76-.94-.47-.05-.89.29-.93.76Z"/>
              <path class="cls-60" d="m86.06,175.27c-.47-.06-.89.29-.94.75-.05.47.3.89.76.95.47.06.89-.29.94-.75.06-.47-.28-.89-.75-.94Z"/>
              <path class="cls-90" d="m93.34,191.1c-.38-.28-.91-.2-1.2.18-.28.38-.19.91.19,1.19.37.28.91.2,1.2-.19.27-.37.19-.91-.19-1.19Z"/>
              <path class="cls-2" d="m109.49,192.89c-.42.19-.62.69-.43,1.12.18.43.69.63,1.12.44.44-.19.63-.69.44-1.13-.2-.43-.69-.63-1.13-.43Z"/>
              <path class="cls-47" d="m120.06,179.03c-.47-.04-.88.29-.95.76-.05.47.29.89.76.94.47.05.89-.29.95-.75.04-.47-.3-.89-.76-.95Z"/>
              <path class="cls-80" d="m112.6,164.9c.37.28.9.2,1.19-.18.28-.38.2-.91-.18-1.19-.37-.28-.92-.2-1.2.18-.28.38-.2.91.19,1.19Z"/>
            </g>
          </g>
        </g>
      </g>
    </g>
  </g>
</svg>