<?xml version="1.0" encoding="UTF-8"?>
<svg xmlns="http://www.w3.org/2000/svg" xmlns:xlink="http://www.w3.org/1999/xlink" viewBox="0 0 250.48 219.62">
  <defs>
    <style>
      .cls-1 {
        fill: url(#linear-gradient-33);
      }

      .cls-1, .cls-2, .cls-3, .cls-4, .cls-5, .cls-6, .cls-7, .cls-8, .cls-9, .cls-10, .cls-11, .cls-12, .cls-13, .cls-14, .cls-15, .cls-16, .cls-17, .cls-18 {
        mix-blend-mode: multiply;
      }

      .cls-1, .cls-2, .cls-4, .cls-5, .cls-6, .cls-7, .cls-9, .cls-10, .cls-11, .cls-15, .cls-17, .cls-18 {
        opacity: .2;
      }

      .cls-2 {
        fill: url(#linear-gradient-15);
      }

      .cls-19 {
        fill: url(#linear-gradient-18);
      }

      .cls-20 {
        fill: url(#linear-gradient-28);
      }

      .cls-21 {
        fill: url(#linear-gradient-14);
      }

      .cls-22 {
        fill: url(#linear-gradient-20);
      }

      .cls-23 {
        isolation: isolate;
      }

      .cls-3 {
        fill: url(#linear-gradient-9);
      }

      .cls-3, .cls-16 {
        opacity: .27;
      }

      .cls-24, .cls-7 {
        fill: #aad6e2;
      }

      .cls-25 {
        fill: #666;
        opacity: .25;
      }

      .cls-4 {
        fill: url(#linear-gradient-31);
      }

      .cls-5 {
        fill: url(#linear-gradient-27);
      }

      .cls-26 {
        fill: url(#linear-gradient-32);
      }

      .cls-6 {
        fill: url(#linear-gradient-19);
      }

      .cls-8 {
        opacity: .63;
      }

      .cls-27 {
        fill: url(#linear-gradient-10);
      }

      .cls-9 {
        fill: url(#linear-gradient-21);
      }

      .cls-28 {
        fill: url(#linear-gradient-11);
      }

      .cls-28, .cls-29, .cls-30, .cls-31 {
        mix-blend-mode: color-burn;
      }

      .cls-28, .cls-30, .cls-31 {
        opacity: .67;
      }

      .cls-10 {
        fill: url(#linear-gradient-17);
      }

      .cls-32 {
        fill: url(#linear-gradient-16);
      }

      .cls-11, .cls-33 {
        fill: #29e2b1;
      }

      .cls-12 {
        fill: url(#linear-gradient-13);
      }

      .cls-12, .cls-14 {
        opacity: .52;
      }

      .cls-13 {
        opacity: .45;
      }

      .cls-34 {
        fill: url(#linear-gradient-5);
      }

      .cls-14 {
        fill: url(#linear-gradient-2);
      }

      .cls-15 {
        fill: url(#linear-gradient-23);
      }

      .cls-35 {
        mix-blend-mode: lighten;
      }

      .cls-35, .cls-29 {
        opacity: .5;
      }

      .cls-36 {
        fill: url(#linear-gradient-24);
      }

      .cls-16 {
        fill: url(#linear-gradient-4);
      }

      .cls-37 {
        fill: url(#linear-gradient-22);
      }

      .cls-38 {
        fill: url(#linear-gradient-3);
      }

      .cls-30 {
        fill: url(#linear-gradient-6);
      }

      .cls-39 {
        fill: url(#linear-gradient);
      }

      .cls-31 {
        fill: url(#linear-gradient-7);
      }

      .cls-17 {
        fill: url(#linear-gradient-25);
      }

      .cls-40 {
        fill: url(#linear-gradient-30);
      }

      .cls-41 {
        fill: url(#linear-gradient-8);
      }

      .cls-42 {
        fill: url(#linear-gradient-12);
      }

      .cls-43 {
        fill: url(#linear-gradient-26);
      }

      .cls-18 {
        fill: url(#linear-gradient-29);
      }
    </style>
    <linearGradient id="linear-gradient" x1="100.46" y1="109.73" x2="123.28" y2="215.62" gradientUnits="userSpaceOnUse">
      <stop offset="0" stop-color="#fafbc1"/>
      <stop offset=".03" stop-color="#faf4a0"/>
      <stop offset=".1" stop-color="#fce969"/>
      <stop offset=".15" stop-color="#fde03c"/>
      <stop offset=".2" stop-color="#feda1d"/>
      <stop offset=".25" stop-color="#fed609"/>
      <stop offset=".28" stop-color="#ffd503"/>
      <stop offset=".41" stop-color="#fdd002"/>
      <stop offset=".55" stop-color="#f9c202"/>
      <stop offset=".71" stop-color="#f2ac01"/>
      <stop offset=".87" stop-color="#e98c00"/>
      <stop offset="1" stop-color="#e06c00"/>
    </linearGradient>
    <linearGradient id="linear-gradient-2" x1="101.47" y1="109.96" x2="124.33" y2="216.04" xlink:href="#linear-gradient"/>
    <linearGradient id="linear-gradient-3" x1="144.48" y1="11.54" x2="144.48" y2="132.15" gradientTransform="translate(9.42 -8.09) rotate(-.39)" gradientUnits="userSpaceOnUse">
      <stop offset="0" stop-color="#a7a9ac"/>
      <stop offset=".16" stop-color="#9fa1a4"/>
      <stop offset=".4" stop-color="#8b8c8f"/>
      <stop offset=".69" stop-color="#6a6a6d"/>
      <stop offset="1" stop-color="#414042"/>
    </linearGradient>
    <linearGradient id="linear-gradient-4" x1="144.13" y1="50.43" x2="144.13" y2="124.53" gradientTransform="translate(9.42 -8.09) rotate(-.39)" gradientUnits="userSpaceOnUse">
      <stop offset="0" stop-color="#f1f2f2"/>
      <stop offset=".3" stop-color="#dbdcdd"/>
      <stop offset=".93" stop-color="#a3a5a7"/>
      <stop offset="1" stop-color="#9d9fa1"/>
    </linearGradient>
    <linearGradient id="linear-gradient-5" x1="144.81" y1="12.72" x2="144.81" y2="127.88" gradientTransform="translate(9.42 -8.09) rotate(-.39)" gradientUnits="userSpaceOnUse">
      <stop offset="0" stop-color="#c4c6c9"/>
      <stop offset=".16" stop-color="#bcbec1"/>
      <stop offset=".39" stop-color="#a8a9ac"/>
      <stop offset=".68" stop-color="#87888a"/>
      <stop offset="1" stop-color="#5c5b5c"/>
    </linearGradient>
    <linearGradient id="linear-gradient-6" x1="49.13" y1="68.25" x2="240.48" y2="68.25" xlink:href="#linear-gradient-3"/>
    <linearGradient id="linear-gradient-7" x1="49.13" y1="68.25" x2="240.48" y2="68.25" xlink:href="#linear-gradient-3"/>
    <linearGradient id="linear-gradient-8" x1="103.64" y1="27.2" x2="103.64" y2="171" xlink:href="#linear-gradient-3"/>
    <linearGradient id="linear-gradient-9" x1="103.24" y1="73.57" x2="103.24" y2="161.92" xlink:href="#linear-gradient-4"/>
    <linearGradient id="linear-gradient-10" x1="104.04" y1="28.62" x2="104.04" y2="165.9" xlink:href="#linear-gradient-5"/>
    <linearGradient id="linear-gradient-11" x1="-10.02" y1="94.82" x2="218.1" y2="94.82" xlink:href="#linear-gradient-3"/>
    <linearGradient id="linear-gradient-12" x1="68.79" y1="98.88" x2="91.61" y2="204.77" gradientTransform="translate(9.42 -8.09) rotate(-.39)" xlink:href="#linear-gradient"/>
    <linearGradient id="linear-gradient-13" x1="69.8" y1="99.11" x2="92.66" y2="205.19" gradientTransform="translate(9.42 -8.09) rotate(-.39)" xlink:href="#linear-gradient"/>
    <linearGradient id="linear-gradient-14" x1="608.08" y1="-44.59" x2="620.05" y2="-15.3" gradientTransform="translate(-415.76 170.73) rotate(-3.28)" gradientUnits="userSpaceOnUse">
      <stop offset="0" stop-color="#8be0ef"/>
      <stop offset=".1" stop-color="#84dced"/>
      <stop offset=".24" stop-color="#71d0e8"/>
      <stop offset=".41" stop-color="#52bee1"/>
      <stop offset=".6" stop-color="#27a5d6"/>
      <stop offset=".75" stop-color="#008fcd"/>
      <stop offset=".87" stop-color="#107eb6"/>
      <stop offset="1" stop-color="#276898"/>
    </linearGradient>
    <linearGradient id="linear-gradient-15" x1="607.66" y1="-44.4" x2="619.64" y2="-15.09" xlink:href="#linear-gradient-14"/>
    <linearGradient id="linear-gradient-16" x1="620.73" y1="-386.24" x2="630.83" y2="-361.53" gradientTransform="translate(-511.11 379.14) rotate(8.09)" xlink:href="#linear-gradient-14"/>
    <linearGradient id="linear-gradient-17" x1="620.38" y1="-386.06" x2="630.48" y2="-361.36" gradientTransform="translate(-511.11 379.14) rotate(8.09)" xlink:href="#linear-gradient-14"/>
    <linearGradient id="linear-gradient-18" x1="565.56" y1="68.03" x2="578.25" y2="99.09" gradientTransform="translate(-398.17 113.24) rotate(-6.36)" xlink:href="#linear-gradient-14"/>
    <linearGradient id="linear-gradient-19" x1="565.12" y1="68.25" x2="577.82" y2="99.32" gradientTransform="translate(-398.17 113.24) rotate(-6.36)" xlink:href="#linear-gradient-14"/>
    <linearGradient id="linear-gradient-20" x1="549.77" y1="219.97" x2="563.91" y2="254.53" gradientTransform="translate(-378.27 22.92) rotate(-11.14)" xlink:href="#linear-gradient-14"/>
    <linearGradient id="linear-gradient-21" x1="549.28" y1="220.2" x2="563.42" y2="254.78" gradientTransform="translate(-378.27 22.92) rotate(-11.14)" xlink:href="#linear-gradient-14"/>
    <linearGradient id="linear-gradient-22" x1="760.78" y1="210.51" x2="714.52" y2="135.22" gradientTransform="translate(-415.76 170.73) rotate(-3.28)" xlink:href="#linear-gradient-14"/>
    <linearGradient id="linear-gradient-23" x1="760.08" y1="211.03" x2="713.81" y2="135.72" gradientTransform="translate(-415.76 170.73) rotate(-3.28)" xlink:href="#linear-gradient-14"/>
    <linearGradient id="linear-gradient-24" x1="754.2" y1="-163.47" x2="707.94" y2="-238.76" gradientTransform="translate(-511.11 379.14) rotate(8.09)" xlink:href="#linear-gradient-14"/>
    <linearGradient id="linear-gradient-25" x1="753.55" y1="-163.14" x2="707.29" y2="-238.42" gradientTransform="translate(-511.11 379.14) rotate(8.09)" xlink:href="#linear-gradient-14"/>
    <linearGradient id="linear-gradient-26" x1="719.4" y1="325.39" x2="673.14" y2="250.09" gradientTransform="translate(-398.17 113.24) rotate(-6.36)" xlink:href="#linear-gradient-14"/>
    <linearGradient id="linear-gradient-27" x1="718.61" y1="325.85" x2="672.35" y2="250.56" gradientTransform="translate(-398.17 113.24) rotate(-6.36)" xlink:href="#linear-gradient-14"/>
    <linearGradient id="linear-gradient-28" x1="696.8" y1="467.01" x2="650.54" y2="391.72" gradientTransform="translate(-378.27 22.92) rotate(-11.14)" xlink:href="#linear-gradient-14"/>
    <linearGradient id="linear-gradient-29" x1="695.95" y1="467.59" x2="649.68" y2="392.28" gradientTransform="translate(-378.27 22.92) rotate(-11.14)" xlink:href="#linear-gradient-14"/>
    <linearGradient id="linear-gradient-30" x1="358.54" y1="-384.73" x2="372.07" y2="-351.63" gradientTransform="translate(-264.18 471.95) rotate(4.82)" xlink:href="#linear-gradient-14"/>
    <linearGradient id="linear-gradient-31" x1="358.07" y1="-384.5" x2="371.6" y2="-351.39" gradientTransform="translate(-264.18 471.95) rotate(4.82)" xlink:href="#linear-gradient-14"/>
    <linearGradient id="linear-gradient-32" x1="383.3" y1="-248.58" x2="398.36" y2="-211.74" gradientTransform="translate(-227.37 388.6) rotate(.04)" xlink:href="#linear-gradient-14"/>
    <linearGradient id="linear-gradient-33" x1="382.78" y1="-248.33" x2="397.84" y2="-211.48" gradientTransform="translate(-227.37 388.6) rotate(.04)" xlink:href="#linear-gradient-14"/>
  </defs>
  <g class="cls-23">
    <g id="_레이어_2" data-name="레이어 2">
      <g id="Layer_1" data-name="Layer 1">
        <g>
          <g>
            <path class="cls-39" d="m88.47,154.6l14.52,4.67-6.36,31.78,7.87,2.58-3.42,25.33,16.45-36.84-10.18-.62,19.41-36.25-17.58-1.28,15.66-27.4c-11.88,4-19.23,5.32-29.88,5.32l-6.5,32.71Z"/>
            <path class="cls-14" d="m90.63,154.6l14.52,4.67-6.36,31.78,5.71,2.58-3.51,25.99,17.46-37.56-11.1-.56,21.57-36.25-17.58-1.28,15.66-27.4c-11.88,4-19.24,5.32-29.88,5.32l-6.5,32.71Z"/>
          </g>
          <g>
            <g>
              <g>
                <path class="cls-38" d="m80.61,40.29s-2.17-28.93,31.07-37.48c33.24-8.55,52.28,13.73,52.28,13.73,0,0,6.99-9.01,18.22-4.6,11.24,4.41,10.95,13.8,10.95,13.8,0,0,12.17-5.95,25.04,3.89,12.88,9.84,12.63,19.44,12.63,19.44,0,0,21.18,8.5,18.45,29.01-2.75,20.51-25.44,16.91-28.37,9.88-.27,6.73-14,23.07-37.46,10.41-8.55,13.83-31.87,22.32-48.23,18.26-16.36-4.05-21.02-9.69-21.02-9.69,0,0-16,12.42-39.27-4.95-18.87-14.07-8.21-31-8.21-31,0,0-12.66-11.19-4.75-24.95,4.64-8.07,18.68-5.76,18.68-5.76Z"/>
                <path class="cls-16" d="m162.26,63.53c-38.12,7.32-67.13-9.37-84.61-24.41-3.87-.26-12.51-.09-16.06,6.08-7.91,13.75,4.75,24.94,4.75,24.94,0,0-10.65,16.94,8.22,31.01,23.27,17.35,39.32,5.42,39.32,5.42,0,0,4.62,5.16,20.97,9.21,16.36,4.05,39.67-4.43,48.23-18.25,23.46,12.65,37.19-3.69,37.47-10.42,2.92,7.02,25.61,10.63,28.36-9.88.28-2.16.3-4.17.11-6.06-20.99-11.62-49.07-14.87-86.75-7.65Z"/>
                <path class="cls-34" d="m231.87,48.35c-.25-2.67-1.92-11.03-13-19.49-4.87-3.73-10.19-5.6-15.81-5.56-2.6.02-4.84.45-6.58.94-.01,0-.01,0-.03,0-.76.18-1.46.4-2.11.66-.54-3.4-2.75-10.35-11.54-13.81-2.22-.86-4.47-1.3-6.65-1.29-6,.04-10.14,3.38-11.93,5.18C160.67,11.37,147.69-.14,126.73,0c-4.82.03-9.8.71-14.77,1.99-27.92,7.18-32.16,26.39-31.5,37.17h0c-5.39-.82-15.55.88-18.72,6.39-7.12,12.38,1.58,22.88,4.25,25.66-1.92,3.83-7.96,18.96,8.98,31.6,8.34,6.22,16.69,9.34,24.81,9.29,7.49-.05,12.62-2.82,14.65-4.14,2.01,1.88,7.91,6.39,20.92,9.61,2.89.72,6.05,1.07,9.38,1.05,15.39-.11,32-8.1,39.28-18.75,5.65,2.88,11.11,4.32,16.24,4.28,11.51-.08,20.33-8.5,20.84-14.55,1.29,3.73,7.22,4.72,11.85,4.69,7.55-.05,15.69-3.97,17.3-16.09,2.53-18.86-14.52-28.03-18.36-29.85Zm15.85,29.5c-1.77,13.23-12.17,14.33-15.32,14.35-4.77.04-9.82-.67-12.34-6.9.32,1.83-.38,4.25-1.32,6.22-2.37,4.56-9.26,10.02-18.53,10.08-4.82.03-9.99-1.39-15.38-4.19.61-1.98,1.17-4.97,1.35-9.49-1.38,4.57-2.4,7.33-3.8,9.75-6.53,10.4-22.69,18.31-37.68,18.41-3.13.02-6.07-.31-8.76-.97-9.61-2.38-14.57-4.97-16.97-6.62,0,0,0,0,0,0-3.85-3.2-6.06-5.24-9.4-11.84,1.39,4.84,2.77,7.83,3.93,9.69-1.89.97-6.92,3.19-13.74,3.23-7.56.05-15.39-2.91-23.27-8.79-15.2-11.32-10.27-24.37-8.4-28.09h0c2.78-4.49,3.99-5.38,5.54-6.35-2.87.87-4.72,2.19-5.78,3.14-2.26-2.32-10.21-11.67-3.9-22.65,2.57-4.47,8.28-5.45,12.62-5.47,2.29-.02,3.94.25,3.95.25l.56.09c.86,3.21,2.4,7.18,2.31,6.94-.66-2.63-1.14-5.42-1.39-8.11v-.23c-.03-.28-1.05-27.69,30.6-35.83,4.78-1.23,9.54-1.87,14.16-1.9,20.85-.14,34.64,13.08,37.24,15.79.13.14.26.28.4.43.04.04.05.05.05.06h0c2.11,2.32,4.08,5.12,6.06,9.31-1.48-5.19-3.34-8.67-4.88-10.92,1.16-1.26,4.93-4.81,10.55-4.85,1.85-.01,3.78.37,5.7,1.12,8.09,3.17,10.35,9.64,10.94,12.15-1.56.84-2.95,1.96-4.49,3.33,2.63-1.51,4.68-2.3,4.68-2.3.04-.02,4.77-1.35,10.17-1.38,5.03-.03,9.73,2.23,14.14,5.6,9.49,7.25,11.5,14.35,11.92,17.08-3.73-.67-10.4-1.33-17.16.72,4.85-1.15,13.12-.14,18.27,1.77,2.03.89,19.79,9.22,17.36,27.4Z"/>
              </g>
              <path class="cls-25" d="m228.28,51.43c-3.71-.95-10.4-1.33-17.16.73,4.84-1.15,13.11-.13,18.27,1.78,1.83.8,16.52,7.69,17.52,22.44.76-16.62-15.59-24.31-17.54-25.15-.38-.15-.79-.28-1.21-.41.05.23,0,0,.12.63Z"/>
              <path class="cls-25" d="m176.12,16.39c1.71,0,3.47.33,5.24,1.03,5.74,2.25,8.94,5.89,10.06,8.68.21-.13.43-.27.66-.39-.54-2.31-3.28-7.87-10.73-10.79-1.76-.7-3.53-1.04-5.24-1.03-5.18.04-8.3,2.95-9.27,4.01.31.46.63,1.09.96,1.66,1.61-1.43,4.22-3.13,8.33-3.16Z"/>
              <path class="cls-25" d="m83.19,40.29c.02.16.04.32.06.49.41-6.27,3.77-26.17,29.63-32.82,4.63-1.18,9.25-1.8,13.72-1.84,20.21-.14,33.58,12.68,36.1,15.3.13.14.26.27.38.41.03.03.05.05.05.06h0c2.05,2.25,4.25,4.43,6.61,8.67-1.6-4.61-2.93-6.6-4.49-8.67-.7-.96-1.41-1.83-2.14-2.63h0s-.03-.02-.05-.05c-.13-.14-.26-.28-.39-.41-2.52-2.63-15.88-15.44-36.1-15.3-4.47.04-9.08.66-13.72,1.85-30.69,7.89-29.69,34.46-29.68,34.73v.23Z"/>
              <path class="cls-25" d="m217.18,32.22c-4.21-3.22-8.39-5.05-13.51-5.35,0,0-8.86-.65-14.9,4.07,2.5-1.44,6.78-1.62,6.78-1.62.04-.02,3.2-.86,8.32-.32,4.53.48,9.11,2.59,13.32,5.81,5.61,4.29,8.48,8.52,9.95,11.74.35.02.69.07,1.01.14-.94-3.27-3.58-8.83-10.97-14.47Z"/>
              <path class="cls-30" d="m231.86,48.35c-.25-2.67-1.92-11.03-13-19.49-4.87-3.73-10.19-5.6-15.81-5.56-2.6.02-4.84.45-6.58.94t-.02,0c-.76.18-1.46.4-2.11.66-.55-3.4-2.75-10.35-11.54-13.81-2.22-.86-4.46-1.3-6.64-1.29-6,.04-10.14,3.38-11.94,5.18C160.66,11.37,147.69-.14,126.72,0c-4.82.03-9.79.71-14.78,1.99-23.07,5.93-29.97,20.08-31.3,30.91-.58,2.77-.72,4.98-.75,6.21-1.28-.15-2.76-.17-4.35-.05-4.32,0-10.97.92-13.98,6.15-2,3.48-2.68,6.79-2.59,9.8-.14,7.83,4.79,13.89,6.84,16.06-.88,1.74-2.61,5.83-2.48,10.95-.08,6.16,2.29,13.86,11.6,20.8,8.35,6.22,16.69,9.34,24.81,9.29,7.49-.05,12.63-2.82,14.65-4.14,2,1.88,7.9,6.39,20.92,9.61,2.89.72,6.04,1.07,9.38,1.05,15.39-.11,32-8.1,39.28-18.75,5.65,2.88,11.11,4.32,16.24,4.28,11.51-.08,20.32-8.5,20.84-14.55,1.3,3.73,7.23,4.72,11.85,4.69,7.54-.05,15.69-3.97,17.31-16.09,2.52-18.86-14.52-28.03-18.37-29.85Z"/>
            </g>
            <g class="cls-8">
              <g>
                <path class="cls-38" d="m80.61,40.29s-2.17-28.93,31.07-37.48c33.24-8.55,52.28,13.73,52.28,13.73,0,0,6.99-9.01,18.22-4.6,11.24,4.41,10.95,13.8,10.95,13.8,0,0,12.17-5.95,25.04,3.89,12.88,9.84,12.63,19.44,12.63,19.44,0,0,21.18,8.5,18.45,29.01-2.75,20.51-25.44,16.91-28.37,9.88-.27,6.73-14,23.07-37.46,10.41-8.55,13.83-31.87,22.32-48.23,18.26-16.36-4.05-21.02-9.69-21.02-9.69,0,0-16,12.42-39.27-4.95-18.87-14.07-8.21-31-8.21-31,0,0-12.66-11.19-4.75-24.95,4.64-8.07,18.68-5.76,18.68-5.76Z"/>
                <path class="cls-16" d="m162.26,63.53c-38.12,7.32-67.13-9.37-84.61-24.41-3.87-.26-12.51-.09-16.06,6.08-7.91,13.75,4.75,24.94,4.75,24.94,0,0-10.65,16.94,8.22,31.01,23.27,17.35,39.32,5.42,39.32,5.42,0,0,4.62,5.16,20.97,9.21,16.36,4.05,39.67-4.43,48.23-18.25,23.46,12.65,37.19-3.69,37.47-10.42,2.92,7.02,25.61,10.63,28.36-9.88.28-2.16.3-4.17.11-6.06-20.99-11.62-49.07-14.87-86.75-7.65Z"/>
                <path class="cls-34" d="m231.87,48.35c-.25-2.67-1.92-11.03-13-19.49-4.87-3.73-10.19-5.6-15.81-5.56-2.6.02-4.84.45-6.58.94-.01,0-.01,0-.03,0-.76.18-1.46.4-2.11.66-.54-3.4-2.75-10.35-11.54-13.81-2.22-.86-4.47-1.3-6.65-1.29-6,.04-10.14,3.38-11.93,5.18C160.67,11.37,147.69-.14,126.73,0c-4.82.03-9.8.71-14.77,1.99-27.92,7.18-32.16,26.39-31.5,37.17h0c-5.39-.82-15.55.88-18.72,6.39-7.12,12.38,1.58,22.88,4.25,25.66-1.92,3.83-7.96,18.96,8.98,31.6,8.34,6.22,16.69,9.34,24.81,9.29,7.49-.05,12.62-2.82,14.65-4.14,2.01,1.88,7.91,6.39,20.92,9.61,2.89.72,6.05,1.07,9.38,1.05,15.39-.11,32-8.1,39.28-18.75,5.65,2.88,11.11,4.32,16.24,4.28,11.51-.08,20.33-8.5,20.84-14.55,1.29,3.73,7.22,4.72,11.85,4.69,7.55-.05,15.69-3.97,17.3-16.09,2.53-18.86-14.52-28.03-18.36-29.85Zm15.85,29.5c-1.77,13.23-12.17,14.33-15.32,14.35-4.77.04-9.82-.67-12.34-6.9.32,1.83-.38,4.25-1.32,6.22-2.37,4.56-9.26,10.02-18.53,10.08-4.82.03-9.99-1.39-15.38-4.19.61-1.98,1.17-4.97,1.35-9.49-1.38,4.57-2.4,7.33-3.8,9.75-6.53,10.4-22.69,18.31-37.68,18.41-3.13.02-6.07-.31-8.76-.97-9.61-2.38-14.57-4.97-16.97-6.62,0,0,0,0,0,0-3.85-3.2-6.06-5.24-9.4-11.84,1.39,4.84,2.77,7.83,3.93,9.69-1.89.97-6.92,3.19-13.74,3.23-7.56.05-15.39-2.91-23.27-8.79-15.2-11.32-10.27-24.37-8.4-28.09h0c2.78-4.49,3.99-5.38,5.54-6.35-2.87.87-4.72,2.19-5.78,3.14-2.26-2.32-10.21-11.67-3.9-22.65,2.57-4.47,8.28-5.45,12.62-5.47,2.29-.02,3.94.25,3.95.25l.56.09c.86,3.21,2.4,7.18,2.31,6.94-.66-2.63-1.14-5.42-1.39-8.11v-.23c-.03-.28-1.05-27.69,30.6-35.83,4.78-1.23,9.54-1.87,14.16-1.9,20.85-.14,34.64,13.08,37.24,15.79.13.14.26.28.4.43.04.04.05.05.05.06h0c2.11,2.32,4.08,5.12,6.06,9.31-1.48-5.19-3.34-8.67-4.88-10.92,1.16-1.26,4.93-4.81,10.55-4.85,1.85-.01,3.78.37,5.7,1.12,8.09,3.17,10.35,9.64,10.94,12.15-1.56.84-2.95,1.96-4.49,3.33,2.63-1.51,4.68-2.3,4.68-2.3.04-.02,4.77-1.35,10.17-1.38,5.03-.03,9.73,2.23,14.14,5.6,9.49,7.25,11.5,14.35,11.92,17.08-3.73-.67-10.4-1.33-17.16.72,4.85-1.15,13.12-.14,18.27,1.77,2.03.89,19.79,9.22,17.36,27.4Z"/>
              </g>
              <path class="cls-25" d="m228.28,51.43c-3.71-.95-10.4-1.33-17.16.73,4.84-1.15,13.11-.13,18.27,1.78,1.83.8,16.52,7.69,17.52,22.44.76-16.62-15.59-24.31-17.54-25.15-.38-.15-.79-.28-1.21-.41.05.23,0,0,.12.63Z"/>
              <path class="cls-25" d="m176.12,16.39c1.71,0,3.47.33,5.24,1.03,5.74,2.25,8.94,5.89,10.06,8.68.21-.13.43-.27.66-.39-.54-2.31-3.28-7.87-10.73-10.79-1.76-.7-3.53-1.04-5.24-1.03-5.18.04-8.3,2.95-9.27,4.01.31.46.63,1.09.96,1.66,1.61-1.43,4.22-3.13,8.33-3.16Z"/>
              <path class="cls-25" d="m83.19,40.29c.02.16.04.32.06.49.41-6.27,3.77-26.17,29.63-32.82,4.63-1.18,9.25-1.8,13.72-1.84,20.21-.14,33.58,12.68,36.1,15.3.13.14.26.27.38.41.03.03.05.05.05.06h0c2.05,2.25,4.25,4.43,6.61,8.67-1.6-4.61-2.93-6.6-4.49-8.67-.7-.96-1.41-1.83-2.14-2.63h0s-.03-.02-.05-.05c-.13-.14-.26-.28-.39-.41-2.52-2.63-15.88-15.44-36.1-15.3-4.47.04-9.08.66-13.72,1.85-30.69,7.89-29.69,34.46-29.68,34.73v.23Z"/>
              <path class="cls-25" d="m217.18,32.22c-4.21-3.22-8.39-5.05-13.51-5.35,0,0-8.86-.65-14.9,4.07,2.5-1.44,6.78-1.62,6.78-1.62.04-.02,3.2-.86,8.32-.32,4.53.48,9.11,2.59,13.32,5.81,5.61,4.29,8.48,8.52,9.95,11.74.35.02.69.07,1.01.14-.94-3.27-3.58-8.83-10.97-14.47Z"/>
              <path class="cls-31" d="m231.86,48.35c-.25-2.67-1.92-11.03-13-19.49-4.87-3.73-10.19-5.6-15.81-5.56-2.6.02-4.84.45-6.58.94t-.02,0c-.76.18-1.46.4-2.11.66-.55-3.4-2.75-10.35-11.54-13.81-2.22-.86-4.46-1.3-6.64-1.29-6,.04-10.14,3.38-11.94,5.18C160.66,11.37,147.69-.14,126.72,0c-4.82.03-9.79.71-14.78,1.99-23.07,5.93-29.97,20.08-31.3,30.91-.58,2.77-.72,4.98-.75,6.21-1.28-.15-2.76-.17-4.35-.05-4.32,0-10.97.92-13.98,6.15-2,3.48-2.68,6.79-2.59,9.8-.14,7.83,4.79,13.89,6.84,16.06-.88,1.74-2.61,5.83-2.48,10.95-.08,6.16,2.29,13.86,11.6,20.8,8.35,6.22,16.69,9.34,24.81,9.29,7.49-.05,12.63-2.82,14.65-4.14,2,1.88,7.9,6.39,20.92,9.61,2.89.72,6.04,1.07,9.38,1.05,15.39-.11,32-8.1,39.28-18.75,5.65,2.88,11.11,4.32,16.24,4.28,11.51-.08,20.32-8.5,20.84-14.55,1.3,3.73,7.23,4.72,11.85,4.69,7.54-.05,15.69-3.97,17.31-16.09,2.52-18.86-14.52-28.03-18.37-29.85Z"/>
            </g>
          </g>
          <g>
            <g>
              <path class="cls-41" d="m25.78,63.5s-2.59-34.48,37.04-44.68c39.63-10.19,62.33,16.38,62.33,16.38,0,0,8.33-10.75,21.72-5.49,13.39,5.25,13.05,16.45,13.05,16.45,0,0,14.49-7.09,29.84,4.64,15.35,11.73,15.05,23.19,15.05,23.19,0,0,25.26,10.13,21.99,34.58-3.28,24.45-30.32,20.16-33.81,11.78-.32,8.02-16.69,27.5-44.67,12.42-10.19,16.49-37.98,26.6-57.49,21.77-19.49-4.83-25.07-11.56-25.07-11.56,0,0-19.06,14.8-46.81-5.89-22.5-16.77-9.8-36.96-9.8-36.96,0,0-15.09-13.34-5.66-29.75,5.53-9.62,22.27-6.87,22.27-6.87Z"/>
              <path class="cls-3" d="m123.12,91.21c-45.45,8.72-80.04-11.17-100.88-29.1-4.6-.31-14.92-.11-19.14,7.25-9.43,16.4,5.66,29.74,5.66,29.74,0,0-12.7,20.19,9.79,36.96,27.76,20.7,46.88,6.47,46.88,6.47,0,0,5.51,6.16,25.01,10.98,19.5,4.83,47.3-5.28,57.49-21.76,27.97,15.08,44.34-4.4,44.66-12.42,3.5,8.37,30.54,12.67,33.81-11.78.34-2.57.35-4.97.13-7.23-25.03-13.85-58.5-17.73-103.41-9.11Z"/>
              <path class="cls-27" d="m206.11,73.11c-.29-3.19-2.29-13.15-15.49-23.23-5.81-4.44-12.15-6.67-18.85-6.62-3.1.02-5.77.54-7.84,1.13-.02,0-.02,0-.03,0-.91.2-1.74.47-2.52.78-.65-4.06-3.27-12.35-13.76-16.46-2.65-1.04-5.32-1.56-7.91-1.54-7.15.05-12.1,4.03-14.23,6.17-4.24-4.31-19.7-18.03-44.7-17.86-5.74.04-11.68.84-17.61,2.36C29.88,26.4,24.82,49.3,25.59,62.16h0c-6.43-.98-18.54,1.04-22.32,7.62-8.48,14.75,1.88,27.28,5.07,30.59-2.3,4.56-9.5,22.6,10.7,37.67,9.95,7.41,19.9,11.14,29.58,11.07,8.93-.06,15.05-3.35,17.46-4.93,2.39,2.25,9.42,7.61,24.94,11.45,3.45.86,7.21,1.28,11.19,1.25,18.35-.12,38.15-9.65,46.83-22.36,6.74,3.43,13.24,5.15,19.36,5.11,13.73-.1,24.23-10.14,24.85-17.35,1.55,4.45,8.62,5.63,14.13,5.59,9-.06,18.71-4.73,20.63-19.18,3.01-22.48-17.31-33.42-21.89-35.59Zm18.89,35.18c-2.11,15.77-14.5,17.08-18.26,17.11-5.68.04-11.71-.81-14.72-8.22.39,2.18-.44,5.07-1.56,7.4-2.83,5.44-11.04,11.95-22.09,12.03-5.74.04-11.9-1.65-18.33-4.99.73-2.36,1.39-5.93,1.6-11.31-1.65,5.44-2.85,8.73-4.53,11.61-7.79,12.4-27.05,21.83-44.93,21.95-3.72.03-7.24-.36-10.44-1.15-11.46-2.84-17.37-5.93-20.23-7.89,0,0,0,0,0,0-4.58-3.82-7.22-6.25-11.21-14.12,1.67,5.77,3.3,9.34,4.69,11.55-2.25,1.16-8.25,3.79-16.39,3.85-9,.06-18.34-3.46-27.74-10.47-18.12-13.51-12.24-29.06-10.02-33.49t0,0c3.32-5.35,4.76-6.4,6.6-7.56-3.42,1.04-5.62,2.6-6.89,3.74-2.69-2.76-12.17-13.91-4.65-27,3.07-5.33,9.87-6.49,15.04-6.53,2.72-.02,4.7.3,4.72.3l.67.11c1.03,3.83,2.86,8.56,2.76,8.28-.79-3.14-1.37-6.45-1.66-9.68l-.02-.28c-.01-.33-1.24-33,36.5-42.71,5.7-1.46,11.38-2.23,16.88-2.27,24.86-.17,41.29,15.59,44.4,18.82.16.17.32.34.48.51.04.04.05.07.06.07h0c2.53,2.77,4.88,6.11,7.23,11.09-1.76-6.18-3.98-10.34-5.82-13.02,1.38-1.5,5.88-5.74,12.59-5.78,2.21-.01,4.5.43,6.79,1.33,9.64,3.78,12.34,11.5,13.04,14.48-1.86,1.01-3.52,2.33-5.35,3.98,3.13-1.8,5.58-2.74,5.58-2.74.05-.03,5.69-1.6,12.12-1.65,6.01-.04,11.59,2.66,16.86,6.67,11.31,8.64,13.7,17.1,14.21,20.36-4.44-.8-12.4-1.58-20.45.87,5.77-1.37,15.63-.17,21.78,2.11,2.43,1.06,23.59,10.99,20.69,32.66Z"/>
            </g>
            <path class="cls-25" d="m201.82,76.79c-4.41-1.13-12.39-1.59-20.45.87,5.77-1.37,15.63-.16,21.79,2.11,2.19.96,19.7,9.17,20.89,26.75.91-19.82-18.59-28.98-20.91-29.99-.47-.17-.95-.33-1.45-.49.05.27,0,0,.14.75Z"/>
            <path class="cls-25" d="m139.65,35.01c2.03-.01,4.14.4,6.26,1.23,6.82,2.68,10.64,7.01,11.98,10.35.25-.16.51-.32.79-.47-.65-2.75-3.91-9.38-12.8-12.86-2.11-.84-4.21-1.25-6.25-1.23-6.18.04-9.89,3.51-11.06,4.78.38.55.75,1.29,1.14,1.97,1.92-1.71,5.03-3.74,9.93-3.77Z"/>
            <path class="cls-25" d="m28.86,63.49c.02.2.05.4.07.59.49-7.47,4.5-31.2,35.32-39.12,5.52-1.42,11.03-2.16,16.36-2.19,24.09-.17,40.03,15.11,43.03,18.24.16.16.31.32.47.49.03.04.05.06.06.07h0c2.45,2.68,5.07,5.29,7.89,10.33-1.91-5.5-3.49-7.87-5.34-10.34-.84-1.15-1.69-2.18-2.56-3.13h0s-.03-.02-.06-.07c-.15-.16-.31-.33-.46-.49-3-3.13-18.94-18.4-43.03-18.24-5.33.04-10.83.78-16.36,2.2C27.63,31.23,28.83,62.91,28.85,63.23v.27Z"/>
            <path class="cls-25" d="m188.6,53.88c-5.02-3.84-10.01-6.01-16.11-6.37,0,0-10.57-.77-17.77,4.84,2.99-1.71,8.09-1.93,8.09-1.93.05-.02,3.81-1.01,9.92-.37,5.39.57,10.86,3.09,15.88,6.92,6.68,5.11,10.1,10.15,11.85,13.99.42.03.82.09,1.2.17-1.12-3.9-4.26-10.52-13.07-17.26Z"/>
            <path class="cls-28" d="m206.1,73.11c-.29-3.19-2.29-13.15-15.49-23.23-5.81-4.44-12.15-6.67-18.85-6.62-3.1.02-5.77.54-7.84,1.13,0,0-.01,0-.03,0-.91.2-1.74.47-2.52.78-.65-4.06-3.27-12.35-13.76-16.46-2.65-1.04-5.32-1.56-7.92-1.54-7.15.05-12.09,4.03-14.23,6.17-4.24-4.31-19.7-18.03-44.7-17.86-5.74.04-11.68.84-17.6,2.37-27.51,7.07-35.73,23.94-37.32,36.84-.68,3.31-.85,5.93-.89,7.4-1.52-.18-3.3-.2-5.18-.06-5.15,0-13.08,1.09-16.67,7.33C.71,73.51-.1,77.46.01,81.05c-.17,9.33,5.7,16.56,8.15,19.15-1.05,2.08-3.11,6.95-2.96,13.05-.09,7.34,2.72,16.52,13.82,24.8,9.95,7.41,19.9,11.14,29.58,11.07,8.94-.06,15.05-3.35,17.46-4.93,2.4,2.25,9.43,7.61,24.94,11.45,3.44.86,7.21,1.28,11.19,1.25,18.35-.12,38.16-9.65,46.83-22.36,6.74,3.43,13.24,5.15,19.36,5.11,13.73-.1,24.23-10.14,24.85-17.35,1.55,4.45,8.61,5.63,14.13,5.59,9-.06,18.71-4.73,20.63-19.18,3.02-22.48-17.3-33.42-21.89-35.59Z"/>
          </g>
          <g>
            <path class="cls-42" d="m67.2,135.27l14.55,4.58-6.14,31.82,7.89,2.52-3.25,25.35,16.2-36.95-10.18-.55,19.16-36.38-17.59-1.16,15.48-27.5c-11.86,4.08-19.2,5.45-29.85,5.52l-6.27,32.75Z"/>
            <path class="cls-12" d="m69.36,135.27l14.55,4.57-6.14,31.83,5.73,2.54-3.34,26.01,17.2-37.68-11.1-.49,21.33-36.4-17.59-1.15,15.48-27.5c-11.86,4.08-19.2,5.45-29.85,5.52l-6.27,32.75Z"/>
          </g>
          <g>
            <g>
              <g>
                <path class="cls-21" d="m204.5,104.38s0-.01-.04-.04c-.19-.18-.56-.51-1.03-.84-.1-.06-.15-.14-.26-.21,0,0-.02.02,0,0-.02,0-.03-.04-.05-.04-.03-.02-.08-.03-.12-.06-1.79-1.24-4.42-2.89-4.77-3.11-4.21-3.28-8.74-7.24-9.94-10.2-5.04,25.47,5.65,29.04,5.65,29.04,0,0,.01-.01.01-.02,1.43.77,3.05,1.19,4.8,1.1,5.01-.3,8.85-4.59,8.56-9.61-.15-2.4-1.22-4.49-2.82-6Z"/>
                <path class="cls-2" d="m198.79,117.24c-1.93.12-3.74-.36-5.34-1.21h-.01s-3.25-1.11-5.57-6.19c1.87,7.61,6.18,9.08,6.18,9.08,0,0,.01,0,0-.02,1.44.77,3.06,1.18,4.8,1.09,4.68-.27,8.27-4.02,8.53-8.59-1.53,3.26-4.72,5.63-8.59,5.85Z"/>
              </g>
              <g>
                <path class="cls-32" d="m168.67,97.49s0,0-.02-.04c-.13-.18-.38-.52-.71-.86-.07-.08-.1-.15-.18-.22,0,0-.02.01,0,0-.01,0-.03-.03-.04-.04-.02-.03-.06-.04-.09-.08-1.28-1.32-3.17-3.12-3.42-3.36-2.93-3.41-6.02-7.45-6.53-10.09-8.4,20.22-.15,24.95-.15,24.95,0,0,0,0,.01-.01,1.05.87,2.33,1.49,3.79,1.7,4.2.59,8.08-2.32,8.67-6.52.29-2.01-.26-3.91-1.33-5.44Z"/>
                <path class="cls-10" d="m161.82,107.18c-1.61-.22-3.03-.92-4.21-1.89h-.02s-2.5-1.46-3.57-6.04c.28,6.6,3.6,8.53,3.6,8.53,0,0,.01,0,.01-.02,1.05.87,2.33,1.49,3.79,1.7,3.92.56,7.5-1.95,8.48-5.68-1.81,2.44-4.84,3.87-8.07,3.4Z"/>
              </g>
              <g>
                <path class="cls-19" d="m188.84,131.07s0,0-.06-.04c-.21-.18-.62-.51-1.12-.84-.11-.06-.18-.14-.28-.2,0-.01-.02.01,0,0-.02,0-.03-.04-.06-.05-.05-.02-.09-.03-.13-.05-1.96-1.21-4.85-2.81-5.23-3.03-4.63-3.23-9.67-7.17-11.12-10.24-3.88,27.26,7.65,30.43,7.65,30.43,0,0,.02-.02.02-.02,1.55.72,3.3,1.08,5.14.88,5.29-.59,9.11-5.37,8.53-10.67-.29-2.52-1.53-4.67-3.33-6.19Z"/>
                <path class="cls-6" d="m183.53,145.01c-2.03.23-4-.17-5.74-.98,0,0,0,.02,0,.02,0,0-3.5-1.01-6.25-6.26,2.41,7.95,7.07,9.26,7.07,9.26,0,0,.01-.02,0-.02,1.55.73,3.3,1.08,5.14.88,4.94-.55,8.53-4.73,8.54-9.58-1.44,3.54-4.69,6.22-8.76,6.68Z"/>
              </g>
              <g>
                <path class="cls-22" d="m224.13,145.12s0-.01-.06-.04c-.25-.18-.74-.51-1.34-.82-.12-.06-.21-.14-.32-.21,0,0-.02.02,0,0-.02,0-.06-.04-.07-.04-.06-.02-.11-.02-.16-.04-2.29-1.16-5.64-2.67-6.07-2.87-5.45-3.15-11.37-7.05-13.28-10.32-1.78,30.59,11.31,33.04,11.31,33.04l.02-.02c1.79.66,3.76.9,5.77.5,5.83-1.15,9.62-6.8,8.47-12.62-.55-2.77-2.15-5.03-4.26-6.56Z"/>
                <path class="cls-9" d="m219.54,161.07c-2.24.45-4.44.18-6.46-.56,0,0,0,.03,0,.03,0,0-3.99-.79-7.52-6.36,3.4,8.59,8.7,9.62,8.7,9.62,0,0,0-.02,0-.03,1.81.66,3.78.88,5.79.49,5.42-1.07,9.01-6.04,8.58-11.42-1.26,4.07-4.62,7.34-9.09,8.23Z"/>
              </g>
              <g class="cls-29">
                <path class="cls-33" d="m204.5,104.38s0-.01-.04-.04c-.19-.18-.56-.51-1.03-.84-.1-.06-.15-.14-.26-.21,0,0-.02.02,0,0-.02,0-.03-.04-.05-.04-.03-.02-.08-.03-.12-.06-1.79-1.24-4.42-2.89-4.77-3.11-4.21-3.28-8.74-7.24-9.94-10.2-5.04,25.47,5.65,29.04,5.65,29.04,0,0,.01-.01.01-.02,1.43.77,3.05,1.19,4.8,1.1,5.01-.3,8.85-4.59,8.56-9.61-.15-2.4-1.22-4.49-2.82-6Z"/>
                <path class="cls-11" d="m198.79,117.24c-1.93.12-3.74-.36-5.34-1.21h-.01s-3.25-1.11-5.57-6.19c1.87,7.61,6.18,9.08,6.18,9.08,0,0,.01,0,0-.02,1.44.77,3.06,1.18,4.8,1.09,4.68-.27,8.27-4.02,8.53-8.59-1.53,3.26-4.72,5.63-8.59,5.85Z"/>
              </g>
              <g class="cls-29">
                <path class="cls-33" d="m168.67,97.49s0,0-.02-.04c-.13-.18-.38-.52-.71-.86-.07-.08-.1-.15-.18-.22,0,0-.02.01,0,0-.01,0-.03-.03-.04-.04-.02-.03-.06-.04-.09-.08-1.28-1.32-3.17-3.12-3.42-3.36-2.93-3.41-6.02-7.45-6.53-10.09-8.4,20.22-.15,24.95-.15,24.95,0,0,0,0,.01-.01,1.05.87,2.33,1.49,3.79,1.7,4.2.59,8.08-2.32,8.67-6.52.29-2.01-.26-3.91-1.33-5.44Z"/>
                <path class="cls-11" d="m161.82,107.18c-1.61-.22-3.03-.92-4.21-1.89h-.02s-2.5-1.46-3.57-6.04c.28,6.6,3.6,8.53,3.6,8.53,0,0,.01,0,.01-.02,1.05.87,2.33,1.49,3.79,1.7,3.92.56,7.5-1.95,8.48-5.68-1.81,2.44-4.84,3.87-8.07,3.4Z"/>
              </g>
              <g class="cls-29">
                <path class="cls-33" d="m188.84,131.07s0,0-.06-.04c-.21-.18-.62-.51-1.12-.84-.11-.06-.18-.14-.28-.2,0-.01-.02.01,0,0-.02,0-.03-.04-.06-.05-.05-.02-.09-.03-.13-.05-1.96-1.21-4.85-2.81-5.23-3.03-4.63-3.23-9.67-7.17-11.12-10.24-3.88,27.26,7.65,30.43,7.65,30.43,0,0,.02-.02.02-.02,1.55.72,3.3,1.08,5.14.88,5.29-.59,9.11-5.37,8.53-10.67-.29-2.52-1.53-4.67-3.33-6.19Z"/>
                <path class="cls-11" d="m183.53,145.01c-2.03.23-4-.17-5.74-.98,0,0,0,.02,0,.02,0,0-3.5-1.01-6.25-6.26,2.41,7.95,7.07,9.26,7.07,9.26,0,0,.01-.02,0-.02,1.55.73,3.3,1.08,5.14.88,4.94-.55,8.53-4.73,8.54-9.58-1.44,3.54-4.69,6.22-8.76,6.68Z"/>
              </g>
              <g class="cls-29">
                <path class="cls-33" d="m224.13,145.12s0-.01-.06-.04c-.25-.18-.74-.51-1.34-.82-.12-.06-.21-.14-.32-.21,0,0-.02.02,0,0-.02,0-.06-.04-.07-.04-.06-.02-.11-.02-.16-.04-2.29-1.16-5.64-2.67-6.07-2.87-5.45-3.15-11.37-7.05-13.28-10.32-1.78,30.59,11.31,33.04,11.31,33.04l.02-.02c1.79.66,3.76.9,5.77.5,5.83-1.15,9.62-6.8,8.47-12.62-.55-2.77-2.15-5.03-4.26-6.56Z"/>
                <path class="cls-11" d="m219.54,161.07c-2.24.45-4.44.18-6.46-.56,0,0,0,.03,0,.03,0,0-3.99-.79-7.52-6.36,3.4,8.59,8.7,9.62,8.7,9.62,0,0,0-.02,0-.03,1.81.66,3.78.88,5.79.49,5.42-1.07,9.01-6.04,8.58-11.42-1.26,4.07-4.62,7.34-9.09,8.23Z"/>
              </g>
            </g>
            <g class="cls-13">
              <g>
                <path class="cls-37" d="m204.5,104.38s0-.01-.04-.04c-.19-.18-.56-.51-1.03-.84-.1-.06-.15-.14-.26-.21,0,0-.02.02,0,0-.02,0-.03-.04-.05-.04-.03-.02-.08-.03-.12-.06-1.79-1.24-4.42-2.89-4.77-3.11-4.21-3.28-8.74-7.24-9.94-10.2-5.04,25.47,5.65,29.04,5.65,29.04,0,0,.01-.01.01-.02,1.43.77,3.05,1.19,4.8,1.1,5.01-.3,8.85-4.59,8.56-9.61-.15-2.4-1.22-4.49-2.82-6Z"/>
                <path class="cls-15" d="m198.79,117.24c-1.93.12-3.74-.36-5.34-1.21h-.01s-3.25-1.11-5.57-6.19c1.87,7.61,6.18,9.08,6.18,9.08,0,0,.01,0,0-.02,1.44.77,3.06,1.18,4.8,1.09,4.68-.27,8.27-4.02,8.53-8.59-1.53,3.26-4.72,5.63-8.59,5.85Z"/>
              </g>
              <g>
                <path class="cls-36" d="m168.67,97.49s0,0-.02-.04c-.13-.18-.38-.52-.71-.86-.07-.08-.1-.15-.18-.22,0,0-.02.01,0,0-.01,0-.03-.03-.04-.04-.02-.03-.06-.04-.09-.08-1.28-1.32-3.17-3.12-3.42-3.36-2.93-3.41-6.02-7.45-6.53-10.09-8.4,20.22-.15,24.95-.15,24.95,0,0,0,0,.01-.01,1.05.87,2.33,1.49,3.79,1.7,4.2.59,8.08-2.32,8.67-6.52.29-2.01-.26-3.91-1.33-5.44Z"/>
                <path class="cls-17" d="m161.82,107.18c-1.61-.22-3.03-.92-4.21-1.89h-.02s-2.5-1.46-3.57-6.04c.28,6.6,3.6,8.53,3.6,8.53,0,0,.01,0,.01-.02,1.05.87,2.33,1.49,3.79,1.7,3.92.56,7.5-1.95,8.48-5.68-1.81,2.44-4.84,3.87-8.07,3.4Z"/>
              </g>
              <g>
                <path class="cls-43" d="m188.84,131.07s0,0-.06-.04c-.21-.18-.62-.51-1.12-.84-.11-.06-.18-.14-.28-.2,0-.01-.02.01,0,0-.02,0-.03-.04-.06-.05-.05-.02-.09-.03-.13-.05-1.96-1.21-4.85-2.81-5.23-3.03-4.63-3.23-9.67-7.17-11.12-10.24-3.88,27.26,7.65,30.43,7.65,30.43,0,0,.02-.02.02-.02,1.55.72,3.3,1.08,5.14.88,5.29-.59,9.11-5.37,8.53-10.67-.29-2.52-1.53-4.67-3.33-6.19Z"/>
                <path class="cls-5" d="m183.53,145.01c-2.03.23-4-.17-5.74-.98,0,0,0,.02,0,.02,0,0-3.5-1.01-6.25-6.26,2.41,7.95,7.07,9.26,7.07,9.26,0,0,.01-.02,0-.02,1.55.73,3.3,1.08,5.14.88,4.94-.55,8.53-4.73,8.54-9.58-1.44,3.54-4.69,6.22-8.76,6.68Z"/>
              </g>
              <g>
                <path class="cls-20" d="m224.13,145.12s0-.01-.06-.04c-.25-.18-.74-.51-1.34-.82-.12-.06-.21-.14-.32-.21,0,0-.02.02,0,0-.02,0-.06-.04-.07-.04-.06-.02-.11-.02-.16-.04-2.29-1.16-5.64-2.67-6.07-2.87-5.45-3.15-11.37-7.05-13.28-10.32-1.78,30.59,11.31,33.04,11.31,33.04l.02-.02c1.79.66,3.76.9,5.77.5,5.83-1.15,9.62-6.8,8.47-12.62-.55-2.77-2.15-5.03-4.26-6.56Z"/>
                <path class="cls-18" d="m219.54,161.07c-2.24.45-4.44.18-6.46-.56,0,0,0,.03,0,.03,0,0-3.99-.79-7.52-6.36,3.4,8.59,8.7,9.62,8.7,9.62,0,0,0-.02,0-.03,1.81.66,3.78.88,5.79.49,5.42-1.07,9.01-6.04,8.58-11.42-1.26,4.07-4.62,7.34-9.09,8.23Z"/>
              </g>
              <g class="cls-29">
                <path class="cls-33" d="m204.5,104.38s0-.01-.04-.04c-.19-.18-.56-.51-1.03-.84-.1-.06-.15-.14-.26-.21,0,0-.02.02,0,0-.02,0-.03-.04-.05-.04-.03-.02-.08-.03-.12-.06-1.79-1.24-4.42-2.89-4.77-3.11-4.21-3.28-8.74-7.24-9.94-10.2-5.04,25.47,5.65,29.04,5.65,29.04,0,0,.01-.01.01-.02,1.43.77,3.05,1.19,4.8,1.1,5.01-.3,8.85-4.59,8.56-9.61-.15-2.4-1.22-4.49-2.82-6Z"/>
                <path class="cls-11" d="m198.79,117.24c-1.93.12-3.74-.36-5.34-1.21h-.01s-3.25-1.11-5.57-6.19c1.87,7.61,6.18,9.08,6.18,9.08,0,0,.01,0,0-.02,1.44.77,3.06,1.18,4.8,1.09,4.68-.27,8.27-4.02,8.53-8.59-1.53,3.26-4.72,5.63-8.59,5.85Z"/>
              </g>
              <g class="cls-29">
                <path class="cls-33" d="m168.67,97.49s0,0-.02-.04c-.13-.18-.38-.52-.71-.86-.07-.08-.1-.15-.18-.22,0,0-.02.01,0,0-.01,0-.03-.03-.04-.04-.02-.03-.06-.04-.09-.08-1.28-1.32-3.17-3.12-3.42-3.36-2.93-3.41-6.02-7.45-6.53-10.09-8.4,20.22-.15,24.95-.15,24.95,0,0,0,0,.01-.01,1.05.87,2.33,1.49,3.79,1.7,4.2.59,8.08-2.32,8.67-6.52.29-2.01-.26-3.91-1.33-5.44Z"/>
                <path class="cls-11" d="m161.82,107.18c-1.61-.22-3.03-.92-4.21-1.89h-.02s-2.5-1.46-3.57-6.04c.28,6.6,3.6,8.53,3.6,8.53,0,0,.01,0,.01-.02,1.05.87,2.33,1.49,3.79,1.7,3.92.56,7.5-1.95,8.48-5.68-1.81,2.44-4.84,3.87-8.07,3.4Z"/>
              </g>
              <g class="cls-29">
                <path class="cls-33" d="m188.84,131.07s0,0-.06-.04c-.21-.18-.62-.51-1.12-.84-.11-.06-.18-.14-.28-.2,0-.01-.02.01,0,0-.02,0-.03-.04-.06-.05-.05-.02-.09-.03-.13-.05-1.96-1.21-4.85-2.81-5.23-3.03-4.63-3.23-9.67-7.17-11.12-10.24-3.88,27.26,7.65,30.43,7.65,30.43,0,0,.02-.02.02-.02,1.55.72,3.3,1.08,5.14.88,5.29-.59,9.11-5.37,8.53-10.67-.29-2.52-1.53-4.67-3.33-6.19Z"/>
                <path class="cls-11" d="m183.53,145.01c-2.03.23-4-.17-5.74-.98,0,0,0,.02,0,.02,0,0-3.5-1.01-6.25-6.26,2.41,7.95,7.07,9.26,7.07,9.26,0,0,.01-.02,0-.02,1.55.73,3.3,1.08,5.14.88,4.94-.55,8.53-4.73,8.54-9.58-1.44,3.54-4.69,6.22-8.76,6.68Z"/>
              </g>
              <g class="cls-29">
                <path class="cls-33" d="m224.13,145.12s0-.01-.06-.04c-.25-.18-.74-.51-1.34-.82-.12-.06-.21-.14-.32-.21,0,0-.02.02,0,0-.02,0-.06-.04-.07-.04-.06-.02-.11-.02-.16-.04-2.29-1.16-5.64-2.67-6.07-2.87-5.45-3.15-11.37-7.05-13.28-10.32-1.78,30.59,11.31,33.04,11.31,33.04l.02-.02c1.79.66,3.76.9,5.77.5,5.83-1.15,9.62-6.8,8.47-12.62-.55-2.77-2.15-5.03-4.26-6.56Z"/>
                <path class="cls-11" d="m219.54,161.07c-2.24.45-4.44.18-6.46-.56,0,0,0,.03,0,.03,0,0-3.99-.79-7.52-6.36,3.4,8.59,8.7,9.62,8.7,9.62,0,0,0-.02,0-.03,1.81.66,3.78.88,5.79.49,5.42-1.07,9.01-6.04,8.58-11.42-1.26,4.07-4.62,7.34-9.09,8.23Z"/>
              </g>
            </g>
          </g>
          <g>
            <g>
              <path class="cls-40" d="m140.96,135.73s0,0-.05-.05c-.18-.22-.54-.66-1.01-1.1-.1-.09-.15-.19-.25-.27,0,0-.03,0,0,0-.02-.01-.03-.05-.06-.06-.04-.03-.09-.05-.12-.08-1.81-1.67-4.5-3.94-4.85-4.24-4.17-4.33-8.61-9.49-9.5-13-9.69,27.7,1.71,33.39,1.71,33.39,0,0,.02-.01.03-.01,1.48,1.08,3.23,1.81,5.19,1.98,5.66.47,10.64-3.73,11.12-9.39.22-2.69-.65-5.2-2.21-7.16Z"/>
              <path class="cls-4" d="m132.53,149.22c-2.17-.18-4.14-1-5.79-2.22,0,0-.01.02-.01.02,0,0-3.45-1.77-5.24-7.83.87,8.81,5.47,11.15,5.47,11.15,0,0,.02-.01.01-.02,1.47,1.08,3.23,1.81,5.19,1.98,5.27.44,9.89-3.19,10.91-8.25-2.23,3.41-6.19,5.53-10.54,5.18Z"/>
            </g>
            <g>
              <path class="cls-26" d="m174.96,157.71s0-.01-.06-.05c-.22-.24-.66-.68-1.23-1.13-.11-.09-.19-.19-.3-.28,0-.02-.02.01,0,0-.02-.01-.04-.06-.06-.06-.05-.03-.1-.05-.15-.08-2.16-1.68-5.35-3.95-5.76-4.25-5.04-4.42-10.43-9.72-11.75-13.53-8.18,31.61,5.01,36.88,5.01,36.88l.02-.02c1.73,1.06,3.74,1.71,5.93,1.72,6.34,0,11.46-5.12,11.46-11.45,0-3.01-1.21-5.71-3.1-7.74Z"/>
              <path class="cls-1" d="m166.85,173.44c-2.43,0-4.68-.73-6.63-1.92v.02s-4.01-1.65-6.55-8.2c1.78,9.69,7.11,11.86,7.11,11.86,0,0,0-.02,0-.03,1.76,1.06,3.77,1.7,5.96,1.71,5.88,0,10.67-4.45,11.32-10.17-2.16,3.99-6.34,6.71-11.21,6.72Z"/>
            </g>
            <g class="cls-29">
              <path class="cls-33" d="m140.96,135.73s0,0-.05-.05c-.18-.22-.54-.66-1.01-1.1-.1-.09-.15-.19-.25-.27,0,0-.03,0,0,0-.02-.01-.03-.05-.06-.06-.04-.03-.09-.05-.12-.08-1.81-1.67-4.5-3.94-4.85-4.24-4.17-4.33-8.61-9.49-9.5-13-9.69,27.7,1.71,33.39,1.71,33.39,0,0,.02-.01.03-.01,1.48,1.08,3.23,1.81,5.19,1.98,5.66.47,10.64-3.73,11.12-9.39.22-2.69-.65-5.2-2.21-7.16Z"/>
              <path class="cls-11" d="m132.53,149.22c-2.17-.18-4.14-1-5.79-2.22,0,0-.01.02-.01.02,0,0-3.45-1.77-5.24-7.83.87,8.81,5.47,11.15,5.47,11.15,0,0,.02-.01.01-.02,1.47,1.08,3.23,1.81,5.19,1.98,5.27.44,9.89-3.19,10.91-8.25-2.23,3.41-6.19,5.53-10.54,5.18Z"/>
            </g>
            <g class="cls-29">
              <path class="cls-33" d="m174.96,157.71s0-.01-.06-.05c-.22-.24-.66-.68-1.23-1.13-.11-.09-.19-.19-.3-.28,0-.02-.02.01,0,0-.02-.01-.04-.06-.06-.06-.05-.03-.1-.05-.15-.08-2.16-1.68-5.35-3.95-5.76-4.25-5.04-4.42-10.43-9.72-11.75-13.53-8.18,31.61,5.01,36.88,5.01,36.88l.02-.02c1.73,1.06,3.74,1.71,5.93,1.72,6.34,0,11.46-5.12,11.46-11.45,0-3.01-1.21-5.71-3.1-7.74Z"/>
              <path class="cls-11" d="m166.85,173.44c-2.43,0-4.68-.73-6.63-1.92v.02s-4.01-1.65-6.55-8.2c1.78,9.69,7.11,11.86,7.11,11.86,0,0,0-.02,0-.03,1.76,1.06,3.77,1.7,5.96,1.71,5.88,0,10.67-4.45,11.32-10.17-2.16,3.99-6.34,6.71-11.21,6.72Z"/>
            </g>
            <g class="cls-35">
              <path class="cls-24" d="m140.96,135.73s0,0-.05-.05c-.18-.22-.54-.66-1.01-1.1-.1-.09-.15-.19-.25-.27,0,0-.03,0,0,0-.02-.01-.03-.05-.06-.06-.04-.03-.09-.05-.12-.08-1.81-1.67-4.5-3.94-4.85-4.24-4.17-4.33-8.61-9.49-9.5-13-9.69,27.7,1.71,33.39,1.71,33.39,0,0,.02-.01.03-.01,1.48,1.08,3.23,1.81,5.19,1.98,5.66.47,10.64-3.73,11.12-9.39.22-2.69-.65-5.2-2.21-7.16Z"/>
              <path class="cls-7" d="m132.53,149.22c-2.17-.18-4.14-1-5.79-2.22,0,0-.01.02-.01.02,0,0-3.45-1.77-5.24-7.83.87,8.81,5.47,11.15,5.47,11.15,0,0,.02-.01.01-.02,1.47,1.08,3.23,1.81,5.19,1.98,5.27.44,9.89-3.19,10.91-8.25-2.23,3.41-6.19,5.53-10.54,5.18Z"/>
            </g>
            <g class="cls-35">
              <path class="cls-24" d="m174.96,157.71s0-.01-.06-.05c-.22-.24-.66-.68-1.23-1.13-.11-.09-.19-.19-.3-.28,0-.02-.02.01,0,0-.02-.01-.04-.06-.06-.06-.05-.03-.1-.05-.15-.08-2.16-1.68-5.35-3.95-5.76-4.25-5.04-4.42-10.43-9.72-11.75-13.53-8.18,31.61,5.01,36.88,5.01,36.88l.02-.02c1.73,1.06,3.74,1.71,5.93,1.72,6.34,0,11.46-5.12,11.46-11.45,0-3.01-1.21-5.71-3.1-7.74Z"/>
              <path class="cls-7" d="m166.85,173.44c-2.43,0-4.68-.73-6.63-1.92v.02s-4.01-1.65-6.55-8.2c1.78,9.69,7.11,11.86,7.11,11.86,0,0,0-.02,0-.03,1.76,1.06,3.77,1.7,5.96,1.71,5.88,0,10.67-4.45,11.32-10.17-2.16,3.99-6.34,6.71-11.21,6.72Z"/>
            </g>
          </g>
        </g>
      </g>
    </g>
  </g>
</svg>