<?xml version="1.0" encoding="UTF-8"?>
<svg xmlns="http://www.w3.org/2000/svg" xmlns:xlink="http://www.w3.org/1999/xlink" viewBox="0 0 251.3 201.77">
  <defs>
    <style>
      .cls-1 {
        fill: url(#linear-gradient-18);
      }

      .cls-2 {
        fill: url(#linear-gradient-7);
      }

      .cls-2, .cls-3 {
        opacity: .66;
      }

      .cls-4 {
        fill: url(#linear-gradient-20);
      }

      .cls-5 {
        isolation: isolate;
      }

      .cls-6 {
        fill: #666;
        opacity: .25;
      }

      .cls-7 {
        fill: url(#linear-gradient-13);
      }

      .cls-7, .cls-8, .cls-9, .cls-10, .cls-11, .cls-12, .cls-13, .cls-14, .cls-15, .cls-16, .cls-17 {
        mix-blend-mode: multiply;
      }

      .cls-7, .cls-8, .cls-13, .cls-15, .cls-16 {
        opacity: .56;
      }

      .cls-8, .cls-3 {
        fill: url(#linear-gradient-6);
      }

      .cls-18 {
        fill: url(#linear-gradient-11);
      }

      .cls-19 {
        fill: url(#linear-gradient-4);
      }

      .cls-19, .cls-20, .cls-21 {
        mix-blend-mode: color-burn;
        opacity: .67;
      }

      .cls-20 {
        fill: url(#linear-gradient-5);
      }

      .cls-9 {
        opacity: .15;
      }

      .cls-21 {
        fill: url(#linear-gradient-21);
      }

      .cls-10 {
        opacity: .63;
      }

      .cls-11 {
        fill: url(#linear-gradient-17);
        opacity: .19;
      }

      .cls-12 {
        fill: url(#linear-gradient-2);
      }

      .cls-12, .cls-17 {
        opacity: .27;
      }

      .cls-22 {
        fill: url(#linear-gradient-10);
      }

      .cls-13 {
        fill: url(#linear-gradient-15);
      }

      .cls-14 {
        fill: url(#linear-gradient-9);
      }

      .cls-15 {
        fill: url(#linear-gradient-16);
      }

      .cls-16 {
        fill: url(#linear-gradient-14);
      }

      .cls-23 {
        fill: url(#linear-gradient-3);
      }

      .cls-24 {
        fill: url(#linear-gradient);
      }

      .cls-17 {
        fill: url(#linear-gradient-19);
      }

      .cls-25 {
        fill: url(#linear-gradient-8);
      }

      .cls-26 {
        fill: url(#linear-gradient-12);
      }
    </style>
    <linearGradient id="linear-gradient" x1="153.67" y1="41.58" x2="153.67" y2="164.22" gradientUnits="userSpaceOnUse">
      <stop offset="0" stop-color="#a7a9ac"/>
      <stop offset=".16" stop-color="#9fa1a4"/>
      <stop offset=".4" stop-color="#8b8c8f"/>
      <stop offset=".69" stop-color="#6a6a6d"/>
      <stop offset="1" stop-color="#414042"/>
    </linearGradient>
    <linearGradient id="linear-gradient-2" x1="153.32" y1="81.13" x2="153.32" y2="156.48" gradientUnits="userSpaceOnUse">
      <stop offset="0" stop-color="#f1f2f2"/>
      <stop offset=".3" stop-color="#dbdcdd"/>
      <stop offset=".93" stop-color="#a3a5a7"/>
      <stop offset="1" stop-color="#9d9fa1"/>
    </linearGradient>
    <linearGradient id="linear-gradient-3" x1="154.01" y1="42.78" x2="154.01" y2="159.88" gradientUnits="userSpaceOnUse">
      <stop offset="0" stop-color="#c4c6c9"/>
      <stop offset=".16" stop-color="#bcbec1"/>
      <stop offset=".39" stop-color="#a8a9ac"/>
      <stop offset=".68" stop-color="#87888a"/>
      <stop offset="1" stop-color="#5c5b5c"/>
    </linearGradient>
    <linearGradient id="linear-gradient-4" x1="56.71" y1="99.25" x2="251.29" y2="99.25" xlink:href="#linear-gradient"/>
    <linearGradient id="linear-gradient-5" x1="56.71" y1="99.25" x2="251.29" y2="99.25" xlink:href="#linear-gradient"/>
    <linearGradient id="linear-gradient-6" x1="178.4" y1="47.27" x2="213.99" y2="28.87" gradientUnits="userSpaceOnUse">
      <stop offset="0" stop-color="#fafbc1"/>
      <stop offset=".03" stop-color="#faf49f"/>
      <stop offset=".09" stop-color="#fcea70"/>
      <stop offset=".14" stop-color="#fde248"/>
      <stop offset=".19" stop-color="#fddc2a"/>
      <stop offset=".24" stop-color="#fed814"/>
      <stop offset=".29" stop-color="#fed507"/>
      <stop offset=".34" stop-color="#ffd503"/>
      <stop offset=".46" stop-color="#fdd002"/>
      <stop offset=".59" stop-color="#f9c202"/>
      <stop offset=".73" stop-color="#f2ac01"/>
      <stop offset=".88" stop-color="#e98c00"/>
      <stop offset="1" stop-color="#e06c00"/>
    </linearGradient>
    <linearGradient id="linear-gradient-7" x1="200.48" y1="74.81" x2="221.08" y2="54.21" xlink:href="#linear-gradient-6"/>
    <linearGradient id="linear-gradient-8" x1="177.28" y1="-11.91" x2="177.28" y2="149.37" xlink:href="#linear-gradient-6"/>
    <linearGradient id="linear-gradient-9" x1="177.09" y1="-14.33" x2="177.09" y2="157.61" xlink:href="#linear-gradient-6"/>
    <linearGradient id="linear-gradient-10" x1="191.9" y1="57.38" x2="209.42" y2="62.21" xlink:href="#linear-gradient-6"/>
    <linearGradient id="linear-gradient-11" x1="188.23" y1="53.66" x2="188.23" y2="118.36" xlink:href="#linear-gradient-6"/>
    <linearGradient id="linear-gradient-12" x1="200.25" y1="21.36" x2="205.27" y2="38.44" xlink:href="#linear-gradient-6"/>
    <linearGradient id="linear-gradient-13" x1="200.48" y1="74.81" x2="221.08" y2="54.21" xlink:href="#linear-gradient-6"/>
    <linearGradient id="linear-gradient-14" x1="191.9" y1="57.38" x2="209.42" y2="62.21" xlink:href="#linear-gradient-6"/>
    <linearGradient id="linear-gradient-15" x1="188.23" y1="53.66" x2="188.23" y2="118.36" xlink:href="#linear-gradient-6"/>
    <linearGradient id="linear-gradient-16" x1="200.25" y1="21.36" x2="205.27" y2="38.44" xlink:href="#linear-gradient-6"/>
    <linearGradient id="linear-gradient-17" x1="178.17" y1="11.25" x2="178.17" y2="134.47" xlink:href="#linear-gradient-6"/>
    <linearGradient id="linear-gradient-18" x1="113" y1="64.19" x2="113" y2="207.13" xlink:href="#linear-gradient"/>
    <linearGradient id="linear-gradient-19" x1="112.6" y1="110.29" x2="112.6" y2="198.12" xlink:href="#linear-gradient-2"/>
    <linearGradient id="linear-gradient-20" x1="113.4" y1="65.6" x2="113.4" y2="202.08" xlink:href="#linear-gradient-3"/>
    <linearGradient id="linear-gradient-21" x1="0" y1="131.41" x2="226.78" y2="131.41" xlink:href="#linear-gradient"/>
  </defs>
  <g class="cls-5">
    <g id="_레이어_2" data-name="레이어 2">
      <g id="Layer_1" data-name="Layer 1">
        <g>
          <g>
            <g>
              <g>
                <path class="cls-24" d="m78.8,79.52s-2.01-29.43,31.85-37.89c33.86-8.47,53.07,14.32,53.07,14.32,0,0,7.17-9.11,18.56-4.56,11.39,4.56,11.04,14.1,11.04,14.1,0,0,12.4-5.96,25.42,4.13,13.02,10.09,12.7,19.86,12.7,19.86,0,0,21.48,8.79,18.55,29.62-2.93,20.84-25.98,17.02-28.9,9.86-.33,6.84-14.4,23.35-38.17,10.33-8.79,14-32.56,22.46-49.16,18.23-16.6-4.23-21.31-10-21.31-10,0,0-16.35,12.51-39.89-5.3-19.09-14.44-8.14-31.58-8.14-31.58,0,0-12.8-11.47-4.66-25.4,4.77-8.17,19.03-5.73,19.03-5.73Z"/>
                <path class="cls-12" d="m161.67,103.72c-38.81,7.17-68.2-9.99-85.87-25.41-3.93-.29-12.71-.18-16.37,6.07-8.14,13.93,4.66,25.4,4.66,25.4,0,0-10.95,17.14,8.14,31.58,23.54,17.81,39.94,5.79,39.94,5.79,0,0,4.66,5.28,21.26,9.51,16.6,4.23,40.37-4.23,49.16-18.23,23.76,13.02,37.84-3.49,38.17-10.33,2.92,7.16,25.97,10.98,28.9-9.85.31-2.19.33-4.24.15-6.16-21.26-11.95-49.79-15.46-88.15-8.37Z"/>
                <path class="cls-23" d="m232.55,88.76c-.23-2.73-1.88-11.23-13.08-19.91-4.93-3.82-10.33-5.76-16.03-5.76-2.65,0-4.93.43-6.7.92,0,0-.01,0-.03,0-.77.17-1.48.39-2.15.65-.53-3.47-2.72-10.55-11.64-14.12-2.26-.9-4.53-1.36-6.75-1.36-6.1,0-10.34,3.37-12.17,5.18-3.59-3.7-16.7-15.5-38.02-15.5-4.9,0-9.97.65-15.03,1.92-28.44,7.11-32.88,26.61-32.29,37.58h0c-5.48-.87-15.82.78-19.08,6.37-7.33,12.54,1.45,23.27,4.14,26.12-1.98,3.88-8.23,19.22,8.91,32.19,8.45,6.39,16.91,9.62,25.17,9.62,7.62,0,12.86-2.77,14.93-4.11,2.03,1.93,7.99,6.55,21.2,9.91,2.93.75,6.14,1.13,9.53,1.13,15.65,0,32.6-8.01,40.07-18.8,5.72,2.97,11.26,4.47,16.48,4.47,11.71,0,20.73-8.51,21.29-14.65,1.29,3.8,7.31,4.85,12.01,4.85,7.68,0,15.98-3.92,17.71-16.24,2.7-19.16-14.57-28.6-18.46-30.47Zm15.9,30.11c-1.89,13.44-12.47,14.48-15.67,14.48-4.85,0-9.98-.76-12.5-7.1.32,1.86-.42,4.32-1.38,6.31-2.44,4.62-9.49,10.12-18.91,10.12-4.9,0-10.15-1.48-15.61-4.37.63-2.01,1.22-5.04,1.44-9.64-1.44,4.63-2.49,7.43-3.93,9.88-6.72,10.53-23.2,18.46-38.45,18.46-3.17,0-6.17-.36-8.9-1.05-9.75-2.49-14.78-5.16-17.21-6.85h0c-3.89-3.29-6.12-5.38-9.48-12.11,1.39,4.93,2.76,7.98,3.93,9.88-1.93.98-7.06,3.19-14,3.19-7.68,0-15.62-3.06-23.6-9.09-15.37-11.63-10.27-24.86-8.35-28.63,0,0,0,0,0,0,2.86-4.54,4.09-5.44,5.67-6.41-2.92.86-4.81,2.18-5.91,3.15-2.28-2.37-10.3-11.93-3.8-23.06,2.65-4.53,8.45-5.48,12.86-5.48,2.32,0,4,.28,4,.28l.59.1c.85,3.27,2.38,7.31,2.31,7.07-.66-2.68-1.13-5.51-1.36-8.26v-.24c-.02-.29-.88-28.16,31.37-36.22,4.87-1.21,9.72-1.83,14.41-1.83,21.21,0,35.13,13.53,37.76,16.31.13.15.27.29.4.44.04.03.05.06.05.06h0c2.13,2.37,4.12,5.24,6.1,9.5-1.46-5.28-3.34-8.84-4.89-11.14,1.19-1.27,5.05-4.86,10.77-4.86,1.89,0,3.83.4,5.78,1.18,8.21,3.28,10.46,9.87,11.04,12.43-1.59.85-3.01,1.97-4.58,3.36,2.69-1.51,4.78-2.3,4.78-2.3.04-.02,4.86-1.34,10.35-1.34,5.12,0,9.88,2.33,14.34,5.79,9.59,7.44,11.58,14.67,12,17.45-3.78-.71-10.56-1.42-17.45.62,4.93-1.14,13.33-.05,18.56,1.93,2.06.91,20.05,9.51,17.46,27.97Z"/>
              </g>
              <path class="cls-6" d="m228.87,91.88c-3.76-.99-10.56-1.42-17.45.62,4.94-1.14,13.34-.05,18.57,1.93,1.86.83,16.75,7.94,17.66,22.94.89-16.89-15.68-24.82-17.66-25.7-.39-.15-.81-.29-1.23-.43.05.23,0,0,.11.64Z"/>
              <path class="cls-6" d="m176.08,55.88c1.74,0,3.53.36,5.33,1.08,5.81,2.32,9.04,6.04,10.16,8.9.22-.13.44-.27.67-.4-.54-2.35-3.29-8.02-10.83-11.04-1.8-.72-3.59-1.09-5.33-1.09-5.26,0-8.45,2.94-9.45,4.01.32.47.63,1.1.97,1.69,1.65-1.44,4.31-3.16,8.49-3.16Z"/>
              <path class="cls-6" d="m81.43,79.54c.01.17.04.34.05.5.46-6.37,4.02-26.58,30.35-33.16,4.72-1.17,9.42-1.78,13.96-1.78,20.56,0,34.05,13.12,36.6,15.8.13.14.26.28.39.42.03.03.05.06.05.06h0c2.08,2.3,4.3,4.54,6.67,8.86-1.6-4.71-2.94-6.73-4.5-8.85-.71-.98-1.42-1.87-2.17-2.68h0s-.02-.03-.05-.06c-.13-.14-.26-.28-.39-.42-2.54-2.68-16.04-15.81-36.6-15.81-4.55,0-9.25.6-13.96,1.78-31.26,7.82-30.43,34.83-30.42,35.11v.23Z"/>
              <path class="cls-6" d="m217.73,72.26c-4.26-3.3-8.5-5.19-13.7-5.53,0,0-9.01-.72-15.18,4.03,2.56-1.45,6.91-1.6,6.91-1.6.04-.02,3.26-.84,8.46-.26,4.6.52,9.25,2.69,13.51,6,5.67,4.4,8.56,8.72,10.03,12,.36.03.7.08,1.03.15-.94-3.33-3.58-9-11.06-14.79Z"/>
              <path class="cls-19" d="m232.54,88.76c-.23-2.73-1.88-11.23-13.08-19.91-4.93-3.82-10.33-5.76-16.03-5.76-2.65,0-4.92.43-6.7.92,0,0-.01,0-.03,0-.77.17-1.48.39-2.15.65-.53-3.47-2.72-10.55-11.64-14.12-2.25-.9-4.53-1.36-6.74-1.36-6.09,0-10.34,3.37-12.17,5.18-3.59-3.7-16.7-15.5-38.02-15.5-4.9,0-9.97.65-15.03,1.92-23.51,5.87-30.61,20.22-32.04,31.21-.6,2.82-.76,5.06-.8,6.31-1.29-.16-2.8-.2-4.42-.08-4.39-.03-11.16.86-14.26,6.16-2.06,3.52-2.77,6.89-2.7,9.95-.19,7.95,4.78,14.15,6.84,16.38-.91,1.77-2.69,5.91-2.6,11.11-.12,6.27,2.22,14.1,11.64,21.23,8.45,6.39,16.91,9.62,25.17,9.62,7.62,0,12.86-2.77,14.93-4.11,2.03,1.93,7.99,6.55,21.2,9.91,2.93.75,6.14,1.13,9.53,1.13,15.65,0,32.6-8.01,40.07-18.8,5.72,2.97,11.26,4.47,16.47,4.47,11.71,0,20.73-8.51,21.29-14.65,1.3,3.8,7.31,4.85,12.02,4.85,7.67,0,15.98-3.92,17.7-16.24,2.7-19.16-14.57-28.6-18.46-30.47Z"/>
            </g>
            <g class="cls-10">
              <g>
                <path class="cls-24" d="m78.8,79.52s-2.01-29.43,31.85-37.89c33.86-8.47,53.07,14.32,53.07,14.32,0,0,7.17-9.11,18.56-4.56,11.39,4.56,11.04,14.1,11.04,14.1,0,0,12.4-5.96,25.42,4.13,13.02,10.09,12.7,19.86,12.7,19.86,0,0,21.48,8.79,18.55,29.62-2.93,20.84-25.98,17.02-28.9,9.86-.33,6.84-14.4,23.35-38.17,10.33-8.79,14-32.56,22.46-49.16,18.23-16.6-4.23-21.31-10-21.31-10,0,0-16.35,12.51-39.89-5.3-19.09-14.44-8.14-31.58-8.14-31.58,0,0-12.8-11.47-4.66-25.4,4.77-8.17,19.03-5.73,19.03-5.73Z"/>
                <path class="cls-12" d="m161.67,103.72c-38.81,7.17-68.2-9.99-85.87-25.41-3.93-.29-12.71-.18-16.37,6.07-8.14,13.93,4.66,25.4,4.66,25.4,0,0-10.95,17.14,8.14,31.58,23.54,17.81,39.94,5.79,39.94,5.79,0,0,4.66,5.28,21.26,9.51,16.6,4.23,40.37-4.23,49.16-18.23,23.76,13.02,37.84-3.49,38.17-10.33,2.92,7.16,25.97,10.98,28.9-9.85.31-2.19.33-4.24.15-6.16-21.26-11.95-49.79-15.46-88.15-8.37Z"/>
                <path class="cls-23" d="m232.55,88.76c-.23-2.73-1.88-11.23-13.08-19.91-4.93-3.82-10.33-5.76-16.03-5.76-2.65,0-4.93.43-6.7.92,0,0-.01,0-.03,0-.77.17-1.48.39-2.15.65-.53-3.47-2.72-10.55-11.64-14.12-2.26-.9-4.53-1.36-6.75-1.36-6.1,0-10.34,3.37-12.17,5.18-3.59-3.7-16.7-15.5-38.02-15.5-4.9,0-9.97.65-15.03,1.92-28.44,7.11-32.88,26.61-32.29,37.58h0c-5.48-.87-15.82.78-19.08,6.37-7.33,12.54,1.45,23.27,4.14,26.12-1.98,3.88-8.23,19.22,8.91,32.19,8.45,6.39,16.91,9.62,25.17,9.62,7.62,0,12.86-2.77,14.93-4.11,2.03,1.93,7.99,6.55,21.2,9.91,2.93.75,6.14,1.13,9.53,1.13,15.65,0,32.6-8.01,40.07-18.8,5.72,2.97,11.26,4.47,16.48,4.47,11.71,0,20.73-8.51,21.29-14.65,1.29,3.8,7.31,4.85,12.01,4.85,7.68,0,15.98-3.92,17.71-16.24,2.7-19.16-14.57-28.6-18.46-30.47Zm15.9,30.11c-1.89,13.44-12.47,14.48-15.67,14.48-4.85,0-9.98-.76-12.5-7.1.32,1.86-.42,4.32-1.38,6.31-2.44,4.62-9.49,10.12-18.91,10.12-4.9,0-10.15-1.48-15.61-4.37.63-2.01,1.22-5.04,1.44-9.64-1.44,4.63-2.49,7.43-3.93,9.88-6.72,10.53-23.2,18.46-38.45,18.46-3.17,0-6.17-.36-8.9-1.05-9.75-2.49-14.78-5.16-17.21-6.85h0c-3.89-3.29-6.12-5.38-9.48-12.11,1.39,4.93,2.76,7.98,3.93,9.88-1.93.98-7.06,3.19-14,3.19-7.68,0-15.62-3.06-23.6-9.09-15.37-11.63-10.27-24.86-8.35-28.63,0,0,0,0,0,0,2.86-4.54,4.09-5.44,5.67-6.41-2.92.86-4.81,2.18-5.91,3.15-2.28-2.37-10.3-11.93-3.8-23.06,2.65-4.53,8.45-5.48,12.86-5.48,2.32,0,4,.28,4,.28l.59.1c.85,3.27,2.38,7.31,2.31,7.07-.66-2.68-1.13-5.51-1.36-8.26v-.24c-.02-.29-.88-28.16,31.37-36.22,4.87-1.21,9.72-1.83,14.41-1.83,21.21,0,35.13,13.53,37.76,16.31.13.15.27.29.4.44.04.03.05.06.05.06h0c2.13,2.37,4.12,5.24,6.1,9.5-1.46-5.28-3.34-8.84-4.89-11.14,1.19-1.27,5.05-4.86,10.77-4.86,1.89,0,3.83.4,5.78,1.18,8.21,3.28,10.46,9.87,11.04,12.43-1.59.85-3.01,1.97-4.58,3.36,2.69-1.51,4.78-2.3,4.78-2.3.04-.02,4.86-1.34,10.35-1.34,5.12,0,9.88,2.33,14.34,5.79,9.59,7.44,11.58,14.67,12,17.45-3.78-.71-10.56-1.42-17.45.62,4.93-1.14,13.33-.05,18.56,1.93,2.06.91,20.05,9.51,17.46,27.97Z"/>
              </g>
              <path class="cls-6" d="m228.87,91.88c-3.76-.99-10.56-1.42-17.45.62,4.94-1.14,13.34-.05,18.57,1.93,1.86.83,16.75,7.94,17.66,22.94.89-16.89-15.68-24.82-17.66-25.7-.39-.15-.81-.29-1.23-.43.05.23,0,0,.11.64Z"/>
              <path class="cls-6" d="m176.08,55.88c1.74,0,3.53.36,5.33,1.08,5.81,2.32,9.04,6.04,10.16,8.9.22-.13.44-.27.67-.4-.54-2.35-3.29-8.02-10.83-11.04-1.8-.72-3.59-1.09-5.33-1.09-5.26,0-8.45,2.94-9.45,4.01.32.47.63,1.1.97,1.69,1.65-1.44,4.31-3.16,8.49-3.16Z"/>
              <path class="cls-6" d="m81.43,79.54c.01.17.04.34.05.5.46-6.37,4.02-26.58,30.35-33.16,4.72-1.17,9.42-1.78,13.96-1.78,20.56,0,34.05,13.12,36.6,15.8.13.14.26.28.39.42.03.03.05.06.05.06h0c2.08,2.3,4.3,4.54,6.67,8.86-1.6-4.71-2.94-6.73-4.5-8.85-.71-.98-1.42-1.87-2.17-2.68h0s-.02-.03-.05-.06c-.13-.14-.26-.28-.39-.42-2.54-2.68-16.04-15.81-36.6-15.81-4.55,0-9.25.6-13.96,1.78-31.26,7.82-30.43,34.83-30.42,35.11v.23Z"/>
              <path class="cls-6" d="m217.73,72.26c-4.26-3.3-8.5-5.19-13.7-5.53,0,0-9.01-.72-15.18,4.03,2.56-1.45,6.91-1.6,6.91-1.6.04-.02,3.26-.84,8.46-.26,4.6.52,9.25,2.69,13.51,6,5.67,4.4,8.56,8.72,10.03,12,.36.03.7.08,1.03.15-.94-3.33-3.58-9-11.06-14.79Z"/>
              <path class="cls-20" d="m232.54,88.76c-.23-2.73-1.88-11.23-13.08-19.91-4.93-3.82-10.33-5.76-16.03-5.76-2.65,0-4.92.43-6.7.92,0,0-.01,0-.03,0-.77.17-1.48.39-2.15.65-.53-3.47-2.72-10.55-11.64-14.12-2.25-.9-4.53-1.36-6.74-1.36-6.09,0-10.34,3.37-12.17,5.18-3.59-3.7-16.7-15.5-38.02-15.5-4.9,0-9.97.65-15.03,1.92-23.51,5.87-30.61,20.22-32.04,31.21-.6,2.82-.76,5.06-.8,6.31-1.29-.16-2.8-.2-4.42-.08-4.39-.03-11.16.86-14.26,6.16-2.06,3.52-2.77,6.89-2.7,9.95-.19,7.95,4.78,14.15,6.84,16.38-.91,1.77-2.69,5.91-2.6,11.11-.12,6.27,2.22,14.1,11.64,21.23,8.45,6.39,16.91,9.62,25.17,9.62,7.62,0,12.86-2.77,14.93-4.11,2.03,1.93,7.99,6.55,21.2,9.91,2.93.75,6.14,1.13,9.53,1.13,15.65,0,32.6-8.01,40.07-18.8,5.72,2.97,11.26,4.47,16.47,4.47,11.71,0,20.73-8.51,21.29-14.65,1.3,3.8,7.31,4.85,12.02,4.85,7.67,0,15.98-3.92,17.7-16.24,2.7-19.16-14.57-28.6-18.46-30.47Z"/>
            </g>
          </g>
          <g>
            <polygon class="cls-3" points="191.09 46.85 181.74 52.63 184.49 42.05 175.96 34.51 187.01 34.3 191.09 24.11 195.16 34.3 205.93 34.8 197.68 42.05 200.14 52.63 191.09 46.85"/>
            <polygon class="cls-2" points="207.73 63.85 202.9 58.55 210.01 59.05 213.82 52.67 215.28 59.73 222.31 61.12 216.25 64.96 217.22 71.92 211.6 67.5 205.11 70.34 207.73 63.85"/>
            <path class="cls-25" d="m217.83,100.8c-27.83,0-50.4-22.57-50.4-50.4,0-21.86,13.94-40.41,33.38-47.4-22.15-6.96-47.3-1.83-65.09,15.52-25.76,25.14-26.27,66.41-1.11,92.18,25.12,25.75,66.39,26.26,92.15,1.12,4.79-4.67,8.69-9.9,11.73-15.48-6.31,2.84-13.29,4.46-20.67,4.46Z"/>
            <g class="cls-9">
              <path class="cls-14" d="m230.64,99.13c-.25.07-.87.22-1.12.29-1.95,2.68-4.08,5.64-6.5,8-11.09,10.82-25.72,16.78-41.22,16.78s-31.04-6.32-42.24-17.8c-22.72-23.29-22.26-60.73,1.03-83.47,11.08-10.81,25.72-16.77,41.21-16.77,3.95,0,6.57.15,10.36.9,1.34-.85,2.69-1.64,4.14-2.27-5.09-1.32-9.09-1.83-14.5-1.83-16.33,0-31.76,6.28-43.45,17.69-24.55,23.96-25.03,63.44-1.08,87.99,11.82,12.1,27.63,18.76,44.54,18.76s31.76-6.28,43.45-17.69c3.63-3.54,6.71-7.48,9.32-11.68-1.39.65-2.47.7-3.94,1.1Z"/>
            </g>
            <path class="cls-22" d="m196.33,58.2c0,.79-.64,1.43-1.42,1.43s-1.43-.64-1.43-1.43.64-1.42,1.43-1.42,1.42.64,1.42,1.42Z"/>
            <path class="cls-18" d="m189.65,71.92c0,.79-.63,1.42-1.41,1.42s-1.43-.64-1.43-1.42.64-1.42,1.43-1.42,1.41.64,1.41,1.42Z"/>
            <path class="cls-26" d="m202.9,25.53c0,.78-.63,1.42-1.42,1.42s-1.43-.64-1.43-1.42.64-1.42,1.43-1.42,1.42.63,1.42,1.42Z"/>
            <g>
              <polygon class="cls-8" points="191.09 46.85 181.74 52.63 184.49 42.05 175.96 34.51 187.01 34.3 191.09 24.11 195.16 34.3 205.93 34.8 197.68 42.05 200.14 52.63 191.09 46.85"/>
              <polygon class="cls-7" points="207.73 63.85 202.9 58.55 210.01 59.05 213.82 52.67 215.28 59.73 222.31 61.12 216.25 64.96 217.22 71.92 211.6 67.5 205.11 70.34 207.73 63.85"/>
              <path class="cls-16" d="m196.33,58.2c0,.79-.64,1.43-1.42,1.43s-1.43-.64-1.43-1.43.64-1.42,1.43-1.42,1.42.64,1.42,1.42Z"/>
              <path class="cls-13" d="m189.65,71.92c0,.79-.63,1.42-1.41,1.42s-1.43-.64-1.43-1.42.64-1.42,1.43-1.42,1.41.64,1.41,1.42Z"/>
              <path class="cls-15" d="m202.9,25.53c0,.78-.63,1.42-1.42,1.42s-1.43-.64-1.43-1.42.64-1.42,1.43-1.42,1.42.63,1.42,1.42Z"/>
            </g>
            <path class="cls-11" d="m117.85,80.29c2.63,11.1,8.21,21.65,16.76,30.41,25.12,25.75,66.39,26.26,92.15,1.12,4.79-4.67,8.69-9.9,11.73-15.48-6.31,2.84-13.29,4.46-20.67,4.46-9.62,0-18.61-2.7-26.26-7.38-2.8.4-5.65.86-8.58,1.4-27.48,5.08-49.54-3.81-65.13-14.53Z"/>
          </g>
          <g>
            <g>
              <path class="cls-1" d="m25.75,108.42s-2.34-34.3,37.13-44.17c39.46-9.87,61.85,16.7,61.85,16.7,0,0,8.35-10.62,21.63-5.31,13.28,5.31,12.86,16.43,12.86,16.43,0,0,14.46-6.95,29.64,4.82,15.18,11.76,14.8,23.15,14.8,23.15,0,0,25.05,10.24,21.63,34.53-3.41,24.29-30.27,19.83-33.68,11.48-.38,7.97-16.78,27.22-44.48,12.04-10.25,16.31-37.95,26.18-57.3,21.25-19.35-4.93-24.84-11.66-24.84-11.66,0,0-19.05,14.58-46.5-6.18-22.25-16.82-9.48-36.81-9.48-36.81,0,0-14.91-13.36-5.43-29.6,5.56-9.53,22.18-6.68,22.18-6.68Z"/>
              <path class="cls-17" d="m122.33,136.62c-45.24,8.36-79.49-11.64-100.08-29.61-4.58-.34-14.82-.21-19.08,7.08-9.49,16.24,5.43,29.6,5.43,29.6,0,0-12.77,19.99,9.48,36.81,27.45,20.76,46.56,6.75,46.56,6.75,0,0,5.43,6.15,24.78,11.08,19.35,4.94,47.05-4.93,57.3-21.25,27.7,15.18,44.1-4.07,44.48-12.04,3.41,8.35,30.27,12.8,33.69-11.48.36-2.55.38-4.94.17-7.19-24.78-13.93-58.03-18.02-102.73-9.75Z"/>
              <path class="cls-4" d="m204.94,119.19c-.27-3.18-2.19-13.09-15.25-23.21-5.74-4.45-12.03-6.71-18.69-6.71-3.08,0-5.74.5-7.81,1.07,0,0-.01,0-.03,0-.9.2-1.73.46-2.51.76-.62-4.04-3.17-12.29-13.57-16.45-2.62-1.05-5.28-1.59-7.86-1.59-7.11,0-12.05,3.93-14.19,6.04-4.18-4.31-19.46-18.06-44.32-18.06-5.71,0-11.61.76-17.52,2.23-33.14,8.28-38.32,31.01-37.64,43.81h0c-6.38-1.02-18.43.91-22.25,7.42-8.53,14.62,1.69,27.13,4.84,30.44-2.31,4.52-9.59,22.4,10.38,37.52,9.84,7.44,19.71,11.21,29.33,11.21,8.88,0,14.98-3.24,17.39-4.79,2.36,2.24,9.32,7.63,24.71,11.55,3.42.87,7.16,1.32,11.12,1.32,18.24,0,38-9.34,46.7-21.91,6.67,3.46,13.13,5.21,19.21,5.21,13.65,0,24.16-9.91,24.82-17.07,1.51,4.43,8.53,5.65,14.01,5.65,8.94,0,18.63-4.58,20.64-18.93,3.15-22.33-16.98-33.33-21.52-35.52Zm18.54,35.09c-2.21,15.66-14.53,16.88-18.26,16.88-5.65,0-11.64-.88-14.57-8.27.38,2.17-.48,5.04-1.6,7.35-2.85,5.39-11.06,11.8-22.05,11.8-5.7,0-11.82-1.72-18.19-5.08.74-2.35,1.43-5.88,1.68-11.24-1.67,5.39-2.9,8.66-4.59,11.51-7.83,12.28-27.04,21.52-44.81,21.52-3.7,0-7.19-.41-10.37-1.22-11.38-2.9-17.24-6.01-20.07-7.98,0,0,0,0,0,0-4.53-3.83-7.14-6.27-11.05-14.12,1.62,5.75,3.22,9.31,4.58,11.51-2.25,1.14-8.23,3.72-16.31,3.72-8.95,0-18.21-3.56-27.5-10.6-17.92-13.55-11.97-28.97-9.74-33.36,0,0,0,0,0,0,3.34-5.3,4.78-6.33,6.62-7.47-3.41,1.01-5.6,2.55-6.88,3.68-2.66-2.76-12-13.91-4.44-26.88,3.09-5.28,9.86-6.39,15-6.39,2.7,0,4.67.33,4.68.33l.66.11c.99,3.81,2.79,8.53,2.69,8.24-.77-3.12-1.32-6.42-1.58-9.63v-.28c-.03-.33-1.03-32.82,36.56-42.21,5.68-1.42,11.33-2.14,16.79-2.14,24.72,0,40.95,15.78,44.01,19.01.16.17.32.34.47.51.04.04.06.07.06.07h0c2.49,2.77,4.81,6.11,7.1,11.08-1.7-6.16-3.88-10.31-5.69-12.98,1.39-1.48,5.88-5.67,12.55-5.67,2.2,0,4.47.46,6.74,1.37,9.56,3.83,12.19,11.51,12.87,14.48-1.85.99-3.52,2.29-5.34,3.92,3.12-1.77,5.57-2.69,5.57-2.69.05-.02,5.67-1.55,12.06-1.55,5.97,0,11.51,2.71,16.71,6.74,11.18,8.66,13.51,17.09,13.99,20.34-4.41-.83-12.31-1.66-20.33.72,5.75-1.33,15.54-.06,21.64,2.25,2.4,1.07,23.37,11.08,20.34,32.61Z"/>
            </g>
            <path class="cls-6" d="m200.66,122.82c-4.38-1.16-12.31-1.66-20.34.72,5.75-1.32,15.54-.06,21.64,2.25,2.17.96,19.52,9.25,20.58,26.74,1.04-19.7-18.29-28.93-20.58-29.96-.46-.17-.94-.34-1.44-.5.05.27,0,0,.13.75Z"/>
            <path class="cls-6" d="m139.13,80.86c2.02,0,4.11.42,6.21,1.27,6.76,2.71,10.53,7.04,11.84,10.37.26-.16.52-.32.79-.46-.62-2.74-3.82-9.35-12.62-12.87-2.09-.84-4.18-1.26-6.21-1.26-6.14,0-9.86,3.42-11.02,4.67.36.54.73,1.28,1.12,1.97,1.92-1.68,5.02-3.68,9.9-3.68Z"/>
            <path class="cls-6" d="m28.81,108.44c.01.2.04.39.06.58.54-7.42,4.68-30.98,35.37-38.65,5.5-1.37,10.97-2.07,16.27-2.07,23.96,0,39.68,15.29,42.66,18.42.15.16.3.33.46.49.03.04.06.07.06.07h0c2.41,2.68,5,5.29,7.77,10.32-1.86-5.48-3.42-7.85-5.25-10.31-.82-1.14-1.66-2.18-2.52-3.13h0s-.03-.03-.06-.07c-.15-.16-.3-.33-.46-.49-2.97-3.13-18.7-18.42-42.66-18.42-5.3,0-10.78.7-16.27,2.07-36.43,9.11-35.46,40.6-35.45,40.92v.27Z"/>
            <path class="cls-6" d="m187.67,99.96c-4.97-3.85-9.91-6.04-15.97-6.44,0,0-10.5-.84-17.69,4.69,2.98-1.69,8.05-1.86,8.05-1.86.05-.02,3.8-.99,9.86-.3,5.36.6,10.78,3.14,15.75,6.99,6.61,5.12,9.97,10.16,11.69,13.98.41.03.82.09,1.19.18-1.09-3.89-4.17-10.49-12.88-17.24Z"/>
            <path class="cls-21" d="m204.93,119.19c-.27-3.18-2.19-13.09-15.25-23.21-5.75-4.45-12.03-6.71-18.69-6.71-3.08,0-5.74.5-7.81,1.07-.01,0-.02,0-.03,0-.9.2-1.72.46-2.51.76-.62-4.04-3.17-12.29-13.56-16.45-2.63-1.05-5.28-1.59-7.86-1.59-7.1,0-12.05,3.93-14.19,6.04-4.18-4.31-19.46-18.06-44.32-18.06-5.71,0-11.61.76-17.52,2.23-27.4,6.85-35.67,23.56-37.34,36.38-.7,3.28-.89,5.89-.93,7.34-1.51-.19-3.27-.22-5.15-.09-5.12-.04-13.01,1-16.62,7.17C.75,118.19-.08,122.12,0,125.69c-.23,9.27,5.56,16.5,7.97,19.08-1.06,2.06-3.13,6.89-3.03,12.95-.14,7.3,2.6,16.44,13.58,24.74,9.84,7.44,19.71,11.21,29.33,11.21,8.88,0,14.99-3.24,17.39-4.79,2.36,2.24,9.32,7.63,24.71,11.55,3.42.87,7.16,1.32,11.12,1.32,18.24,0,37.99-9.34,46.7-21.91,6.67,3.46,13.13,5.21,19.21,5.21,13.65,0,24.16-9.91,24.82-17.07,1.51,4.43,8.53,5.65,14.01,5.65,8.94,0,18.63-4.58,20.64-18.93,3.15-22.33-16.98-33.33-21.52-35.52Z"/>
          </g>
        </g>
      </g>
    </g>
  </g>
</svg>