<?xml version="1.0" encoding="UTF-8"?>
<svg xmlns="http://www.w3.org/2000/svg" xmlns:xlink="http://www.w3.org/1999/xlink" viewBox="0 0 247.11 230.42">
  <defs>
    <style>
      .cls-1 {
        fill: url(#linear-gradient-33);
      }

      .cls-1, .cls-2, .cls-3, .cls-4, .cls-5, .cls-6, .cls-7, .cls-8, .cls-9, .cls-10, .cls-11, .cls-12, .cls-13, .cls-14, .cls-15, .cls-16, .cls-17, .cls-18, .cls-19, .cls-20, .cls-21, .cls-22, .cls-23 {
        mix-blend-mode: multiply;
      }

      .cls-1, .cls-2, .cls-3, .cls-11, .cls-13, .cls-16, .cls-17, .cls-18, .cls-20, .cls-22, .cls-23 {
        opacity: .2;
      }

      .cls-24 {
        fill: url(#linear-gradient-18);
      }

      .cls-25 {
        fill: url(#linear-gradient-40);
      }

      .cls-26 {
        fill: url(#linear-gradient-7);
      }

      .cls-26, .cls-27 {
        opacity: .66;
      }

      .cls-28 {
        fill: url(#linear-gradient-28);
      }

      .cls-29 {
        fill: url(#linear-gradient-36);
      }

      .cls-30 {
        fill: url(#linear-gradient-20);
      }

      .cls-31 {
        isolation: isolate;
      }

      .cls-32 {
        fill: #666;
        opacity: .25;
      }

      .cls-2 {
        fill: url(#linear-gradient-31);
      }

      .cls-3 {
        fill: url(#linear-gradient-27);
      }

      .cls-33 {
        fill: url(#linear-gradient-32);
      }

      .cls-4 {
        fill: url(#linear-gradient-13);
      }

      .cls-4, .cls-5, .cls-10, .cls-15, .cls-19 {
        opacity: .56;
      }

      .cls-5, .cls-27 {
        fill: url(#linear-gradient-6);
      }

      .cls-34 {
        fill: url(#linear-gradient-11);
      }

      .cls-35 {
        fill: url(#linear-gradient-4);
      }

      .cls-35, .cls-36, .cls-37 {
        opacity: .67;
      }

      .cls-35, .cls-36, .cls-37, .cls-38 {
        mix-blend-mode: color-burn;
      }

      .cls-36 {
        fill: url(#linear-gradient-5);
      }

      .cls-6 {
        opacity: .15;
      }

      .cls-37 {
        fill: url(#linear-gradient-21);
      }

      .cls-7 {
        opacity: .63;
      }

      .cls-8 {
        fill: url(#linear-gradient-17);
        opacity: .19;
      }

      .cls-9 {
        fill: url(#linear-gradient-2);
      }

      .cls-9, .cls-21 {
        opacity: .27;
      }

      .cls-39 {
        fill: url(#linear-gradient-10);
      }

      .cls-10 {
        fill: url(#linear-gradient-15);
      }

      .cls-11 {
        fill: url(#linear-gradient-39);
      }

      .cls-12 {
        fill: url(#linear-gradient-9);
      }

      .cls-13, .cls-40 {
        fill: #29e2b1;
      }

      .cls-14 {
        opacity: .45;
      }

      .cls-15 {
        fill: url(#linear-gradient-16);
      }

      .cls-16 {
        fill: url(#linear-gradient-23);
      }

      .cls-38 {
        opacity: .5;
      }

      .cls-41 {
        fill: url(#linear-gradient-34);
      }

      .cls-17 {
        fill: url(#linear-gradient-35);
      }

      .cls-18 {
        fill: url(#linear-gradient-41);
      }

      .cls-19 {
        fill: url(#linear-gradient-14);
      }

      .cls-42 {
        fill: url(#linear-gradient-24);
      }

      .cls-43 {
        fill: url(#linear-gradient-22);
      }

      .cls-44 {
        fill: url(#linear-gradient-3);
      }

      .cls-45 {
        fill: url(#linear-gradient);
      }

      .cls-20 {
        fill: url(#linear-gradient-25);
      }

      .cls-46 {
        fill: url(#linear-gradient-38);
      }

      .cls-47 {
        fill: url(#linear-gradient-30);
      }

      .cls-21 {
        fill: url(#linear-gradient-19);
      }

      .cls-48 {
        fill: url(#linear-gradient-8);
      }

      .cls-49 {
        fill: url(#linear-gradient-12);
      }

      .cls-50 {
        fill: url(#linear-gradient-26);
      }

      .cls-22 {
        fill: url(#linear-gradient-29);
      }

      .cls-23 {
        fill: url(#linear-gradient-37);
      }
    </style>
    <linearGradient id="linear-gradient" x1="151.11" y1="40.88" x2="151.11" y2="161.49" gradientUnits="userSpaceOnUse">
      <stop offset="0" stop-color="#a7a9ac"/>
      <stop offset=".16" stop-color="#9fa1a4"/>
      <stop offset=".4" stop-color="#8b8c8f"/>
      <stop offset=".69" stop-color="#6a6a6d"/>
      <stop offset="1" stop-color="#414042"/>
    </linearGradient>
    <linearGradient id="linear-gradient-2" x1="150.77" y1="79.77" x2="150.77" y2="153.87" gradientUnits="userSpaceOnUse">
      <stop offset="0" stop-color="#f1f2f2"/>
      <stop offset=".3" stop-color="#dbdcdd"/>
      <stop offset=".93" stop-color="#a3a5a7"/>
      <stop offset="1" stop-color="#9d9fa1"/>
    </linearGradient>
    <linearGradient id="linear-gradient-3" x1="151.44" y1="42.07" x2="151.44" y2="157.21" gradientUnits="userSpaceOnUse">
      <stop offset="0" stop-color="#c4c6c9"/>
      <stop offset=".16" stop-color="#bcbec1"/>
      <stop offset=".39" stop-color="#a8a9ac"/>
      <stop offset=".68" stop-color="#87888a"/>
      <stop offset="1" stop-color="#5c5b5c"/>
    </linearGradient>
    <linearGradient id="linear-gradient-4" x1="55.77" y1="97.59" x2="247.1" y2="97.59" xlink:href="#linear-gradient"/>
    <linearGradient id="linear-gradient-5" x1="55.77" y1="97.59" x2="247.1" y2="97.59" xlink:href="#linear-gradient"/>
    <linearGradient id="linear-gradient-6" x1="175.42" y1="46.48" x2="210.43" y2="28.39" gradientUnits="userSpaceOnUse">
      <stop offset="0" stop-color="#fafbc1"/>
      <stop offset=".03" stop-color="#faf49f"/>
      <stop offset=".09" stop-color="#fcea70"/>
      <stop offset=".14" stop-color="#fde248"/>
      <stop offset=".19" stop-color="#fddc2a"/>
      <stop offset=".24" stop-color="#fed814"/>
      <stop offset=".29" stop-color="#fed507"/>
      <stop offset=".34" stop-color="#ffd503"/>
      <stop offset=".46" stop-color="#fdd002"/>
      <stop offset=".59" stop-color="#f9c202"/>
      <stop offset=".73" stop-color="#f2ac01"/>
      <stop offset=".88" stop-color="#e98c00"/>
      <stop offset="1" stop-color="#e06c00"/>
    </linearGradient>
    <linearGradient id="linear-gradient-7" x1="197.13" y1="73.57" x2="217.39" y2="53.31" xlink:href="#linear-gradient-6"/>
    <linearGradient id="linear-gradient-8" x1="174.32" y1="-11.71" x2="174.32" y2="146.88" xlink:href="#linear-gradient-6"/>
    <linearGradient id="linear-gradient-9" x1="174.14" y1="-14.09" x2="174.14" y2="154.98" xlink:href="#linear-gradient-6"/>
    <linearGradient id="linear-gradient-10" x1="188.7" y1="56.42" x2="205.94" y2="61.17" xlink:href="#linear-gradient-6"/>
    <linearGradient id="linear-gradient-11" x1="185.09" y1="52.76" x2="185.09" y2="116.4" xlink:href="#linear-gradient-6"/>
    <linearGradient id="linear-gradient-12" x1="196.91" y1="21" x2="201.85" y2="37.79" xlink:href="#linear-gradient-6"/>
    <linearGradient id="linear-gradient-13" x1="197.13" y1="73.57" x2="217.39" y2="53.31" xlink:href="#linear-gradient-6"/>
    <linearGradient id="linear-gradient-14" x1="188.7" y1="56.42" x2="205.94" y2="61.17" xlink:href="#linear-gradient-6"/>
    <linearGradient id="linear-gradient-15" x1="185.09" y1="52.76" x2="185.09" y2="116.4" xlink:href="#linear-gradient-6"/>
    <linearGradient id="linear-gradient-16" x1="196.91" y1="21" x2="201.85" y2="37.79" xlink:href="#linear-gradient-6"/>
    <linearGradient id="linear-gradient-17" x1="175.2" y1="11.07" x2="175.2" y2="132.23" xlink:href="#linear-gradient-6"/>
    <linearGradient id="linear-gradient-18" x1="111.12" y1="63.12" x2="111.12" y2="203.68" xlink:href="#linear-gradient"/>
    <linearGradient id="linear-gradient-19" x1="110.72" y1="108.45" x2="110.72" y2="194.81" xlink:href="#linear-gradient-2"/>
    <linearGradient id="linear-gradient-20" x1="111.51" y1="64.51" x2="111.51" y2="198.71" xlink:href="#linear-gradient-3"/>
    <linearGradient id="linear-gradient-21" x1="0" y1="129.22" x2="223" y2="129.22" xlink:href="#linear-gradient"/>
    <linearGradient id="linear-gradient-22" x1="585.69" y1="25.58" x2="597.39" y2="54.21" gradientTransform="translate(-449.3 154.84) rotate(-3.28)" gradientUnits="userSpaceOnUse">
      <stop offset="0" stop-color="#8be0ef"/>
      <stop offset=".1" stop-color="#84dced"/>
      <stop offset=".24" stop-color="#71d0e8"/>
      <stop offset=".41" stop-color="#52bee1"/>
      <stop offset=".6" stop-color="#27a5d6"/>
      <stop offset=".75" stop-color="#008fcd"/>
      <stop offset=".87" stop-color="#107eb6"/>
      <stop offset="1" stop-color="#276898"/>
    </linearGradient>
    <linearGradient id="linear-gradient-23" x1="585.27" y1="25.77" x2="596.99" y2="54.42" xlink:href="#linear-gradient-22"/>
    <linearGradient id="linear-gradient-24" x1="493.62" y1="-359.78" x2="503.49" y2="-335.63" gradientTransform="translate(-432.73 426.45) rotate(8.09)" xlink:href="#linear-gradient-22"/>
    <linearGradient id="linear-gradient-25" x1="493.27" y1="-359.61" x2="503.15" y2="-335.46" gradientTransform="translate(-432.73 426.45) rotate(8.09)" xlink:href="#linear-gradient-22"/>
    <linearGradient id="linear-gradient-26" x1="570.46" y1="153.02" x2="582.87" y2="183.38" gradientTransform="translate(-463.95 84.17) rotate(-6.36)" xlink:href="#linear-gradient-22"/>
    <linearGradient id="linear-gradient-27" x1="570.02" y1="153.23" x2="582.44" y2="183.6" gradientTransform="translate(-463.95 84.17) rotate(-6.36)" xlink:href="#linear-gradient-22"/>
    <linearGradient id="linear-gradient-28" x1="594.07" y1="331.22" x2="607.89" y2="365.01" gradientTransform="translate(-495.45 -23.15) rotate(-11.14)" xlink:href="#linear-gradient-22"/>
    <linearGradient id="linear-gradient-29" x1="593.59" y1="331.45" x2="607.41" y2="365.25" gradientTransform="translate(-495.45 -23.15) rotate(-11.14)" xlink:href="#linear-gradient-22"/>
    <linearGradient id="linear-gradient-30" x1="734.99" y1="275" x2="689.76" y2="201.38" gradientTransform="translate(-449.3 154.84) rotate(-3.28)" xlink:href="#linear-gradient-22"/>
    <linearGradient id="linear-gradient-31" x1="734.26" y1="275.43" x2="689.03" y2="201.82" gradientTransform="translate(-449.3 154.84) rotate(-3.28)" xlink:href="#linear-gradient-22"/>
    <linearGradient id="linear-gradient-32" x1="624.09" y1="-142.02" x2="578.86" y2="-215.62" gradientTransform="translate(-432.73 426.45) rotate(8.09)" xlink:href="#linear-gradient-22"/>
    <linearGradient id="linear-gradient-33" x1="623.49" y1="-141.63" x2="578.26" y2="-215.24" gradientTransform="translate(-432.73 426.45) rotate(8.09)" xlink:href="#linear-gradient-22"/>
    <linearGradient id="linear-gradient-34" x1="720.85" y1="404.58" x2="675.62" y2="330.98" gradientTransform="translate(-463.95 84.17) rotate(-6.36)" xlink:href="#linear-gradient-22"/>
    <linearGradient id="linear-gradient-35" x1="720.09" y1="405.07" x2="674.86" y2="331.46" gradientTransform="translate(-463.95 84.17) rotate(-6.36)" xlink:href="#linear-gradient-22"/>
    <linearGradient id="linear-gradient-36" x1="737.8" y1="572.72" x2="692.58" y2="499.12" gradientTransform="translate(-495.45 -23.15) rotate(-11.14)" xlink:href="#linear-gradient-22"/>
    <linearGradient id="linear-gradient-37" x1="736.97" y1="573.27" x2="691.74" y2="499.66" gradientTransform="translate(-495.45 -23.15) rotate(-11.14)" xlink:href="#linear-gradient-22"/>
    <linearGradient id="linear-gradient-38" x1="263.31" y1="-348.63" x2="276.54" y2="-316.27" gradientTransform="translate(-216.73 498.81) rotate(4.82)" xlink:href="#linear-gradient-22"/>
    <linearGradient id="linear-gradient-39" x1="262.85" y1="-348.41" x2="276.09" y2="-316.04" gradientTransform="translate(-216.73 498.81) rotate(4.82)" xlink:href="#linear-gradient-22"/>
    <linearGradient id="linear-gradient-40" x1="331.79" y1="-194.4" x2="346.51" y2="-158.4" gradientTransform="translate(-226.97 388.81) rotate(.04)" xlink:href="#linear-gradient-22"/>
    <linearGradient id="linear-gradient-41" x1="331.28" y1="-194.16" x2="346" y2="-158.14" gradientTransform="translate(-226.97 388.81) rotate(.04)" xlink:href="#linear-gradient-22"/>
  </defs>
  <g class="cls-31">
    <g id="_레이어_2" data-name="레이어 2">
      <g id="Layer_1" data-name="Layer 1">
        <g>
          <g>
            <g>
              <g>
                <g>
                  <path class="cls-45" d="m77.49,78.2s-1.97-28.94,31.32-37.26c33.29-8.32,52.18,14.09,52.18,14.09,0,0,7.05-8.96,18.25-4.48,11.21,4.48,10.85,13.87,10.85,13.87,0,0,12.2-5.86,25.01,4.06,12.81,9.93,12.48,19.53,12.48,19.53,0,0,21.13,8.65,18.25,29.13-2.88,20.49-25.54,16.73-28.42,9.69-.32,6.73-14.16,22.97-37.53,10.16-8.64,13.77-32.01,22.09-48.34,17.93-16.33-4.16-20.96-9.84-20.96-9.84,0,0-16.08,12.3-39.23-5.21-18.77-14.2-8-31.06-8-31.06,0,0-12.58-11.28-4.58-24.98,4.69-8.03,18.71-5.63,18.71-5.63Z"/>
                  <path class="cls-9" d="m158.97,101.99c-38.17,7.06-67.07-9.82-84.44-24.98-3.86-.29-12.51-.18-16.1,5.97-8.01,13.7,4.58,24.98,4.58,24.98,0,0-10.78,16.86,8,31.06,23.15,17.52,39.28,5.69,39.28,5.69,0,0,4.58,5.2,20.91,9.36,16.33,4.16,39.7-4.16,48.35-17.93,23.37,12.81,37.2-3.44,37.52-10.16,2.88,7.04,25.54,10.8,28.42-9.69.3-2.15.33-4.17.15-6.06-20.92-11.76-48.96-15.2-86.68-8.23Z"/>
                  <path class="cls-44" d="m228.68,87.28c-.23-2.68-1.85-11.04-12.87-19.58-4.85-3.76-10.16-5.66-15.77-5.66-2.6,0-4.84.42-6.58.9-.01,0-.02,0-.03,0-.76.17-1.46.39-2.12.64-.52-3.41-2.67-10.37-11.45-13.88-2.21-.88-4.45-1.33-6.63-1.33-6,0-10.17,3.31-11.97,5.1-3.53-3.64-16.42-15.24-37.39-15.24-4.82,0-9.8.64-14.78,1.89-27.96,6.99-32.34,26.16-31.75,36.96h0c-5.39-.86-15.56.77-18.77,6.26-7.2,12.33,1.43,22.89,4.08,25.68-1.95,3.81-8.1,18.9,8.75,31.65,8.31,6.28,16.63,9.46,24.75,9.46,7.49,0,12.64-2.73,14.68-4.04,1.99,1.89,7.86,6.43,20.84,9.75,2.89.73,6.04,1.11,9.37,1.11,15.4,0,32.05-7.88,39.41-18.49,5.63,2.92,11.08,4.4,16.21,4.4,11.51,0,20.37-8.36,20.94-14.41,1.27,3.74,7.19,4.77,11.81,4.77,7.55,0,15.71-3.86,17.42-15.97,2.65-18.84-14.33-28.12-18.15-29.97Zm15.64,29.61c-1.86,13.22-12.26,14.24-15.41,14.24-4.77,0-9.81-.74-12.3-6.98.32,1.83-.4,4.25-1.35,6.2-2.4,4.55-9.33,9.96-18.59,9.96-4.82,0-9.98-1.46-15.35-4.29.62-1.98,1.2-4.96,1.42-9.48-1.41,4.55-2.44,7.31-3.87,9.72-6.6,10.36-22.81,18.15-37.81,18.15-3.12,0-6.06-.35-8.75-1.03-9.59-2.45-14.54-5.07-16.92-6.73,0,0,0,0,0,0-3.83-3.23-6.03-5.29-9.32-11.91,1.37,4.85,2.71,7.85,3.86,9.71-1.89.96-6.94,3.14-13.76,3.14-7.55,0-15.36-3-23.21-8.95-15.12-11.43-10.1-24.44-8.21-28.15,0,0,0,0,0,0,2.81-4.46,4.03-5.34,5.58-6.3-2.88.85-4.72,2.15-5.8,3.1-2.25-2.33-10.13-11.74-3.74-22.67,2.6-4.45,8.32-5.39,12.65-5.39,2.29,0,3.93.28,3.95.28l.56.1c.83,3.21,2.35,7.2,2.27,6.95-.65-2.63-1.12-5.42-1.34-8.12v-.24c-.02-.28-.86-27.69,30.84-35.62,4.8-1.19,9.56-1.8,14.17-1.8,20.85,0,34.55,13.31,37.13,16.04.13.14.26.29.39.43.04.03.05.05.06.06h0c2.1,2.34,4.05,5.15,6,9.35-1.44-5.19-3.28-8.7-4.8-10.95,1.16-1.25,4.96-4.78,10.59-4.78,1.85,0,3.77.39,5.68,1.16,8.07,3.23,10.29,9.71,10.86,12.22-1.57.83-2.97,1.94-4.51,3.3,2.63-1.49,4.7-2.27,4.7-2.27.04-.02,4.78-1.31,10.17-1.31,5.04,0,9.72,2.29,14.1,5.69,9.44,7.31,11.39,14.42,11.81,17.16-3.72-.7-10.39-1.4-17.16.61,4.85-1.12,13.12-.05,18.26,1.9,2.03.9,19.72,9.35,17.17,27.51Z"/>
                </g>
                <path class="cls-32" d="m225.06,90.34c-3.69-.98-10.38-1.4-17.16.61,4.85-1.12,13.12-.05,18.26,1.9,1.83.82,16.47,7.8,17.37,22.56.87-16.62-15.43-24.41-17.37-25.27-.38-.15-.79-.29-1.21-.42.04.23,0,0,.11.63Z"/>
                <path class="cls-32" d="m173.15,54.95c1.71,0,3.47.36,5.24,1.07,5.71,2.29,8.9,5.95,9.99,8.75.22-.13.44-.27.66-.39-.53-2.31-3.23-7.89-10.65-10.86-1.77-.71-3.53-1.07-5.24-1.07-5.18,0-8.32,2.89-9.3,3.94.31.46.61,1.08.95,1.66,1.62-1.42,4.24-3.1,8.35-3.1Z"/>
                <path class="cls-32" d="m80.07,78.21c.01.16.04.33.05.49.46-6.27,3.96-26.14,29.85-32.61,4.64-1.15,9.26-1.75,13.73-1.75,20.21,0,33.49,12.9,35.99,15.54.12.14.26.27.38.41.04.03.06.05.06.06h0c2.04,2.26,4.22,4.47,6.56,8.71-1.57-4.63-2.89-6.62-4.43-8.71-.7-.96-1.41-1.84-2.13-2.64h0s-.02-.02-.06-.06c-.12-.14-.25-.28-.38-.41-2.5-2.64-15.78-15.54-35.99-15.54-4.47,0-9.09.59-13.73,1.75-30.73,7.69-29.92,34.25-29.91,34.52v.23Z"/>
                <path class="cls-32" d="m214.1,71.06c-4.2-3.25-8.36-5.1-13.47-5.44,0,0-8.86-.71-14.93,3.96,2.52-1.43,6.8-1.57,6.8-1.57.04-.02,3.21-.83,8.33-.26,4.51.51,9.08,2.65,13.28,5.9,5.58,4.32,8.41,8.57,9.87,11.8.35.03.68.08,1.01.15-.92-3.28-3.52-8.85-10.87-14.55Z"/>
                <path class="cls-35" d="m228.67,87.28c-.23-2.68-1.85-11.04-12.87-19.58-4.85-3.76-10.16-5.66-15.77-5.66-2.6,0-4.84.42-6.59.9,0,0-.02,0-.03,0-.76.17-1.45.39-2.11.64-.52-3.41-2.67-10.37-11.45-13.88-2.21-.88-4.45-1.33-6.63-1.33-6,0-10.17,3.31-11.97,5.1-3.54-3.64-16.42-15.24-37.39-15.24-4.82,0-9.8.64-14.79,1.89-23.12,5.78-30.1,19.88-31.51,30.7-.59,2.77-.75,4.97-.78,6.19-1.27-.16-2.76-.19-4.35-.08-4.32-.02-10.97.84-14.02,6.05-2.03,3.47-2.73,6.78-2.66,9.79-.19,7.82,4.69,13.92,6.72,16.1-.89,1.74-2.64,5.81-2.55,10.93-.11,6.16,2.19,13.87,11.45,20.87,8.3,6.28,16.63,9.46,24.75,9.46,7.5,0,12.64-2.73,14.68-4.04,1.99,1.89,7.86,6.43,20.84,9.75,2.88.73,6.04,1.11,9.37,1.11,15.39,0,32.05-7.88,39.41-18.49,5.63,2.92,11.08,4.4,16.21,4.4,11.51,0,20.38-8.36,20.94-14.41,1.27,3.74,7.19,4.77,11.82,4.77,7.55,0,15.71-3.86,17.41-15.97,2.66-18.84-14.33-28.12-18.15-29.97Z"/>
              </g>
              <g class="cls-7">
                <g>
                  <path class="cls-45" d="m77.49,78.2s-1.97-28.94,31.32-37.26c33.29-8.32,52.18,14.09,52.18,14.09,0,0,7.05-8.96,18.25-4.48,11.21,4.48,10.85,13.87,10.85,13.87,0,0,12.2-5.86,25.01,4.06,12.81,9.93,12.48,19.53,12.48,19.53,0,0,21.13,8.65,18.25,29.13-2.88,20.49-25.54,16.73-28.42,9.69-.32,6.73-14.16,22.97-37.53,10.16-8.64,13.77-32.01,22.09-48.34,17.93-16.33-4.16-20.96-9.84-20.96-9.84,0,0-16.08,12.3-39.23-5.21-18.77-14.2-8-31.06-8-31.06,0,0-12.58-11.28-4.58-24.98,4.69-8.03,18.71-5.63,18.71-5.63Z"/>
                  <path class="cls-9" d="m158.97,101.99c-38.17,7.06-67.07-9.82-84.44-24.98-3.86-.29-12.51-.18-16.1,5.97-8.01,13.7,4.58,24.98,4.58,24.98,0,0-10.78,16.86,8,31.06,23.15,17.52,39.28,5.69,39.28,5.69,0,0,4.58,5.2,20.91,9.36,16.33,4.16,39.7-4.16,48.35-17.93,23.37,12.81,37.2-3.44,37.52-10.16,2.88,7.04,25.54,10.8,28.42-9.69.3-2.15.33-4.17.15-6.06-20.92-11.76-48.96-15.2-86.68-8.23Z"/>
                  <path class="cls-44" d="m228.68,87.28c-.23-2.68-1.85-11.04-12.87-19.58-4.85-3.76-10.16-5.66-15.77-5.66-2.6,0-4.84.42-6.58.9-.01,0-.02,0-.03,0-.76.17-1.46.39-2.12.64-.52-3.41-2.67-10.37-11.45-13.88-2.21-.88-4.45-1.33-6.63-1.33-6,0-10.17,3.31-11.97,5.1-3.53-3.64-16.42-15.24-37.39-15.24-4.82,0-9.8.64-14.78,1.89-27.96,6.99-32.34,26.16-31.75,36.96h0c-5.39-.86-15.56.77-18.77,6.26-7.2,12.33,1.43,22.89,4.08,25.68-1.95,3.81-8.1,18.9,8.75,31.65,8.31,6.28,16.63,9.46,24.75,9.46,7.49,0,12.64-2.73,14.68-4.04,1.99,1.89,7.86,6.43,20.84,9.75,2.89.73,6.04,1.11,9.37,1.11,15.4,0,32.05-7.88,39.41-18.49,5.63,2.92,11.08,4.4,16.21,4.4,11.51,0,20.37-8.36,20.94-14.41,1.27,3.74,7.19,4.77,11.81,4.77,7.55,0,15.71-3.86,17.42-15.97,2.65-18.84-14.33-28.12-18.15-29.97Zm15.64,29.61c-1.86,13.22-12.26,14.24-15.41,14.24-4.77,0-9.81-.74-12.3-6.98.32,1.83-.4,4.25-1.35,6.2-2.4,4.55-9.33,9.96-18.59,9.96-4.82,0-9.98-1.46-15.35-4.29.62-1.98,1.2-4.96,1.42-9.48-1.41,4.55-2.44,7.31-3.87,9.72-6.6,10.36-22.81,18.15-37.81,18.15-3.12,0-6.06-.35-8.75-1.03-9.59-2.45-14.54-5.07-16.92-6.73,0,0,0,0,0,0-3.83-3.23-6.03-5.29-9.32-11.91,1.37,4.85,2.71,7.85,3.86,9.71-1.89.96-6.94,3.14-13.76,3.14-7.55,0-15.36-3-23.21-8.95-15.12-11.43-10.1-24.44-8.21-28.15,0,0,0,0,0,0,2.81-4.46,4.03-5.34,5.58-6.3-2.88.85-4.72,2.15-5.8,3.1-2.25-2.33-10.13-11.74-3.74-22.67,2.6-4.45,8.32-5.39,12.65-5.39,2.29,0,3.93.28,3.95.28l.56.1c.83,3.21,2.35,7.2,2.27,6.95-.65-2.63-1.12-5.42-1.34-8.12v-.24c-.02-.28-.86-27.69,30.84-35.62,4.8-1.19,9.56-1.8,14.17-1.8,20.85,0,34.55,13.31,37.13,16.04.13.14.26.29.39.43.04.03.05.05.06.06h0c2.1,2.34,4.05,5.15,6,9.35-1.44-5.19-3.28-8.7-4.8-10.95,1.16-1.25,4.96-4.78,10.59-4.78,1.85,0,3.77.39,5.68,1.16,8.07,3.23,10.29,9.71,10.86,12.22-1.57.83-2.97,1.94-4.51,3.3,2.63-1.49,4.7-2.27,4.7-2.27.04-.02,4.78-1.31,10.17-1.31,5.04,0,9.72,2.29,14.1,5.69,9.44,7.31,11.39,14.42,11.81,17.16-3.72-.7-10.39-1.4-17.16.61,4.85-1.12,13.12-.05,18.26,1.9,2.03.9,19.72,9.35,17.17,27.51Z"/>
                </g>
                <path class="cls-32" d="m225.06,90.34c-3.69-.98-10.38-1.4-17.16.61,4.85-1.12,13.12-.05,18.26,1.9,1.83.82,16.47,7.8,17.37,22.56.87-16.62-15.43-24.41-17.37-25.27-.38-.15-.79-.29-1.21-.42.04.23,0,0,.11.63Z"/>
                <path class="cls-32" d="m173.15,54.95c1.71,0,3.47.36,5.24,1.07,5.71,2.29,8.9,5.95,9.99,8.75.22-.13.44-.27.66-.39-.53-2.31-3.23-7.89-10.65-10.86-1.77-.71-3.53-1.07-5.24-1.07-5.18,0-8.32,2.89-9.3,3.94.31.46.61,1.08.95,1.66,1.62-1.42,4.24-3.1,8.35-3.1Z"/>
                <path class="cls-32" d="m80.07,78.21c.01.16.04.33.05.49.46-6.27,3.96-26.14,29.85-32.61,4.64-1.15,9.26-1.75,13.73-1.75,20.21,0,33.49,12.9,35.99,15.54.12.14.26.27.38.41.04.03.06.05.06.06h0c2.04,2.26,4.22,4.47,6.56,8.71-1.57-4.63-2.89-6.62-4.43-8.71-.7-.96-1.41-1.84-2.13-2.64h0s-.02-.02-.06-.06c-.12-.14-.25-.28-.38-.41-2.5-2.64-15.78-15.54-35.99-15.54-4.47,0-9.09.59-13.73,1.75-30.73,7.69-29.92,34.25-29.91,34.52v.23Z"/>
                <path class="cls-32" d="m214.1,71.06c-4.2-3.25-8.36-5.1-13.47-5.44,0,0-8.86-.71-14.93,3.96,2.52-1.43,6.8-1.57,6.8-1.57.04-.02,3.21-.83,8.33-.26,4.51.51,9.08,2.65,13.28,5.9,5.58,4.32,8.41,8.57,9.87,11.8.35.03.68.08,1.01.15-.92-3.28-3.52-8.85-10.87-14.55Z"/>
                <path class="cls-36" d="m228.67,87.28c-.23-2.68-1.85-11.04-12.87-19.58-4.85-3.76-10.16-5.66-15.77-5.66-2.6,0-4.84.42-6.59.9,0,0-.02,0-.03,0-.76.17-1.45.39-2.11.64-.52-3.41-2.67-10.37-11.45-13.88-2.21-.88-4.45-1.33-6.63-1.33-6,0-10.17,3.31-11.97,5.1-3.54-3.64-16.42-15.24-37.39-15.24-4.82,0-9.8.64-14.79,1.89-23.12,5.78-30.1,19.88-31.51,30.7-.59,2.77-.75,4.97-.78,6.19-1.27-.16-2.76-.19-4.35-.08-4.32-.02-10.97.84-14.02,6.05-2.03,3.47-2.73,6.78-2.66,9.79-.19,7.82,4.69,13.92,6.72,16.1-.89,1.74-2.64,5.81-2.55,10.93-.11,6.16,2.19,13.87,11.45,20.87,8.3,6.28,16.63,9.46,24.75,9.46,7.5,0,12.64-2.73,14.68-4.04,1.99,1.89,7.86,6.43,20.84,9.75,2.88.73,6.04,1.11,9.37,1.11,15.39,0,32.05-7.88,39.41-18.49,5.63,2.92,11.08,4.4,16.21,4.4,11.51,0,20.38-8.36,20.94-14.41,1.27,3.74,7.19,4.77,11.82,4.77,7.55,0,15.71-3.86,17.41-15.97,2.66-18.84-14.33-28.12-18.15-29.97Z"/>
              </g>
            </g>
            <g>
              <polygon class="cls-27" points="187.9 46.06 178.71 51.75 181.42 41.35 173.03 33.94 183.89 33.72 187.9 23.71 191.91 33.72 202.5 34.22 194.39 41.35 196.81 51.75 187.9 46.06"/>
              <polygon class="cls-26" points="204.26 62.79 199.52 57.56 206.51 58.06 210.26 51.79 211.69 58.73 218.6 60.1 212.65 63.87 213.6 70.72 208.07 66.38 201.69 69.16 204.26 62.79"/>
              <path class="cls-48" d="m214.19,99.12c-27.37,0-49.55-22.19-49.55-49.56,0-21.49,13.7-39.73,32.82-46.6-21.79-6.84-46.51-1.81-64,15.26-25.33,24.72-25.83,65.3-1.1,90.64,24.71,25.32,65.28,25.82,90.62,1.1,4.71-4.59,8.54-9.73,11.53-15.22-6.21,2.79-13.07,4.39-20.32,4.39Z"/>
              <g class="cls-6">
                <path class="cls-12" d="m226.79,97.48c-.25.06-.86.22-1.11.28-1.92,2.63-4.01,5.55-6.39,7.87-10.9,10.64-25.29,16.5-40.53,16.5s-30.52-6.22-41.54-17.5c-22.34-22.9-21.89-59.72,1.01-82.08,10.91-10.64,25.3-16.49,40.53-16.49,3.89,0,6.46.15,10.19.89,1.31-.84,2.65-1.61,4.07-2.23-5-1.3-8.94-1.8-14.26-1.8-16.06,0-31.23,6.17-42.72,17.39-24.14,23.56-24.62,62.38-1.06,86.53,11.62,11.89,27.16,18.44,43.79,18.44s31.23-6.18,42.73-17.39c3.57-3.48,6.6-7.36,9.17-11.48-1.37.64-2.43.68-3.88,1.09Z"/>
              </g>
              <path class="cls-39" d="m193.06,57.23c0,.77-.63,1.4-1.4,1.4s-1.4-.63-1.4-1.4.63-1.4,1.4-1.4,1.4.63,1.4,1.4Z"/>
              <path class="cls-34" d="m186.49,70.72c0,.77-.62,1.4-1.39,1.4s-1.4-.63-1.4-1.4.63-1.4,1.4-1.4,1.39.63,1.39,1.4Z"/>
              <path class="cls-49" d="m199.52,25.1c0,.77-.63,1.4-1.4,1.4s-1.4-.63-1.4-1.4.63-1.4,1.4-1.4,1.4.63,1.4,1.4Z"/>
              <g>
                <polygon class="cls-5" points="187.9 46.06 178.71 51.75 181.42 41.35 173.03 33.94 183.89 33.72 187.9 23.71 191.91 33.72 202.5 34.22 194.39 41.35 196.81 51.75 187.9 46.06"/>
                <polygon class="cls-4" points="204.26 62.79 199.52 57.56 206.51 58.06 210.26 51.79 211.69 58.73 218.6 60.1 212.65 63.87 213.6 70.72 208.07 66.38 201.69 69.16 204.26 62.79"/>
                <path class="cls-19" d="m193.06,57.23c0,.77-.63,1.4-1.4,1.4s-1.4-.63-1.4-1.4.63-1.4,1.4-1.4,1.4.63,1.4,1.4Z"/>
                <path class="cls-10" d="m186.49,70.72c0,.77-.62,1.4-1.39,1.4s-1.4-.63-1.4-1.4.63-1.4,1.4-1.4,1.39.63,1.39,1.4Z"/>
                <path class="cls-15" d="m199.52,25.1c0,.77-.63,1.4-1.4,1.4s-1.4-.63-1.4-1.4.63-1.4,1.4-1.4,1.4.63,1.4,1.4Z"/>
              </g>
              <path class="cls-8" d="m115.88,78.95c2.59,10.92,8.08,21.29,16.48,29.9,24.71,25.32,65.28,25.82,90.62,1.1,4.71-4.59,8.54-9.73,11.53-15.22-6.21,2.79-13.07,4.39-20.32,4.39-9.46,0-18.3-2.66-25.82-7.26-2.75.4-5.56.84-8.44,1.37-27.02,5-48.72-3.74-64.05-14.28Z"/>
            </g>
            <g>
              <g>
                <path class="cls-24" d="m25.32,106.61s-2.3-33.73,36.51-43.43c38.8-9.7,60.82,16.42,60.82,16.42,0,0,8.21-10.45,21.27-5.23,13.06,5.23,12.65,16.17,12.65,16.17,0,0,14.22-6.83,29.14,4.73,14.93,11.57,14.55,22.76,14.55,22.76,0,0,24.63,10.07,21.27,33.95-3.36,23.88-29.77,19.5-33.12,11.29-.38,7.84-16.5,26.77-43.74,11.84-10.07,16.04-37.32,25.75-56.34,20.89-19.03-4.85-24.43-11.46-24.43-11.46,0,0-18.73,14.34-45.72-6.07-21.88-16.54-9.33-36.2-9.33-36.2,0,0-14.67-13.14-5.34-29.11,5.47-9.36,21.82-6.57,21.82-6.57Z"/>
                <path class="cls-21" d="m120.29,134.34c-44.49,8.23-78.16-11.45-98.41-29.12-4.5-.34-14.58-.21-18.77,6.96-9.33,15.97,5.33,29.11,5.33,29.11,0,0-12.55,19.65,9.33,36.2,26.99,20.41,45.79,6.64,45.79,6.64,0,0,5.33,6.05,24.37,10.9,19.03,4.85,46.26-4.85,56.34-20.89,27.24,14.93,43.37-4.01,43.74-11.84,3.35,8.21,29.76,12.59,33.12-11.3.35-2.51.38-4.86.18-7.06-24.37-13.7-57.06-17.72-101.03-9.59Z"/>
                <path class="cls-30" d="m201.53,117.2c-.27-3.12-2.16-12.87-15-22.82-5.65-4.38-11.84-6.6-18.38-6.6-3.03,0-5.64.49-7.68,1.05,0,0-.01,0-.03,0-.89.2-1.7.45-2.47.75-.6-3.97-3.12-12.09-13.34-16.18-2.58-1.03-5.19-1.56-7.72-1.56-6.99,0-11.85,3.87-13.95,5.94-4.12-4.24-19.14-17.76-43.58-17.76-5.61,0-11.42.74-17.23,2.19-32.59,8.15-37.68,30.5-37.01,43.07h0c-6.27-1-18.13.9-21.87,7.3-8.39,14.37,1.67,26.67,4.75,29.94-2.27,4.45-9.43,22.03,10.21,36.89,9.67,7.32,19.38,11.03,28.84,11.03,8.73,0,14.73-3.18,17.1-4.71,2.32,2.21,9.16,7.5,24.3,11.36,3.36.86,7.04,1.29,10.92,1.29,17.94,0,37.36-9.19,45.92-21.55,6.56,3.4,12.91,5.12,18.89,5.12,13.42,0,23.75-9.75,24.41-16.79,1.48,4.36,8.38,5.56,13.77,5.56,8.79,0,18.31-4.5,20.3-18.62,3.09-21.95-16.7-32.78-21.16-34.93Zm18.23,34.51c-2.17,15.4-14.29,16.6-17.96,16.6-5.56,0-11.45-.87-14.34-8.14.37,2.13-.46,4.95-1.58,7.23-2.79,5.29-10.86,11.6-21.67,11.6-5.62,0-11.63-1.69-17.89-5,.73-2.31,1.4-5.79,1.65-11.05-1.65,5.3-2.85,8.52-4.52,11.32-7.69,12.07-26.58,21.16-44.06,21.16-3.64,0-7.07-.4-10.19-1.2-11.18-2.85-16.95-5.91-19.73-7.85,0,0,0,0,0,0-4.46-3.77-7.02-6.16-10.86-13.88,1.6,5.65,3.16,9.15,4.51,11.32-2.21,1.12-8.09,3.66-16.04,3.66-8.8,0-17.9-3.5-27.04-10.42-17.62-13.32-11.77-28.48-9.57-32.8h0c3.28-5.21,4.7-6.23,6.5-7.35-3.35,1-5.51,2.5-6.76,3.62-2.61-2.72-11.81-13.68-4.36-26.43,3.04-5.19,9.7-6.28,14.75-6.28,2.66,0,4.59.33,4.59.33l.67.11c.97,3.75,2.73,8.38,2.64,8.1-.76-3.07-1.29-6.31-1.56-9.47l-.02-.27c0-.33-.99-32.27,35.97-41.52,5.58-1.39,11.13-2.1,16.51-2.1,24.3,0,40.26,15.51,43.27,18.69.15.17.31.33.46.5.04.04.06.06.06.07h0c2.45,2.72,4.73,6,6.99,10.9-1.68-6.06-3.82-10.14-5.6-12.77,1.36-1.46,5.78-5.57,12.34-5.57,2.16,0,4.39.45,6.62,1.34,9.41,3.76,11.99,11.32,12.65,14.24-1.83.97-3.46,2.26-5.25,3.85,3.07-1.74,5.48-2.64,5.48-2.64.04-.02,5.57-1.53,11.86-1.53,5.87,0,11.32,2.67,16.44,6.64,10.99,8.52,13.28,16.81,13.75,20-4.34-.81-12.1-1.63-20,.71,5.65-1.3,15.28-.05,21.27,2.21,2.36,1.05,22.99,10.9,20.01,32.06Z"/>
              </g>
              <path class="cls-32" d="m197.31,120.77c-4.31-1.14-12.1-1.63-20,.71,5.65-1.3,15.28-.06,21.28,2.21,2.13.95,19.19,9.09,20.24,26.29,1.02-19.36-17.98-28.45-20.24-29.46-.45-.17-.93-.33-1.41-.49.05.27,0,0,.13.74Z"/>
              <path class="cls-32" d="m136.81,79.52c1.99,0,4.04.41,6.1,1.24,6.66,2.66,10.37,6.93,11.65,10.2.26-.16.5-.31.77-.45-.61-2.7-3.76-9.2-12.42-12.66-2.06-.82-4.11-1.24-6.1-1.24-6.04,0-9.69,3.37-10.84,4.59.36.54.72,1.27,1.1,1.94,1.89-1.65,4.94-3.62,9.73-3.62Z"/>
              <path class="cls-32" d="m28.33,106.63c.01.19.04.38.06.58.53-7.3,4.61-30.46,34.78-38.01,5.4-1.35,10.79-2.04,16-2.04,23.56,0,39.03,15.04,41.95,18.12.15.16.29.32.45.48.03.04.05.06.06.07h0c2.37,2.64,4.92,5.21,7.64,10.15-1.83-5.39-3.37-7.72-5.16-10.14-.81-1.12-1.64-2.14-2.48-3.08h0s-.03-.03-.06-.07c-.15-.16-.29-.32-.45-.49-2.92-3.08-18.39-18.11-41.95-18.11-5.21,0-10.6.69-16,2.04-35.82,8.96-34.87,39.92-34.86,40.24v.27Z"/>
              <path class="cls-32" d="m184.54,98.29c-4.89-3.78-9.74-5.94-15.69-6.34,0,0-10.33-.82-17.4,4.62,2.93-1.66,7.92-1.83,7.92-1.83.04-.02,3.73-.97,9.7-.3,5.27.59,10.59,3.09,15.48,6.87,6.5,5.04,9.81,9.99,11.5,13.76.4.03.8.09,1.17.17-1.07-3.82-4.1-10.31-12.67-16.96Z"/>
              <path class="cls-37" d="m201.52,117.2c-.27-3.12-2.16-12.87-14.99-22.82-5.65-4.38-11.83-6.6-18.38-6.6-3.03,0-5.64.49-7.67,1.05-.01,0-.02,0-.03,0-.88.2-1.69.45-2.46.75-.61-3.97-3.12-12.09-13.34-16.18-2.59-1.03-5.19-1.56-7.74-1.56-6.98,0-11.84,3.87-13.94,5.94-4.12-4.24-19.14-17.76-43.57-17.76-5.62,0-11.42.74-17.23,2.19-26.94,6.74-35.09,23.17-36.72,35.78-.69,3.23-.87,5.79-.92,7.22-1.49-.18-3.21-.22-5.07-.09-5.03-.03-12.79.98-16.34,7.05C.74,116.22-.08,120.08.01,123.59c-.23,9.12,5.47,16.22,7.84,18.77-1.05,2.02-3.09,6.77-2.98,12.74-.14,7.18,2.55,16.17,13.35,24.33,9.67,7.32,19.38,11.03,28.84,11.03,8.73,0,14.73-3.18,17.1-4.71,2.32,2.21,9.16,7.5,24.3,11.36,3.36.86,7.04,1.29,10.93,1.29,17.94,0,37.36-9.19,45.92-21.55,6.56,3.4,12.91,5.12,18.89,5.12,13.42,0,23.76-9.75,24.41-16.79,1.48,4.36,8.38,5.56,13.77,5.56,8.79,0,18.31-4.5,20.3-18.62,3.09-21.95-16.7-32.78-21.16-34.93Z"/>
            </g>
          </g>
          <g>
            <g>
              <g>
                <g>
                  <path class="cls-43" d="m152.26,159.53s0,0-.04-.03c-.19-.18-.54-.5-1-.82-.1-.06-.15-.14-.26-.2,0,0-.02.01,0,0-.01,0-.04-.04-.05-.04-.03-.03-.08-.03-.12-.06-1.75-1.21-4.32-2.83-4.66-3.04-4.11-3.21-8.54-7.08-9.72-9.98-4.93,24.9,5.54,28.39,5.54,28.39,0,0,0-.01,0-.02,1.4.75,2.99,1.16,4.69,1.07,4.9-.29,8.64-4.49,8.37-9.4-.14-2.34-1.19-4.38-2.76-5.87Z"/>
                  <path class="cls-16" d="m146.68,172.11c-1.88.12-3.66-.36-5.21-1.18h-.02s-3.17-1.09-5.44-6.05c1.82,7.44,6.04,8.88,6.04,8.88,0,0,.01-.01,0-.03,1.41.75,3,1.16,4.7,1.07,4.57-.26,8.08-3.93,8.33-8.4-1.5,3.19-4.61,5.5-8.4,5.72Z"/>
                </g>
                <g>
                  <path class="cls-42" d="m117.25,152.8s0,0-.03-.04c-.12-.17-.37-.5-.69-.84-.07-.07-.1-.14-.17-.21,0,0-.02.01,0,0-.01-.01-.02-.04-.04-.04-.02-.03-.06-.04-.09-.07-1.24-1.29-3.1-3.05-3.35-3.29-2.86-3.33-5.88-7.27-6.38-9.86-8.21,19.77-.14,24.39-.14,24.39,0,0,.01,0,.01-.01,1.03.85,2.28,1.46,3.7,1.66,4.1.58,7.89-2.27,8.48-6.37.27-1.96-.26-3.82-1.31-5.32Z"/>
                  <path class="cls-20" d="m110.55,162.27c-1.58-.22-2.97-.9-4.12-1.84h-.02s-2.43-1.43-3.49-5.91c.27,6.45,3.52,8.34,3.52,8.34,0,0,.01,0,.01-.02,1.04.86,2.28,1.46,3.7,1.66,3.83.54,7.33-1.9,8.29-5.56-1.77,2.39-4.73,3.78-7.89,3.33Z"/>
                </g>
                <g>
                  <path class="cls-50" d="m136.96,185.62s0,0-.06-.04c-.2-.17-.59-.49-1.1-.81-.11-.06-.18-.15-.28-.2.01-.01-.02,0,0,0-.02-.01-.03-.04-.06-.05-.04-.02-.09-.03-.12-.05-1.92-1.18-4.75-2.74-5.12-2.96-4.53-3.15-9.44-7-10.86-10.01-3.79,26.65,7.48,29.75,7.48,29.75h.01c1.52.69,3.23,1.04,5.03.84,5.17-.58,8.91-5.24,8.34-10.43-.28-2.46-1.51-4.56-3.26-6.05Z"/>
                  <path class="cls-3" d="m131.77,199.25c-1.98.22-3.91-.17-5.61-.96,0,0,0,.02,0,.02,0,0-3.42-.98-6.11-6.12,2.35,7.77,6.91,9.06,6.91,9.06,0,0,.02-.01,0-.02,1.52.7,3.23,1.06,5.02.85,4.83-.54,8.34-4.63,8.34-9.37-1.4,3.46-4.58,6.08-8.56,6.53Z"/>
                </g>
                <g>
                  <path class="cls-28" d="m171.45,199.35s0-.01-.06-.04c-.24-.18-.72-.5-1.31-.8-.12-.06-.21-.14-.31-.2,0-.01-.02.02,0,0-.02,0-.05-.04-.06-.04-.05-.02-.11-.02-.16-.04-2.24-1.14-5.51-2.61-5.94-2.8-5.32-3.08-11.12-6.89-12.98-10.09-1.74,29.91,11.06,32.3,11.06,32.3l.02-.03c1.74.65,3.67.88,5.64.49,5.7-1.12,9.4-6.64,8.28-12.33-.54-2.71-2.11-4.92-4.17-6.41Z"/>
                  <path class="cls-22" d="m166.97,214.95c-2.19.43-4.34.18-6.32-.54,0,0,0,.02,0,.02,0,0-3.9-.77-7.35-6.22,3.33,8.4,8.5,9.4,8.5,9.4,0,0,0-.02,0-.02,1.76.64,3.7.87,5.66.48,5.3-1.05,8.82-5.9,8.39-11.17-1.23,3.97-4.52,7.17-8.89,8.04Z"/>
                </g>
                <g class="cls-38">
                  <path class="cls-40" d="m152.26,159.53s0,0-.04-.03c-.19-.18-.54-.5-1-.82-.1-.06-.15-.14-.26-.2,0,0-.02.01,0,0-.01,0-.04-.04-.05-.04-.03-.03-.08-.03-.12-.06-1.75-1.21-4.32-2.83-4.66-3.04-4.11-3.21-8.54-7.08-9.72-9.98-4.93,24.9,5.54,28.39,5.54,28.39,0,0,0-.01,0-.02,1.4.75,2.99,1.16,4.69,1.07,4.9-.29,8.64-4.49,8.37-9.4-.14-2.34-1.19-4.38-2.76-5.87Z"/>
                  <path class="cls-13" d="m146.68,172.11c-1.88.12-3.66-.36-5.21-1.18h-.02s-3.17-1.09-5.44-6.05c1.82,7.44,6.04,8.88,6.04,8.88,0,0,.01-.01,0-.03,1.41.75,3,1.16,4.7,1.07,4.57-.26,8.08-3.93,8.33-8.4-1.5,3.19-4.61,5.5-8.4,5.72Z"/>
                </g>
                <g class="cls-38">
                  <path class="cls-40" d="m117.25,152.8s0,0-.03-.04c-.12-.17-.37-.5-.69-.84-.07-.07-.1-.14-.17-.21,0,0-.02.01,0,0-.01-.01-.02-.04-.04-.04-.02-.03-.06-.04-.09-.07-1.24-1.29-3.1-3.05-3.35-3.29-2.86-3.33-5.88-7.27-6.38-9.86-8.21,19.77-.14,24.39-.14,24.39,0,0,.01,0,.01-.01,1.03.85,2.28,1.46,3.7,1.66,4.1.58,7.89-2.27,8.48-6.37.27-1.96-.26-3.82-1.31-5.32Z"/>
                  <path class="cls-13" d="m110.55,162.27c-1.58-.22-2.97-.9-4.12-1.84h-.02s-2.43-1.43-3.49-5.91c.27,6.45,3.52,8.34,3.52,8.34,0,0,.01,0,.01-.02,1.04.86,2.28,1.46,3.7,1.66,3.83.54,7.33-1.9,8.29-5.56-1.77,2.39-4.73,3.78-7.89,3.33Z"/>
                </g>
                <g class="cls-38">
                  <path class="cls-40" d="m136.96,185.62s0,0-.06-.04c-.2-.17-.59-.49-1.1-.81-.11-.06-.18-.15-.28-.2.01-.01-.02,0,0,0-.02-.01-.03-.04-.06-.05-.04-.02-.09-.03-.12-.05-1.92-1.18-4.75-2.74-5.12-2.96-4.53-3.15-9.44-7-10.86-10.01-3.79,26.65,7.48,29.75,7.48,29.75h.01c1.52.69,3.23,1.04,5.03.84,5.17-.58,8.91-5.24,8.34-10.43-.28-2.46-1.51-4.56-3.26-6.05Z"/>
                  <path class="cls-13" d="m131.77,199.25c-1.98.22-3.91-.17-5.61-.96,0,0,0,.02,0,.02,0,0-3.42-.98-6.11-6.12,2.35,7.77,6.91,9.06,6.91,9.06,0,0,.02-.01,0-.02,1.52.7,3.23,1.06,5.02.85,4.83-.54,8.34-4.63,8.34-9.37-1.4,3.46-4.58,6.08-8.56,6.53Z"/>
                </g>
                <g class="cls-38">
                  <path class="cls-40" d="m171.45,199.35s0-.01-.06-.04c-.24-.18-.72-.5-1.31-.8-.12-.06-.21-.14-.31-.2,0-.01-.02.02,0,0-.02,0-.05-.04-.06-.04-.05-.02-.11-.02-.16-.04-2.24-1.14-5.51-2.61-5.94-2.8-5.32-3.08-11.12-6.89-12.98-10.09-1.74,29.91,11.06,32.3,11.06,32.3l.02-.03c1.74.65,3.67.88,5.64.49,5.7-1.12,9.4-6.64,8.28-12.33-.54-2.71-2.11-4.92-4.17-6.41Z"/>
                  <path class="cls-13" d="m166.97,214.95c-2.19.43-4.34.18-6.32-.54,0,0,0,.02,0,.02,0,0-3.9-.77-7.35-6.22,3.33,8.4,8.5,9.4,8.5,9.4,0,0,0-.02,0-.02,1.76.64,3.7.87,5.66.48,5.3-1.05,8.82-5.9,8.39-11.17-1.23,3.97-4.52,7.17-8.89,8.04Z"/>
                </g>
              </g>
              <g class="cls-14">
                <g>
                  <path class="cls-47" d="m152.26,159.53s0,0-.04-.03c-.19-.18-.54-.5-1-.82-.1-.06-.15-.14-.26-.2,0,0-.02.01,0,0-.01,0-.04-.04-.05-.04-.03-.03-.08-.03-.12-.06-1.75-1.21-4.32-2.83-4.66-3.04-4.11-3.21-8.54-7.08-9.72-9.98-4.93,24.9,5.54,28.39,5.54,28.39,0,0,0-.01,0-.02,1.4.75,2.99,1.16,4.69,1.07,4.9-.29,8.64-4.49,8.37-9.4-.14-2.34-1.19-4.38-2.76-5.87Z"/>
                  <path class="cls-2" d="m146.68,172.11c-1.88.12-3.66-.36-5.21-1.18h-.02s-3.17-1.09-5.44-6.05c1.82,7.44,6.04,8.88,6.04,8.88,0,0,.01-.01,0-.03,1.41.75,3,1.16,4.7,1.07,4.57-.26,8.08-3.93,8.33-8.4-1.5,3.19-4.61,5.5-8.4,5.72Z"/>
                </g>
                <g>
                  <path class="cls-33" d="m117.25,152.8s0,0-.03-.04c-.12-.17-.37-.5-.69-.84-.07-.07-.1-.14-.17-.21,0,0-.02.01,0,0-.01-.01-.02-.04-.04-.04-.02-.03-.06-.04-.09-.07-1.24-1.29-3.1-3.05-3.35-3.29-2.86-3.33-5.88-7.27-6.38-9.86-8.21,19.77-.14,24.39-.14,24.39,0,0,.01,0,.01-.01,1.03.85,2.28,1.46,3.7,1.66,4.1.58,7.89-2.27,8.48-6.37.27-1.96-.26-3.82-1.31-5.32Z"/>
                  <path class="cls-1" d="m110.55,162.27c-1.58-.22-2.97-.9-4.12-1.84h-.02s-2.43-1.43-3.49-5.91c.27,6.45,3.52,8.34,3.52,8.34,0,0,.01,0,.01-.02,1.04.86,2.28,1.46,3.7,1.66,3.83.54,7.33-1.9,8.29-5.56-1.77,2.39-4.73,3.78-7.89,3.33Z"/>
                </g>
                <g>
                  <path class="cls-41" d="m136.96,185.62s0,0-.06-.04c-.2-.17-.59-.49-1.1-.81-.11-.06-.18-.15-.28-.2.01-.01-.02,0,0,0-.02-.01-.03-.04-.06-.05-.04-.02-.09-.03-.12-.05-1.92-1.18-4.75-2.74-5.12-2.96-4.53-3.15-9.44-7-10.86-10.01-3.79,26.65,7.48,29.75,7.48,29.75h.01c1.52.69,3.23,1.04,5.03.84,5.17-.58,8.91-5.24,8.34-10.43-.28-2.46-1.51-4.56-3.26-6.05Z"/>
                  <path class="cls-17" d="m131.77,199.25c-1.98.22-3.91-.17-5.61-.96,0,0,0,.02,0,.02,0,0-3.42-.98-6.11-6.12,2.35,7.77,6.91,9.06,6.91,9.06,0,0,.02-.01,0-.02,1.52.7,3.23,1.06,5.02.85,4.83-.54,8.34-4.63,8.34-9.37-1.4,3.46-4.58,6.08-8.56,6.53Z"/>
                </g>
                <g>
                  <path class="cls-29" d="m171.45,199.35s0-.01-.06-.04c-.24-.18-.72-.5-1.31-.8-.12-.06-.21-.14-.31-.2,0-.01-.02.02,0,0-.02,0-.05-.04-.06-.04-.05-.02-.11-.02-.16-.04-2.24-1.14-5.51-2.61-5.94-2.8-5.32-3.08-11.12-6.89-12.98-10.09-1.74,29.91,11.06,32.3,11.06,32.3l.02-.03c1.74.65,3.67.88,5.64.49,5.7-1.12,9.4-6.64,8.28-12.33-.54-2.71-2.11-4.92-4.17-6.41Z"/>
                  <path class="cls-23" d="m166.97,214.95c-2.19.43-4.34.18-6.32-.54,0,0,0,.02,0,.02,0,0-3.9-.77-7.35-6.22,3.33,8.4,8.5,9.4,8.5,9.4,0,0,0-.02,0-.02,1.76.64,3.7.87,5.66.48,5.3-1.05,8.82-5.9,8.39-11.17-1.23,3.97-4.52,7.17-8.89,8.04Z"/>
                </g>
                <g class="cls-38">
                  <path class="cls-40" d="m152.26,159.53s0,0-.04-.03c-.19-.18-.54-.5-1-.82-.1-.06-.15-.14-.26-.2,0,0-.02.01,0,0-.01,0-.04-.04-.05-.04-.03-.03-.08-.03-.12-.06-1.75-1.21-4.32-2.83-4.66-3.04-4.11-3.21-8.54-7.08-9.72-9.98-4.93,24.9,5.54,28.39,5.54,28.39,0,0,0-.01,0-.02,1.4.75,2.99,1.16,4.69,1.07,4.9-.29,8.64-4.49,8.37-9.4-.14-2.34-1.19-4.38-2.76-5.87Z"/>
                  <path class="cls-13" d="m146.68,172.11c-1.88.12-3.66-.36-5.21-1.18h-.02s-3.17-1.09-5.44-6.05c1.82,7.44,6.04,8.88,6.04,8.88,0,0,.01-.01,0-.03,1.41.75,3,1.16,4.7,1.07,4.57-.26,8.08-3.93,8.33-8.4-1.5,3.19-4.61,5.5-8.4,5.72Z"/>
                </g>
                <g class="cls-38">
                  <path class="cls-40" d="m117.25,152.8s0,0-.03-.04c-.12-.17-.37-.5-.69-.84-.07-.07-.1-.14-.17-.21,0,0-.02.01,0,0-.01-.01-.02-.04-.04-.04-.02-.03-.06-.04-.09-.07-1.24-1.29-3.1-3.05-3.35-3.29-2.86-3.33-5.88-7.27-6.38-9.86-8.21,19.77-.14,24.39-.14,24.39,0,0,.01,0,.01-.01,1.03.85,2.28,1.46,3.7,1.66,4.1.58,7.89-2.27,8.48-6.37.27-1.96-.26-3.82-1.31-5.32Z"/>
                  <path class="cls-13" d="m110.55,162.27c-1.58-.22-2.97-.9-4.12-1.84h-.02s-2.43-1.43-3.49-5.91c.27,6.45,3.52,8.34,3.52,8.34,0,0,.01,0,.01-.02,1.04.86,2.28,1.46,3.7,1.66,3.83.54,7.33-1.9,8.29-5.56-1.77,2.39-4.73,3.78-7.89,3.33Z"/>
                </g>
                <g class="cls-38">
                  <path class="cls-40" d="m136.96,185.62s0,0-.06-.04c-.2-.17-.59-.49-1.1-.81-.11-.06-.18-.15-.28-.2.01-.01-.02,0,0,0-.02-.01-.03-.04-.06-.05-.04-.02-.09-.03-.12-.05-1.92-1.18-4.75-2.74-5.12-2.96-4.53-3.15-9.44-7-10.86-10.01-3.79,26.65,7.48,29.75,7.48,29.75h.01c1.52.69,3.23,1.04,5.03.84,5.17-.58,8.91-5.24,8.34-10.43-.28-2.46-1.51-4.56-3.26-6.05Z"/>
                  <path class="cls-13" d="m131.77,199.25c-1.98.22-3.91-.17-5.61-.96,0,0,0,.02,0,.02,0,0-3.42-.98-6.11-6.12,2.35,7.77,6.91,9.06,6.91,9.06,0,0,.02-.01,0-.02,1.52.7,3.23,1.06,5.02.85,4.83-.54,8.34-4.63,8.34-9.37-1.4,3.46-4.58,6.08-8.56,6.53Z"/>
                </g>
                <g class="cls-38">
                  <path class="cls-40" d="m171.45,199.35s0-.01-.06-.04c-.24-.18-.72-.5-1.31-.8-.12-.06-.21-.14-.31-.2,0-.01-.02.02,0,0-.02,0-.05-.04-.06-.04-.05-.02-.11-.02-.16-.04-2.24-1.14-5.51-2.61-5.94-2.8-5.32-3.08-11.12-6.89-12.98-10.09-1.74,29.91,11.06,32.3,11.06,32.3l.02-.03c1.74.65,3.67.88,5.64.49,5.7-1.12,9.4-6.64,8.28-12.33-.54-2.71-2.11-4.92-4.17-6.41Z"/>
                  <path class="cls-13" d="m166.97,214.95c-2.19.43-4.34.18-6.32-.54,0,0,0,.02,0,.02,0,0-3.9-.77-7.35-6.22,3.33,8.4,8.5,9.4,8.5,9.4,0,0,0-.02,0-.02,1.76.64,3.7.87,5.66.48,5.3-1.05,8.82-5.9,8.39-11.17-1.23,3.97-4.52,7.17-8.89,8.04Z"/>
                </g>
              </g>
            </g>
            <g>
              <path class="cls-46" d="m90.15,190.18s0,0-.05-.05c-.18-.22-.53-.64-.98-1.07-.1-.09-.15-.19-.25-.26.01-.01-.02,0,0,0,0-.01-.02-.05-.05-.06-.04-.04-.08-.05-.12-.08-1.76-1.63-4.39-3.85-4.74-4.14-4.08-4.24-8.42-9.27-9.29-12.71-9.47,27.08,1.67,32.65,1.67,32.65,0,0,.02-.02.02-.02,1.44,1.05,3.16,1.77,5.07,1.93,5.53.47,10.4-3.64,10.87-9.17.22-2.64-.63-5.08-2.16-7.01Z"/>
              <path class="cls-11" d="m81.91,203.36c-2.12-.18-4.05-.98-5.66-2.17,0,0-.01.02-.01.02,0,0-3.37-1.74-5.12-7.66.85,8.61,5.35,10.9,5.35,10.9,0,0,.02-.01.01-.02,1.44,1.05,3.16,1.77,5.08,1.93,5.15.43,9.67-3.11,10.66-8.07-2.19,3.33-6.05,5.41-10.31,5.06Z"/>
            </g>
            <g>
              <path class="cls-25" d="m123.38,211.66s0-.01-.05-.05c-.22-.23-.65-.67-1.2-1.11-.11-.09-.19-.19-.29-.27,0-.01-.03.01,0,0-.03-.01-.04-.06-.05-.06-.05-.03-.11-.05-.16-.08-2.11-1.65-5.22-3.87-5.63-4.16-4.93-4.32-10.2-9.5-11.49-13.23-8,30.91,4.88,36.05,4.88,36.05l.03-.02c1.69,1.05,3.66,1.68,5.8,1.68,6.19,0,11.2-5.01,11.2-11.19,0-2.94-1.18-5.58-3.04-7.57Z"/>
              <path class="cls-18" d="m115.47,227.04c-2.38,0-4.57-.71-6.49-1.87v.02s-3.92-1.61-6.4-8.02c1.74,9.47,6.95,11.59,6.95,11.59,0,0,0-.02,0-.03,1.72,1.04,3.69,1.67,5.82,1.67,5.75,0,10.44-4.35,11.08-9.94-2.11,3.9-6.21,6.57-10.96,6.57Z"/>
            </g>
            <g class="cls-38">
              <path class="cls-40" d="m90.15,190.18s0,0-.05-.05c-.18-.22-.53-.64-.98-1.07-.1-.09-.15-.19-.25-.26.01-.01-.02,0,0,0,0-.01-.02-.05-.05-.06-.04-.04-.08-.05-.12-.08-1.76-1.63-4.39-3.85-4.74-4.14-4.08-4.24-8.42-9.27-9.29-12.71-9.47,27.08,1.67,32.65,1.67,32.65,0,0,.02-.02.02-.02,1.44,1.05,3.16,1.77,5.07,1.93,5.53.47,10.4-3.64,10.87-9.17.22-2.64-.63-5.08-2.16-7.01Z"/>
              <path class="cls-13" d="m81.91,203.36c-2.12-.18-4.05-.98-5.66-2.17,0,0-.01.02-.01.02,0,0-3.37-1.74-5.12-7.66.85,8.61,5.35,10.9,5.35,10.9,0,0,.02-.01.01-.02,1.44,1.05,3.16,1.77,5.08,1.93,5.15.43,9.67-3.11,10.66-8.07-2.19,3.33-6.05,5.41-10.31,5.06Z"/>
            </g>
            <g class="cls-38">
              <path class="cls-40" d="m123.38,211.66s0-.01-.05-.05c-.22-.23-.65-.67-1.2-1.11-.11-.09-.19-.19-.29-.27,0-.01-.03.01,0,0-.03-.01-.04-.06-.05-.06-.05-.03-.11-.05-.16-.08-2.11-1.65-5.22-3.87-5.63-4.16-4.93-4.32-10.2-9.5-11.49-13.23-8,30.91,4.88,36.05,4.88,36.05l.03-.02c1.69,1.05,3.66,1.68,5.8,1.68,6.19,0,11.2-5.01,11.2-11.19,0-2.94-1.18-5.58-3.04-7.57Z"/>
              <path class="cls-13" d="m115.47,227.04c-2.38,0-4.57-.71-6.49-1.87v.02s-3.92-1.61-6.4-8.02c1.74,9.47,6.95,11.59,6.95,11.59,0,0,0-.02,0-.03,1.72,1.04,3.69,1.67,5.82,1.67,5.75,0,10.44-4.35,11.08-9.94-2.11,3.9-6.21,6.57-10.96,6.57Z"/>
            </g>
          </g>
        </g>
      </g>
    </g>
  </g>
</svg>