<?xml version="1.0" encoding="UTF-8"?>
<svg xmlns="http://www.w3.org/2000/svg" xmlns:xlink="http://www.w3.org/1999/xlink" viewBox="0 0 249.89 186.02">
  <defs>
    <style>
      .cls-1, .cls-2 {
        opacity: .66;
      }

      .cls-1, .cls-3 {
        fill: url(#linear-gradient-4);
      }

      .cls-4 {
        fill: url(#linear-gradient-6);
      }

      .cls-5 {
        fill: url(#linear-gradient-2);
      }

      .cls-5, .cls-6, .cls-7, .cls-8, .cls-9, .cls-10, .cls-11, .cls-12, .cls-3 {
        mix-blend-mode: multiply;
      }

      .cls-5, .cls-8 {
        opacity: .15;
      }

      .cls-13 {
        isolation: isolate;
      }

      .cls-2 {
        fill: url(#linear-gradient-5);
      }

      .cls-14 {
        fill: #fff;
        opacity: .5;
      }

      .cls-6 {
        fill: url(#linear-gradient-13);
      }

      .cls-6, .cls-9, .cls-10, .cls-11, .cls-3 {
        opacity: .56;
      }

      .cls-7 {
        fill: url(#linear-gradient-15);
        opacity: .19;
      }

      .cls-15 {
        fill: url(#linear-gradient-10);
      }

      .cls-9 {
        fill: url(#linear-gradient-12);
      }

      .cls-10 {
        fill: url(#linear-gradient-14);
      }

      .cls-16 {
        fill: url(#linear-gradient-9);
      }

      .cls-11 {
        fill: url(#linear-gradient-11);
      }

      .cls-17 {
        fill: url(#linear-gradient-3);
      }

      .cls-12 {
        fill: url(#linear-gradient-7);
      }

      .cls-18 {
        fill: url(#linear-gradient);
      }

      .cls-19 {
        fill: url(#linear-gradient-8);
      }
    </style>
    <linearGradient id="linear-gradient" x1="129.62" y1="21.97" x2="129.62" y2="165.67" gradientUnits="userSpaceOnUse">
      <stop offset="0" stop-color="#f1f2f2"/>
      <stop offset=".26" stop-color="#e9eaea"/>
      <stop offset=".65" stop-color="#d4d6d7"/>
      <stop offset="1" stop-color="#bcbec0"/>
    </linearGradient>
    <linearGradient id="linear-gradient-2" x1="129.2" y1="70.69" x2="129.2" y2="163.51" gradientUnits="userSpaceOnUse">
      <stop offset="0" stop-color="#f1f2f2"/>
      <stop offset=".3" stop-color="#dbdcdd"/>
      <stop offset=".93" stop-color="#a3a5a7"/>
      <stop offset="1" stop-color="#9d9fa1"/>
    </linearGradient>
    <linearGradient id="linear-gradient-3" x1="130.04" y1="23.46" x2="130.04" y2="167.7" gradientUnits="userSpaceOnUse">
      <stop offset="0" stop-color="#e6e7e8"/>
      <stop offset=".19" stop-color="#dedfe0"/>
      <stop offset=".48" stop-color="#c8c9ca"/>
      <stop offset=".84" stop-color="#a4a5a7"/>
      <stop offset="1" stop-color="#939496"/>
    </linearGradient>
    <linearGradient id="linear-gradient-4" x1="88.95" y1="67.47" x2="139.76" y2="41.2" gradientUnits="userSpaceOnUse">
      <stop offset="0" stop-color="#fafbc1"/>
      <stop offset=".03" stop-color="#faf49f"/>
      <stop offset=".09" stop-color="#fcea70"/>
      <stop offset=".14" stop-color="#fde248"/>
      <stop offset=".19" stop-color="#fddc2a"/>
      <stop offset=".24" stop-color="#fed814"/>
      <stop offset=".29" stop-color="#fed507"/>
      <stop offset=".34" stop-color="#ffd503"/>
      <stop offset=".46" stop-color="#fdd002"/>
      <stop offset=".59" stop-color="#f9c202"/>
      <stop offset=".73" stop-color="#f2ac01"/>
      <stop offset=".88" stop-color="#e98c00"/>
      <stop offset="1" stop-color="#e06c00"/>
    </linearGradient>
    <linearGradient id="linear-gradient-5" x1="120.47" y1="106.77" x2="149.86" y2="77.37" xlink:href="#linear-gradient-4"/>
    <linearGradient id="linear-gradient-6" x1="87.36" y1="-17" x2="87.36" y2="213.17" xlink:href="#linear-gradient-4"/>
    <linearGradient id="linear-gradient-7" x1="87.1" y1="-20.45" x2="87.1" y2="224.94" xlink:href="#linear-gradient-4"/>
    <linearGradient id="linear-gradient-8" x1="108.23" y1="81.88" x2="133.22" y2="88.78" xlink:href="#linear-gradient-4"/>
    <linearGradient id="linear-gradient-9" x1="102.99" y1="76.56" x2="102.99" y2="168.95" xlink:href="#linear-gradient-4"/>
    <linearGradient id="linear-gradient-10" x1="120.14" y1="30.47" x2="127.32" y2="54.87" xlink:href="#linear-gradient-4"/>
    <linearGradient id="linear-gradient-11" x1="120.47" y1="106.77" x2="149.86" y2="77.37" xlink:href="#linear-gradient-4"/>
    <linearGradient id="linear-gradient-12" x1="108.23" y1="81.88" x2="133.22" y2="88.78" xlink:href="#linear-gradient-4"/>
    <linearGradient id="linear-gradient-13" x1="102.99" y1="76.56" x2="102.99" y2="168.95" xlink:href="#linear-gradient-4"/>
    <linearGradient id="linear-gradient-14" x1="120.14" y1="30.47" x2="127.32" y2="54.87" xlink:href="#linear-gradient-4"/>
    <linearGradient id="linear-gradient-15" x1="88.63" y1="16.06" x2="88.63" y2="191.91" xlink:href="#linear-gradient-4"/>
  </defs>
  <g class="cls-13">
    <g id="_레이어_2" data-name="레이어 2">
      <g id="Layer_1" data-name="Layer 1">
        <g>
          <g>
            <g>
              <path class="cls-18" d="m36.54,68.56s-1.6-36.1,40.11-46.52c41.7-10.43,65.36,17.65,65.36,17.65,0,0,8.82-11.23,22.86-5.61,14.03,5.61,13.59,17.37,13.59,17.37,0,0,15.29-7.34,31.32,5.09,16.05,12.43,15.64,24.46,15.64,24.46,0,0,26.47,10.83,22.86,36.5-3.61,25.67-32,20.96-35.6,12.14-.4,8.42-17.73,28.77-47,12.73-10.83,17.24-40.11,27.67-60.56,22.46-20.45-5.21-26.26-12.32-26.26-12.32,0,0-20.13,15.41-49.14-6.53-23.51-17.78-10.02-38.9-10.02-38.9,0,0-15.76-14.13-5.74-31.29,5.88-10.06,22.58-7.21,22.58-7.21Z"/>
              <path class="cls-5" d="m139.48,98.52c-47.82,8.84-84.01-12.3-105.77-31.29-4.84-.36-15.67-.23-20.17,7.48-10.03,17.16,5.73,31.28,5.73,31.28,0,0-13.49,21.12,10.03,38.9,29,21.94,49.2,7.13,49.2,7.13,0,0,5.74,6.5,26.19,11.72,20.45,5.21,49.73-5.22,60.55-22.46,29.28,16.04,46.61-4.3,47.02-12.73,3.6,8.82,31.99,13.53,35.6-12.14.37-2.7.4-5.22.18-7.59-26.19-14.73-61.33-19.04-108.58-10.31Z"/>
              <path class="cls-17" d="m226.79,80.1c-.28-3.35-2.31-13.83-16.11-24.52-6.07-4.71-12.72-7.1-19.75-7.1-3.26,0-6.07.53-8.26,1.13-.01,0-.02,0-.03,0-.96.21-1.82.49-2.65.8-.65-4.27-3.35-12.99-14.33-17.39-2.78-1.11-5.58-1.67-8.3-1.67-7.52,0-12.74,4.15-15,6.38-4.42-4.56-20.57-19.09-46.83-19.09-6.04,0-12.28.8-18.52,2.36-35.03,8.75-40.51,32.77-39.78,46.3h0c-6.74-1.07-19.49.96-23.5,7.84-9.02,15.44,1.78,28.67,5.1,32.18-2.44,4.78-10.14,23.68,10.97,39.65,10.4,7.86,20.83,11.85,31,11.85,9.38,0,15.84-3.42,18.38-5.06,2.5,2.37,9.85,8.06,26.12,12.21,3.61.92,7.57,1.39,11.75,1.39,19.28,0,40.15-9.87,49.36-23.16,7.05,3.65,13.87,5.51,20.3,5.51,14.42,0,25.53-10.48,26.23-18.05,1.6,4.68,9.01,5.98,14.8,5.98,9.46,0,19.68-4.84,21.82-20.01,3.32-23.59-17.95-35.23-22.75-37.54Zm19.59,37.09c-2.33,16.55-15.36,17.84-19.3,17.84-5.97,0-12.3-.94-15.4-8.74.4,2.29-.51,5.32-1.69,7.77-3.01,5.69-11.68,12.47-23.3,12.47-6.04,0-12.49-1.82-19.23-5.37.79-2.48,1.51-6.22,1.77-11.88-1.77,5.7-3.06,9.16-4.84,12.17-8.28,12.97-28.58,22.74-47.36,22.74-3.91,0-7.6-.44-10.96-1.29-12.02-3.07-18.21-6.36-21.21-8.43t0,0c-4.78-4.05-7.54-6.62-11.68-14.91,1.71,6.07,3.4,9.83,4.85,12.17-2.37,1.2-8.7,3.93-17.25,3.93-9.46,0-19.24-3.77-29.07-11.2-18.93-14.32-12.65-30.62-10.29-35.26,0,0,0,0,0,0,3.53-5.6,5.05-6.69,6.99-7.9-3.6,1.07-5.92,2.69-7.27,3.89-2.8-2.92-12.69-14.7-4.69-28.4,3.26-5.58,10.42-6.75,15.85-6.75,2.86,0,4.93.35,4.95.35l.7.12c1.05,4.03,2.94,9.01,2.85,8.71-.82-3.3-1.39-6.78-1.68-10.17v-.29c-.03-.35-1.09-34.68,38.64-44.62,6-1.5,11.97-2.26,17.75-2.26,26.11,0,43.27,16.67,46.51,20.09.16.18.32.36.49.54.04.05.06.07.06.08h0c2.62,2.93,5.08,6.46,7.51,11.71-1.8-6.51-4.11-10.9-6.02-13.72,1.46-1.56,6.22-5.99,13.27-5.99,2.32,0,4.72.49,7.12,1.45,10.11,4.04,12.88,12.16,13.6,15.31-1.96,1.04-3.71,2.43-5.64,4.14,3.3-1.87,5.88-2.84,5.88-2.84.06-.02,6-1.64,12.75-1.64,6.31,0,12.17,2.87,17.66,7.13,11.82,9.16,14.28,18.07,14.79,21.5-4.66-.87-13.01-1.75-21.49.77,6.08-1.4,16.42-.06,22.87,2.38,2.54,1.13,24.7,11.71,21.5,34.46Z"/>
            </g>
            <path class="cls-14" d="m222.15,83.54c-4.63-1.22-13.01-1.76-21.5.76,6.08-1.4,16.43-.06,22.88,2.37,2.29,1.02,20.63,9.77,21.76,28.25,1.09-20.81-19.33-30.58-21.76-31.66-.48-.18-1-.36-1.52-.53.06.29,0,0,.14.79Z"/>
            <path class="cls-14" d="m157.13,39.2c2.13,0,4.34.45,6.55,1.33,7.15,2.86,11.14,7.45,12.52,10.96.27-.17.55-.34.83-.49-.66-2.9-4.04-9.88-13.35-13.6-2.21-.89-4.42-1.34-6.55-1.34-6.5,0-10.42,3.62-11.66,4.94.4.57.78,1.36,1.19,2.08,2.03-1.78,5.31-3.89,10.46-3.89Z"/>
            <path class="cls-14" d="m40.53,68.34c.02.2.04.41.06.62.57-7.85,4.95-32.74,37.39-40.85,5.8-1.45,11.6-2.19,17.2-2.19,25.31,0,41.95,16.16,45.08,19.47.16.17.32.34.49.52.03.04.05.07.06.07h0c2.55,2.84,5.29,5.59,8.21,10.91-1.97-5.8-3.61-8.3-5.54-10.9-.87-1.21-1.76-2.3-2.67-3.31h0s-.03-.03-.06-.07c-.17-.18-.32-.35-.49-.52-3.13-3.31-19.77-19.47-45.08-19.47-5.6,0-11.39.74-17.2,2.19-38.5,9.63-37.48,42.91-37.47,43.25v.29Z"/>
            <path class="cls-14" d="m208.42,59.38c-5.25-4.06-10.47-6.38-16.88-6.81,0,0-11.1-.89-18.7,4.96,3.16-1.78,8.51-1.97,8.51-1.97.05-.02,4.01-1.04,10.42-.32,5.66.64,11.39,3.32,16.64,7.38,6.99,5.42,10.54,10.74,12.36,14.78.44.04.86.1,1.26.19-1.15-4.11-4.41-11.08-13.62-18.22Z"/>
          </g>
          <g>
            <polygon class="cls-1" points="107.07 66.85 93.72 75.11 97.65 60.01 85.47 49.26 101.25 48.95 107.07 34.4 112.88 48.95 128.25 49.67 116.48 60.01 119.99 75.11 107.07 66.85"/>
            <polygon class="cls-2" points="130.81 91.12 123.93 83.55 134.08 84.27 139.51 75.17 141.59 85.24 151.61 87.23 142.98 92.7 144.36 102.63 136.33 96.33 127.08 100.38 130.81 91.12"/>
            <path class="cls-4" d="m145.22,143.86c-39.72,0-71.92-32.21-71.92-71.94,0-31.19,19.88-57.67,47.64-67.64C89.32-5.65,53.44,1.67,28.05,26.43c-36.76,35.88-37.49,94.77-1.59,131.55,35.87,36.75,94.75,37.48,131.52,1.6,6.83-6.67,12.4-14.13,16.74-22.09-9.01,4.06-18.97,6.37-29.5,6.37Z"/>
            <g class="cls-8">
              <path class="cls-12" d="m163.51,141.47c-.35.1-1.24.32-1.6.41-2.78,3.82-5.81,8.05-9.27,11.42-15.83,15.44-36.71,23.94-58.82,23.94s-44.3-9.02-60.29-25.4C1.1,118.61,1.76,65.17,34.99,32.72c15.82-15.43,36.71-23.94,58.81-23.94,5.64,0,9.38.22,14.79,1.29,1.91-1.21,3.84-2.34,5.9-3.24-7.26-1.88-12.98-2.62-20.7-2.62-23.3,0-45.32,8.96-62.01,25.24C-3.24,63.66-3.92,119.99,30.25,155.03c16.87,17.26,39.43,26.77,63.56,26.77s45.33-8.97,62.01-25.24c5.18-5.06,9.57-10.68,13.31-16.67-1.99.92-3.53,1-5.63,1.57Z"/>
            </g>
            <path class="cls-19" d="m114.55,83.07c0,1.12-.91,2.03-2.03,2.03s-2.04-.91-2.04-2.03.91-2.03,2.04-2.03,2.03.91,2.03,2.03Z"/>
            <path class="cls-16" d="m105.01,102.63c0,1.12-.91,2.03-2.02,2.03s-2.03-.91-2.03-2.03.91-2.03,2.03-2.03,2.02.91,2.02,2.03Z"/>
            <path class="cls-15" d="m123.93,36.43c0,1.12-.92,2.03-2.03,2.03s-2.04-.91-2.04-2.03.91-2.03,2.04-2.03,2.03.91,2.03,2.03Z"/>
            <g>
              <polygon class="cls-3" points="107.07 66.85 93.72 75.11 97.65 60.01 85.47 49.26 101.25 48.95 107.07 34.4 112.88 48.95 128.25 49.67 116.48 60.01 119.99 75.11 107.07 66.85"/>
              <polygon class="cls-11" points="130.81 91.12 123.93 83.55 134.08 84.27 139.51 75.17 141.59 85.24 151.61 87.23 142.98 92.7 144.36 102.63 136.33 96.33 127.08 100.38 130.81 91.12"/>
              <path class="cls-9" d="m114.55,83.07c0,1.12-.91,2.03-2.03,2.03s-2.04-.91-2.04-2.03.91-2.03,2.04-2.03,2.03.91,2.03,2.03Z"/>
              <path class="cls-6" d="m105.01,102.63c0,1.12-.91,2.03-2.02,2.03s-2.03-.91-2.03-2.03.91-2.03,2.03-2.03,2.02.91,2.02,2.03Z"/>
              <path class="cls-10" d="m123.93,36.43c0,1.12-.92,2.03-2.03,2.03s-2.04-.91-2.04-2.03.91-2.03,2.04-2.03,2.03.91,2.03,2.03Z"/>
            </g>
            <path class="cls-7" d="m2.54,114.59c3.76,15.84,11.72,30.89,23.92,43.39,35.87,36.75,94.75,37.48,131.52,1.6,6.83-6.67,12.4-14.13,16.74-22.09-9.01,4.06-18.97,6.37-29.5,6.37-13.73,0-26.56-3.85-37.48-10.53-4,.57-8.06,1.22-12.25,1.99-39.21,7.25-70.71-5.44-92.96-20.73Z"/>
          </g>
        </g>
      </g>
    </g>
  </g>
</svg>