<?xml version="1.0" encoding="UTF-8"?>
<svg xmlns="http://www.w3.org/2000/svg" xmlns:xlink="http://www.w3.org/1999/xlink" viewBox="0 0 241.84 197.22">
  <defs>
    <style>
      .cls-1 {
        fill: #fff;
      }

      .cls-2 {
        isolation: isolate;
      }

      .cls-3 {
        fill: #666;
        opacity: .25;
      }

      .cls-4 {
        fill: url(#linear-gradient-4);
        mix-blend-mode: color-burn;
        opacity: .67;
      }

      .cls-5 {
        fill: url(#linear-gradient-2);
        opacity: .27;
      }

      .cls-5, .cls-6 {
        mix-blend-mode: multiply;
      }

      .cls-7 {
        fill: url(#linear-gradient-5);
      }

      .cls-6 {
        fill: url(#linear-gradient-6);
        opacity: .52;
      }

      .cls-8 {
        fill: url(#linear-gradient-7);
      }

      .cls-9 {
        fill: url(#linear-gradient-3);
      }

      .cls-10 {
        fill: url(#linear-gradient);
      }
    </style>
    <linearGradient id="linear-gradient" x1="120.5" y1="3.35" x2="120.5" y2="155.78" gradientUnits="userSpaceOnUse">
      <stop offset="0" stop-color="#a7a9ac"/>
      <stop offset=".16" stop-color="#9fa1a4"/>
      <stop offset=".4" stop-color="#8b8c8f"/>
      <stop offset=".69" stop-color="#6a6a6d"/>
      <stop offset="1" stop-color="#414042"/>
    </linearGradient>
    <linearGradient id="linear-gradient-2" x1="120.07" y1="52.5" x2="120.07" y2="146.16" gradientUnits="userSpaceOnUse">
      <stop offset="0" stop-color="#f1f2f2"/>
      <stop offset=".3" stop-color="#dbdcdd"/>
      <stop offset=".93" stop-color="#a3a5a7"/>
      <stop offset="1" stop-color="#9d9fa1"/>
    </linearGradient>
    <linearGradient id="linear-gradient-3" x1="120.92" y1="4.85" x2="120.92" y2="150.38" gradientUnits="userSpaceOnUse">
      <stop offset="0" stop-color="#c4c6c9"/>
      <stop offset=".16" stop-color="#bcbec1"/>
      <stop offset=".39" stop-color="#a8a9ac"/>
      <stop offset=".68" stop-color="#87888a"/>
      <stop offset="1" stop-color="#5c5b5c"/>
    </linearGradient>
    <linearGradient id="linear-gradient-4" x1="0" y1="75.03" x2="241.82" y2="75.03" xlink:href="#linear-gradient"/>
    <linearGradient id="linear-gradient-5" x1="87.34" y1="80.73" x2="111.52" y2="192.98" gradientUnits="userSpaceOnUse">
      <stop offset="0" stop-color="#fafbc1"/>
      <stop offset=".03" stop-color="#faf4a0"/>
      <stop offset=".1" stop-color="#fce969"/>
      <stop offset=".15" stop-color="#fde03c"/>
      <stop offset=".2" stop-color="#feda1d"/>
      <stop offset=".25" stop-color="#fed609"/>
      <stop offset=".28" stop-color="#ffd503"/>
      <stop offset=".41" stop-color="#fdd002"/>
      <stop offset=".55" stop-color="#f9c202"/>
      <stop offset=".71" stop-color="#f2ac01"/>
      <stop offset=".87" stop-color="#e98c00"/>
      <stop offset="1" stop-color="#e06c00"/>
    </linearGradient>
    <linearGradient id="linear-gradient-6" x1="88.41" y1="80.97" x2="112.64" y2="193.42" xlink:href="#linear-gradient-5"/>
    <linearGradient id="linear-gradient-7" x1="164.42" y1="120.66" x2="164.42" y2="176.65" gradientUnits="userSpaceOnUse">
      <stop offset="0" stop-color="#f6462f"/>
      <stop offset=".27" stop-color="#ef432d"/>
      <stop offset=".67" stop-color="#dc3e2a"/>
      <stop offset="1" stop-color="#c73827"/>
    </linearGradient>
  </defs>
  <g class="cls-2">
    <g id="_레이어_2" data-name="레이어 2">
      <g id="Layer_1" data-name="Layer 1">
        <g>
          <g>
            <g>
              <g>
                <path class="cls-10" d="m27.46,50.51S24.96,13.94,67.04,3.42c42.08-10.52,65.95,17.8,65.95,17.8,0,0,8.9-11.33,23.07-5.66,14.16,5.66,13.71,17.52,13.71,17.52,0,0,15.42-7.41,31.61,5.14,16.18,12.54,15.78,24.68,15.78,24.68,0,0,26.7,10.93,23.06,36.83-3.64,25.89-32.28,21.14-35.92,12.24-.41,8.5-17.9,29.03-47.43,12.84-10.92,17.4-40.46,27.92-61.09,22.66-20.64-5.26-26.49-12.43-26.49-12.43,0,0-20.32,15.55-49.58-6.59-23.73-17.94-10.11-39.25-10.11-39.25,0,0-15.9-14.25-5.79-31.57,5.93-10.15,23.66-7.12,23.66-7.12Z"/>
                <path class="cls-5" d="m130.44,80.58c-48.24,8.92-84.76-12.41-106.72-31.58-4.88-.36-15.81-.22-20.34,7.55-10.12,17.32,5.79,31.57,5.79,31.57,0,0-13.62,21.31,10.12,39.25,29.26,22.14,49.64,7.2,49.64,7.2,0,0,5.79,6.57,26.43,11.82,20.64,5.26,50.18-5.26,61.1-22.66,29.54,16.19,47.03-4.35,47.43-12.84,3.64,8.9,32.28,13.65,35.93-12.24.38-2.72.41-5.27.19-7.66-26.43-14.85-61.88-19.21-109.55-10.4Z"/>
                <path class="cls-9" d="m218.54,62c-.29-3.39-2.34-13.96-16.27-24.75-6.12-4.75-12.83-7.16-19.93-7.16-3.29,0-6.12.53-8.32,1.14-.02,0-.02,0-.03,0-.96.22-1.84.49-2.68.82-.66-4.3-3.38-13.11-14.46-17.54-2.8-1.12-5.63-1.7-8.38-1.7-7.58,0-12.85,4.19-15.13,6.44C128.87,14.66,112.59,0,86.08,0c-6.09,0-12.38.81-18.68,2.38C32.06,11.21,26.54,35.45,27.26,49.09h0c-6.8-1.08-19.66.97-23.71,7.91-9.1,15.58,1.8,28.93,5.15,32.47-2.46,4.82-10.23,23.89,11.07,40,10.5,7.94,21.02,11.96,31.27,11.96,9.47,0,15.98-3.45,18.55-5.1,2.52,2.39,9.93,8.13,26.35,12.32,3.64.93,7.63,1.41,11.85,1.41,19.45,0,40.51-9.96,49.8-23.37,7.11,3.69,14,5.56,20.48,5.56,14.55,0,25.76-10.56,26.46-18.21,1.6,4.73,9.09,6.03,14.94,6.03,9.54,0,19.86-4.88,22.01-20.19,3.35-23.81-18.11-35.55-22.94-37.87Zm19.76,37.42c-2.34,16.7-15.49,18-19.46,18-6.03,0-12.41-.94-15.55-8.82.41,2.31-.5,5.37-1.71,7.84-3.04,5.75-11.78,12.58-23.5,12.58-6.09,0-12.61-1.84-19.39-5.42.79-2.5,1.52-6.28,1.78-11.99-1.78,5.75-3.09,9.24-4.89,12.28-8.34,13.09-28.83,22.94-47.78,22.94-3.94,0-7.66-.44-11.05-1.3-12.13-3.09-18.38-6.41-21.39-8.51t0,0c-4.83-4.09-7.61-6.68-11.78-15.05,1.74,6.12,3.44,9.92,4.89,12.27-2.39,1.22-8.78,3.97-17.4,3.97-9.54,0-19.4-3.8-29.33-11.3-19.1-14.45-12.76-30.9-10.38-35.58h0c3.55-5.65,5.1-6.76,7.05-7.97-3.64,1.07-5.98,2.71-7.34,3.92-2.83-2.95-12.8-14.83-4.73-28.66,3.29-5.63,10.51-6.81,15.99-6.81,2.88,0,4.97.35,4.99.35l.71.12c1.06,4.06,2.97,9.09,2.87,8.79-.82-3.34-1.41-6.85-1.69-10.27v-.29c-.03-.35-1.09-35,38.99-45.02,6.05-1.51,12.07-2.28,17.9-2.28,26.35,0,43.66,16.82,46.93,20.27.17.18.33.36.5.54.04.04.06.07.07.08h0c2.66,2.95,5.12,6.51,7.58,11.81-1.83-6.57-4.14-10.99-6.08-13.84,1.48-1.58,6.27-6.04,13.38-6.04,2.35,0,4.77.49,7.19,1.46,10.19,4.08,13,12.27,13.72,15.45-1.98,1.06-3.75,2.45-5.7,4.18,3.33-1.89,5.94-2.86,5.94-2.86.05-.02,6.04-1.66,12.86-1.66,6.37,0,12.28,2.89,17.83,7.19,11.92,9.24,14.4,18.23,14.92,21.7-4.7-.88-13.13-1.77-21.68.77,6.12-1.41,16.57-.06,23.08,2.4,2.55,1.14,24.92,11.82,21.68,34.77Z"/>
              </g>
              <path class="cls-3" d="m213.96,65.86c-4.67-1.23-13.12-1.77-21.69.77,6.13-1.41,16.58-.07,23.08,2.4,2.32,1.02,20.81,9.86,21.95,28.51,1.11-21-19.5-30.85-21.95-31.94-.49-.18-1-.36-1.53-.53.05.29,0,0,.14.8Z"/>
              <path class="cls-3" d="m148.35,21.13c2.16,0,4.39.45,6.62,1.35,7.22,2.89,11.24,7.52,12.63,11.05.28-.16.55-.33.84-.49-.66-2.92-4.08-9.97-13.47-13.73-2.23-.9-4.46-1.35-6.62-1.35-6.54,0-10.51,3.65-11.75,4.98.39.58.78,1.37,1.2,2.1,2.04-1.79,5.36-3.93,10.55-3.93Z"/>
              <path class="cls-3" d="m30.71,50.53c.02.2.05.42.07.62.57-7.92,4.99-33.03,37.72-41.21,5.86-1.46,11.7-2.21,17.36-2.21,25.54,0,42.32,16.3,45.48,19.64.16.17.32.35.48.53.04.04.06.06.06.07h0c2.57,2.86,5.33,5.64,8.28,11.01-1.99-5.85-3.65-8.37-5.59-11-.88-1.21-1.78-2.32-2.69-3.34h0s-.03-.03-.06-.07c-.17-.17-.32-.36-.48-.52-3.17-3.34-19.95-19.65-45.48-19.65-5.65,0-11.5.75-17.36,2.21C29.65,16.32,30.69,49.9,30.7,50.24v.29Z"/>
              <path class="cls-3" d="m200.11,41.49c-5.3-4.11-10.57-6.44-17.03-6.87,0,0-11.2-.89-18.87,5.01,3.18-1.8,8.58-1.99,8.58-1.99.05-.02,4.05-1.05,10.52-.32,5.71.64,11.49,3.35,16.79,7.46,7.05,5.46,10.63,10.83,12.46,14.91.45.04.88.1,1.27.19-1.16-4.14-4.44-11.18-13.74-18.38Z"/>
              <path class="cls-4" d="m218.53,62c-.29-3.39-2.34-13.96-16.27-24.75-6.12-4.75-12.83-7.16-19.92-7.16-3.3,0-6.13.53-8.33,1.14-.01,0-.02,0-.03,0-.96.22-1.84.49-2.68.82-.65-4.3-3.38-13.11-14.46-17.54-2.8-1.12-5.63-1.7-8.39-1.7-7.57,0-12.85,4.19-15.13,6.44C128.87,14.66,112.58,0,86.07,0c-6.09,0-12.38.81-18.68,2.38-29.21,7.3-38.04,25.13-39.82,38.79-.75,3.5-.95,6.29-.99,7.83-1.61-.19-3.49-.24-5.49-.09-5.46-.04-13.87,1.06-17.71,7.65C.81,60.94-.08,65.12,0,68.93c-.25,9.89,5.93,17.59,8.5,20.35-1.13,2.2-3.34,7.35-3.23,13.81-.15,7.79,2.78,17.53,14.48,26.39,10.49,7.94,21.01,11.96,31.27,11.96,9.47,0,15.98-3.45,18.55-5.1,2.52,2.39,9.93,8.13,26.35,12.32,3.65.93,7.63,1.41,11.85,1.41,19.46,0,40.52-9.96,49.8-23.37,7.11,3.69,14,5.56,20.48,5.56,14.55,0,25.76-10.56,26.47-18.21,1.6,4.73,9.09,6.03,14.93,6.03,9.54,0,19.86-4.88,22.01-20.19,3.35-23.81-18.11-35.55-22.94-37.87Z"/>
            </g>
            <g>
              <path class="cls-7" d="m74.63,128.29l15.39,4.96-6.73,33.69,8.34,2.73-3.63,26.85,17.44-39.05-10.79-.66,20.58-38.43-18.64-1.35,16.61-29.04c-12.6,4.23-20.4,5.64-31.68,5.64l-6.88,34.66Z"/>
              <path class="cls-6" d="m76.92,128.29l15.39,4.96-6.74,33.69,6.05,2.73-3.72,27.55,18.51-39.82-11.77-.59,22.87-38.43-18.63-1.35,16.6-29.04c-12.6,4.23-20.39,5.64-31.68,5.64l-6.88,34.66Z"/>
            </g>
          </g>
          <g>
            <path class="cls-8" d="m164.58,118.34s-.11,0-.16,0c-.06,0-.11,0-.17,0-16.67,0-37.74,24.84-37.74,41.52s21.23,19.44,37.9,19.44h.33c16.67,0,37.58-2.77,37.58-19.44s-21.07-41.52-37.74-41.52Z"/>
            <path class="cls-1" d="m161.12,153.94l-1-15.15c-.2-2.96-.29-5.08-.29-6.36,0-1.76.46-3.12,1.38-4.1.92-.98,2.12-1.47,3.62-1.47,1.82,0,3.03.63,3.64,1.88.61,1.26.92,3.06.92,5.43,0,1.39-.08,2.8-.22,4.24l-1.36,15.61c-.15,1.86-.47,3.28-.94,4.27-.49.99-1.29,1.49-2.41,1.49s-1.93-.48-2.37-1.44c-.44-.96-.76-2.42-.95-4.39Zm3.52,20.83c-1.28,0-2.41-.41-3.37-1.25-.96-.83-1.44-1.99-1.44-3.49,0-1.31.46-2.42,1.38-3.34.92-.92,2.04-1.37,3.37-1.37s2.47.45,3.4,1.37c.94.92,1.41,2.03,1.41,3.34,0,1.47-.48,2.63-1.43,3.48-.95.84-2.06,1.27-3.32,1.27Z"/>
          </g>
        </g>
      </g>
    </g>
  </g>
</svg>