<?xml version="1.0" encoding="UTF-8"?>
<svg xmlns="http://www.w3.org/2000/svg" xmlns:xlink="http://www.w3.org/1999/xlink" viewBox="0 0 246.34 152.84">
  <defs>
    <style>
      .cls-1 {
        isolation: isolate;
      }

      .cls-2 {
        fill: #666;
        opacity: .25;
      }

      .cls-3 {
        fill: url(#linear-gradient-4);
        mix-blend-mode: color-burn;
        opacity: .67;
      }

      .cls-4 {
        fill: url(#linear-gradient-2);
        mix-blend-mode: multiply;
        opacity: .27;
      }

      .cls-5 {
        fill: url(#linear-gradient-3);
      }

      .cls-6 {
        fill: url(#linear-gradient);
      }
    </style>
    <linearGradient id="linear-gradient" x1="122.75" y1="3.41" x2="122.75" y2="158.68" gradientUnits="userSpaceOnUse">
      <stop offset="0" stop-color="#a7a9ac"/>
      <stop offset=".16" stop-color="#9fa1a4"/>
      <stop offset=".4" stop-color="#8b8c8f"/>
      <stop offset=".69" stop-color="#6a6a6d"/>
      <stop offset="1" stop-color="#414042"/>
    </linearGradient>
    <linearGradient id="linear-gradient-2" x1="122.31" y1="53.48" x2="122.31" y2="148.88" gradientUnits="userSpaceOnUse">
      <stop offset="0" stop-color="#f1f2f2"/>
      <stop offset=".3" stop-color="#dbdcdd"/>
      <stop offset=".93" stop-color="#a3a5a7"/>
      <stop offset="1" stop-color="#9d9fa1"/>
    </linearGradient>
    <linearGradient id="linear-gradient-3" x1="123.17" y1="4.94" x2="123.17" y2="153.18" gradientUnits="userSpaceOnUse">
      <stop offset="0" stop-color="#c4c6c9"/>
      <stop offset=".16" stop-color="#bcbec1"/>
      <stop offset=".39" stop-color="#a8a9ac"/>
      <stop offset=".68" stop-color="#87888a"/>
      <stop offset="1" stop-color="#5c5b5c"/>
    </linearGradient>
    <linearGradient id="linear-gradient-4" x1="0" y1="76.42" x2="246.33" y2="76.42" xlink:href="#linear-gradient"/>
  </defs>
  <g class="cls-1">
    <g id="_레이어_2" data-name="레이어 2">
      <g id="Layer_1" data-name="Layer 1">
        <g>
          <g>
            <path class="cls-6" d="m27.97,51.45S25.43,14.2,68.29,3.48c42.87-10.72,67.18,18.14,67.18,18.14,0,0,9.07-11.54,23.49-5.77,14.42,5.77,13.96,17.85,13.96,17.85,0,0,15.71-7.55,32.2,5.23,16.48,12.78,16.07,25.15,16.07,25.15,0,0,27.2,11.13,23.5,37.51-3.72,26.38-32.89,21.54-36.6,12.48-.41,8.65-18.22,29.57-48.31,13.08-11.13,17.72-41.22,28.44-62.24,23.08-21.02-5.36-26.98-12.66-26.98-12.66,0,0-20.69,15.84-50.5-6.71-24.17-18.28-10.3-39.98-10.3-39.98,0,0-16.2-14.52-5.89-32.16,6.04-10.34,24.09-7.25,24.09-7.25Z"/>
            <path class="cls-4" d="m132.87,82.09c-49.14,9.09-86.34-12.65-108.71-32.16-4.97-.37-16.1-.23-20.73,7.69-10.3,17.64,5.89,32.15,5.89,32.15,0,0-13.87,21.7,10.31,39.98,29.81,22.55,50.57,7.33,50.57,7.33,0,0,5.9,6.69,26.92,12.05,21.02,5.35,51.11-5.36,62.24-23.08,30.08,16.48,47.9-4.43,48.31-13.08,3.71,9.07,32.88,13.91,36.59-12.47.4-2.77.43-5.37.2-7.8-26.92-15.13-63.04-19.57-111.6-10.59Z"/>
            <path class="cls-5" d="m222.61,63.15c-.29-3.45-2.38-14.21-16.56-25.2-6.24-4.84-13.07-7.29-20.3-7.29-3.35,0-6.24.54-8.48,1.16-.02,0-.02,0-.03,0-.98.22-1.88.5-2.72.83-.67-4.38-3.44-13.35-14.74-17.87-2.85-1.14-5.73-1.72-8.53-1.72-7.72,0-13.09,4.27-15.41,6.56C131.28,14.93,114.68,0,87.69,0c-6.2,0-12.62.82-19.03,2.42C32.66,11.43,27.03,36.11,27.77,50.01h0c-6.93-1.1-20.03.99-24.16,8.06-9.27,15.87,1.84,29.47,5.25,33.07-2.5,4.91-10.42,24.33,11.28,40.75,10.69,8.08,21.41,12.18,31.86,12.18,9.64,0,16.27-3.51,18.89-5.2,2.57,2.44,10.12,8.29,26.84,12.55,3.71.95,7.77,1.43,12.07,1.43,19.82,0,41.27-10.14,50.73-23.8,7.25,3.76,14.26,5.66,20.87,5.66,14.83,0,26.24-10.76,26.95-18.55,1.64,4.81,9.26,6.14,15.22,6.14,9.71,0,20.23-4.97,22.42-20.57,3.41-24.25-18.45-36.2-23.37-38.58Zm20.13,38.12c-2.4,17.01-15.79,18.33-19.83,18.33-6.14,0-12.64-.96-15.84-8.99.41,2.36-.52,5.47-1.74,7.99-3.09,5.85-12.01,12.83-23.94,12.83-6.2,0-12.85-1.87-19.76-5.53.8-2.55,1.55-6.39,1.82-12.21-1.82,5.86-3.15,9.41-4.98,12.51-8.5,13.33-29.37,23.37-48.67,23.37-4.02,0-7.81-.45-11.26-1.33-12.36-3.15-18.72-6.53-21.79-8.67,0,0,0,0-.01,0-4.92-4.16-7.75-6.8-12-15.33,1.76,6.24,3.49,10.11,4.98,12.5-2.44,1.24-8.94,4.04-17.72,4.04-9.72,0-19.78-3.87-29.88-11.51-19.46-14.72-13-31.47-10.57-36.24h0c3.62-5.75,5.19-6.88,7.18-8.12-3.7,1.1-6.08,2.76-7.47,3.99-2.88-3-13.04-15.11-4.82-29.19,3.35-5.73,10.71-6.94,16.29-6.94,2.93,0,5.07.36,5.09.36l.72.12c1.07,4.14,3.02,9.26,2.92,8.95-.84-3.4-1.43-6.98-1.72-10.46v-.3c-.03-.35-1.12-35.64,39.71-45.85,6.16-1.54,12.3-2.32,18.24-2.32,26.85,0,44.48,17.13,47.8,20.64.17.18.34.37.51.55.04.04.06.07.07.08h0c2.71,3.01,5.23,6.63,7.72,12.03-1.85-6.69-4.22-11.2-6.19-14.1,1.5-1.61,6.39-6.15,13.63-6.15,2.39,0,4.85.5,7.33,1.49,10.38,4.15,13.23,12.5,13.97,15.73-2.01,1.08-3.81,2.5-5.8,4.26,3.39-1.92,6.05-2.92,6.05-2.92.05-.02,6.16-1.69,13.1-1.69,6.49,0,12.51,2.95,18.15,7.33,12.15,9.41,14.67,18.57,15.2,22.09-4.78-.9-13.37-1.8-22.09.79,6.24-1.44,16.89-.06,23.5,2.44,2.61,1.16,25.38,12.03,22.1,35.42Z"/>
          </g>
          <path class="cls-2" d="m217.95,67.09c-4.75-1.25-13.37-1.8-22.09.79,6.25-1.44,16.89-.06,23.51,2.44,2.36,1.05,21.2,10.04,22.36,29.04,1.13-21.4-19.86-31.43-22.36-32.54-.5-.19-1.02-.37-1.56-.54.06.3,0,0,.14.81Z"/>
          <path class="cls-2" d="m151.12,21.52c2.2,0,4.47.46,6.74,1.37,7.35,2.94,11.45,7.65,12.87,11.26.28-.17.56-.34.85-.5-.68-2.98-4.15-10.16-13.72-13.98-2.27-.91-4.54-1.37-6.74-1.37-6.67,0-10.71,3.72-11.97,5.08.4.59.79,1.4,1.22,2.14,2.08-1.83,5.46-4,10.75-4Z"/>
          <path class="cls-2" d="m31.29,51.47c.02.21.05.42.07.63.58-8.07,5.09-33.65,38.42-41.99,5.98-1.48,11.92-2.25,17.68-2.25,26.02,0,43.11,16.61,46.33,20.01.16.17.33.35.49.53.04.04.06.07.06.07h0c2.62,2.92,5.43,5.75,8.44,11.22-2.02-5.96-3.71-8.53-5.7-11.21-.9-1.24-1.81-2.36-2.74-3.4h0s-.03-.03-.06-.08c-.17-.18-.33-.35-.49-.53-3.22-3.41-20.31-20.01-46.33-20.01-5.76,0-11.7.76-17.68,2.25C30.21,16.63,31.27,50.83,31.28,51.18v.29Z"/>
          <path class="cls-2" d="m203.85,42.26c-5.4-4.18-10.76-6.56-17.34-6.99,0,0-11.41-.91-19.21,5.1,3.24-1.83,8.74-2.02,8.74-2.02.05-.02,4.12-1.07,10.71-.33,5.82.66,11.7,3.41,17.11,7.59,7.18,5.57,10.83,11.04,12.7,15.2.46.03.89.1,1.3.2-1.19-4.22-4.53-11.39-14-18.73Z"/>
          <path class="cls-3" d="m222.6,63.15c-.29-3.45-2.38-14.21-16.56-25.2-6.24-4.84-13.07-7.29-20.3-7.29-3.35,0-6.24.54-8.49,1.16,0,0-.01,0-.03,0-.98.22-1.88.5-2.73.83-.67-4.38-3.44-13.35-14.74-17.87-2.85-1.14-5.74-1.72-8.54-1.72-7.72,0-13.09,4.27-15.41,6.56C131.27,14.93,114.67,0,87.68,0c-6.2,0-12.61.82-19.03,2.42-29.76,7.44-38.75,25.6-40.57,39.52-.76,3.56-.96,6.4-1.01,7.98-1.64-.2-3.56-.24-5.6-.1-5.56-.04-14.13,1.09-18.05,7.79C.82,62.07-.08,66.34,0,70.21c-.25,10.07,6.05,17.92,8.66,20.73-1.15,2.23-3.4,7.48-3.29,14.06-.15,7.93,2.82,17.86,14.75,26.88,10.69,8.08,21.41,12.18,31.86,12.18,9.64,0,16.28-3.51,18.89-5.2,2.57,2.44,10.12,8.29,26.84,12.55,3.72.95,7.78,1.43,12.07,1.43,19.82,0,41.27-10.14,50.73-23.8,7.25,3.76,14.26,5.66,20.86,5.66,14.82,0,26.24-10.76,26.96-18.55,1.64,4.81,9.26,6.14,15.21,6.14,9.71,0,20.22-4.97,22.42-20.57,3.42-24.25-18.44-36.2-23.38-38.58Z"/>
        </g>
      </g>
    </g>
  </g>
</svg>