<?xml version="1.0" encoding="UTF-8"?>
<svg xmlns="http://www.w3.org/2000/svg" xmlns:xlink="http://www.w3.org/1999/xlink" viewBox="0 0 236.91 230.28">
  <defs>
    <style>
      .cls-1 {
        fill: url(#linear-gradient-30);
      }

      .cls-1, .cls-2, .cls-3, .cls-4, .cls-5, .cls-6, .cls-7, .cls-8, .cls-9, .cls-10, .cls-11, .cls-12, .cls-13, .cls-14, .cls-15, .cls-16, .cls-17, .cls-18, .cls-19, .cls-20 {
        mix-blend-mode: multiply;
      }

      .cls-1, .cls-2, .cls-4, .cls-7, .cls-11, .cls-13, .cls-15, .cls-19, .cls-20 {
        opacity: .2;
      }

      .cls-2 {
        fill: url(#linear-gradient-28);
      }

      .cls-21, .cls-22 {
        opacity: .66;
      }

      .cls-21, .cls-18 {
        fill: url(#linear-gradient-4);
      }

      .cls-23 {
        fill: url(#linear-gradient-18);
      }

      .cls-24 {
        fill: url(#linear-gradient-6);
      }

      .cls-3 {
        fill: url(#linear-gradient-2);
      }

      .cls-3, .cls-8, .cls-9 {
        opacity: .15;
      }

      .cls-25 {
        isolation: isolate;
      }

      .cls-4 {
        fill: url(#linear-gradient-22);
      }

      .cls-26, .cls-7 {
        fill: #aad6e2;
      }

      .cls-22 {
        fill: url(#linear-gradient-5);
      }

      .cls-27 {
        fill: #fff;
      }

      .cls-27, .cls-28, .cls-29 {
        opacity: .5;
      }

      .cls-5 {
        fill: url(#linear-gradient-13);
      }

      .cls-5, .cls-10, .cls-14, .cls-16, .cls-18 {
        opacity: .56;
      }

      .cls-6 {
        fill: url(#linear-gradient-15);
        opacity: .19;
      }

      .cls-30 {
        fill: url(#linear-gradient-10);
      }

      .cls-9 {
        fill: url(#linear-gradient-17);
      }

      .cls-10 {
        fill: url(#linear-gradient-12);
      }

      .cls-31 {
        fill: url(#linear-gradient-16);
      }

      .cls-32 {
        fill: url(#linear-gradient-31);
      }

      .cls-11, .cls-33 {
        fill: #29e2b1;
      }

      .cls-12 {
        opacity: .45;
      }

      .cls-34 {
        fill: url(#linear-gradient-21);
      }

      .cls-35 {
        fill: url(#linear-gradient-25);
      }

      .cls-28 {
        mix-blend-mode: lighten;
      }

      .cls-29 {
        mix-blend-mode: color-burn;
      }

      .cls-13 {
        fill: url(#linear-gradient-24);
      }

      .cls-14 {
        fill: url(#linear-gradient-14);
      }

      .cls-15 {
        fill: url(#linear-gradient-26);
      }

      .cls-36 {
        fill: url(#linear-gradient-9);
      }

      .cls-16 {
        fill: url(#linear-gradient-11);
      }

      .cls-37 {
        fill: url(#linear-gradient-3);
      }

      .cls-17 {
        fill: url(#linear-gradient-7);
      }

      .cls-38 {
        fill: url(#linear-gradient);
      }

      .cls-39 {
        fill: url(#linear-gradient-27);
      }

      .cls-40 {
        fill: url(#linear-gradient-29);
      }

      .cls-41 {
        fill: url(#linear-gradient-23);
      }

      .cls-42 {
        fill: url(#linear-gradient-19);
      }

      .cls-19 {
        fill: url(#linear-gradient-32);
      }

      .cls-20 {
        fill: url(#linear-gradient-20);
      }

      .cls-43 {
        fill: url(#linear-gradient-8);
      }
    </style>
    <linearGradient id="linear-gradient" x1="144.41" y1="41.34" x2="144.41" y2="151.85" gradientUnits="userSpaceOnUse">
      <stop offset="0" stop-color="#f1f2f2"/>
      <stop offset=".26" stop-color="#e9eaea"/>
      <stop offset=".65" stop-color="#d4d6d7"/>
      <stop offset="1" stop-color="#bcbec0"/>
    </linearGradient>
    <linearGradient id="linear-gradient-2" x1="144.08" y1="78.81" x2="144.08" y2="150.2" gradientUnits="userSpaceOnUse">
      <stop offset="0" stop-color="#f1f2f2"/>
      <stop offset=".3" stop-color="#dbdcdd"/>
      <stop offset=".93" stop-color="#a3a5a7"/>
      <stop offset="1" stop-color="#9d9fa1"/>
    </linearGradient>
    <linearGradient id="linear-gradient-3" x1="144.73" y1="42.48" x2="144.73" y2="153.42" gradientUnits="userSpaceOnUse">
      <stop offset="0" stop-color="#e6e7e8"/>
      <stop offset=".19" stop-color="#dedfe0"/>
      <stop offset=".48" stop-color="#c8c9ca"/>
      <stop offset=".84" stop-color="#a4a5a7"/>
      <stop offset="1" stop-color="#939496"/>
    </linearGradient>
    <linearGradient id="linear-gradient-4" x1="157.69" y1="46.45" x2="192.68" y2="28.37" gradientUnits="userSpaceOnUse">
      <stop offset="0" stop-color="#fafbc1"/>
      <stop offset=".03" stop-color="#faf49f"/>
      <stop offset=".09" stop-color="#fcea70"/>
      <stop offset=".14" stop-color="#fde248"/>
      <stop offset=".19" stop-color="#fddc2a"/>
      <stop offset=".24" stop-color="#fed814"/>
      <stop offset=".29" stop-color="#fed507"/>
      <stop offset=".34" stop-color="#ffd503"/>
      <stop offset=".46" stop-color="#fdd002"/>
      <stop offset=".59" stop-color="#f9c202"/>
      <stop offset=".73" stop-color="#f2ac01"/>
      <stop offset=".88" stop-color="#e98c00"/>
      <stop offset="1" stop-color="#e06c00"/>
    </linearGradient>
    <linearGradient id="linear-gradient-5" x1="179.39" y1="73.52" x2="199.64" y2="53.27" xlink:href="#linear-gradient-4"/>
    <linearGradient id="linear-gradient-6" x1="156.6" y1="-11.71" x2="156.6" y2="146.78" xlink:href="#linear-gradient-4"/>
    <linearGradient id="linear-gradient-7" x1="156.42" y1="-14.08" x2="156.42" y2="154.88" xlink:href="#linear-gradient-4"/>
    <linearGradient id="linear-gradient-8" x1="170.97" y1="56.38" x2="188.17" y2="61.12" xlink:href="#linear-gradient-4"/>
    <linearGradient id="linear-gradient-9" x1="167.36" y1="52.71" x2="167.36" y2="116.35" xlink:href="#linear-gradient-4"/>
    <linearGradient id="linear-gradient-10" x1="179.17" y1="20.98" x2="184.11" y2="37.78" xlink:href="#linear-gradient-4"/>
    <linearGradient id="linear-gradient-11" x1="179.39" y1="73.52" x2="199.64" y2="53.27" xlink:href="#linear-gradient-4"/>
    <linearGradient id="linear-gradient-12" x1="170.97" y1="56.38" x2="188.17" y2="61.12" xlink:href="#linear-gradient-4"/>
    <linearGradient id="linear-gradient-13" x1="167.36" y1="52.71" x2="167.36" y2="116.35" xlink:href="#linear-gradient-4"/>
    <linearGradient id="linear-gradient-14" x1="179.17" y1="20.98" x2="184.11" y2="37.78" xlink:href="#linear-gradient-4"/>
    <linearGradient id="linear-gradient-15" x1="157.47" y1="11.06" x2="157.47" y2="132.14" xlink:href="#linear-gradient-4"/>
    <linearGradient id="linear-gradient-16" x1="99.58" y1="64.65" x2="99.58" y2="184.47" xlink:href="#linear-gradient"/>
    <linearGradient id="linear-gradient-17" x1="99.23" y1="105.28" x2="99.23" y2="182.67" xlink:href="#linear-gradient-2"/>
    <linearGradient id="linear-gradient-18" x1="99.93" y1="65.9" x2="99.93" y2="186.17" xlink:href="#linear-gradient-3"/>
    <linearGradient id="linear-gradient-19" x1="120.51" y1="22.9" x2="134.44" y2="56.96" gradientTransform="translate(-29.07 137.33) rotate(-6.18)" gradientUnits="userSpaceOnUse">
      <stop offset="0" stop-color="#8be0ef"/>
      <stop offset=".1" stop-color="#84dced"/>
      <stop offset=".24" stop-color="#71d0e8"/>
      <stop offset=".41" stop-color="#52bee1"/>
      <stop offset=".6" stop-color="#27a5d6"/>
      <stop offset=".75" stop-color="#008fcd"/>
      <stop offset=".87" stop-color="#107eb6"/>
      <stop offset="1" stop-color="#276898"/>
    </linearGradient>
    <linearGradient id="linear-gradient-20" x1="120.03" y1="23.13" x2="133.96" y2="57.2" xlink:href="#linear-gradient-19"/>
    <linearGradient id="linear-gradient-21" x1="161.4" y1="53.61" x2="173.79" y2="83.92" gradientTransform="translate(-42.82 133.32) rotate(-7.94)" xlink:href="#linear-gradient-19"/>
    <linearGradient id="linear-gradient-22" x1="160.96" y1="53.82" x2="173.36" y2="84.13" gradientTransform="translate(-42.82 133.32) rotate(-7.94)" xlink:href="#linear-gradient-19"/>
    <linearGradient id="linear-gradient-23" x1="147.7" y1="115.67" x2="158.11" y2="141.14" gradientTransform="translate(-43.89 28.96) rotate(-6.56)" xlink:href="#linear-gradient-19"/>
    <linearGradient id="linear-gradient-24" x1="147.34" y1="115.85" x2="157.75" y2="141.33" gradientTransform="translate(-43.89 28.96) rotate(-6.56)" xlink:href="#linear-gradient-19"/>
    <linearGradient id="linear-gradient-25" x1="-2.42" y1="-34.46" x2="9.32" y2="-5.73" gradientTransform="translate(56.14 175.05) rotate(5.19)" xlink:href="#linear-gradient-19"/>
    <linearGradient id="linear-gradient-26" x1="-2.83" y1="-34.26" x2="8.92" y2="-5.53" gradientTransform="translate(56.14 175.05) rotate(5.19)" xlink:href="#linear-gradient-19"/>
    <linearGradient id="linear-gradient-27" x1="118.57" y1="68.27" x2="133.33" y2="104.39" gradientTransform="translate(-53.34 130.99) rotate(-9.26)" xlink:href="#linear-gradient-19"/>
    <linearGradient id="linear-gradient-28" x1="118.05" y1="68.51" x2="132.82" y2="104.65" gradientTransform="translate(-53.34 130.99) rotate(-9.26)" xlink:href="#linear-gradient-19"/>
    <linearGradient id="linear-gradient-29" x1="184.78" y1="116.48" x2="201.22" y2="156.68" gradientTransform="translate(-94.62 125.8) rotate(-14.04)" xlink:href="#linear-gradient-19"/>
    <linearGradient id="linear-gradient-30" x1="184.21" y1="116.75" x2="200.65" y2="156.97" gradientTransform="translate(-94.62 125.8) rotate(-14.04)" xlink:href="#linear-gradient-19"/>
    <linearGradient id="linear-gradient-31" x1="41.16" y1="-17.84" x2="54.97" y2="15.92" gradientTransform="translate(-3.77 185.33) rotate(-2.61)" xlink:href="#linear-gradient-19"/>
    <linearGradient id="linear-gradient-32" x1="40.68" y1="-17.61" x2="54.49" y2="16.17" gradientTransform="translate(-3.77 185.33) rotate(-2.61)" xlink:href="#linear-gradient-19"/>
  </defs>
  <g class="cls-25">
    <g id="_레이어_2" data-name="레이어 2">
      <g id="Layer_1" data-name="Layer 1">
        <g>
          <g>
            <g>
              <g>
                <g>
                  <path class="cls-38" d="m72.82,77.17s-1.23-27.76,30.84-35.78c32.08-8.02,50.28,13.57,50.28,13.57,0,0,6.78-8.64,17.58-4.32,10.79,4.32,10.45,13.36,10.45,13.36,0,0,11.76-5.65,24.1,3.91,12.33,9.56,12.03,18.81,12.03,18.81,0,0,20.36,8.33,17.59,28.07-2.78,19.74-24.62,16.12-27.39,9.33-.31,6.48-13.64,22.13-36.16,9.79-8.32,13.27-30.85,21.28-46.58,17.27-15.73-4.01-20.2-9.47-20.2-9.47,0,0-15.48,11.85-37.8-5.03-18.08-13.68-7.7-29.92-7.7-29.92,0,0-12.12-10.86-4.41-24.06,4.52-7.74,17.37-5.54,17.37-5.54Z"/>
                  <path class="cls-3" d="m151.99,100.21c-36.77,6.8-64.61-9.46-81.35-24.07-3.72-.27-12.05-.17-15.51,5.75-7.72,13.2,4.41,24.07,4.41,24.07,0,0-10.38,16.24,7.71,29.92,22.3,16.87,37.85,5.49,37.85,5.49,0,0,4.41,5,20.14,9.01,15.73,4.01,38.24-4.01,46.57-17.28,22.52,12.34,35.85-3.31,36.15-9.79,2.78,6.79,24.61,10.4,27.39-9.34.29-2.07.31-4.01.15-5.83-20.15-11.33-47.18-14.65-83.52-7.93Z"/>
                  <path class="cls-37" d="m219.15,86.04c-.22-2.58-1.79-10.64-12.4-18.86-4.67-3.62-9.78-5.45-15.19-5.45-2.51,0-4.67.4-6.35.87t-.03,0c-.73.17-1.39.37-2.03.62-.5-3.28-2.57-9.99-11.03-13.37-2.13-.85-4.29-1.29-6.39-1.29-5.77,0-9.79,3.19-11.53,4.91-3.4-3.51-15.82-14.68-36.03-14.68-4.64,0-9.44.62-14.24,1.82-26.94,6.73-31.15,25.21-30.59,35.6h0c-5.19-.82-14.98.74-18.08,6.03-6.94,11.88,1.37,22.05,3.92,24.75-1.88,3.67-7.79,18.21,8.44,30.5,7.99,6.05,16.02,9.11,23.84,9.11,7.21,0,12.17-2.63,14.13-3.89,1.93,1.83,7.58,6.2,20.09,9.4,2.79.71,5.82,1.07,9.04,1.07,14.83,0,30.88-7.59,37.97-17.81,5.42,2.81,10.67,4.23,15.61,4.23,11.09,0,19.64-8.06,20.18-13.88,1.23,3.6,6.93,4.59,11.39,4.59,7.27,0,15.14-3.72,16.77-15.39,2.56-18.15-13.8-27.1-17.49-28.88Zm15.07,28.53c-1.79,12.73-11.82,13.72-14.84,13.72-4.59,0-9.46-.72-11.84-6.72.3,1.76-.39,4.09-1.31,5.98-2.31,4.38-8.98,9.59-17.92,9.59-4.63,0-9.61-1.4-14.78-4.14.6-1.9,1.16-4.78,1.36-9.13-1.35,4.38-2.35,7.04-3.72,9.36-6.36,9.98-21.98,17.49-36.43,17.49-3,0-5.84-.34-8.43-1-9.24-2.36-14.01-4.89-16.31-6.48,0,0,0,0,0,0-3.68-3.11-5.81-5.09-8.98-11.47,1.32,4.67,2.61,7.56,3.73,9.36-1.83.93-6.69,3.02-13.26,3.02-7.28,0-14.8-2.9-22.36-8.62-14.57-11.01-9.73-23.55-7.92-27.12h0c2.71-4.31,3.89-5.15,5.37-6.07-2.77.82-4.55,2.07-5.59,2.99-2.16-2.24-9.76-11.31-3.61-21.84,2.51-4.29,8.01-5.19,12.19-5.19,2.2,0,3.8.27,3.81.27l.54.09c.81,3.1,2.27,6.93,2.19,6.7-.62-2.54-1.07-5.22-1.28-7.82v-.23c-.02-.27-.84-26.67,29.71-34.32,4.62-1.15,9.21-1.74,13.65-1.74,20.09,0,33.28,12.82,35.77,15.45.13.14.26.27.38.41.02.03.05.05.05.06h0c2.02,2.25,3.91,4.97,5.78,9.01-1.39-5-3.16-8.38-4.63-10.55,1.12-1.2,4.77-4.6,10.2-4.6,1.79,0,3.63.37,5.48,1.12,7.78,3.11,9.91,9.35,10.46,11.77-1.51.81-2.86,1.87-4.34,3.19,2.54-1.44,4.52-2.19,4.52-2.19.04-.02,4.61-1.26,9.81-1.26,4.85,0,9.36,2.21,13.58,5.48,9.1,7.04,10.98,13.89,11.38,16.53-3.58-.67-10.01-1.35-16.53.59,4.68-1.07,12.63-.04,17.59,1.83,1.95.87,19,9.01,16.54,26.5Z"/>
                </g>
                <path class="cls-27" d="m215.58,88.69c-3.56-.94-10.01-1.35-16.54.59,4.68-1.08,12.64-.05,17.59,1.83,1.77.78,15.86,7.52,16.74,21.73.84-16.01-14.86-23.52-16.74-24.35-.37-.14-.76-.28-1.16-.4.04.22,0,0,.11.61Z"/>
                <path class="cls-27" d="m165.56,54.59c1.65,0,3.34.34,5.05,1.03,5.5,2.2,8.57,5.73,9.62,8.43.22-.13.43-.26.64-.38-.51-2.23-3.11-7.6-10.26-10.46-1.7-.68-3.4-1.03-5.05-1.03-4.99,0-8.01,2.79-8.96,3.8.3.45.6,1.05.91,1.6,1.56-1.37,4.09-2.99,8.05-2.99Z"/>
                <path class="cls-27" d="m75.88,77c.01.16.04.32.05.48.44-6.04,3.81-25.18,28.76-31.42,4.47-1.11,8.92-1.68,13.23-1.68,19.47,0,32.26,12.43,34.68,14.98.12.13.24.26.37.4.04.03.05.05.05.06h0c1.96,2.18,4.07,4.31,6.32,8.39-1.51-4.46-2.78-6.38-4.27-8.39-.67-.93-1.35-1.77-2.05-2.54h0s-.02-.02-.05-.06c-.12-.13-.24-.26-.37-.4-2.41-2.55-15.2-14.98-34.68-14.98-4.3,0-8.76.57-13.23,1.68-29.62,7.41-28.82,33-28.81,33.26v.22Z"/>
                <path class="cls-27" d="m205.01,70.11c-4.04-3.13-8.05-4.91-12.98-5.24,0,0-8.54-.68-14.38,3.81,2.43-1.37,6.55-1.51,6.55-1.51.03-.02,3.08-.8,8.01-.25,4.36.49,8.76,2.55,12.8,5.68,5.37,4.17,8.11,8.26,9.5,11.37.34.03.66.08.97.15-.89-3.16-3.39-8.53-10.48-14.02Z"/>
              </g>
              <g class="cls-12">
                <g>
                  <path class="cls-38" d="m72.82,77.17s-1.23-27.76,30.84-35.78c32.08-8.02,50.28,13.57,50.28,13.57,0,0,6.78-8.64,17.58-4.32,10.79,4.32,10.45,13.36,10.45,13.36,0,0,11.76-5.65,24.1,3.91,12.33,9.56,12.03,18.81,12.03,18.81,0,0,20.36,8.33,17.59,28.07-2.78,19.74-24.62,16.12-27.39,9.33-.31,6.48-13.64,22.13-36.16,9.79-8.32,13.27-30.85,21.28-46.58,17.27-15.73-4.01-20.2-9.47-20.2-9.47,0,0-15.48,11.85-37.8-5.03-18.08-13.68-7.7-29.92-7.7-29.92,0,0-12.12-10.86-4.41-24.06,4.52-7.74,17.37-5.54,17.37-5.54Z"/>
                  <path class="cls-3" d="m151.99,100.21c-36.77,6.8-64.61-9.46-81.35-24.07-3.72-.27-12.05-.17-15.51,5.75-7.72,13.2,4.41,24.07,4.41,24.07,0,0-10.38,16.24,7.71,29.92,22.3,16.87,37.85,5.49,37.85,5.49,0,0,4.41,5,20.14,9.01,15.73,4.01,38.24-4.01,46.57-17.28,22.52,12.34,35.85-3.31,36.15-9.79,2.78,6.79,24.61,10.4,27.39-9.34.29-2.07.31-4.01.15-5.83-20.15-11.33-47.18-14.65-83.52-7.93Z"/>
                  <path class="cls-37" d="m219.15,86.04c-.22-2.58-1.79-10.64-12.4-18.86-4.67-3.62-9.78-5.45-15.19-5.45-2.51,0-4.67.4-6.35.87t-.03,0c-.73.17-1.39.37-2.03.62-.5-3.28-2.57-9.99-11.03-13.37-2.13-.85-4.29-1.29-6.39-1.29-5.77,0-9.79,3.19-11.53,4.91-3.4-3.51-15.82-14.68-36.03-14.68-4.64,0-9.44.62-14.24,1.82-26.94,6.73-31.15,25.21-30.59,35.6h0c-5.19-.82-14.98.74-18.08,6.03-6.94,11.88,1.37,22.05,3.92,24.75-1.88,3.67-7.79,18.21,8.44,30.5,7.99,6.05,16.02,9.11,23.84,9.11,7.21,0,12.17-2.63,14.13-3.89,1.93,1.83,7.58,6.2,20.09,9.4,2.79.71,5.82,1.07,9.04,1.07,14.83,0,30.88-7.59,37.97-17.81,5.42,2.81,10.67,4.23,15.61,4.23,11.09,0,19.64-8.06,20.18-13.88,1.23,3.6,6.93,4.59,11.39,4.59,7.27,0,15.14-3.72,16.77-15.39,2.56-18.15-13.8-27.1-17.49-28.88Zm15.07,28.53c-1.79,12.73-11.82,13.72-14.84,13.72-4.59,0-9.46-.72-11.84-6.72.3,1.76-.39,4.09-1.31,5.98-2.31,4.38-8.98,9.59-17.92,9.59-4.63,0-9.61-1.4-14.78-4.14.6-1.9,1.16-4.78,1.36-9.13-1.35,4.38-2.35,7.04-3.72,9.36-6.36,9.98-21.98,17.49-36.43,17.49-3,0-5.84-.34-8.43-1-9.24-2.36-14.01-4.89-16.31-6.48,0,0,0,0,0,0-3.68-3.11-5.81-5.09-8.98-11.47,1.32,4.67,2.61,7.56,3.73,9.36-1.83.93-6.69,3.02-13.26,3.02-7.28,0-14.8-2.9-22.36-8.62-14.57-11.01-9.73-23.55-7.92-27.12h0c2.71-4.31,3.89-5.15,5.37-6.07-2.77.82-4.55,2.07-5.59,2.99-2.16-2.24-9.76-11.31-3.61-21.84,2.51-4.29,8.01-5.19,12.19-5.19,2.2,0,3.8.27,3.81.27l.54.09c.81,3.1,2.27,6.93,2.19,6.7-.62-2.54-1.07-5.22-1.28-7.82v-.23c-.02-.27-.84-26.67,29.71-34.32,4.62-1.15,9.21-1.74,13.65-1.74,20.09,0,33.28,12.82,35.77,15.45.13.14.26.27.38.41.02.03.05.05.05.06h0c2.02,2.25,3.91,4.97,5.78,9.01-1.39-5-3.16-8.38-4.63-10.55,1.12-1.2,4.77-4.6,10.2-4.6,1.79,0,3.63.37,5.48,1.12,7.78,3.11,9.91,9.35,10.46,11.77-1.51.81-2.86,1.87-4.34,3.19,2.54-1.44,4.52-2.19,4.52-2.19.04-.02,4.61-1.26,9.81-1.26,4.85,0,9.36,2.21,13.58,5.48,9.1,7.04,10.98,13.89,11.38,16.53-3.58-.67-10.01-1.35-16.53.59,4.68-1.07,12.63-.04,17.59,1.83,1.95.87,19,9.01,16.54,26.5Z"/>
                </g>
                <path class="cls-27" d="m215.58,88.69c-3.56-.94-10.01-1.35-16.54.59,4.68-1.08,12.64-.05,17.59,1.83,1.77.78,15.86,7.52,16.74,21.73.84-16.01-14.86-23.52-16.74-24.35-.37-.14-.76-.28-1.16-.4.04.22,0,0,.11.61Z"/>
                <path class="cls-27" d="m165.56,54.59c1.65,0,3.34.34,5.05,1.03,5.5,2.2,8.57,5.73,9.62,8.43.22-.13.43-.26.64-.38-.51-2.23-3.11-7.6-10.26-10.46-1.7-.68-3.4-1.03-5.05-1.03-4.99,0-8.01,2.79-8.96,3.8.3.45.6,1.05.91,1.6,1.56-1.37,4.09-2.99,8.05-2.99Z"/>
                <path class="cls-27" d="m75.88,77c.01.16.04.32.05.48.44-6.04,3.81-25.18,28.76-31.42,4.47-1.11,8.92-1.68,13.23-1.68,19.47,0,32.26,12.43,34.68,14.98.12.13.24.26.37.4.04.03.05.05.05.06h0c1.96,2.18,4.07,4.31,6.32,8.39-1.51-4.46-2.78-6.38-4.27-8.39-.67-.93-1.35-1.77-2.05-2.54h0s-.02-.02-.05-.06c-.12-.13-.24-.26-.37-.4-2.41-2.55-15.2-14.98-34.68-14.98-4.3,0-8.76.57-13.23,1.68-29.62,7.41-28.82,33-28.81,33.26v.22Z"/>
                <path class="cls-27" d="m205.01,70.11c-4.04-3.13-8.05-4.91-12.98-5.24,0,0-8.54-.68-14.38,3.81,2.43-1.37,6.55-1.51,6.55-1.51.03-.02,3.08-.8,8.01-.25,4.36.49,8.76,2.55,12.8,5.68,5.37,4.17,8.11,8.26,9.5,11.37.34.03.66.08.97.15-.89-3.16-3.39-8.53-10.48-14.02Z"/>
              </g>
            </g>
            <g>
              <polygon class="cls-21" points="170.17 46.03 160.98 51.72 163.69 41.32 155.3 33.92 166.16 33.7 170.17 23.69 174.17 33.7 184.75 34.2 176.65 41.32 179.07 51.72 170.17 46.03"/>
              <polygon class="cls-22" points="186.52 62.74 181.78 57.53 188.77 58.02 192.51 51.76 193.94 58.69 200.84 60.06 194.9 63.84 195.85 70.67 190.32 66.33 183.94 69.12 186.52 62.74"/>
              <path class="cls-24" d="m196.44,99.05c-27.35,0-49.52-22.17-49.52-49.53,0-21.48,13.69-39.71,32.8-46.57-21.76-6.84-46.47-1.8-63.96,15.25-25.31,24.71-25.81,65.26-1.09,90.58,24.7,25.3,65.24,25.81,90.56,1.1,4.7-4.59,8.54-9.73,11.52-15.21-6.2,2.8-13.06,4.39-20.31,4.39Z"/>
              <g class="cls-8">
                <path class="cls-17" d="m209.04,97.41c-.25.07-.86.22-1.11.28-1.92,2.63-4.01,5.54-6.39,7.86-10.9,10.63-25.28,16.49-40.5,16.49s-30.5-6.21-41.52-17.49c-22.32-22.89-21.88-59.68,1.01-82.02,10.89-10.62,25.27-16.48,40.49-16.48,3.89,0,6.46.15,10.18.88,1.32-.84,2.65-1.61,4.07-2.23-4.99-1.29-8.94-1.8-14.25-1.8-16.04,0-31.2,6.17-42.69,17.38-24.12,23.55-24.6,62.34-1.06,86.47,11.61,11.89,27.15,18.43,43.77,18.43s31.21-6.17,42.7-17.38c3.56-3.48,6.59-7.36,9.17-11.48-1.37.63-2.43.69-3.87,1.08Z"/>
              </g>
              <path class="cls-43" d="m175.32,57.19c0,.77-.63,1.4-1.39,1.4s-1.4-.63-1.4-1.4.63-1.4,1.4-1.4,1.39.63,1.39,1.4Z"/>
              <path class="cls-36" d="m168.76,70.67c0,.77-.62,1.4-1.39,1.4s-1.4-.63-1.4-1.4.63-1.4,1.4-1.4,1.39.63,1.39,1.4Z"/>
              <path class="cls-30" d="m181.78,25.09c0,.77-.63,1.4-1.39,1.4s-1.41-.63-1.41-1.4.63-1.4,1.41-1.4,1.39.63,1.39,1.4Z"/>
              <g>
                <polygon class="cls-18" points="170.17 46.03 160.98 51.72 163.69 41.32 155.3 33.92 166.16 33.7 170.17 23.69 174.17 33.7 184.75 34.2 176.65 41.32 179.07 51.72 170.17 46.03"/>
                <polygon class="cls-16" points="186.52 62.74 181.78 57.53 188.77 58.02 192.51 51.76 193.94 58.69 200.84 60.06 194.9 63.84 195.85 70.67 190.32 66.33 183.94 69.12 186.52 62.74"/>
                <path class="cls-10" d="m175.32,57.19c0,.77-.63,1.4-1.39,1.4s-1.4-.63-1.4-1.4.63-1.4,1.4-1.4,1.39.63,1.39,1.4Z"/>
                <path class="cls-5" d="m168.76,70.67c0,.77-.62,1.4-1.39,1.4s-1.4-.63-1.4-1.4.63-1.4,1.4-1.4,1.39.63,1.39,1.4Z"/>
                <path class="cls-14" d="m181.78,25.09c0,.77-.63,1.4-1.39,1.4s-1.41-.63-1.41-1.4.63-1.4,1.41-1.4,1.39.63,1.39,1.4Z"/>
              </g>
              <path class="cls-6" d="m98.19,78.9c2.59,10.9,8.07,21.28,16.47,29.88,24.7,25.3,65.24,25.81,90.56,1.1,4.7-4.59,8.54-9.73,11.52-15.21-6.2,2.8-13.06,4.39-20.31,4.39-9.45,0-18.29-2.65-25.81-7.25-2.75.4-5.55.84-8.43,1.38-27.01,4.99-48.69-3.74-64.01-14.28Z"/>
            </g>
            <g>
              <g>
                <path class="cls-31" d="m21.96,103.5s-1.33-30.1,33.45-38.79c34.78-8.69,54.5,14.71,54.5,14.71,0,0,7.35-9.36,19.06-4.68,11.71,4.68,11.34,14.48,11.34,14.48,0,0,12.74-6.13,26.12,4.25,13.38,10.37,13.04,20.39,13.04,20.39,0,0,22.07,9.03,19.06,30.43-3.01,21.4-26.68,17.48-29.69,10.12-.34,7.02-14.79,23.99-39.2,10.61-9.04,14.38-33.44,23.07-50.5,18.73-17.05-4.35-21.89-10.28-21.89-10.28,0,0-16.79,12.85-40.97-5.44-19.61-14.83-8.36-32.44-8.36-32.44,0,0-13.14-11.78-4.78-26.09,4.91-8.39,18.82-6.02,18.82-6.02Z"/>
                <path class="cls-9" d="m107.8,128.48c-39.87,7.37-70.05-10.26-88.19-26.09-4.04-.3-13.07-.19-16.82,6.23-8.36,14.31,4.78,26.09,4.78,26.09,0,0-11.25,17.61,8.36,32.44,24.19,18.29,41.03,5.94,41.03,5.94,0,0,4.79,5.43,21.84,9.77,17.06,4.35,41.47-4.34,50.5-18.72,24.41,13.38,38.86-3.59,39.19-10.61,3.01,7.36,26.68,11.28,29.69-10.12.32-2.25.34-4.36.16-6.34-21.84-12.28-51.14-15.88-90.54-8.59Z"/>
                <path class="cls-23" d="m180.6,113.12c-.24-2.8-1.93-11.53-13.44-20.45-5.06-3.93-10.6-5.92-16.47-5.92-2.72,0-5.06.44-6.88.94,0,0-.02,0-.02,0-.8.17-1.52.4-2.21.67-.54-3.56-2.8-10.84-11.95-14.5-2.32-.92-4.65-1.39-6.93-1.39-6.27,0-10.62,3.46-12.51,5.32-3.69-3.8-17.15-15.92-39.06-15.92-5.03,0-10.23.66-15.44,1.97-29.21,7.3-33.77,27.33-33.17,38.6h0c-5.62-.9-16.25.8-19.6,6.54-7.52,12.88,1.49,23.91,4.26,26.83-2.03,3.98-8.46,19.74,9.15,33.06,8.67,6.55,17.37,9.88,25.85,9.88,7.83,0,13.2-2.85,15.32-4.21,2.09,1.97,8.21,6.72,21.78,10.18,3.02.77,6.31,1.16,9.8,1.16,16.08,0,33.48-8.23,41.16-19.31,5.88,3.05,11.57,4.59,16.92,4.59,12.03,0,21.3-8.73,21.87-15.05,1.33,3.9,7.52,4.98,12.34,4.98,7.88,0,16.41-4.03,18.19-16.69,2.77-19.67-14.96-29.37-18.96-31.3Zm16.34,30.93c-1.94,13.8-12.81,14.88-16.09,14.88-4.98,0-10.26-.78-12.85-7.29.33,1.91-.42,4.44-1.41,6.48-2.51,4.75-9.75,10.4-19.43,10.4-5.03,0-10.42-1.52-16.03-4.48.65-2.07,1.25-5.19,1.47-9.91-1.47,4.76-2.55,7.64-4.04,10.15-6.9,10.81-23.82,18.96-39.49,18.96-3.26,0-6.33-.37-9.14-1.08-10.02-2.56-15.19-5.3-17.67-7.03,0,0-.01,0-.01,0-3.99-3.37-6.3-5.51-9.74-12.43,1.43,5.07,2.84,8.2,4.04,10.15-1.98,1-7.26,3.28-14.38,3.28-7.89,0-16.04-3.14-24.24-9.34-15.79-11.94-10.55-25.53-8.58-29.41,0,0,0,0,0,0,2.94-4.67,4.21-5.58,5.82-6.58-3,.89-4.93,2.24-6.06,3.24-2.34-2.43-10.58-12.26-3.91-23.68,2.72-4.65,8.69-5.63,13.21-5.63,2.39,0,4.12.29,4.13.29l.59.1c.87,3.36,2.45,7.51,2.36,7.26-.68-2.75-1.16-5.66-1.39-8.48v-.25c-.02-.29-.91-28.92,32.22-37.2,5.01-1.25,9.98-1.89,14.8-1.89,21.78,0,36.08,13.9,38.78,16.75.14.15.28.3.42.45.03.03.05.06.05.06h0c2.2,2.44,4.24,5.39,6.27,9.77-1.51-5.43-3.42-9.08-5.02-11.44,1.22-1.31,5.18-4.99,11.06-4.99,1.94,0,3.93.41,5.94,1.21,8.42,3.37,10.74,10.14,11.34,12.76-1.64.87-3.1,2.03-4.71,3.45,2.75-1.56,4.91-2.36,4.91-2.36.05-.02,5-1.37,10.63-1.37,5.26,0,10.14,2.39,14.73,5.95,9.85,7.64,11.9,15.06,12.33,17.93-3.88-.73-10.85-1.46-17.92.64,5.07-1.17,13.7-.06,19.07,1.98,2.11.94,20.6,9.77,17.93,28.74Z"/>
              </g>
              <path class="cls-27" d="m176.74,115.99c-3.85-1.02-10.85-1.46-17.92.64,5.07-1.17,13.7-.05,19.07,1.98,1.92.85,17.2,8.15,18.14,23.56.92-17.36-16.11-25.5-18.14-26.4-.4-.15-.83-.3-1.26-.44.05.24,0,0,.12.66Z"/>
              <path class="cls-27" d="m122.51,79.02c1.78,0,3.63.37,5.47,1.11,5.97,2.39,9.29,6.21,10.44,9.14.22-.14.45-.28.69-.41-.55-2.41-3.37-8.24-11.13-11.34-1.84-.74-3.69-1.12-5.47-1.12-5.41,0-8.69,3.02-9.71,4.12.33.48.64,1.14.99,1.74,1.69-1.48,4.43-3.24,8.72-3.24Z"/>
              <path class="cls-27" d="m25.29,103.32c.01.17.04.34.06.52.47-6.55,4.13-27.3,31.17-34.06,4.85-1.21,9.68-1.83,14.34-1.83,21.12,0,34.98,13.48,37.6,16.23.13.15.26.29.39.44l.06.06h0c2.13,2.36,4.41,4.67,6.85,9.11-1.64-4.84-3.02-6.92-4.62-9.1-.73-1-1.47-1.91-2.22-2.76h0s-.02-.03-.06-.06c-.13-.14-.27-.29-.39-.43-2.62-2.76-16.48-16.23-37.6-16.23-4.67,0-9.49.62-14.34,1.83-32.1,8.03-31.25,35.78-31.24,36.06v.24Z"/>
              <path class="cls-27" d="m165.29,95.84c-4.38-3.39-8.73-5.33-14.07-5.68,0,0-9.26-.74-15.59,4.14,2.63-1.49,7.1-1.64,7.1-1.64.04-.02,3.35-.87,8.69-.27,4.72.54,9.49,2.77,13.87,6.16,5.83,4.52,8.79,8.95,10.3,12.33.37.03.72.08,1.05.16-.96-3.43-3.68-9.24-11.36-15.2Z"/>
            </g>
          </g>
          <g>
            <g>
              <path class="cls-42" d="m112.28,161.25s0,0-.05-.04c-.22-.2-.68-.56-1.24-.91-.11-.08-.19-.16-.31-.23,0,0-.02.02,0,0-.02-.01-.04-.04-.06-.04-.04-.03-.1-.04-.14-.07-2.15-1.33-5.31-3.1-5.72-3.33-5.08-3.56-10.57-7.89-12.16-11.27-4.35,29.87,8.29,33.4,8.29,33.4,0,0,.01-.02.01-.02,1.7.8,3.62,1.19,5.63.99,5.81-.64,10-5.86,9.38-11.66-.3-2.78-1.68-5.14-3.63-6.81Z"/>
              <path class="cls-20" d="m106.4,176.52c-2.23.25-4.37-.2-6.27-1.09h-.01s-3.83-1.09-6.83-6.86c2.61,8.72,7.71,10.19,7.71,10.19,0,0,.01-.02,0-.03,1.72.8,3.63,1.2,5.64.98,5.42-.59,9.36-5.16,9.4-10.49-1.58,3.88-5.15,6.82-9.63,7.3Z"/>
            </g>
            <g>
              <path class="cls-34" d="m141.77,176.16s0,0-.05-.03c-.21-.17-.62-.48-1.12-.78-.1-.06-.17-.14-.29-.19,0,0-.01.02,0,0-.01,0-.03-.04-.05-.04-.04-.03-.09-.03-.13-.06-1.95-1.12-4.8-2.61-5.19-2.8-4.61-3.03-9.61-6.74-11.11-9.69-3.05,26.69,8.28,29.47,8.28,29.47,0,0,0-.01,0-.02,1.54.66,3.26.96,5.04.73,5.15-.73,8.74-5.48,8.02-10.63-.35-2.46-1.64-4.52-3.42-5.96Z"/>
              <path class="cls-4" d="m136.97,189.91c-1.97.28-3.89-.06-5.6-.8l-.02.02s-3.44-.89-6.26-5.93c2.56,7.69,7.13,8.84,7.13,8.84,0,0,.02,0,0-.02,1.55.67,3.26.96,5.05.72,4.81-.67,8.19-4.84,8.07-9.58-1.31,3.49-4.4,6.2-8.37,6.76Z"/>
            </g>
            <g>
              <path class="cls-41" d="m130.37,137.46s0,0-.04-.03c-.17-.15-.52-.41-.94-.68-.09-.05-.14-.12-.23-.17,0,0-.02.01,0,0-.02,0-.03-.03-.05-.03-.04-.02-.08-.03-.1-.05-1.62-.98-3.98-2.29-4.29-2.46-3.81-2.64-7.94-5.85-9.15-8.36-3.11,22.36,6.36,24.93,6.36,24.93,0,0,0,0,0-.02,1.28.59,2.72.88,4.22.71,4.34-.51,7.45-4.43,6.96-8.77-.24-2.07-1.29-3.83-2.75-5.08Z"/>
              <path class="cls-13" d="m126.06,148.91c-1.66.19-3.26-.13-4.7-.78h0s-2.87-.8-5.14-5.1c1.99,6.51,5.82,7.57,5.82,7.57,0,0,0,0,0-.02,1.29.59,2.72.88,4.23.71,4.05-.47,6.97-3.91,6.97-7.89-1.16,2.91-3.82,5.12-7.17,5.5Z"/>
            </g>
            <g>
              <path class="cls-35" d="m70.27,155.35s0,0-.04-.04c-.16-.2-.47-.57-.88-.96-.08-.08-.13-.16-.22-.24,0,0-.02.01,0,0-.01,0-.03-.04-.04-.04-.02-.03-.08-.05-.1-.08-1.56-1.46-3.88-3.45-4.19-3.7-3.6-3.79-7.42-8.29-8.17-11.34-8.57,23.98,1.3,28.99,1.3,28.99,0,0,.01,0,.02-.01,1.27.94,2.79,1.59,4.49,1.76,4.91.44,9.25-3.18,9.69-8.08.22-2.35-.53-4.53-1.86-6.24Z"/>
              <path class="cls-15" d="m62.87,167.01c-1.89-.16-3.58-.89-5.01-1.95v.02s-3-1.56-4.52-6.82c.71,7.65,4.68,9.7,4.68,9.7,0,0,.01-.01,0-.02,1.29.95,2.8,1.59,4.5,1.75,4.58.42,8.6-2.7,9.51-7.1-1.96,2.94-5.39,4.77-9.18,4.43Z"/>
            </g>
            <g>
              <path class="cls-39" d="m95.66,193.17s0-.01-.07-.05c-.25-.19-.75-.55-1.36-.9-.13-.06-.21-.16-.34-.22.01-.02-.03.02,0,0-.02-.01-.04-.05-.07-.06-.06-.03-.11-.03-.16-.05-2.35-1.29-5.81-2.97-6.25-3.2-5.57-3.48-11.64-7.75-13.51-11.24-2.9,31.89,10.68,34.9,10.68,34.9,0,0,.01-.02.01-.02,1.85.74,3.9,1.06,6.02.71,6.11-1,10.27-6.76,9.28-12.89-.48-2.91-2.06-5.33-4.24-6.99Z"/>
              <path class="cls-2" d="m90.32,209.67c-2.35.38-4.65.03-6.73-.81,0,0,0,.03,0,.03,0,0-4.12-.96-7.62-6.9,3.26,9.1,8.75,10.35,8.75,10.35,0,0,.02-.02,0-.03,1.85.75,3.9,1.06,6.03.72,5.7-.93,9.63-6,9.35-11.64-1.46,4.2-5.08,7.5-9.78,8.28Z"/>
            </g>
            <g>
              <path class="cls-40" d="m137.48,207.4s0-.01-.07-.04c-.3-.19-.88-.54-1.6-.87-.15-.06-.27-.15-.39-.22,0-.02-.03.02,0,0-.03,0-.06-.05-.08-.05-.06-.01-.13-.01-.18-.04-2.74-1.21-6.71-2.77-7.24-2.97-6.51-3.34-13.62-7.52-16.03-11.21-.26,35.64,15.09,37.71,15.09,37.71l.02-.03c2.11.67,4.41.82,6.73.24,6.71-1.68,10.77-8.46,9.1-15.15-.8-3.18-2.79-5.72-5.35-7.37Z"/>
              <path class="cls-1" d="m133.09,226.21c-2.57.64-5.15.47-7.54-.27,0,0,0,.03,0,.03,0,0-4.68-.68-9.11-6.94,4.46,9.78,10.67,10.66,10.67,10.66,0,0,0-.02,0-.03,2.14.66,4.44.81,6.75.23,6.23-1.56,10.12-7.55,9.29-13.77-1.22,4.8-4.93,8.79-10.07,10.09Z"/>
            </g>
            <g class="cls-29">
              <path class="cls-33" d="m112.28,161.25s0,0-.05-.04c-.22-.2-.68-.56-1.24-.91-.11-.08-.19-.16-.31-.23,0,0-.02.02,0,0-.02-.01-.04-.04-.06-.04-.04-.03-.1-.04-.14-.07-2.15-1.33-5.31-3.1-5.72-3.33-5.08-3.56-10.57-7.89-12.16-11.27-4.35,29.87,8.29,33.4,8.29,33.4,0,0,.01-.02.01-.02,1.7.8,3.62,1.19,5.63.99,5.81-.64,10-5.86,9.38-11.66-.3-2.78-1.68-5.14-3.63-6.81Z"/>
              <path class="cls-11" d="m106.4,176.52c-2.23.25-4.37-.2-6.27-1.09h-.01s-3.83-1.09-6.83-6.86c2.61,8.72,7.71,10.19,7.71,10.19,0,0,.01-.02,0-.03,1.72.8,3.63,1.2,5.64.98,5.42-.59,9.36-5.16,9.4-10.49-1.58,3.88-5.15,6.82-9.63,7.3Z"/>
            </g>
            <g class="cls-29">
              <path class="cls-33" d="m141.77,176.16s0,0-.05-.03c-.21-.17-.62-.48-1.12-.78-.1-.06-.17-.14-.29-.19,0,0-.01.02,0,0-.01,0-.03-.04-.05-.04-.04-.03-.09-.03-.13-.06-1.95-1.12-4.8-2.61-5.19-2.8-4.61-3.03-9.61-6.74-11.11-9.69-3.05,26.69,8.28,29.47,8.28,29.47,0,0,0-.01,0-.02,1.54.66,3.26.96,5.04.73,5.15-.73,8.74-5.48,8.02-10.63-.35-2.46-1.64-4.52-3.42-5.96Z"/>
              <path class="cls-11" d="m136.97,189.91c-1.97.28-3.89-.06-5.6-.8l-.02.02s-3.44-.89-6.26-5.93c2.56,7.69,7.13,8.84,7.13,8.84,0,0,.02,0,0-.02,1.55.67,3.26.96,5.05.72,4.81-.67,8.19-4.84,8.07-9.58-1.31,3.49-4.4,6.2-8.37,6.76Z"/>
            </g>
            <g class="cls-29">
              <path class="cls-33" d="m130.37,137.46s0,0-.04-.03c-.17-.15-.52-.41-.94-.68-.09-.05-.14-.12-.23-.17,0,0-.02.01,0,0-.02,0-.03-.03-.05-.03-.04-.02-.08-.03-.1-.05-1.62-.98-3.98-2.29-4.29-2.46-3.81-2.64-7.94-5.85-9.15-8.36-3.11,22.36,6.36,24.93,6.36,24.93,0,0,0,0,0-.02,1.28.59,2.72.88,4.22.71,4.34-.51,7.45-4.43,6.96-8.77-.24-2.07-1.29-3.83-2.75-5.08Z"/>
              <path class="cls-11" d="m126.06,148.91c-1.66.19-3.26-.13-4.7-.78h0s-2.87-.8-5.14-5.1c1.99,6.51,5.82,7.57,5.82,7.57,0,0,0,0,0-.02,1.29.59,2.72.88,4.23.71,4.05-.47,6.97-3.91,6.97-7.89-1.16,2.91-3.82,5.12-7.17,5.5Z"/>
            </g>
            <g class="cls-29">
              <path class="cls-33" d="m70.27,155.35s0,0-.04-.04c-.16-.2-.47-.57-.88-.96-.08-.08-.13-.16-.22-.24,0,0-.02.01,0,0-.01,0-.03-.04-.04-.04-.02-.03-.08-.05-.1-.08-1.56-1.46-3.88-3.45-4.19-3.7-3.6-3.79-7.42-8.29-8.17-11.34-8.57,23.98,1.3,28.99,1.3,28.99,0,0,.01,0,.02-.01,1.27.94,2.79,1.59,4.49,1.76,4.91.44,9.25-3.18,9.69-8.08.22-2.35-.53-4.53-1.86-6.24Z"/>
              <path class="cls-11" d="m62.87,167.01c-1.89-.16-3.58-.89-5.01-1.95v.02s-3-1.56-4.52-6.82c.71,7.65,4.68,9.7,4.68,9.7,0,0,.01-.01,0-.02,1.29.95,2.8,1.59,4.5,1.75,4.58.42,8.6-2.7,9.51-7.1-1.96,2.94-5.39,4.77-9.18,4.43Z"/>
            </g>
            <g class="cls-29">
              <path class="cls-33" d="m95.66,193.17s0-.01-.07-.05c-.25-.19-.75-.55-1.36-.9-.13-.06-.21-.16-.34-.22.01-.02-.03.02,0,0-.02-.01-.04-.05-.07-.06-.06-.03-.11-.03-.16-.05-2.35-1.29-5.81-2.97-6.25-3.2-5.57-3.48-11.64-7.75-13.51-11.24-2.9,31.89,10.68,34.9,10.68,34.9,0,0,.01-.02.01-.02,1.85.74,3.9,1.06,6.02.71,6.11-1,10.27-6.76,9.28-12.89-.48-2.91-2.06-5.33-4.24-6.99Z"/>
              <path class="cls-11" d="m90.32,209.67c-2.35.38-4.65.03-6.73-.81,0,0,0,.03,0,.03,0,0-4.12-.96-7.62-6.9,3.26,9.1,8.75,10.35,8.75,10.35,0,0,.02-.02,0-.03,1.85.75,3.9,1.06,6.03.72,5.7-.93,9.63-6,9.35-11.64-1.46,4.2-5.08,7.5-9.78,8.28Z"/>
            </g>
            <g class="cls-29">
              <path class="cls-33" d="m137.48,207.4s0-.01-.07-.04c-.3-.19-.88-.54-1.6-.87-.15-.06-.27-.15-.39-.22,0-.02-.03.02,0,0-.03,0-.06-.05-.08-.05-.06-.01-.13-.01-.18-.04-2.74-1.21-6.71-2.77-7.24-2.97-6.51-3.34-13.62-7.52-16.03-11.21-.26,35.64,15.09,37.71,15.09,37.71l.02-.03c2.11.67,4.41.82,6.73.24,6.71-1.68,10.77-8.46,9.1-15.15-.8-3.18-2.79-5.72-5.35-7.37Z"/>
              <path class="cls-11" d="m133.09,226.21c-2.57.64-5.15.47-7.54-.27,0,0,0,.03,0,.03,0,0-4.68-.68-9.11-6.94,4.46,9.78,10.67,10.66,10.67,10.66,0,0,0-.02,0-.03,2.14.66,4.44.81,6.75.23,6.23-1.56,10.12-7.55,9.29-13.77-1.22,4.8-4.93,8.79-10.07,10.09Z"/>
            </g>
            <g class="cls-28">
              <path class="cls-26" d="m112.28,161.25s0,0-.05-.04c-.22-.2-.68-.56-1.24-.91-.11-.08-.19-.16-.31-.23,0,0-.02.02,0,0-.02-.01-.04-.04-.06-.04-.04-.03-.1-.04-.14-.07-2.15-1.33-5.31-3.1-5.72-3.33-5.08-3.56-10.57-7.89-12.16-11.27-4.35,29.87,8.29,33.4,8.29,33.4,0,0,.01-.02.01-.02,1.7.8,3.62,1.19,5.63.99,5.81-.64,10-5.86,9.38-11.66-.3-2.78-1.68-5.14-3.63-6.81Z"/>
              <path class="cls-7" d="m106.4,176.52c-2.23.25-4.37-.2-6.27-1.09h-.01s-3.83-1.09-6.83-6.86c2.61,8.72,7.71,10.19,7.71,10.19,0,0,.01-.02,0-.03,1.72.8,3.63,1.2,5.64.98,5.42-.59,9.36-5.16,9.4-10.49-1.58,3.88-5.15,6.82-9.63,7.3Z"/>
            </g>
            <g class="cls-28">
              <path class="cls-26" d="m141.77,176.16s0,0-.05-.03c-.21-.17-.62-.48-1.12-.78-.1-.06-.17-.14-.29-.19,0,0-.01.02,0,0-.01,0-.03-.04-.05-.04-.04-.03-.09-.03-.13-.06-1.95-1.12-4.8-2.61-5.19-2.8-4.61-3.03-9.61-6.74-11.11-9.69-3.05,26.69,8.28,29.47,8.28,29.47,0,0,0-.01,0-.02,1.54.66,3.26.96,5.04.73,5.15-.73,8.74-5.48,8.02-10.63-.35-2.46-1.64-4.52-3.42-5.96Z"/>
              <path class="cls-7" d="m136.97,189.91c-1.97.28-3.89-.06-5.6-.8l-.02.02s-3.44-.89-6.26-5.93c2.56,7.69,7.13,8.84,7.13,8.84,0,0,.02,0,0-.02,1.55.67,3.26.96,5.05.72,4.81-.67,8.19-4.84,8.07-9.58-1.31,3.49-4.4,6.2-8.37,6.76Z"/>
            </g>
            <g>
              <path class="cls-32" d="m54.53,180.77s0,0-.05-.04c-.22-.21-.64-.59-1.18-.98-.1-.08-.18-.17-.29-.24,0,0-.03.02,0,0-.02,0-.04-.04-.06-.04-.03-.03-.09-.04-.14-.08-2.04-1.45-5.06-3.39-5.45-3.64-4.8-3.83-9.98-8.47-11.33-11.9-6.15,29.29,6.14,33.55,6.14,33.55,0,0,.01-.01.01-.02,1.63.9,3.51,1.41,5.51,1.33,5.79-.27,10.25-5.18,9.99-10.96-.13-2.76-1.35-5.19-3.17-6.97Z"/>
              <path class="cls-19" d="m47.77,195.52c-2.22.11-4.31-.47-6.14-1.46h-.01s-3.73-1.33-6.34-7.21c2.05,8.79,7.01,10.55,7.01,10.55,0,0,0,0,0-.02,1.65.91,3.52,1.4,5.53,1.32,5.4-.24,9.58-4.52,9.94-9.79-1.81,3.74-5.52,6.42-9.98,6.62Z"/>
            </g>
            <g class="cls-29">
              <path class="cls-33" d="m54.53,180.77s0,0-.05-.04c-.22-.21-.64-.59-1.18-.98-.1-.08-.18-.17-.29-.24,0,0-.03.02,0,0-.02,0-.04-.04-.06-.04-.03-.03-.09-.04-.14-.08-2.04-1.45-5.06-3.39-5.45-3.64-4.8-3.83-9.98-8.47-11.33-11.9-6.15,29.29,6.14,33.55,6.14,33.55,0,0,.01-.01.01-.02,1.63.9,3.51,1.41,5.51,1.33,5.79-.27,10.25-5.18,9.99-10.96-.13-2.76-1.35-5.19-3.17-6.97Z"/>
              <path class="cls-11" d="m47.77,195.52c-2.22.11-4.31-.47-6.14-1.46h-.01s-3.73-1.33-6.34-7.21c2.05,8.79,7.01,10.55,7.01,10.55,0,0,0,0,0-.02,1.65.91,3.52,1.4,5.53,1.32,5.4-.24,9.58-4.52,9.94-9.79-1.81,3.74-5.52,6.42-9.98,6.62Z"/>
            </g>
            <g class="cls-28">
              <path class="cls-26" d="m54.53,180.77s0,0-.05-.04c-.22-.21-.64-.59-1.18-.98-.1-.08-.18-.17-.29-.24,0,0-.03.02,0,0-.02,0-.04-.04-.06-.04-.03-.03-.09-.04-.14-.08-2.04-1.45-5.06-3.39-5.45-3.64-4.8-3.83-9.98-8.47-11.33-11.9-6.15,29.29,6.14,33.55,6.14,33.55,0,0,.01-.01.01-.02,1.63.9,3.51,1.41,5.51,1.33,5.79-.27,10.25-5.18,9.99-10.96-.13-2.76-1.35-5.19-3.17-6.97Z"/>
              <path class="cls-7" d="m47.77,195.52c-2.22.11-4.31-.47-6.14-1.46h-.01s-3.73-1.33-6.34-7.21c2.05,8.79,7.01,10.55,7.01,10.55,0,0,0,0,0-.02,1.65.91,3.52,1.4,5.53,1.32,5.4-.24,9.58-4.52,9.94-9.79-1.81,3.74-5.52,6.42-9.98,6.62Z"/>
            </g>
            <g class="cls-28">
              <path class="cls-26" d="m130.37,137.46s0,0-.04-.03c-.17-.15-.52-.41-.94-.68-.09-.05-.14-.12-.23-.17,0,0-.02.01,0,0-.02,0-.03-.03-.05-.03-.04-.02-.08-.03-.1-.05-1.62-.98-3.98-2.29-4.29-2.46-3.81-2.64-7.94-5.85-9.15-8.36-3.11,22.36,6.36,24.93,6.36,24.93,0,0,0,0,0-.02,1.28.59,2.72.88,4.22.71,4.34-.51,7.45-4.43,6.96-8.77-.24-2.07-1.29-3.83-2.75-5.08Z"/>
              <path class="cls-7" d="m126.06,148.91c-1.66.19-3.26-.13-4.7-.78h0s-2.87-.8-5.14-5.1c1.99,6.51,5.82,7.57,5.82,7.57,0,0,0,0,0-.02,1.29.59,2.72.88,4.23.71,4.05-.47,6.97-3.91,6.97-7.89-1.16,2.91-3.82,5.12-7.17,5.5Z"/>
            </g>
            <g class="cls-28">
              <path class="cls-26" d="m70.27,155.35s0,0-.04-.04c-.16-.2-.47-.57-.88-.96-.08-.08-.13-.16-.22-.24,0,0-.02.01,0,0-.01,0-.03-.04-.04-.04-.02-.03-.08-.05-.1-.08-1.56-1.46-3.88-3.45-4.19-3.7-3.6-3.79-7.42-8.29-8.17-11.34-8.57,23.98,1.3,28.99,1.3,28.99,0,0,.01,0,.02-.01,1.27.94,2.79,1.59,4.49,1.76,4.91.44,9.25-3.18,9.69-8.08.22-2.35-.53-4.53-1.86-6.24Z"/>
              <path class="cls-7" d="m62.87,167.01c-1.89-.16-3.58-.89-5.01-1.95v.02s-3-1.56-4.52-6.82c.71,7.65,4.68,9.7,4.68,9.7,0,0,.01-.01,0-.02,1.29.95,2.8,1.59,4.5,1.75,4.58.42,8.6-2.7,9.51-7.1-1.96,2.94-5.39,4.77-9.18,4.43Z"/>
            </g>
            <g class="cls-28">
              <path class="cls-26" d="m95.66,193.17s0-.01-.07-.05c-.25-.19-.75-.55-1.36-.9-.13-.06-.21-.16-.34-.22.01-.02-.03.02,0,0-.02-.01-.04-.05-.07-.06-.06-.03-.11-.03-.16-.05-2.35-1.29-5.81-2.97-6.25-3.2-5.57-3.48-11.64-7.75-13.51-11.24-2.9,31.89,10.68,34.9,10.68,34.9,0,0,.01-.02.01-.02,1.85.74,3.9,1.06,6.02.71,6.11-1,10.27-6.76,9.28-12.89-.48-2.91-2.06-5.33-4.24-6.99Z"/>
              <path class="cls-7" d="m90.32,209.67c-2.35.38-4.65.03-6.73-.81,0,0,0,.03,0,.03,0,0-4.12-.96-7.62-6.9,3.26,9.1,8.75,10.35,8.75,10.35,0,0,.02-.02,0-.03,1.85.75,3.9,1.06,6.03.72,5.7-.93,9.63-6,9.35-11.64-1.46,4.2-5.08,7.5-9.78,8.28Z"/>
            </g>
            <g class="cls-28">
              <path class="cls-26" d="m137.48,207.4s0-.01-.07-.04c-.3-.19-.88-.54-1.6-.87-.15-.06-.27-.15-.39-.22,0-.02-.03.02,0,0-.03,0-.06-.05-.08-.05-.06-.01-.13-.01-.18-.04-2.74-1.21-6.71-2.77-7.24-2.97-6.51-3.34-13.62-7.52-16.03-11.21-.26,35.64,15.09,37.71,15.09,37.71l.02-.03c2.11.67,4.41.82,6.73.24,6.71-1.68,10.77-8.46,9.1-15.15-.8-3.18-2.79-5.72-5.35-7.37Z"/>
              <path class="cls-7" d="m133.09,226.21c-2.57.64-5.15.47-7.54-.27,0,0,0,.03,0,.03,0,0-4.68-.68-9.11-6.94,4.46,9.78,10.67,10.66,10.67,10.66,0,0,0-.02,0-.03,2.14.66,4.44.81,6.75.23,6.23-1.56,10.12-7.55,9.29-13.77-1.22,4.8-4.93,8.79-10.07,10.09Z"/>
            </g>
          </g>
        </g>
      </g>
    </g>
  </g>
</svg>